<svg xmlns="http://www.w3.org/2000/svg" xmlns:xlink="http://www.w3.org/1999/xlink" width="503.348" height="512.299" viewBox="0 0 503.348 512.299">
<style xmlns="http://www.w3.org/2000/svg">
      .hover-amitmation, #Group_1135, #Group_1133{animation: hover 2s ease-in-out infinite; transform-origin: center; transform-box: fill-box;}
      #Group_1133, #Group_1135{animation-delay:1s}
      @-webkit-keyframes hover {
        0%{transform: translateY(0);}
        50%{transform: translateY(-10px);}
        100%{transform: translateY(0);}
      }
      #Group_1133{animation: hover2 3s ease-in-out infinite; transform-origin: center; transform-box: fill-box;}
      @-webkit-keyframes hover2 {
        0%{transform: translateX(0);}
        50%{transform: translateX(-5px);}
        100%{transform: translateX(0);}
      }
    </style>
  <defs>
    <clipPath id="clip-path">
      <rect id="Rectangle_607" data-name="Rectangle 607" width="281.247" height="163.025" fill="#ddd"/>
    </clipPath>
    <clipPath id="clip-path-2">
      <rect id="Rectangle_610" data-name="Rectangle 610" width="277.292" height="174.556" fill="#fff"/>
    </clipPath>
    <clipPath id="clip-path-3">
      <rect id="Rectangle_627" data-name="Rectangle 627" width="60.909" height="46.864" fill="#fff"/>
    </clipPath>
    <clipPath id="clip-path-4">
      <rect id="Rectangle_628" data-name="Rectangle 628" width="12.61" height="21.711" fill="#0a58ca"/>
    </clipPath>
    <clipPath id="clip-path-5">
      <rect id="Rectangle_629" data-name="Rectangle 629" width="12.611" height="21.711" fill="#0a58ca"/>
    </clipPath>
    <clipPath id="clip-path-6">
      <rect id="Rectangle_630" data-name="Rectangle 630" width="12.611" height="21.71" fill="#0a58ca"/>
    </clipPath>
    <clipPath id="clip-path-9">
      <rect id="Rectangle_666" data-name="Rectangle 666" width="4.38" height="3.185" fill="#fff"/>
    </clipPath>
    <clipPath id="clip-path-10">
      <rect id="Rectangle_614" data-name="Rectangle 614" width="15.107" height="11.591" fill="#ddd"/>
    </clipPath>
    <clipPath id="clip-path-11">
      <rect id="Rectangle_611" data-name="Rectangle 611" width="4.048" height="5.206" fill="#ddd"/>
    </clipPath>
    <clipPath id="clip-path-12">
      <rect id="Rectangle_612" data-name="Rectangle 612" width="4.049" height="5.208" fill="#ddd"/>
    </clipPath>
    <clipPath id="clip-path-13">
      <rect id="Rectangle_613" data-name="Rectangle 613" width="4.048" height="5.207" fill="#ddd"/>
    </clipPath>
    <clipPath id="clip-path-14">
      <rect id="Rectangle_608" data-name="Rectangle 608" width="10.426" height="227.454" fill="#ddd"/>
    </clipPath>
    <clipPath id="clip-path-15">
      <rect id="Rectangle_626" data-name="Rectangle 626" width="92.488" height="95.971" fill="red"/>
    </clipPath>
    <clipPath id="clip-path-16">
      <rect id="Rectangle_615" data-name="Rectangle 615" width="9.151" height="15.747" fill="red"/>
    </clipPath>
    <clipPath id="clip-path-17">
      <rect id="Rectangle_616" data-name="Rectangle 616" width="9.151" height="15.746" fill="red"/>
    </clipPath>
    <clipPath id="clip-path-19">
      <rect id="Rectangle_618" data-name="Rectangle 618" width="54.286" height="35.426" fill="red"/>
    </clipPath>
    <clipPath id="clip-path-21">
      <rect id="Rectangle_620" data-name="Rectangle 620" width="54.287" height="35.435" fill="red"/>
    </clipPath>
    <clipPath id="clip-path-22">
      <rect id="Rectangle_621" data-name="Rectangle 621" width="54.287" height="35.426" fill="red"/>
    </clipPath>
    <clipPath id="clip-path-23">
      <rect id="Rectangle_622" data-name="Rectangle 622" width="9.151" height="15.754" fill="red"/>
    </clipPath>
    <clipPath id="clip-path-24">
      <rect id="Rectangle_623" data-name="Rectangle 623" width="18.767" height="21.307" fill="red"/>
    </clipPath>
    <clipPath id="clip-path-25">
      <rect id="Rectangle_624" data-name="Rectangle 624" width="18.768" height="21.299" fill="red"/>
    </clipPath>
    <clipPath id="clip-path-26">
      <rect id="Rectangle_625" data-name="Rectangle 625" width="18.768" height="21.298" fill="red"/>
    </clipPath>
    <clipPath id="clip-path-28">
      <rect id="Rectangle_634" data-name="Rectangle 634" width="60.909" height="46.864" fill="#ddd"/>
    </clipPath>
    <clipPath id="clip-path-29">
      <rect id="Rectangle_659" data-name="Rectangle 659" width="110.944" height="65.297" fill="#3283fb"/>
    </clipPath>
    <clipPath id="clip-path-30">
      <rect id="Rectangle_660" data-name="Rectangle 660" width="8.592" height="143.993" fill="#0a58ca"/>
    </clipPath>
  </defs>
  <g id="Group_1138" data-name="Group 1138" transform="translate(-4404 -745)">
    <path id="Path_1788" data-name="Path 1788" d="M136.876,249.147,418.609,410.679l14.451-8.423L151.26,240.763Z" transform="translate(4423.475 779.255)" fill="rgba(221,221,221,0.4)"/>
    <path id="Path_1806" data-name="Path 1806" d="M415.66,381.6l.372-211.628a16.31,16.31,0,0,0-7.4-12.815L146.209,6.047c-2.036-1.175-3.884-1.294-5.231-.54l7.763-4.5v.007c1.358-.861,3.271-.789,5.393.435L416.557,152.561a16.308,16.308,0,0,1,7.4,12.815L423.584,377c-.007,2.221-.758,3.807-1.974,4.626l-.008.006a3.488,3.488,0,0,1-.416.239l-7.656,4.458c1.31-.784,2.122-2.417,2.129-4.732" transform="translate(4424.059 745.062)" fill="#ba68c8"/>
    <g id="Group_836" data-name="Group 836" transform="translate(4565.037 745.501)">
      <g id="Group_835" data-name="Group 835">
        <g id="Group_834" data-name="Group 834" clip-path="url(#clip-path)">
          <path id="Path_1807" data-name="Path 1807" d="M148.74,1.009v.007c1.359-.861,3.271-.789,5.394.435l262.424,151.11a15.547,15.547,0,0,1,5.669,6.319l-7.931,4.584a15.531,15.531,0,0,0-5.662-6.3L146.209,6.048c-2.037-1.175-3.885-1.294-5.232-.54Z" transform="translate(-140.978 -0.439)" fill="#ddd"/>
        </g>
      </g>
    </g>
    <path id="Path_1809" data-name="Path 1809" d="M416.333,177.2l-.351,202.013c-.007,2.315-.82,3.948-2.129,4.732-.039.023-.077.046-.117.067-.017.01-.038.017-.056.026-1.338.7-3.148.57-5.146-.583L146.11,232.342a16.321,16.321,0,0,1-7.4-12.815l.352-202.274Z" transform="translate(4423.736 747.454)" fill="#f2f2f2"/>
    <path id="Path_1811" data-name="Path 1811" d="M167.6,220.961l.292-167.885L393.6,182.836l-.3,167.642Z" transform="translate(4427.846 752.551)" fill="#fff"/>
    <path id="Path_1812" data-name="Path 1812" d="M249.407,198.432l.129-86.793L349.6,169.168l-.129,86.684Z" transform="translate(4439.486 760.884)" fill="#ddd"/>
    <path id="Path_1813" data-name="Path 1813" d="M139.04,9.719c.007-2.315.821-3.948,2.132-4.731l.035-.025.049-.029c1.347-.754,3.2-.635,5.232.541l262.424,151.11a16.311,16.311,0,0,1,7.4,12.816l-.022,9.615L139.019,19.073Z" transform="translate(4423.78 745.634)" fill="#ba68c8"/>
    <g id="Group_845" data-name="Group 845" transform="translate(4562.799 750.094)">
      <g id="Group_844" data-name="Group 844">
        <g id="Group_843" data-name="Group 843" clip-path="url(#clip-path-2)">
          <path id="Path_1814" data-name="Path 1814" d="M139.04,9.719c.007-2.315.821-3.948,2.132-4.731l.035-.025.049-.029c1.347-.754,3.2-.635,5.232.541l262.424,151.11a16.311,16.311,0,0,1,7.4,12.816l-.022,9.615L139.019,19.073Z" transform="translate(-139.019 -4.46)" fill="#fff"/>
        </g>
      </g>
    </g>
    <path id="Path_1818" data-name="Path 1818" d="M155.52,78.415l-.03,10.541Z" transform="translate(4426.123 756.157)" fill="#fff"/>
    <path id="Path_1819" data-name="Path 1819" d="M156.622,91.85l-9.174-5.3,9.174,5.3-.03,10.541Z" transform="translate(4424.979 757.314)" fill="#fff"/>
    <path id="Path_1820" data-name="Path 1820" d="M147.413,99.322l9.173,5.3Z" transform="translate(4424.974 759.131)" fill="#fff"/>
    <path id="Path_1821" data-name="Path 1821" d="M156.455,151.068l-9.174-5.3Z" transform="translate(4424.955 765.74)" fill="#fff"/>
    <path id="Path_1822" data-name="Path 1822" d="M147.531,57.463l9.174,5.3Z" transform="translate(4424.991 753.176)" fill="#fff"/>
    <path id="Path_1823" data-name="Path 1823" d="M150.915,62.963l5.3,3.058-.03,10.542.03-10.542Z" transform="translate(4425.473 753.958)" fill="#fff"/>
    <path id="Path_1824" data-name="Path 1824" d="M147.5,70.232l9.174,5.3Z" transform="translate(4424.986 754.992)" fill="#fff"/>
    <path id="Path_1825" data-name="Path 1825" d="M147.459,83.007l9.174,5.3Z" transform="translate(4424.981 756.81)" fill="#fff"/>
    <path id="Path_1826" data-name="Path 1826" d="M150.639,160.506l5.3,3.058-.03,10.541h0l.031-10.541Z" transform="translate(4425.433 767.836)" fill="#fff"/>
    <path id="Path_1827" data-name="Path 1827" d="M147.353,120.228l9.174,5.3Z" transform="translate(4424.966 762.106)" fill="#fff"/>
    <path id="Path_1828" data-name="Path 1828" d="M147.317,133l9.174,5.3Z" transform="translate(4424.961 763.923)" fill="#fff"/>
    <path id="Path_1829" data-name="Path 1829" d="M147.489,73.778l9.174,5.3-.03,10.541-9.174-5.3Z" transform="translate(4424.981 755.497)" fill="#fff"/>
    <path id="Path_1830" data-name="Path 1830" d="M156.6,102.391l-9.174-5.3.03-10.541,9.174,5.3Z" transform="translate(4424.975 757.314)" fill="#fff"/>
    <path id="Path_1831" data-name="Path 1831" d="M147.321,133l9.174,5.3-.03,10.541-9.174-5.3Z" transform="translate(4424.957 763.923)" fill="#fff"/>
    <path id="Path_1832" data-name="Path 1832" d="M156.428,161.609l-9.174-5.3.03-10.541,9.174,5.3Z" transform="translate(4424.952 765.74)" fill="#fff"/>
    <path id="Path_1833" data-name="Path 1833" d="M147.357,120.228l9.174,5.3-.03,10.541-9.174-5.3Z" transform="translate(4424.962 762.106)" fill="#fff"/>
    <path id="Path_1834" data-name="Path 1834" d="M144.588,191.456l15.087,8.711.215-75.693-15.09-8.711Zm3.076-41.416,9.174,5.3-.03,10.541-9.175-5.3Zm9.226-13.34-9.174-5.3.03-10.542,9.174,5.3Zm-.041,14.594-9.174-5.3.03-10.541,9.174,5.3Zm-.083,29.177h0l-9.174-5.3.03-10.541,3.878,2.239,5.3,3.058Zm-9.215,9.289.03-10.541,9.174,5.3-.03,10.542Z" transform="translate(4424.572 761.47)" fill="#ba68c8"/>
    <path id="Path_1835" data-name="Path 1835" d="M144.792,119.464l15.087,8.711.215-75.7-15.087-8.711Zm12.3-54.755-9.174-5.3.03-10.541,9.174,5.3Zm-.041,14.585L147.88,74l.03-10.542,3.877,2.239,5.3,3.058Zm-.042,14.593-9.174-5.3.031-10.542,9.174,5.3Zm-.041,14.593h0l-9.174-5.3.03-10.541h0l9.175,5.3Zm-.041,14.586-9.174-5.3.03-10.541,9.174,5.3Z" transform="translate(4424.601 751.226)" fill="#ba68c8"/>
    <path id="Path_1836" data-name="Path 1836" d="M144.588,191.456l15.087,8.711.215-75.693-15.09-8.711Zm3.076-41.416,9.174,5.3-.03,10.541-9.175-5.3Zm9.226-13.34-9.174-5.3.03-10.542,9.174,5.3Zm-.041,14.594-9.174-5.3.03-10.541,9.174,5.3Zm-.083,29.177h0l-9.174-5.3.03-10.541,3.878,2.239,5.3,3.058Zm-9.215,9.289.03-10.541,9.174,5.3-.03,10.542Z" transform="translate(4424.572 761.47)" fill="red"/>
    <path id="Path_1837" data-name="Path 1837" d="M144.792,119.464l15.087,8.711.215-75.7-15.087-8.711Zm12.3-54.755-9.174-5.3.03-10.541,9.174,5.3Zm-.041,14.585L147.88,74l.03-10.542,3.877,2.239,5.3,3.058Zm-.042,14.593-9.174-5.3.031-10.542,9.174,5.3Zm-.041,14.593h0l-9.174-5.3.03-10.541h0l9.175,5.3Zm-.041,14.586-9.174-5.3.03-10.541,9.174,5.3Z" transform="translate(4424.601 751.226)" fill="red"/>
    <path id="Path_1838" data-name="Path 1838" d="M147.5,71.544,147.525,61l3.878,2.238,5.3,3.058-.03,10.542Z" transform="translate(4424.986 753.679)" fill="#fff"/>
    <path id="Path_1839" data-name="Path 1839" d="M144.98,44.5l.02-5.882,15.087,8.711-.016,5.878Z" transform="translate(4424.628 750.494)" fill="#fff"/>
    <path id="Path_1840" data-name="Path 1840" d="M147.531,58.776l.03-10.541,9.174,5.3-.03,10.542Z" transform="translate(4424.991 751.863)" fill="#fff"/>
    <path id="Path_1841" data-name="Path 1841" d="M147.416,99.322h0l9.174,5.3-.03,10.541-9.174-5.3Z" transform="translate(4424.97 759.131)" fill="#fff"/>
    <path id="Path_1842" data-name="Path 1842" d="M147.218,169.088l.03-10.541,3.878,2.238,5.3,3.059-.03,10.541Z" transform="translate(4424.946 767.558)" fill="#fff"/>
    <path id="Path_1843" data-name="Path 1843" d="M156.386,176.612l-.03,10.541-9.174-5.3.03-10.542Z" transform="translate(4424.941 769.374)" fill="#fff"/>
    <path id="Path_1844" data-name="Path 1844" d="M326.428,246.264l-.014,4.8L249.151,205.8l.014-4.806Z" transform="translate(4439.45 773.598)" fill="#ddd"/>
    <path id="Path_1845" data-name="Path 1845" d="M303.12,259.72l-.014,4.814-54.031-31.848.014-4.814Z" transform="translate(4439.439 777.421)" fill="#ddd"/>
    <path id="Path_1846" data-name="Path 1846" d="M289.521,237.828l-.014,4.814-40.392-23.974.014-4.814Z" transform="translate(4439.444 775.427)" fill="#ddd"/>
    <path id="Path_1847" data-name="Path 1847" d="M326.37,266.707l-.014,4.814L249.094,226.26l.014-4.815Z" transform="translate(4439.441 776.507)" fill="#ddd"/>
    <path id="Path_1848" data-name="Path 1848" d="M326.41,252.69l-.014,4.8-77.263-45.261.014-4.806Z" transform="translate(4439.447 774.512)" fill="#ddd"/>
    <path id="Path_1849" data-name="Path 1849" d="M190.479,181.189c5.108,2.949,9.235,10.1,9.218,15.968s-4.17,8.236-9.279,5.288-9.235-10.1-9.218-15.968,4.17-8.237,9.279-5.288" transform="translate(4429.781 770.599)" fill="#f6a9a9"/>
    <path id="Path_1850" data-name="Path 1850" d="M190.545,157.611c5.108,2.949,9.235,10.1,9.218,15.968s-4.17,8.237-9.279,5.288-9.235-10.1-9.218-15.968,4.17-8.237,9.279-5.288" transform="translate(4429.791 767.244)" fill="#e0e0e0"/>
    <path id="Path_1851" data-name="Path 1851" d="M212.544,170.312c5.108,2.949,9.235,10.1,9.218,15.967s-4.17,8.237-9.279,5.289-9.235-10.1-9.218-15.968,4.17-8.237,9.279-5.288" transform="translate(4432.921 769.051)" fill="#f6a9a9"/>
    <path id="Path_1852" data-name="Path 1852" d="M234.469,206.588c5.108,2.949,9.235,10.1,9.218,15.967s-4.17,8.238-9.279,5.289-9.235-10.1-9.218-15.968,4.17-8.237,9.279-5.288" transform="translate(4436.04 774.212)" fill="#c6dcfc"/>
    <path id="Path_1853" data-name="Path 1853" d="M234.536,183.009c5.108,2.949,9.235,10.1,9.218,15.968s-4.17,8.236-9.279,5.288-9.235-10.1-9.218-15.968,4.17-8.237,9.279-5.288" transform="translate(4436.05 770.858)" fill="#e0e0e0"/>
    <path id="Path_1854" data-name="Path 1854" d="M212.477,193.89c5.108,2.949,9.235,10.1,9.218,15.968s-4.17,8.237-9.279,5.288-9.235-10.1-9.218-15.968,4.17-8.237,9.279-5.288" transform="translate(4432.911 772.406)" fill="#c6dcfc"/>
    <g id="Group_914" data-name="Group 914" transform="translate(4648.271 774.344)" opacity="0.3">
      <g id="Group_913" data-name="Group 913">
        <g id="Group_912" data-name="Group 912" clip-path="url(#clip-path-3)">
          <path id="Path_1883" data-name="Path 1883" d="M271.937,59.209a6.224,6.224,0,0,1,2.817,4.889l-.024,8.455L213.845,37.4l.033-11.712Z" transform="translate(-213.845 -25.689)" fill="#fff"/>
        </g>
      </g>
    </g>
    <g id="Group_1134" data-name="Group 1134">
      <path id="Path_1876" data-name="Path 1876" d="M284.7,57.554,185.688.386a1.991,1.991,0,0,0-2-.2h0L176.277,5.5h0a2,2,0,0,1,1.988.2l99.017,57.168A6.224,6.224,0,0,1,280.1,67.76l-.384,40.428a2.006,2.006,0,0,1-.787,1.785h0l7.5-5.37-.006-.011a2.051,2.051,0,0,0,.714-1.726l.384-40.428a6.224,6.224,0,0,0-2.817-4.889" transform="translate(4429.081 745)" fill="#ba68c8"/>
      <g id="Group_1133" data-name="Group 1133">
        <path id="Path_1877" data-name="Path 1877" d="M279.869,107.525l.384-40.428a6.224,6.224,0,0,0-2.817-4.889L178.419,5.041a2,2,0,0,0-1.988-.2,1.978,1.978,0,0,0-.848,1.829L175.2,47.1a6.221,6.221,0,0,0,2.817,4.888l99.015,57.168a1.948,1.948,0,0,0,2.048.16,2.009,2.009,0,0,0,.788-1.785" transform="translate(4428.928 745.662)" fill="#f2f2f2"/>
        <g id="Group_899" data-name="Group 899" transform="translate(4610.599 775.909)" opacity="0.5">
          <g id="Group_898" data-name="Group 898">
            <g id="Group_897" data-name="Group 897" clip-path="url(#clip-path-4)">
              <path id="Path_1878" data-name="Path 1878" d="M193.475,34.316l-.041,14.454-12.568-7.257.041-14.454Z" transform="translate(-180.865 -27.059)" fill="#0a58ca"/>
            </g>
          </g>
        </g>
        <g id="Group_902" data-name="Group 902" transform="translate(4630.198 786.764)" opacity="0.5">
          <g id="Group_901" data-name="Group 901">
            <g id="Group_900" data-name="Group 900" clip-path="url(#clip-path-5)">
              <path id="Path_1879" data-name="Path 1879" d="M210.633,43.819l-.041,14.454-12.568-7.257.041-14.454Z" transform="translate(-198.023 -36.562)" fill="#0a58ca"/>
            </g>
          </g>
        </g>
        <g id="Group_905" data-name="Group 905" transform="translate(4649.797 797.62)" opacity="0.5">
          <g id="Group_904" data-name="Group 904">
            <g id="Group_903" data-name="Group 903" clip-path="url(#clip-path-6)">
              <path id="Path_1880" data-name="Path 1880" d="M227.791,53.322l-.041,14.454L215.182,60.52l.041-14.454Z" transform="translate(-215.181 -46.066)" fill="#0a58ca"/>
            </g>
          </g>
        </g>
        <g id="Group_908" data-name="Group 908" transform="translate(4669.398 808.475)" opacity="0.5">
          <g id="Group_907" data-name="Group 907">
            <g id="Group_906" data-name="Group 906" clip-path="url(#clip-path-4)">
              <path id="Path_1881" data-name="Path 1881" d="M244.95,62.826l-.041,14.454L232.34,70.023l.041-14.454Z" transform="translate(-232.34 -55.569)" fill="#0a58ca"/>
            </g>
          </g>
        </g>
        <g id="Group_911" data-name="Group 911" transform="translate(4688.997 819.33)" opacity="0.5">
          <g id="Group_910" data-name="Group 910">
            <g id="Group_909" data-name="Group 909" clip-path="url(#clip-path-4)">
              <path id="Path_1882" data-name="Path 1882" d="M262.108,72.329l-.041,14.454L249.5,79.527l.041-14.454Z" transform="translate(-249.498 -65.072)" fill="#0a58ca"/>
            </g>
          </g>
        </g>
        <path id="Path_1884" data-name="Path 1884" d="M213.292,29.928l-33.947-19.6-.011,3.881,33.947,19.6Z" transform="translate(4429.516 746.469)" fill="#fff"/>
        <path id="Path_1885" data-name="Path 1885" d="M257.362,53.362v1.092L264.2,58.4V57.307Z" transform="translate(4440.617 752.592)" fill="#0a58ca"/>
        <path id="Path_1886" data-name="Path 1886" d="M257.345,59.362l6.84,3.949V62.229l-6.84-3.95Z" transform="translate(4440.615 753.292)" fill="#0a58ca"/>
        <path id="Path_1887" data-name="Path 1887" d="M257.354,56.094l6.84,3.949V58.951L257.358,55Z" transform="translate(4440.617 752.825)" fill="#0a58ca"/>
        <path id="Path_1888" data-name="Path 1888" d="M257.35,57.723l6.84,3.949V60.59l-6.84-3.95Z" transform="translate(4440.616 753.058)" fill="#0a58ca"/>
        <path id="Path_1889" data-name="Path 1889" d="M284.7,57.554,185.688.386a1.991,1.991,0,0,0-2-.2h0L176.277,5.5h0a2,2,0,0,1,1.988.2l99.017,57.168a5.909,5.909,0,0,1,2.155,2.427l7.782-4.471A6.213,6.213,0,0,0,284.7,57.55" transform="translate(4429.081 745)" fill="#0a58ca"/>
        <path id="Path_1890" data-name="Path 1890" d="M266.652,57.722a5.551,5.551,0,0,1,.66,2.462l-.383,40.428a2.009,2.009,0,0,1-.787,1.785h0l7.5-5.37-.006-.011a2.048,2.048,0,0,0,.715-1.726l.384-40.428a5.016,5.016,0,0,0-.3-1.615Z" transform="translate(4441.867 752.576)" fill="#3283fb"/>
      </g>
    </g>
    <path id="Path_1975" data-name="Path 1975" d="M152.438,111.012s.82-3.455-1.344-3.911c0,0,1.865-3.923-.489-4.707s-5.318,7.091-8.773,10.3c-.626.7-4.664,4.349-5.2,3.17l-.01.013-5.541,2.134a10.561,10.561,0,0,1-1.569,4.434c-5.933,9.047-12.715,13.407-17.768,19.855l-4.92-4.77L97.48,150.523l9.17,6.859a10.241,10.241,0,0,0,14.63-2.482l16.886-25.1a8.707,8.707,0,0,1,2.8-2.64c2.684-1.59,7.852-4.815,9.762-7.168,2.628-3.238,3-6.723,1.711-8.986" transform="translate(4417.87 759.56)" fill="#ffb797"/>
    <path id="Path_1976" data-name="Path 1976" d="M80.643,113.759c9.355-.412,22.047,14.764,29.2,21.917-.549,8.741-9.964,14.488-9.964,14.488a204.886,204.886,0,0,1-19.235-15.038Z" transform="translate(4415.474 761.184)" fill="#0a58ca"/>
    <path id="Path_1978" data-name="Path 1978" d="M161.243,56.2l29.081,62.3-50.937,13.8L110.3,70Z" transform="translate(4419.694 752.996)" fill="red"/>
    <rect id="Rectangle_662" data-name="Rectangle 662" width="80.025" height="76.099" transform="translate(4529.993 809.197)" fill="none"/>
    <rect id="Rectangle_663" data-name="Rectangle 663" width="80.025" height="76.099" transform="translate(4529.993 809.197)" fill="none"/>
    <path id="Path_1980" data-name="Path 1980" d="M171.221,99.639l.73,1.566a2.373,2.373,0,0,1-.7,1.736,3.481,3.481,0,0,1-1.677,1.012,3.433,3.433,0,0,1-2.708-.382,5.986,5.986,0,0,1-1.362-1.115,5.314,5.314,0,0,1-.986,2.123,3.709,3.709,0,0,1-2.029,1.3,5.378,5.378,0,0,1-4.208-.666q-.271-.156-.541-.34a11.689,11.689,0,0,1-3.889-4.835,9.111,9.111,0,0,1-1.062-5.587,3.94,3.94,0,0,1,3.169-3.011,7.12,7.12,0,0,1,2.058-.228,5.985,5.985,0,0,1,1.975.352l-3.051-6.528a6.4,6.4,0,0,0-1.94-2.66c-.061-.04-.121-.078-.182-.112a2.417,2.417,0,0,0-1.908-.288,1.743,1.743,0,0,0-1.318,1.247,2.157,2.157,0,0,1,.72.265,3.152,3.152,0,0,1,.642.5A5.322,5.322,0,0,1,154,85.5a4.4,4.4,0,0,1,.474,2.751,1.814,1.814,0,0,1-1.359,1.467,2.614,2.614,0,0,1-2.038-.323,4,4,0,0,1-.37-.241,6.58,6.58,0,0,1-2.025-2.606,7.608,7.608,0,0,1-.758-3.439,4.895,4.895,0,0,1,1.145-3.084,6.454,6.454,0,0,1,3.394-1.962,6.823,6.823,0,0,1,5.424.6c.062.035.123.072.184.11a12.067,12.067,0,0,1,4.313,5.389l6.071,13.011a4.647,4.647,0,0,0,1.725,2.144,2.361,2.361,0,0,0,1.044.318m-7.745,1.234a1.957,1.957,0,0,0,.508-.766l-2.224-4.766a4.441,4.441,0,0,0-1.109-.368,2.544,2.544,0,0,0-1.037,0,1.406,1.406,0,0,0-1.033,1.253,4.785,4.785,0,0,0,.6,2.633,5.109,5.109,0,0,0,1.579,2.029,3.48,3.48,0,0,0,.312.206,2.033,2.033,0,0,0,1.589.254,1.708,1.708,0,0,0,.818-.475" transform="translate(4425.046 756.064)" fill="#fff"/>
    <path id="Path_1981" data-name="Path 1981" d="M159.415,105.866a4.751,4.751,0,0,1,.135,1.569l-8.467,2.289a6.811,6.811,0,0,1-1.188-1.277,9.788,9.788,0,0,1-.992-1.661c1.185-.329,1.416-1.266.677-2.845a18.069,18.069,0,0,0-1.292-2.247l-.675-.981-7,1.9.3,1.083a14.471,14.471,0,0,0,.729,2.231,3.842,3.842,0,0,0,1.437,1.782,2.193,2.193,0,0,0,1.726.185,8.827,8.827,0,0,1,.615,1.764,4.963,4.963,0,0,1,.135,1.568l-6.962,1.892a6.755,6.755,0,0,1-1.2-1.282,9.59,9.59,0,0,1-.992-1.67,1.755,1.755,0,0,0,1.212-1.243,4.941,4.941,0,0,0-.049-2.665L131.6,81.108a7.555,7.555,0,0,0-3.446.215,7.98,7.98,0,0,1-.9-3.74l8.556-2.322L154.6,101.487a7.408,7.408,0,0,0,2.207,2.166,2.675,2.675,0,0,0,2.007.445,8.589,8.589,0,0,1,.608,1.768m-19.9-7.274,5.622-1.52-7.9-11.572a16.563,16.563,0,0,0-1.887-2.32l4.169,15.413" transform="translate(4422.104 755.708)" fill="#fff"/>
    <path id="Path_1998" data-name="Path 1998" d="M98.86,178.09l-1.129,77.249-3.645,54.07c-9.228,5.834-18.765.307-18.765.307-3.5-25.617-3.639-41.452-1.731-52.113l-1.123-41.25L70.643,259.01l-8.68,54.615c-9.465,6.139-19.76-.186-19.76-.186,0-19.638-2.015-42.974,3.4-57.135-3.819-43.755,2.611-77.384,2.611-77.384Z" transform="translate(4409.953 770.338)" fill="red"/>
    <path id="Path_2000" data-name="Path 2000" d="M51.469,121.247c13.384-6.273,23.421-7.007,34.365-7.476,16.38,10.543,10.246,19.326,9.968,33.407a194.777,194.777,0,0,0,5.06,46.018c-21.47,17.148-49.878,13.116-56.361,9,1.531-41.938-.311-77.938,6.968-80.944" transform="translate(4410.332 761.187)" fill="#0a58ca"/>
    <path id="Path_2002" data-name="Path 2002" d="M90.569,99.263a11.147,11.147,0,0,0,3.1-14.7A6.065,6.065,0,0,0,96.6,81.8a3.242,3.242,0,0,0-4.2-4.324,4.552,4.552,0,0,0-1.815-5.313,4.292,4.292,0,0,0-5.341.987,2.907,2.907,0,0,0-1.985-2.858,5.886,5.886,0,0,0-3.7.232c-1.191.408-2.313,1-3.514,1.38a27.047,27.047,0,0,1-6.309.805,12.74,12.74,0,0,0-6.1,1.624c-1.784,1.155-3.359,3.855-2.4,6.181a3.5,3.5,0,0,0-2.53-1.342,3.394,3.394,0,0,0-2.6,1.1c1.327.821,2.611,1.707,3.939,2.529-1.335-.6-3.327.342-4.051,1.615a8.107,8.107,0,0,0-.714,4.277,57.236,57.236,0,0,0,2.935,16.37c.908,2.729,3.428,7.363,6.014,8.622Z" transform="translate(4411.865 754.971)"/>
    <path id="Path_2003" data-name="Path 2003" d="M90.787,83.017a14.126,14.126,0,0,1-9.384,3.95c-3.3.037-6.5-1.052-9.679-1.929a7.385,7.385,0,0,1-2.189,4.04,8.41,8.41,0,0,1-4.5,1.964A29.027,29.027,0,0,1,65,100.035a1.7,1.7,0,0,1-1.139,1.383c-1.071.312-1.783-.787-2.305-1.676a7.3,7.3,0,0,0-2.325-2.594,3.61,3.61,0,0,0-3.358-.344,3.516,3.516,0,0,0-1.772,2.16,6.474,6.474,0,0,0-.139,2.848,8.6,8.6,0,0,0,1.849,4.356A5.876,5.876,0,0,0,59.95,108.3a4.271,4.271,0,0,0,3.98-1.965l.07.291a11.968,11.968,0,0,0,9.128,8.832c2.016.422,4.256.826,6.54,1.172,1.122.17,2.251.33,3.375.464a8.145,8.145,0,0,0,8.994-6.655c1.538-8.69,2.049-18.814-1.25-27.424" transform="translate(4411.664 756.811)" fill="#ffb797"/>
    <path id="Path_2004" data-name="Path 2004" d="M63.118,104.9v15.142A16.688,16.688,0,0,0,75.3,126.795a5.909,5.909,0,0,0,4.376-1.119,3.548,3.548,0,0,0-.442-5.615,1.944,1.944,0,0,1-.888-1.617v-4.923c-2.283-.347-4.522-.752-6.54-1.173a11.886,11.886,0,0,1-8.692-7.442" transform="translate(4412.981 759.925)" fill="#ffb797"/>
    <path id="Path_2006" data-name="Path 2006" d="M79.557,94.352l5.558,6.731-5.1,1.8Z" transform="translate(4415.32 758.424)"/>
    <path id="Path_2007" data-name="Path 2007" d="M72.684,95.278a1.527,1.527,0,1,0,1.536-1.517,1.527,1.527,0,0,0-1.536,1.517" transform="translate(4414.342 758.34)"/>
    <path id="Path_2008" data-name="Path 2008" d="M83.907,94.916A1.527,1.527,0,1,0,85.443,93.4a1.527,1.527,0,0,0-1.536,1.516" transform="translate(4415.939 758.288)"/>
    <path id="Path_2009" data-name="Path 2009" d="M83.2,88.965l4.088.463a2.177,2.177,0,0,0-1.715-1.8A2.58,2.58,0,0,0,83.2,88.965" transform="translate(4415.838 757.464)"/>
    <path id="Path_2010" data-name="Path 2010" d="M75.7,88.915l-3.942,1.177a2.177,2.177,0,0,1,1.371-2.073,2.577,2.577,0,0,1,2.571.9" transform="translate(4414.21 757.51)"/>
    <path id="Path_2011" data-name="Path 2011" d="M74.444,103.759l4.262,2.072a2.785,2.785,0,0,1-3.232.918,2.51,2.51,0,0,1-1.03-2.99" transform="translate(4414.575 759.762)" fill="#ffa8a7"/>
    <g id="Group_1013" data-name="Group 1013" transform="translate(4488.901 863.521)">
      <g id="Group_1012" data-name="Group 1012">
        <g id="Group_1011" data-name="Group 1011" clip-path="url(#clip-path-9)">
          <path id="Path_2012" data-name="Path 2012" d="M74.444,103.759l4.262,2.072a2.785,2.785,0,0,1-3.232.918,2.51,2.51,0,0,1-1.03-2.99" transform="translate(-74.326 -103.759)" fill="#fff"/>
        </g>
      </g>
    </g>
    <path id="Path_2013" data-name="Path 2013" d="M76.954,106.8a2.574,2.574,0,0,1-1.48-.139,2.266,2.266,0,0,1-1.14-2.246,2.586,2.586,0,0,1,2.62,2.385" transform="translate(4414.576 759.855)" fill="red"/>
    <path id="Path_2014" data-name="Path 2014" d="M42.908,207.664l-18.9-33.175a13.33,13.33,0,0,1-.332-11.158l10.512-24.72A32.158,32.158,0,0,1,52.5,121.079l2.647-.992c1.507,14.825-2.972,21.972-16.54,47.727,0,0,7.148,24.02,12.739,34.7a40.513,40.513,0,0,1,11.954,8.67,2.176,2.176,0,0,1,.12,2.853l-.024.03a2.019,2.019,0,0,1-2.5.539c-1.821-.939-3.63-1.906-5.457-2.831a58.905,58.905,0,0,0,7.089,11.74,2.21,2.21,0,0,1-.138,2.883l-.023.023a2.217,2.217,0,0,1-1.941.673c-1.984-.294-3.949-.581-5.918-.87a10.677,10.677,0,0,1-8.037-5.878,36.435,36.435,0,0,1-3.563-12.68" transform="translate(4407.217 762.086)" fill="#ffb797"/>
    <path id="Path_2017" data-name="Path 2017" d="M132.45,115.234a1.629,1.629,0,0,1,.061-1.061c.889-3.083,1.777-6.01.088-7.234a.962.962,0,0,0-1.41.426c-.671,1.45-2.259,4.041-3.171,5.769a16.647,16.647,0,0,0-1.119,4.247l5.541-2.135Z" transform="translate(4422.056 760.192)" fill="#ffb797"/>
    <path id="Path_2018" data-name="Path 2018" d="M110.936,236.542c-.265-.962.188-5.365-.873-6.118s.929-2.345,2.853-.753-1.981,6.871-1.981,6.871" transform="translate(4419.618 777.58)" fill="#ffb797"/>
    <path id="Path_2019" data-name="Path 2019" d="M111.909,208.045l.1,34.588,13.12-7.574-.1-34.588Z" transform="translate(4419.923 773.523)" fill="#ddd"/>
    <path id="Path_2020" data-name="Path 2020" d="M113.1,208.527l.019,6.7,10.412-6.012-.019-6.7Z" transform="translate(4420.092 773.813)" fill="#fff"/>
    <path id="Path_2021" data-name="Path 2021" d="M113.119,215.755l.019,6.7,10.412-6.012-.019-6.7Z" transform="translate(4420.095 774.842)" fill="#fff"/>
    <path id="Path_2022" data-name="Path 2022" d="M113.14,222.983l.019,6.7,10.412-6.012-.019-6.7Z" transform="translate(4420.098 775.87)" fill="#fff"/>
    <path id="Path_2023" data-name="Path 2023" d="M113.16,230.217l.019,6.694,10.412-6.012-.019-6.694Z" transform="translate(4420.101 776.9)" fill="#fff"/>
    <path id="Path_2043" data-name="Path 2043" d="M58.21,233.334l10.655,2.1c2.354,4.309,4.754,8.356,7.11,12.666,1.774,3.246,3.6,6.7,3.465,10.395a10.588,10.588,0,0,1-6.382,9.18L78.6,304.37c-14.388,13.06-51.408,3.72-55.9-.153,1.933-9.8,6.167-13.67,8.383-23.956,1.773-8.229-1.7-17.259-2.282-19.969a63.081,63.081,0,0,1-1.8-12.01,21.154,21.154,0,0,1,2.812-11.656l.065-.1a13.034,13.034,0,0,1,13.078-5.614Z" transform="translate(4407.23 777.829)" fill="#0a58ca"/>
    <path id="Path_2044" data-name="Path 2044" d="M40.073,194.945a17.916,17.916,0,0,0-7.79,15.763c.232,3.526,1.524,7,1.125,10.508-.234,2.065-1.049,4.156-.506,6.161a6.386,6.386,0,0,0,3.351,3.794c1.54.8,5.139.594,6.84.947,5.192,4.721,11.719,2.953,15.865-1.262s10.871-20.038,10.871-20.038a21.6,21.6,0,0,0,3.271-10.33,8.685,8.685,0,0,0-1.494-5.89c-1.3-1.609-3.887-2.3-5.507-1.009,1.539-1.194.432-3.952-1.173-5.055s-3.763-.969-5.631-.423a54.622,54.622,0,0,1-5.548,1.8c-2.526.455-5.132-.107-7.684.159s-5.746,2.318-5.992,4.872" transform="translate(4408.588 771.706)"/>
    <path id="Path_2045" data-name="Path 2045" d="M66.132,212.043l3.244,5.638L65.822,219Z" transform="translate(4413.366 775.169)" fill="#ffb797"/>
    <path id="Path_2046" data-name="Path 2046" d="M70.091,211.334c-.521-4.946-1.969-9.61-5.189-11.975a26.713,26.713,0,0,1-3.709,17.7,7.747,7.747,0,0,0-2.4-4.241,4.465,4.465,0,0,0-4.608-.984,4.536,4.536,0,0,0-2.318,2.524,6.007,6.007,0,0,0,7.508,7.935,11.538,11.538,0,0,1-8.87,8.984,14.876,14.876,0,0,1-8.6-.818l-1.34,6.665c5.427,5.79,14.7,1.9,14.7,1.9l1.222-6.559c10.673.633,11.67.452,12.845-5.427a57.583,57.583,0,0,0,.757-15.706" transform="translate(4409.772 773.364)" fill="#ffb797"/>
    <path id="Path_2047" data-name="Path 2047" d="M60.688,220.867c-.069,2.01-.025,3.929-.094,5.941a16.075,16.075,0,0,0,.618,6.277c.75,1.98,2.53,3.726,4.648,3.764a14.186,14.186,0,0,1-12.83,2.318,13.9,13.9,0,0,1-9.062-9.18A10.558,10.558,0,0,0,47,238.652a12.612,12.612,0,0,1-11.328-2.483,12.342,12.342,0,0,1-4.238-10.652c.318-2.77,1.571-5.331,2.438-7.981s1.328-5.649.1-8.151a73.577,73.577,0,0,0,8.276,8.494,22.908,22.908,0,0,0,9.936,5.428,10.058,10.058,0,0,0,4.222.16,8,8,0,0,0,4.287-2.6" transform="translate(4408.462 774.791)"/>
    <path id="Path_2050" data-name="Path 2050" d="M121.9,251.723c-8.349,12.815-17.406,23.8-22.848,29.361a5.614,5.614,0,0,1-7.1.752c-11.6-7.651-21.2-20.625-21.2-20.625l12.575-8.646,10.892,14.148,20.594-20.259L116.17,235.2a2.763,2.763,0,0,1,1.644-2.2l5.8-2.518a2.763,2.763,0,0,1,2.166-.015l3.387,1.415a1.483,1.483,0,0,1-.99,2.791l-1.675-.492,3.935,2.922a3.1,3.1,0,0,1,1.254,2.494V241.6a3.1,3.1,0,0,1-1.383,2.584l-.474.316a1.6,1.6,0,0,1-2.283-.557c-.734,4.246-5.654,7.775-5.654,7.775" transform="translate(4414.068 777.759)" fill="#ffb797"/>
    <path id="Path_2053" data-name="Path 2053" d="M100.151,252.209a2.561,2.561,0,0,0-2.381.632L94.888,255.6a2.536,2.536,0,0,0-.757,2.2l.039.262.833-.787c10.274,3.265,9.159,13.538,9.159,13.538l-1.448,1.841a2.538,2.538,0,0,0,2.419-.924l3.587-4.53a2.5,2.5,0,0,0,.546-1.687c-.147-2.889-1.254-11.338-9.113-13.3" transform="translate(4417.389 780.873)" fill="#fff"/>
    <path id="Path_2054" data-name="Path 2054" d="M100.151,252.209a2.561,2.561,0,0,0-2.381.632L94.888,255.6a2.536,2.536,0,0,0-.757,2.2l.039.262.833-.787c10.274,3.265,9.159,13.538,9.159,13.538l-1.448,1.841a2.538,2.538,0,0,0,2.419-.924l3.587-4.53a2.5,2.5,0,0,0,.546-1.687c-.147-2.889-1.254-11.338-9.113-13.3" transform="translate(4417.389 780.873)" fill="#85b7ff"/>
    <path id="Path_2055" data-name="Path 2055" d="M99.618,259.777l-.833.787-3.468,3.275L94.1,261.964l-14.044-18.29a23.253,23.253,0,0,0-15.642-8.921l-1.876-.226s-3.766,15.781,4.3,24.568l15.423,16.319a60.755,60.755,0,0,0,10.3,7.945,7.2,7.2,0,0,0,9.568-1.6l6.643-8.441s1.115-10.274-9.159-13.538" transform="translate(4412.774 778.368)" fill="#0a58ca"/>
    <path id="Path_2056" data-name="Path 2056" d="M167.58,122.438l4.132,3.831L164.6,165.8l-4.386,25.782L145.12,193.34l6.18-27.54,11.69-45.579Z" transform="translate(4424.648 762.105)" fill="#9c5756"/>
    <path id="Path_2057" data-name="Path 2057" d="M161.894,180.107c-10.406-3.888-17.215,1.576-17.215,1.576l-1.7,44.159,18.572-10.628Z" transform="translate(4424.343 770.427)" fill="#ba68c8"/>
    <path id="Path_2058" data-name="Path 2058" d="M161.894,180.107c-10.406-3.888-17.215,1.576-17.215,1.576l-1.7,44.159,18.572-10.628Z" transform="translate(4424.343 770.427)" fill="#0a58ca"/>
    <path id="Path_2060" data-name="Path 2060" d="M168.107,68.829c-1.71-.987-3.1-.193-3.109,1.78l-.547,63.458a6.812,6.812,0,0,0,3.088,5.357l76.384,44.1c1.71.987,3.1.193,3.108-1.78l.548-63.458a6.813,6.813,0,0,0-3.089-5.357Z" transform="translate(4427.398 754.732)" fill="#c6dcfc"/>
    <path id="Path_2061" data-name="Path 2061" d="M191.4,97.061,170.651,113.4l-.046,15.962,69.021,39.85.046-15.962-13.154-26.126-11.81,9.17,4.175,12.974-6.061-11.52Z" transform="translate(4428.274 758.809)" fill="#0a58ca"/>
    <path id="Path_2062" data-name="Path 2062" d="M209.4,104.2c-3.249-1.874-5.891-.369-5.9,3.364a12.925,12.925,0,0,0,5.863,10.155c3.249,1.876,5.892.37,5.9-3.363A12.924,12.924,0,0,0,209.4,104.2" transform="translate(4432.953 759.711)" fill="#0a58ca"/>
    <path id="Path_2063" data-name="Path 2063" d="M207.209,210.9l16.4-5.466,10.8-40.778a6.17,6.17,0,0,0-.306-3.566l-1.135-2.844a11.692,11.692,0,0,1-.827-4.718l.2-6.235a1.9,1.9,0,0,1,3.772-.275l.977,5.411,2.287,2.63,1.851-7.423v-9.664l4.884,7.044a8.538,8.538,0,0,1,1.394,6.238l-1.954,11.84-5.252,45.84a18.294,18.294,0,0,1-11.59,14.986l-17.229,6.648Z" transform="translate(4433.482 764.63)" fill="#ffb797"/>
    <path id="Path_2073" data-name="Path 2073" d="M201.551,289.3c-31.9,13.365-52.569,1.292-55.375-4.989,1.47-22.053-3.742-47.847-3.341-58.806s1.745-23.3,18.737-20.829l18.071,1.763,9.168,2.227L199.8,231.5Z" transform="translate(4424.32 774.075)" fill="#0a58ca"/>
    <path id="Path_2074" data-name="Path 2074" d="M160.973,203.073a4.805,4.805,0,0,1-3.53-1.2,3.475,3.475,0,0,1-.838-3.03,3.314,3.314,0,0,1-2.428-1.969,3.781,3.781,0,0,1,.565-3.3,5.557,5.557,0,0,1-3.594-2.933,5.834,5.834,0,0,1-.16-4.755,5.154,5.154,0,0,1-3.611-3.509,5.587,5.587,0,0,1,1.025-5.151,6.935,6.935,0,0,1-.81-6.92,7.318,7.318,0,0,1,5.943-4.012,7.145,7.145,0,0,1,2.333-6.4,6.906,6.906,0,0,1,6.57-1.285,6.312,6.312,0,0,1,10.52-1.8,4.8,4.8,0,0,1,4.255-1.568,4.967,4.967,0,0,1,3.853,2.537,6.453,6.453,0,0,1,9.122,6.181,3.815,3.815,0,0,1,2.73,3.763,4.043,4.043,0,0,1-3.146,3.627,90.241,90.241,0,0,1-8.475,24.825c-1.791,3.483-3.987,7.017-7.46,8.825-3.756,1.956-9.65.837-12.866-1.918" transform="translate(4424.918 767.014)" fill="#263238"/>
    <path id="Path_2075" data-name="Path 2075" d="M160.973,203.073a4.805,4.805,0,0,1-3.53-1.2,3.475,3.475,0,0,1-.838-3.03,3.314,3.314,0,0,1-2.428-1.969,3.781,3.781,0,0,1,.565-3.3,5.557,5.557,0,0,1-3.594-2.933,5.834,5.834,0,0,1-.16-4.755,5.154,5.154,0,0,1-3.611-3.509,5.587,5.587,0,0,1,1.025-5.151,6.935,6.935,0,0,1-.81-6.92,7.318,7.318,0,0,1,5.943-4.012,7.145,7.145,0,0,1,2.333-6.4,6.906,6.906,0,0,1,6.57-1.285,6.312,6.312,0,0,1,10.52-1.8,4.8,4.8,0,0,1,4.255-1.568,4.967,4.967,0,0,1,3.853,2.537,6.453,6.453,0,0,1,9.122,6.181,3.815,3.815,0,0,1,2.73,3.763,4.043,4.043,0,0,1-3.146,3.627,90.241,90.241,0,0,1-8.475,24.825c-1.791,3.483-3.987,7.017-7.46,8.825-3.756,1.956-9.65.837-12.866-1.918" transform="translate(4424.918 767.014)"/>
    <path id="Path_2076" data-name="Path 2076" d="M185.621,179.189l3.742,6.5-4.1,1.515Z" transform="translate(4430.36 770.495)" fill="#f28f8f"/>
    <path id="Path_2077" data-name="Path 2077" d="M185.621,179.189l3.742,6.5-4.1,1.515Z" transform="translate(4430.36 770.495)" fill="#ffb797"/>
    <path id="Path_2078" data-name="Path 2078" d="M188.036,169.271a60.6,60.6,0,0,1,1.074,27.644,9.455,9.455,0,0,1-1.72,4.375,6.88,6.88,0,0,1-4.753,2.187,20.411,20.411,0,0,1-5.332-.514v8.464c-6.424,1.515-13.035,2.114-18.07-1.763V201a22.985,22.985,0,0,0,11.217.7c4.439-2.394,5.329-10.5,4.705-12.64a3.337,3.337,0,0,1-3.47,1.219,4.658,4.658,0,0,1-2.88-2.288,9.545,9.545,0,0,1-1.076-3.6,6.568,6.568,0,0,1,.658-4.463,4.67,4.67,0,0,1,5.026-1.7,7.2,7.2,0,0,1,4.232,3.538,11.33,11.33,0,0,1,.744,1.62,1,1,0,0,0,1.948-.248,13.388,13.388,0,0,0-1.274-7.082,4.91,4.91,0,0,0,3.627-2.222,4.611,4.611,0,0,0,.7-4.068,13.653,13.653,0,0,0,4.645-.5" transform="translate(4426.656 769.083)" fill="#ffb797"/>
    <path id="Path_2079" data-name="Path 2079" d="M165.186,126.3l3.31-8.553,1.493-6.72a1.719,1.719,0,0,0-3.3-.931l-1.252,3.648V103.451l-4.293,7.684a6.672,6.672,0,0,0-.825,3.8l-.873,13.55Z" transform="translate(4426.686 759.719)" fill="#9c5756"/>
    <path id="Path_2080" data-name="Path 2080" d="M184.262,209.209c10.165-3.364,28.263-8.828,28.263-8.828,8.124,8.192,7.437,21.415,7.437,21.415L195.3,232.066c-23.532,7.456-26.962-17.587-11.037-22.857" transform="translate(4428.826 773.51)" fill="#0a58ca"/>
    <rect id="Rectangle_679" data-name="Rectangle 679" width="503.348" height="512.298" transform="translate(4404 745)" fill="none"/>
    <rect id="Rectangle_680" data-name="Rectangle 680" width="503.348" height="512.298" transform="translate(4404 745)" fill="none"/>
    <g id="Group_1137" data-name="Group 1137">
      <g id="Group_1136" data-name="Group 1136">
        <path id="Path_1785" data-name="Path 1785" d="M18.114,396.669c24.039-13.879,62.888-13.879,86.771,0s23.757,36.383-.282,50.263-62.888,13.879-86.773,0-23.756-36.382.284-50.261" transform="translate(4404 799.957)" fill="rgba(221,221,221,0.4)"/>
        <path id="Path_1786" data-name="Path 1786" d="M119.721,293.639c-22.659-13.083-59.276-13.081-81.787,0s-22.394,34.294.265,47.376,59.277,13.083,81.791,0,22.392-34.292-.268-47.375" transform="translate(4407.006 785.383)" fill="rgba(221,221,221,0.4)"/>
        <path id="Path_1787" data-name="Path 1787" d="M146.906,379.278c25.439-14.686,66.547-14.686,91.82,0s25.142,38.5-.3,53.187-66.549,14.687-91.823,0-25.139-38.5.3-53.187" transform="translate(4422.175 797.396)" fill="rgba(221,221,221,0.4)"/>
        <g id="Group_857" data-name="Group 857" transform="translate(4569.383 758.913)">
          <g id="Group_856" data-name="Group 856">
            <g id="Group_855" data-name="Group 855" clip-path="url(#clip-path-10)">
              <g id="Group_848" data-name="Group 848" transform="translate(11.058 6.384)">
                <g id="Group_847" data-name="Group 847">
                  <g id="Group_846" data-name="Group 846" clip-path="url(#clip-path-11)">
                    <path id="Path_1815" data-name="Path 1815" d="M156.494,18.047c-1.118-.645-2.028-.128-2.031,1.157a4.45,4.45,0,0,0,2.017,3.5c1.118.645,2.028.127,2.031-1.158a4.446,4.446,0,0,0-2.017-3.494" transform="translate(-154.464 -17.769)" fill="#ddd"/>
                  </g>
                </g>
              </g>
              <g id="Group_851" data-name="Group 851" transform="translate(5.529 3.192)">
                <g id="Group_850" data-name="Group 850">
                  <g id="Group_849" data-name="Group 849" clip-path="url(#clip-path-12)">
                    <path id="Path_1816" data-name="Path 1816" d="M151.654,15.252c-1.118-.645-2.028-.127-2.031,1.157a4.449,4.449,0,0,0,2.017,3.5c1.118.644,2.028.127,2.031-1.158a4.446,4.446,0,0,0-2.017-3.494" transform="translate(-149.623 -14.974)" fill="#ddd"/>
                  </g>
                </g>
              </g>
              <g id="Group_854" data-name="Group 854">
                <g id="Group_853" data-name="Group 853">
                  <g id="Group_852" data-name="Group 852" clip-path="url(#clip-path-13)">
                    <path id="Path_1817" data-name="Path 1817" d="M146.814,12.457c-1.118-.644-2.026-.127-2.031,1.157a4.45,4.45,0,0,0,2.018,3.5c1.117.644,2.026.127,2.03-1.158a4.445,4.445,0,0,0-2.017-3.5" transform="translate(-144.783 -12.18)" fill="#ddd"/>
                  </g>
                </g>
              </g>
            </g>
          </g>
        </g>
        <path id="Path_1870" data-name="Path 1870" d="M391.231,108.993v1.092l6.841,3.95v-1.093Z" transform="translate(4459.664 760.507)" fill="red"/>
        <path id="Path_1982" data-name="Path 1982" d="M86.465,288.037c-.167,3.98,0,8.655,0,8.655l-2.311.128A5.6,5.6,0,0,0,79.2,300.5l-.053.145a2.181,2.181,0,0,1-4.017.2l-1.182-9.983Z" transform="translate(4414.522 785.981)" fill="#ffb797"/>
        <path id="Path_1983" data-name="Path 1983" d="M89.821,319.921c6.053,2.585,15.321,3.09,19.169-3.09V318.5c-3.847,6.18-13.116,5.675-19.169,3.09s-4.729-6.81-10.151-9.08a14.7,14.7,0,0,1-5.3-3.341c-.021-.493-.105-1.11-.188-1.824a18.412,18.412,0,0,0,5.485,3.493c5.422,2.271,4.1,6.495,10.151,9.08" transform="translate(4414.555 788.729)" fill="#0a58ca"/>
        <path id="Path_1984" data-name="Path 1984" d="M74.207,303.527a8.693,8.693,0,0,0-.031-3.57,1.906,1.906,0,0,1,.275-1.583l.451-.444.218,1.84a2.18,2.18,0,0,0,4.016-.2l.053-.145a5.6,5.6,0,0,1,4.954-3.683l2.349-.129a1.687,1.687,0,0,1,1.655,1.039c2.417,5.826,8.491,12.3,13.173,15.262,3.436-.079,7.692,2.773,7.692,6.241v.346c-3.846,6.179-13.115,5.675-19.167,3.089s-4.729-6.809-10.151-9.079a18.434,18.434,0,0,1-5.486-3.494,19.77,19.77,0,0,1,0-5.49" transform="translate(4414.531 787.059)"/>
        <path id="Path_1985" data-name="Path 1985" d="M84.612,307.282a.769.769,0,0,1-1.2-.962,8.771,8.771,0,0,1,7.906-3.473q.485.6.99,1.182a8.46,8.46,0,0,0-7.7,3.252" transform="translate(4415.846 788.083)" fill="#fff"/>
        <path id="Path_1986" data-name="Path 1986" d="M82.521,304.953a.769.769,0,0,1-1.2-.962,9.219,9.219,0,0,1,8.25-3.562c.289.433.6.862.908,1.29a8.54,8.54,0,0,0-7.961,3.234" transform="translate(4415.548 787.739)" fill="#fff"/>
        <path id="Path_1987" data-name="Path 1987" d="M86.783,309.569a.769.769,0,1,1-1.2-.963,8.766,8.766,0,0,1,7.7-3.487c.391.412.786.81,1.183,1.2a8.454,8.454,0,0,0-7.684,3.252" transform="translate(4416.155 788.409)" fill="#fff"/>
        <path id="Path_1988" data-name="Path 1988" d="M99.314,309.883c3.436-.079,7.692,2.775,7.692,6.243v.345c-3.789,6.088-12.836,5.684-18.891,3.2.467-8.317,8.452-9.817,11.2-9.786" transform="translate(4416.537 789.089)" fill="#fff"/>
        <path id="Path_1989" data-name="Path 1989" d="M89.019,311.752a.769.769,0,0,1-1.2-.962,8.761,8.761,0,0,1,7.716-3.486q.724.644,1.442,1.214a8.541,8.541,0,0,0-7.961,3.234" transform="translate(4416.473 788.72)" fill="#fff"/>
        <path id="Path_1990" data-name="Path 1990" d="M58.3,294.481c-.167,3.98,0,8.655,0,8.655l-2.311.128a5.6,5.6,0,0,0-4.954,3.683l-.053.145a2.181,2.181,0,0,1-4.017.2l-1.182-9.983Z" transform="translate(4410.514 786.898)" fill="#ffc3c2"/>
        <path id="Path_1991" data-name="Path 1991" d="M61.651,326.365c6.053,2.585,15.321,3.09,19.169-3.09v1.672c-3.847,6.18-13.116,5.675-19.169,3.09s-4.729-6.809-10.151-9.08a14.7,14.7,0,0,1-5.3-3.341c-.021-.493-.1-1.111-.188-1.824a18.412,18.412,0,0,0,5.485,3.493c5.422,2.271,4.1,6.5,10.151,9.08" transform="translate(4410.547 789.646)" fill="#0a58ca"/>
        <path id="Path_1992" data-name="Path 1992" d="M46.037,309.972a8.693,8.693,0,0,0-.031-3.57,1.906,1.906,0,0,1,.275-1.583l.451-.444.218,1.84a2.181,2.181,0,0,0,4.016-.2l.053-.145a5.6,5.6,0,0,1,4.954-3.684l2.349-.129a1.686,1.686,0,0,1,1.655,1.041c2.416,5.824,8.491,12.3,13.173,15.261,3.436-.079,7.692,2.775,7.692,6.241v.346c-3.846,6.179-13.115,5.675-19.169,3.09s-4.728-6.81-10.151-9.08a18.41,18.41,0,0,1-5.485-3.494,19.769,19.769,0,0,1,0-5.49" transform="translate(4410.523 787.976)" fill="#ba68c8"/>
        <path id="Path_1993" data-name="Path 1993" d="M56.441,313.726a.769.769,0,0,1-1.2-.962,8.772,8.772,0,0,1,7.906-3.473q.485.6.99,1.182a8.46,8.46,0,0,0-7.7,3.252" transform="translate(4411.838 789)" fill="#fff"/>
        <path id="Path_1994" data-name="Path 1994" d="M54.35,311.4a.769.769,0,0,1-1.2-.962,9.225,9.225,0,0,1,8.25-3.562c.289.434.6.862.908,1.291A8.537,8.537,0,0,0,54.35,311.4" transform="translate(4411.54 788.656)" fill="#fff"/>
        <path id="Path_1995" data-name="Path 1995" d="M58.613,316.013a.769.769,0,0,1-1.2-.962,8.76,8.76,0,0,1,7.7-3.487c.391.411.786.809,1.183,1.2a8.454,8.454,0,0,0-7.684,3.252" transform="translate(4412.147 789.326)" fill="#fff"/>
        <path id="Path_1996" data-name="Path 1996" d="M71.144,316.327c3.436-.079,7.692,2.775,7.692,6.243v.345C75.047,329,66,328.6,59.945,326.113c.467-8.317,8.452-9.817,11.2-9.786" transform="translate(4412.529 790.006)" fill="#fff"/>
        <path id="Path_1997" data-name="Path 1997" d="M60.848,318.2a.769.769,0,0,1-1.2-.962,8.762,8.762,0,0,1,7.716-3.487c.483.431.964.834,1.442,1.215a8.541,8.541,0,0,0-7.961,3.234" transform="translate(4412.465 789.636)" fill="#fff"/>
        <path id="Path_2015" data-name="Path 2015" d="M54.474,120.087c-11.5,3.944-18.009,6.564-27.137,31.329,4.563,7.065,17.146,6.113,17.146,6.113,16.353-24.687,9.992-37.443,9.992-37.443" transform="translate(4407.89 762.086)" fill="#0a58ca"/>
        <path id="Path_2027" data-name="Path 2027" d="M43.521,232.489,24.5,275.621l9.7,10.624-3.451,14.506L11.583,284.11a10.345,10.345,0,0,1-2.539-12.3l15.4-32.009a13.149,13.149,0,0,1,12.1-7.447Z" transform="translate(4405.141 778.059)" fill="#0a58ca"/>
        <path id="Path_2029" data-name="Path 2029" d="M50.98,433.71c.8,1.675,3.329,3.22,6.1,3.677s5.587-.143,8.367-.531a55.429,55.429,0,0,1,12.489-.319,65.916,65.916,0,0,0,7.771.555,12.321,12.321,0,0,0,7.3-2.315,7.434,7.434,0,0,0,2.741-4.659A7.043,7.043,0,0,1,93.01,436.4a12.329,12.329,0,0,1-7.3,2.315,65.949,65.949,0,0,1-7.771-.555,55.5,55.5,0,0,0-12.489.319c-2.78.388-5.8,1.185-8.565.729s-5.3-2-6.1-3.677Z" transform="translate(4411.226 806.197)" fill="#0a58ca"/>
        <path id="Path_2030" data-name="Path 2030" d="M77.953,429.655c-2.33,0-1.474-3.448-3.691-5.759.9.053,1.807.069,2.713.065,1.993,2.871,2.552,5.694.978,5.694" transform="translate(4414.566 805.311)" fill="#fff"/>
        <path id="Path_2031" data-name="Path 2031" d="M73.757,429.592c-2.344,0-1.728-4.111-4.031-6.509a15.089,15.089,0,0,0,1.595.46c.459.1.922.182,1.386.249,2.053,2.907,2.644,5.8,1.051,5.8" transform="translate(4413.921 805.196)" fill="#fff"/>
        <path id="Path_2032" data-name="Path 2032" d="M53.364,422.158a3.169,3.169,0,0,1,1.212-1.9l12.594-.314a10.8,10.8,0,0,0,5.227,3.584c2.3,2.4,1.687,6.508,4.031,6.508,1.593,0,1-2.892-1.051-5.8.729.107,1.463.177,2.2.219,2.217,2.311,1.36,5.759,3.691,5.759,1.574,0,1.015-2.824-.978-5.694.588,0,1.178-.008,1.764-.017.535-.008,1.073-.045,1.612-.088,4.63,3.662,5.024,7.635,4.426,13.87a16.85,16.85,0,0,1-2.414.252,65.905,65.905,0,0,1-7.77-.555,55.36,55.36,0,0,0-12.489.319c-2.78.388-5.6.988-8.368.531s-5.3-2-6.1-3.677Z" transform="translate(4411.25 804.749)"/>
        <path id="Path_2033" data-name="Path 2033" d="M79.592,423.894a19.9,19.9,0,0,1,6.3,0c2.554.625,5,2.388,5.666,4.932a5.6,5.6,0,0,1,.1,2.216,7.437,7.437,0,0,1-2.741,4.66,10.866,10.866,0,0,1-4.892,2.062c.6-6.233.2-10.207-4.426-13.87" transform="translate(4415.325 805.273)" fill="#fff"/>
        <path id="Path_2034" data-name="Path 2034" d="M67.093,416.8v6.068a2.494,2.494,0,0,1-2.492,2.494H58.252a4.092,4.092,0,0,1-4.088-3.958l-.151-4.6Z" transform="translate(4411.685 804.302)" fill="#ffb797"/>
        <path id="Path_2035" data-name="Path 2035" d="M28.758,416.58a4.666,4.666,0,0,0,3.821,2.674,8.028,8.028,0,0,0,4.834-1.189c2.185-1.386,3.036-3.57,4.526-5.535a33.179,33.179,0,0,1,5.266-5.143,17.39,17.39,0,0,0,5.033-5.835,7.794,7.794,0,0,0,.6-2.139,7.606,7.606,0,0,1-.6,4.1,17.378,17.378,0,0,1-5.033,5.835,33.182,33.182,0,0,0-5.266,5.143c-1.49,1.967-2.341,4.15-4.526,5.537a8.044,8.044,0,0,1-4.834,1.189,4.669,4.669,0,0,1-3.821-2.675,10.481,10.481,0,0,1-.23-3.381,4.257,4.257,0,0,0,.23,1.415" transform="translate(4408.057 801.828)" fill="#0a58ca"/>
        <path id="Path_2036" data-name="Path 2036" d="M42.243,403.275a1.574,1.574,0,0,1,.307,1.038,1.077,1.077,0,0,1-.689.782,1.509,1.509,0,0,1-1.415-.365,7.434,7.434,0,0,1-.982-1.17,7.337,7.337,0,0,0-5.177-2.792l1.575-1.436a7.766,7.766,0,0,1,6.381,3.942" transform="translate(4408.879 801.817)" fill="#fff"/>
        <path id="Path_2037" data-name="Path 2037" d="M41.667,398.493a7.963,7.963,0,0,1,3.511,3.237,1.582,1.582,0,0,1,.306,1.038,1.074,1.074,0,0,1-.688.782,1.507,1.507,0,0,1-1.415-.366,7.454,7.454,0,0,1-.984-1.17,7.314,7.314,0,0,0-6.422-2.784q.78-.709,1.557-1.42a7.943,7.943,0,0,1,4.134.681" transform="translate(4409.119 801.594)" fill="#fff"/>
        <path id="Path_2038" data-name="Path 2038" d="M38.209,397.5a16.432,16.432,0,0,1,4.944-3.3c2.256-.858,5.055-.734,6.794.938a5.882,5.882,0,0,1,1.506,5.1,7.754,7.754,0,0,1-.6,2.139,11.137,11.137,0,0,1-1.561,2.474c-.6-5.422-5.313-7.962-11.086-7.345" transform="translate(4409.438 801.011)" fill="#fff"/>
        <path id="Path_2039" data-name="Path 2039" d="M28.631,411.613a11.319,11.319,0,0,1,1.233-5.3l3.061-3.212q1.093-.994,2.184-1.99a7.327,7.327,0,0,1,1.937.427,7.406,7.406,0,0,1,3.24,2.363,7.383,7.383,0,0,0,.982,1.17,1.509,1.509,0,0,0,1.415.365,1.077,1.077,0,0,0,.689-.782,1.578,1.578,0,0,0-.307-1.038,7.762,7.762,0,0,0-6.381-3.942c.118-.109.236-.216.354-.323a7.314,7.314,0,0,1,6.423,2.784,7.33,7.33,0,0,0,.982,1.169,1.507,1.507,0,0,0,1.415.367,1.077,1.077,0,0,0,.689-.782,1.574,1.574,0,0,0-.307-1.038,7.819,7.819,0,0,0-7.64-3.921l.058-.053c.308-.282.621-.564.936-.844,5.773-.616,10.482,1.922,11.086,7.346a26.025,26.025,0,0,1-3.47,3.359,33.182,33.182,0,0,0-5.266,5.143c-1.49,1.967-2.342,4.15-4.526,5.537a8.046,8.046,0,0,1-4.835,1.189,4.665,4.665,0,0,1-3.82-2.675,4.215,4.215,0,0,1-.23-1.415,37.981,37.981,0,0,1,.1-3.9" transform="translate(4408.057 801.476)"/>
        <path id="Path_2040" data-name="Path 2040" d="M39.6,401.39l-.36,6.51c-4.11,2.37-8.43,1.081-9.87-.419l-.27-6.091Z" transform="translate(4408.14 802.109)" fill="#ffb797"/>
        <path id="Path_2041" data-name="Path 2041" d="M31.881,279.2a6.307,6.307,0,0,0,.618-1.019A59.223,59.223,0,0,0,74.869,283c3,22.338,5.582,60.165,4,85.119-1.317,29.05-6.663,70.185-6.663,70.185-6.971,2.091-12.2.813-14.176-.7-2.325-28.819-7.437-48.572-3.486-67.629-2.634-13.325-4.338-30.058-4.338-30.058L48.19,369.359l-6.817,51.749a12.224,12.224,0,0,1-12.241-.62c-4.957-29.593-6.816-49.645-2.479-64.331C20.035,307.6,19.7,295.173,31.881,279.2" transform="translate(4407.144 784.58)" fill="red"/>
        <path id="Path_2049" data-name="Path 2049" d="M26.536,197.6a10.344,10.344,0,1,0,10.345-10.347A10.344,10.344,0,0,0,26.536,197.6" transform="translate(4407.776 771.642)"/>
        <path id="Path_2064" data-name="Path 2064" d="M176.48,419.477c.889,2.8,3.957,4.4,6.883,4.632s5.818-.591,8.706-1.114c6.469-1.171,12.7-.009,19.155-.161a27.23,27.23,0,0,0,6.3-.685,10.4,10.4,0,0,0,5.386-3.173,7.025,7.025,0,0,0,1.55-3.378,6.647,6.647,0,0,1-1.55,5.269,10.406,10.406,0,0,1-5.386,3.174,27.229,27.229,0,0,1-6.3.683c-6.45.153-12.686-1.009-19.155.162-2.889.523-5.78,1.347-8.706,1.114s-5.995-1.833-6.883-4.632a7.353,7.353,0,0,1-.225-2.98,5.983,5.983,0,0,0,.225,1.089" transform="translate(4429.07 804.131)" fill="#0a58ca"/>
        <path id="Path_2065" data-name="Path 2065" d="M176.646,415.7l1.19-5.877a8.679,8.679,0,0,1,1-2.99,2.955,2.955,0,0,1,2.617-1.5c3.541-.472,8.521-1.753,11.465.272a26.414,26.414,0,0,0,15.841,4.6c2.927-.111,5.856-.711,8.762-.354s5.931,1.975,6.794,4.774a5.622,5.622,0,0,1,.151,2.552,7.042,7.042,0,0,1-1.55,3.377,10.4,10.4,0,0,1-5.387,3.173,27.287,27.287,0,0,1-6.3.685c-6.45.152-12.687-1.01-19.155.161-2.889.524-5.78,1.347-8.706,1.114s-6-1.833-6.883-4.632a5.89,5.89,0,0,1-.225-1.089,13.7,13.7,0,0,1,.391-4.271" transform="translate(4429.071 802.552)"/>
        <path id="Path_2066" data-name="Path 2066" d="M193.392,400.08l.252,7.656a3.03,3.03,0,0,1-2.811,3.13,48.09,48.09,0,0,1-7.716-.074,4.358,4.358,0,0,1-3.945-4.1l-.3-5.653Z" transform="translate(4429.45 801.923)" fill="#ffb797"/>
        <path id="Path_2067" data-name="Path 2067" d="M147.828,398.9a5.907,5.907,0,0,0,1.025,3.162,5.755,5.755,0,0,0,3.613,2.034,9.12,9.12,0,0,0,8.967-3.692c.963-1.394,1.511-3.034,2.422-4.462a20.318,20.318,0,0,1,5.027-4.889,21.173,21.173,0,0,0,5.066-4.854,7.154,7.154,0,0,0,.969-6.477,5.231,5.231,0,0,1,.474.814,7.351,7.351,0,0,1-.909,6.9,21.718,21.718,0,0,1-5.169,5,20.785,20.785,0,0,0-5.13,5.04c-.93,1.471-1.488,3.163-2.471,4.6a9.264,9.264,0,0,1-9.151,3.8,5.861,5.861,0,0,1-3.686-2.1,7.117,7.117,0,0,1-1.071-4.4c0-.162.017-.324.025-.487" transform="translate(4425.029 799.027)" fill="#0a58ca"/>
        <path id="Path_2068" data-name="Path 2068" d="M150.15,389.748c2.327-4.079,7.127-7.047,10.829-9.936a13.886,13.886,0,0,1,7.176-3.26c2.656-.219,5.564,1,6.683,3.417.032.069.049.143.078.212a7.157,7.157,0,0,1-.968,6.477,21.171,21.171,0,0,1-5.066,4.854,20.28,20.28,0,0,0-5.027,4.889c-.912,1.428-1.46,3.068-2.422,4.462a9.12,9.12,0,0,1-8.967,3.692,5.756,5.756,0,0,1-3.613-2.033,5.915,5.915,0,0,1-1.026-3.163c-.025-.369-.032-.739-.025-1.1a17.993,17.993,0,0,1,2.347-8.505" transform="translate(4425.029 798.572)"/>
        <path id="Path_2069" data-name="Path 2069" d="M160.122,385.005v6.958c-6.349,2.652-10.828-.479-10.828-.479l-.652-6.262Z" transform="translate(4425.149 799.778)" fill="#ffb797"/>
        <path id="Path_2070" data-name="Path 2070" d="M147.21,274.493c-2.088,6.262.477,36,1.7,64.531-4.522,10.784-3.3,41.4-.7,63.139,0,0,9.087,2.972,17.262.19l5.7-60.2,1.423-33.918s2.576,30.091,5.533,49.4c-2.784,14.786-3.891,16.858.492,63.369,0,0,11.335,3.772,19.684-.323,3.886-63.893,2.457-122.119,1.72-143.057Z" transform="translate(4424.756 784.054)" fill="red"/>
        <g id="Group_839" data-name="Group 839" transform="translate(4837.589 903.942)">
          <g id="Group_838" data-name="Group 838">
            <g id="Group_837" data-name="Group 837" clip-path="url(#clip-path-14)">
              <path id="Path_1808" data-name="Path 1808" d="M390.008,145.641l-.372,211.628c-.007,2.221-.758,3.807-1.974,4.626h-.008a3.5,3.5,0,0,1-.416.239l-7.656,4.459c1.31-.785,2.122-2.418,2.129-4.734l.372-211.627a14.575,14.575,0,0,0-1.736-6.51l7.93-4.585a14.572,14.572,0,0,1,1.731,6.5" transform="translate(-379.582 -139.145)" fill="#ddd"/>
            </g>
          </g>
        </g>
        <g class="hover-amitmation">
          <g id="Group_1132" data-name="Group 1132" transform="translate(651.348 653.157)">
            <g id="Group_1131" data-name="Group 1131">
              <path id="Path_1855" data-name="Path 1855" d="M418.572,113.185,319.556,56.018a1.988,1.988,0,0,0-2-.2h0l-7.407,5.309h0a2,2,0,0,1,1.988.2L411.151,118.5a6.224,6.224,0,0,1,2.817,4.889l-.384,88.4a2.006,2.006,0,0,1-.787,1.785h0l7.5-5.37-.006-.011a2.051,2.051,0,0,0,.714-1.726l.384-88.4a6.224,6.224,0,0,0-2.817-4.889" transform="translate(3796.78 99.758)" fill="#ba68c8"/>
              <path id="Path_1856" data-name="Path 1856" d="M413.737,211.13l.384-88.4a6.224,6.224,0,0,0-2.817-4.889L312.288,60.672a2,2,0,0,0-1.989-.2,1.976,1.976,0,0,0-.848,1.829l-.383,88.4a6.221,6.221,0,0,0,2.817,4.888L410.9,212.755a1.948,1.948,0,0,0,2.048.16,2.006,2.006,0,0,0,.787-1.785" transform="translate(3796.626 100.42)" fill="#f2f2f2"/>
            </g>
            <g id="Group_893" data-name="Group 893" transform="translate(4111.977 188.432)">
              <g id="Group_892" data-name="Group 892">
                <g id="Group_891" data-name="Group 891" clip-path="url(#clip-path-15)">
                  <g id="Group_860" data-name="Group 860" transform="translate(0 32.161)" opacity="0.3">
                    <g id="Group_859" data-name="Group 859">
                      <g id="Group_858" data-name="Group 858" clip-path="url(#clip-path-16)">
                        <path id="Path_1857" data-name="Path 1857" d="M323.719,117.979l-.03,10.48-9.121-5.266.03-10.48Z" transform="translate(-314.568 -112.713)" fill="red"/>
                      </g>
                    </g>
                  </g>
                  <g id="Group_863" data-name="Group 863" transform="translate(0 51.778)" opacity="0.3">
                    <g id="Group_862" data-name="Group 862">
                      <g id="Group_861" data-name="Group 861" clip-path="url(#clip-path-17)">
                        <path id="Path_1858" data-name="Path 1858" d="M323.719,135.153l-.03,10.48-9.121-5.266.03-10.48Z" transform="translate(-314.568 -129.887)" fill="red"/>
                      </g>
                    </g>
                  </g>
                  <g id="Group_866" data-name="Group 866" transform="translate(9.127 57.043)">
                    <g id="Group_865" data-name="Group 865">
                      <g id="Group_864" data-name="Group 864" clip-path="url(#clip-path-17)">
                        <path id="Path_1859" data-name="Path 1859" d="M331.709,139.762l-.03,10.48-9.121-5.266.03-10.48Z" transform="translate(-322.558 -134.496)" fill="red"/>
                      </g>
                    </g>
                  </g>
                  <g id="Group_869" data-name="Group 869" transform="translate(14.532 43.741)" opacity="0.5">
                    <g id="Group_868" data-name="Group 868">
                      <g id="Group_867" data-name="Group 867" clip-path="url(#clip-path-19)">
                        <path id="Path_1860" data-name="Path 1860" d="M381.576,154.186l-.011,4.091L327.29,126.941l.013-4.09Z" transform="translate(-327.29 -122.851)" fill="red"/>
                      </g>
                    </g>
                  </g>
                  <g id="Group_872" data-name="Group 872" transform="translate(0.046 16.084)" opacity="0.3">
                    <g id="Group_871" data-name="Group 871">
                      <g id="Group_870" data-name="Group 870" clip-path="url(#clip-path-17)">
                        <path id="Path_1861" data-name="Path 1861" d="M323.759,103.9l-.03,10.48-9.121-5.266.03-10.48Z" transform="translate(-314.608 -98.639)" fill="red"/>
                      </g>
                    </g>
                  </g>
                  <g id="Group_875" data-name="Group 875" transform="translate(14.622 11.579)" opacity="0.5">
                    <g id="Group_874" data-name="Group 874">
                      <g id="Group_873" data-name="Group 873" clip-path="url(#clip-path-21)">
                        <path id="Path_1862" data-name="Path 1862" d="M381.656,126.031l-.011,4.1L327.369,98.794l.013-4.1Z" transform="translate(-327.369 -94.695)" fill="red"/>
                      </g>
                    </g>
                  </g>
                  <g id="Group_878" data-name="Group 878" transform="translate(14.577 27.665)" opacity="0.5">
                    <g id="Group_877" data-name="Group 877">
                      <g id="Group_876" data-name="Group 876" clip-path="url(#clip-path-22)">
                        <path id="Path_1863" data-name="Path 1863" d="M381.616,140.112,381.6,144.2l-54.275-31.336.013-4.089Z" transform="translate(-327.329 -108.777)" fill="red"/>
                      </g>
                    </g>
                  </g>
                  <g id="Group_881" data-name="Group 881" transform="translate(0.091)" opacity="0.3">
                    <g id="Group_880" data-name="Group 880">
                      <g id="Group_879" data-name="Group 879" clip-path="url(#clip-path-23)">
                        <path id="Path_1864" data-name="Path 1864" d="M323.8,89.824l-.03,10.49-9.121-5.267.03-10.488Z" transform="translate(-314.648 -84.558)" fill="red"/>
                      </g>
                    </g>
                  </g>
                  <g id="Group_884" data-name="Group 884" transform="translate(73.722 42.51)">
                    <g id="Group_883" data-name="Group 883">
                      <g id="Group_882" data-name="Group 882" clip-path="url(#clip-path-24)">
                        <path id="Path_1865" data-name="Path 1865" d="M397.874,132.591l-.03,10.49-18.737-10.819.03-10.488Z" transform="translate(-379.107 -121.773)" fill="red"/>
                      </g>
                    </g>
                  </g>
                  <g id="Group_887" data-name="Group 887" transform="translate(73.63 74.672)">
                    <g id="Group_886" data-name="Group 886">
                      <g id="Group_885" data-name="Group 885" clip-path="url(#clip-path-25)">
                        <path id="Path_1866" data-name="Path 1866" d="M397.794,160.747l-.03,10.48L379.028,160.41l.03-10.48Z" transform="translate(-379.027 -149.929)" fill="red"/>
                      </g>
                    </g>
                  </g>
                  <g id="Group_890" data-name="Group 890" transform="translate(73.676 58.596)">
                    <g id="Group_889" data-name="Group 889">
                      <g id="Group_888" data-name="Group 888" clip-path="url(#clip-path-26)">
                        <path id="Path_1867" data-name="Path 1867" d="M397.834,146.673l-.03,10.48-18.737-10.817.03-10.48Z" transform="translate(-379.067 -135.855)" fill="red"/>
                      </g>
                    </g>
                  </g>
                </g>
              </g>
            </g>
            <g id="Group_896" data-name="Group 896" transform="translate(4149.839 184.733)">
              <g id="Group_895" data-name="Group 895">
                <g id="Group_894" data-name="Group 894" clip-path="url(#clip-path-3)">
                  <path id="Path_1868" data-name="Path 1868" d="M405.806,114.84a6.224,6.224,0,0,1,2.817,4.889l-.024,8.455L347.714,93.032l.033-11.712Z" transform="translate(-347.714 -81.32)" fill="#fff"/>
                </g>
              </g>
            </g>
            <path id="Path_1869" data-name="Path 1869" d="M347.161,85.558l-33.947-19.6-.011,3.881,33.947,19.6Z" transform="translate(3797.215 101.227)" fill="#ddd"/>
            <path id="Path_1871" data-name="Path 1871" d="M391.214,114.993l6.84,3.949V117.86l-6.84-3.95Z" transform="translate(3808.314 108.05)" fill="red"/>
            <path id="Path_1872" data-name="Path 1872" d="M391.223,111.725l6.84,3.95v-1.093l-6.84-3.949Z" transform="translate(3808.315 107.583)" fill="red"/>
            <path id="Path_1873" data-name="Path 1873" d="M391.218,113.354l6.84,3.949v-1.082l-6.84-3.95Z" transform="translate(3808.315 107.817)" fill="red"/>
            <path id="Path_1874" data-name="Path 1874" d="M418.572,113.185,319.556,56.018a1.988,1.988,0,0,0-2-.2h0l-7.407,5.309h0a2,2,0,0,1,1.988.2L411.151,118.5a5.909,5.909,0,0,1,2.155,2.427l7.783-4.471a6.215,6.215,0,0,0-2.518-3.274" transform="translate(3796.78 99.758)" fill="red"/>
            <path id="Path_1875" data-name="Path 1875" d="M400.52,113.352a5.552,5.552,0,0,1,.66,2.462l-.383,88.4A2.009,2.009,0,0,1,400.01,206h0l7.5-5.37-.006-.011a2.047,2.047,0,0,0,.715-1.725l.384-88.4a5.015,5.015,0,0,0-.3-1.615Z" transform="translate(3809.566 107.334)" fill="#e11212"/>
          </g>
        </g>
        <g id="Group_1135" data-name="Group 1135">
          <path id="Path_1891" data-name="Path 1891" d="M418.572,213.543l-99.016-57.166a1.988,1.988,0,0,0-2-.2l-7.407,5.308h0a2,2,0,0,1,1.988.2l99.017,57.168a6.224,6.224,0,0,1,2.817,4.889l-.384,135.271a2.006,2.006,0,0,1-.787,1.785h0l7.5-5.37-.006-.011a2.051,2.051,0,0,0,.714-1.726l.384-135.271a6.224,6.224,0,0,0-2.817-4.889" transform="translate(4448.128 767.194)" fill="#ba68c8"/>
          <path id="Path_1892" data-name="Path 1892" d="M413.737,358.357l.384-135.271A6.224,6.224,0,0,0,411.3,218.2l-99.016-57.167a2,2,0,0,0-1.989-.2,1.974,1.974,0,0,0-.848,1.828l-.383,135.272a6.223,6.223,0,0,0,2.817,4.889L410.9,359.983a1.948,1.948,0,0,0,2.048.16,2.006,2.006,0,0,0,.787-1.785" transform="translate(4447.974 767.856)" fill="#fff"/>
          <g id="Group_917" data-name="Group 917" transform="translate(4801.187 952.527)">
            <g id="Group_916" data-name="Group 916">
              <g id="Group_915" data-name="Group 915" clip-path="url(#clip-path-28)">
                <path id="Path_1893" data-name="Path 1893" d="M405.806,215.2a6.224,6.224,0,0,1,2.817,4.889l-.024,8.455L347.714,193.39l.033-11.712Z" transform="translate(-347.714 -181.678)" fill="#ddd"/>
              </g>
            </g>
          </g>
          <path id="Path_1894" data-name="Path 1894" d="M319.959,245.15l-6.951-4.013-.024,8.445,6.951,4.013Z" transform="translate(4448.532 779.309)" fill="#fff"/>
          <path id="Path_1895" data-name="Path 1895" d="M319.989,234.692l-6.951-4.013-.024,8.445,6.951,4.013Z" transform="translate(4448.536 777.821)" fill="#fff"/>
          <path id="Path_1896" data-name="Path 1896" d="M347.161,185.917l-33.947-19.6L313.2,170.2l33.947,19.6Z" transform="translate(4448.563 768.663)" fill="#fff"/>
          <path id="Path_1898" data-name="Path 1898" d="M320.032,219.273l-6.951-4.013-.024,8.445,6.951,4.013Z" transform="translate(4448.542 775.627)" fill="#fff"/>
          <path id="Path_1899" data-name="Path 1899" d="M320.062,208.815l-6.951-4.013-.024,8.445,6.951,4.013Z" transform="translate(4448.546 774.139)" fill="#fff"/>
          <path id="Path_1900" data-name="Path 1900" d="M313.15,191.245l-.024,8.445,86.634,50.018.024-8.445Z" transform="translate(4448.552 772.21)" fill="#fff" stroke="#ddd" stroke-width="1"/>
          <path id="Path_1901" data-name="Path 1901" d="M388.969,243.478l9.319,5.38.023-8.445-9.318-5.38Zm3.427-3.54,1.244,2.154,1.251-.714.669,1.148-1.925,1.1-1.912-3.311Z" transform="translate(4459.343 778.44)" fill="#ddd" stroke="#ddd" stroke-width="1"/>
          <path id="Path_1902" data-name="Path 1902" d="M313.181,180.232l-.024,8.445L399.791,238.7l.024-8.445Z" transform="translate(4448.556 770.643)" fill="#fff" stroke="#ddd" stroke-width="1"/>
          <path id="Path_1904" data-name="Path 1904" d="M389,232.465l9.318,5.38.024-8.446-9.319-5.38Zm3.427-3.55,1.244,2.153,1.251-.713.668,1.157-1.924,1.087-1.912-3.3Z" transform="translate(4459.347 776.873)" fill="#ddd" stroke="#ddd" stroke-width="1"/>
          <path id="Path_1906" data-name="Path 1906" d="M351.159,235.229l.024-8.446-9.318-5.38-.025,8.446Zm-5.891-8.93,1.244,2.163,1.251-.723.668,1.157-1.924,1.1-1.912-3.31Z" transform="translate(4452.637 776.501)" fill="#ddd" stroke="#ddd" stroke-width="1"/>
          <path id="Path_1907" data-name="Path 1907" d="M322.241,229.008,344.6,241.914l.024-8.446-22.354-12.9Z" transform="translate(4449.849 776.381)" fill="#fff" stroke="#ddd" stroke-width="1"/>
          <path id="Path_1908" data-name="Path 1908" d="M344.649,223.01,322.294,210.1l-.024,8.446,22.354,12.906Z" transform="translate(4449.853 774.893)" fill="#fff" stroke="#ddd" stroke-width="1"/>
          <path id="Path_1910" data-name="Path 1910" d="M341.811,240.307l9.318,5.379.024-8.445-9.319-5.38-.024,8.446Zm3.427-3.55h0l1.244,2.153,1.251-.713.668,1.157-1.924,1.1-1.912-3.311Z" transform="translate(4452.633 777.989)" fill="#ddd" stroke="#ddd" stroke-width="1"/>
          <path id="Path_1911" data-name="Path 1911" d="M388.9,267.494l9.318,5.38.024-8.445-9.319-5.38Zm2.754-3.166.673-.384,1.244,2.154,1.251-.713.668,1.157-1.924,1.1Z" transform="translate(4459.333 781.857)" fill="#ddd" stroke="#ddd" stroke-width="1"/>
          <path id="Path_1912" data-name="Path 1912" d="M388.857,282.912l9.318,5.38.024-8.445-9.318-5.38Zm3.427-3.54,1.244,2.154,1.251-.714.669,1.148-1.925,1.1-1.912-3.311Z" transform="translate(4459.327 784.051)" fill="#ddd" stroke="#ddd" stroke-width="1"/>
          <path id="Path_1913" data-name="Path 1913" d="M388.828,293.371l9.318,5.38.024-8.446-9.318-5.38Zm3.427-3.55,1.244,2.164,1.251-.723.668,1.157-1.924,1.1-1.912-3.311Z" transform="translate(4459.323 785.539)" fill="#ddd" stroke="#ddd" stroke-width="1"/>
          <path id="Path_1914" data-name="Path 1914" d="M369.281,273.627l-.024,8.445,22.354,12.907.024-8.445Z" transform="translate(4456.538 783.931)" fill="#fff" stroke="#ddd" stroke-width="1"/>
          <path id="Path_1915" data-name="Path 1915" d="M369.311,263.168l-.024,8.445,22.354,12.907.024-8.445Z" transform="translate(4456.542 782.443)" fill="#fff" stroke="#ddd" stroke-width="1"/>
          <path id="Path_1916" data-name="Path 1916" d="M369.355,247.75l-.024,8.445,22.354,12.9.024-8.445Z" transform="translate(4456.548 780.249)" fill="#fff" stroke="#ddd" stroke-width="1"/>
          <path id="Path_1917" data-name="Path 1917" d="M369.384,237.291l-.024,8.445,22.354,12.907.024-8.445Z" transform="translate(4456.553 778.761)" fill="#fff" stroke="#ddd" stroke-width="1"/>
          <path id="Path_1919" data-name="Path 1919" d="M388.955,248.59l-.024,8.446,9.319,5.38.023-8.446Zm3.4,4.9h0l1.244,2.163,1.252-.723.667,1.157-1.924,1.1-1.912-3.31Z" transform="translate(4459.337 780.369)" fill="#ddd" stroke="#ddd" stroke-width="1"/>
          <path id="Path_1920" data-name="Path 1920" d="M360.147,250.893l6.951,4.013.024-8.445-6.951-4.013Z" transform="translate(4455.242 779.495)" fill="#fff"/>
          <path id="Path_1921" data-name="Path 1921" d="M367.152,236l-6.952-4.01-.024,8.445,6.951,4.013Z" transform="translate(4455.246 778.007)" fill="#fff"/>
          <path id="Path_1922" data-name="Path 1922" d="M393.224,267.029l1.925-1.1-.668-1.157-1.252.713-1.244-2.153-.673.383Z" transform="translate(4459.676 782.467)" fill="#fff"/>
          <path id="Path_1923" data-name="Path 1923" d="M322.2,244.426l22.354,12.907.024-8.446-22.354-12.9Z" transform="translate(4449.842 778.575)" fill="#fff" stroke="#ddd" stroke-width="1"/>
          <path id="Path_1924" data-name="Path 1924" d="M341.766,255.725l9.32,5.38.023-8.445-9.319-5.38Zm3.428-3.54,1.244,2.154,1.251-.714.669,1.148-1.925,1.1-1.912-3.311Z" transform="translate(4452.627 780.183)" fill="#ddd" stroke="#ddd" stroke-width="1"/>
          <path id="Path_1925" data-name="Path 1925" d="M346.091,255.259h0l1.925-1.1-.669-1.148-1.251.714-1.244-2.154-.673.374Z" transform="translate(4452.97 780.793)" fill="#fff"/>
          <path id="Path_1927" data-name="Path 1927" d="M341.737,266.184h0l9.319,5.38.024-8.446-9.318-5.38Zm3.428-3.551,1.244,2.165,1.251-.723.668,1.157-1.924,1.1-1.912-3.31Z" transform="translate(4452.623 781.67)" fill="#ddd" stroke="#ddd" stroke-width="1"/>
          <path id="Path_1928" data-name="Path 1928" d="M330.525,274.435l.024-8.445-6.951-4.013-.024,8.445Z" transform="translate(4450.038 782.274)" fill="#fff"/>
          <path id="Path_1929" data-name="Path 1929" d="M322.167,254.885l22.354,12.907.024-8.446L322.191,246.44Z" transform="translate(4449.838 780.063)" fill="#fff" stroke="#ddd" stroke-width="1"/>
          <path id="Path_1930" data-name="Path 1930" d="M345.765,291.074h0l-32.844-18.963-.024,8.446,32.844,18.962Z" transform="translate(4448.519 783.715)" fill="#fff" stroke="#ddd" stroke-width="1"/>
          <path id="Path_1932" data-name="Path 1932" d="M341.673,288.711l-.024,8.446,9.319,5.38.024-8.446Zm3.4,4.9h0l1.244,2.163,1.251-.723.669,1.157-1.925,1.1-.7-1.212L344.4,294Z" transform="translate(4452.61 786.077)" fill="#ddd" stroke="#ddd" stroke-width="1"/>
          <path id="Path_1933" data-name="Path 1933" d="M392.854,318.261,360.01,299.3l-.024,8.446,32.844,18.962Z" transform="translate(4455.219 787.584)" fill="#fff" stroke="#ddd" stroke-width="1"/>
          <path id="Path_1946" data-name="Path 1946" d="M388.764,315.9l-.024,8.446,9.318,5.38.024-8.446Zm3.4,4.9.453.789.79,1.374,1.251-.723.668,1.157-1.924,1.1-1.912-3.311Z" transform="translate(4459.31 789.946)" fill="#ddd" stroke="#ddd" stroke-width="1"/>
          <path id="Path_1959" data-name="Path 1959" d="M394.987,322.783l-.668-1.157-1.252.723-.789-1.374-.453-.789-.673.383,1.911,3.311Z" transform="translate(4459.653 790.555)" fill="#fff"/>
          <path id="Path_1960" data-name="Path 1960" d="M360.074,276.77l6.951,4.013.024-8.445-6.951-4.013Z" transform="translate(4455.232 783.177)" fill="#fff"/>
          <path id="Path_1961" data-name="Path 1961" d="M360.1,266.312l6.951,4.013.024-8.445-6.951-4.013Z" transform="translate(4455.236 781.689)" fill="#fff"/>
          <path id="Path_1962" data-name="Path 1962" d="M395.1,281.349l-.668-1.148-1.252.714-1.244-2.154-.672.374,1.911,3.311Z" transform="translate(4459.67 784.662)" fill="#fff"/>
          <path id="Path_1963" data-name="Path 1963" d="M395.075,291.809h0l-.668-1.157-1.252.723-1.243-2.163-.673.383,1.911,3.311Z" transform="translate(4459.666 786.149)" fill="#fff"/>
          <path id="Path_1964" data-name="Path 1964" d="M319.917,259.852l-6.951-4.013-.024,8.445,6.951,4.013Z" transform="translate(4448.526 781.4)" fill="#fff"/>
          <path id="Path_1965" data-name="Path 1965" d="M347.513,284.243l6.951,4.013.024-8.445-6.951-4.013Z" transform="translate(4453.444 784.24)" fill="#fff"/>
          <path id="Path_1966" data-name="Path 1966" d="M358.138,290.377l6.959,4.017.024-8.445-6.959-4.017Z" transform="translate(4454.956 785.113)" fill="#fff"/>
          <path id="Path_1967" data-name="Path 1967" d="M380.25,294.685l-.024,8.445,6.951,4.014.024-8.446Z" transform="translate(4458.099 786.927)" fill="#fff"/>
          <path id="Path_1968" data-name="Path 1968" d="M390.851,309.264l6.959,4.019.024-8.446-6.959-4.017Z" transform="translate(4459.61 787.8)" fill="#fff"/>
          <path id="Path_1969" data-name="Path 1969" d="M391.231,209.352v1.092l6.841,3.95V213.3Z" transform="translate(4459.664 774.786)" fill="#fff"/>
          <path id="Path_1970" data-name="Path 1970" d="M391.214,215.352l6.84,3.949v-1.082l-6.84-3.95Z" transform="translate(4459.662 775.486)" fill="#fff"/>
          <path id="Path_1971" data-name="Path 1971" d="M391.223,212.083l6.84,3.949V214.94l-6.84-3.949Z" transform="translate(4459.663 775.019)" fill="#fff"/>
          <path id="Path_1972" data-name="Path 1972" d="M391.218,213.713l6.84,3.949V216.58l-6.84-3.95Z" transform="translate(4459.663 775.253)" fill="#fff"/>
          <g id="Group_992" data-name="Group 992" transform="translate(4758.274 923.184)">
            <g id="Group_991" data-name="Group 991">
              <g id="Group_990" data-name="Group 990" clip-path="url(#clip-path-29)">
                <path id="Path_1973" data-name="Path 1973" d="M418.572,213.543l-99.016-57.166a1.988,1.988,0,0,0-2-.2l-7.407,5.308h0a2,2,0,0,1,1.988.2l99.017,57.168a5.916,5.916,0,0,1,2.155,2.427l7.783-4.471a6.215,6.215,0,0,0-2.518-3.274" transform="translate(-310.146 -155.99)" fill="#3283fb"/>
              </g>
            </g>
          </g>
          <g id="Group_995" data-name="Group 995" transform="translate(4860.925 984.01)">
            <g id="Group_994" data-name="Group 994">
              <g id="Group_993" data-name="Group 993" clip-path="url(#clip-path-30)">
                <path id="Path_1974" data-name="Path 1974" d="M400.52,213.711a5.552,5.552,0,0,1,.66,2.462l-.38,135.27a2.01,2.01,0,0,1-.787,1.785h0l7.5-5.37-.006-.011a2.05,2.05,0,0,0,.715-1.726l.384-135.271a5.013,5.013,0,0,0-.3-1.615Z" transform="translate(-400.011 -209.24)" fill="#0a58ca"/>
              </g>
            </g>
          </g>
          <path id="Path_1909" data-name="Path 1909" d="M346.134,239.841l1.925-1.1-.668-1.157-1.252.713-1.244-2.153-.672.383Z" transform="translate(4452.976 778.599)" fill="#fff"/>
          <path id="Path_1905" data-name="Path 1905" d="M348.088,228.286l-.668-1.157-1.252.723-1.243-2.163-.673.383,1.911,3.311Z" transform="translate(4452.98 777.111)" fill="#fff"/>
          <path id="Path_1903" data-name="Path 1903" d="M395.248,230.9l-.668-1.157-1.252.713-1.243-2.153-.673.383,1.911,3.3Z" transform="translate(4459.69 777.483)" fill="#fff"/>
          <path id="Path_1897" data-name="Path 1897" d="M395.216,241.915l-.668-1.148-1.252.714-1.244-2.154-.672.374,1.911,3.311Z" transform="translate(4459.686 779.051)" fill="#fff"/>
          <path id="Path_1918" data-name="Path 1918" d="M395.178,255.474l-.668-1.157-1.252.723-1.243-2.163-.673.383,1.911,3.311Z" transform="translate(4459.68 780.979)" fill="#fff"/>
          <path id="Path_1926" data-name="Path 1926" d="M346.065,264.187l-1.244-2.163-.673.383,1.912,3.311,1.925-1.1-.668-1.157Z" transform="translate(4452.966 782.28)" fill="#fff"/>
          <path id="Path_1931" data-name="Path 1931" d="M345.273,295.48l.7,1.212,1.924-1.1-.668-1.157-1.252.723L344.734,293l-.673.383Z" transform="translate(4452.953 786.687)" fill="#fff"/>
        </g>
      </g>
    </g>
  </g>
</svg>
