<svg xmlns="http://www.w3.org/2000/svg" xmlns:xlink="http://www.w3.org/1999/xlink" width="534.5" height="391.452" viewBox="0 0 534.5 391.452">
<style xmlns="http://www.w3.org/2000/svg">
      .hoverClass{animation: hover 2s ease-in-out infinite; transform-origin: center; transform-box: fill-box;}
      .css{animation-delay: 1s;}
      .code{animation-delay: 1s;}
      @-webkit-keyframes hover {
        0%{transform: translateY(0);}
        50%{transform: translateY(-10px);}
        100%{transform: translateY(0);}
      }
  </style>
  <defs>
    <filter id="Path_350" x="0" y="13.452" width="483.888" height="378" filterUnits="userSpaceOnUse">
      <feOffset dy="26" input="SourceAlpha"/>
      <feGaussianBlur stdDeviation="13" result="blur"/>
      <feFlood flood-color="#ddd" flood-opacity="0.502"/>
      <feComposite operator="in" in2="blur"/>
      <feComposite in="SourceGraphic"/>
    </filter>
    <clipPath id="clip-path">
      <rect id="Rectangle_373" data-name="Rectangle 373" width="171.922" height="99.214" fill="#ddd"/>
    </clipPath>
    <clipPath id="clip-path-2">
      <rect id="Rectangle_374" data-name="Rectangle 374" width="62.56" height="36.109" fill="none"/>
    </clipPath>
    <clipPath id="clip-path-3">
      <rect id="Rectangle_375" data-name="Rectangle 375" width="80.286" height="46.353" fill="none"/>
    </clipPath>
    <clipPath id="clip-path-4">
      <rect id="Rectangle_379" data-name="Rectangle 379" width="1.863" height="52.583" fill="red"/>
    </clipPath>
    <clipPath id="clip-path-5">
      <rect id="Rectangle_402" data-name="Rectangle 402" width="2.998" height="42.001" fill="#ddd"/>
    </clipPath>
    <clipPath id="clip-path-6">
      <rect id="Rectangle_390" data-name="Rectangle 390" width="2.998" height="3.11" fill="#ddd"/>
    </clipPath>
    <clipPath id="clip-path-18">
      <rect id="Rectangle_424" data-name="Rectangle 424" width="1.903" height="1.625" fill="#fff"/>
    </clipPath>
    <clipPath id="clip-path-19">
      <rect id="Rectangle_426" data-name="Rectangle 426" width="5.956" height="3.969" fill="none"/>
    </clipPath>
    <clipPath id="clip-path-20">
      <rect id="Rectangle_427" data-name="Rectangle 427" width="1.903" height="1.626" fill="#fff"/>
    </clipPath>
    <clipPath id="clip-path-23">
      <rect id="Rectangle_439" data-name="Rectangle 439" width="27.431" height="61.635" fill="#fff"/>
    </clipPath>
    <clipPath id="clip-path-24">
      <rect id="Rectangle_442" data-name="Rectangle 442" width="1.814" height="42.908" fill="#3283fb"/>
    </clipPath>
    <clipPath id="clip-path-25">
      <rect id="Rectangle_447" data-name="Rectangle 447" width="9.622" height="5.979" fill="#ddd"/>
    </clipPath>
    <clipPath id="clip-path-26">
      <rect id="Rectangle_448" data-name="Rectangle 448" width="4.555" height="3.065" fill="#ddd"/>
    </clipPath>
    <clipPath id="clip-path-27">
      <rect id="Rectangle_455" data-name="Rectangle 455" width="23.045" height="13.956" fill="none"/>
    </clipPath>
    <clipPath id="clip-path-28">
      <rect id="Rectangle_463" data-name="Rectangle 463" width="6.769" height="14.325" fill="#ddd"/>
    </clipPath>
    <clipPath id="clip-path-29">
      <rect id="Rectangle_464" data-name="Rectangle 464" width="6.85" height="32.273" fill="#ddd"/>
    </clipPath>
    <clipPath id="clip-path-30">
      <rect id="Rectangle_465" data-name="Rectangle 465" width="31.911" height="18.486" fill="#ddd"/>
    </clipPath>
  </defs>
  <g id="Group_1133" data-name="Group 1133" transform="translate(-691.5 -2890)">
    <circle id="Ellipse_2" data-name="Ellipse 2" cx="57" cy="57" r="57" transform="translate(714 3127)" fill="#fff6f6"/>
    <circle id="Ellipse_25" data-name="Ellipse 25" cx="132.5" cy="132.5" r="132.5" transform="translate(961 2890)" fill="#eff6ff"/>
    <g id="Group_478" data-name="Group 478" transform="translate(-4232.5 1135.5)">
      <g transform="matrix(1, 0, 0, 1, 4924, 1754.5)" filter="url(#Path_350)">
        <path id="Path_350-2" data-name="Path 350" d="M404.888,56.057V242.214c0,29.851-23.906,49.986-52.786,54.049-33.706,4.743-68.431,2.768-139.383-2.195-39.841-2.789-119.947,1.83-159.933,2.195C23.634,296.529,0,272.064,0,242.214V56.057C0,26.206,23.684.251,52.786,2.008,79.811,3.639,119.563,10.093,161,6.14c21.681-2.068,51.927-4,83.117-5.125C283.827-.418,325.065-.546,352.1,2.008a65.232,65.232,0,0,1,6.983,1.04c25.761,5.257,45.8,25.591,45.8,53.009" transform="translate(39.5 27)" fill="#fff" stroke="#ddd" stroke-width="1"/>
      </g>
      <path id="Path_828" data-name="Path 828" d="M281.447,273.906,208.58,316a2.162,2.162,0,0,1-1.958,0L101.558,255.34a.6.6,0,0,1,0-1.13l72.867-42.092a2.161,2.161,0,0,1,1.958,0l105.064,60.659a.6.6,0,0,1,0,1.13" transform="translate(5001.817 1716.64)" fill="rgba(221,221,221,0.4)"/>
      <path id="Path_829" data-name="Path 829" d="M119.6,387.311c17.094-9.869,17.094-25.87,0-35.739s-44.808-9.869-61.9,0-17.093,25.871,0,35.739,44.808,9.869,61.9,0" transform="translate(5025.285 1661.473)" fill="rgba(221,221,221,0.4)"/>
      <path id="Path_830" data-name="Path 830" d="M284.3,261.157v64.678a1.442,1.442,0,0,1-.652,1.13l-1.389.8a1.442,1.442,0,0,1-1.305,0l-1.388-.8a1.442,1.442,0,0,1-.652-1.13V261.157c0-.416.292-.585.652-.377l1.388.8a1.442,1.442,0,0,0,1.305,0l1.388-.8c.36-.208.652-.04.652.377" transform="translate(4927.687 1696.285)" fill="#2c3e50"/>
      <path id="Path_831" data-name="Path 831" d="M280.952,327.765l-1.387-.8a1.443,1.443,0,0,1-.653-1.13V261.156c0-.416.293-.585.653-.377l1.388.8a1.443,1.443,0,0,1,.652,1.13v64.678c0,.416-.293.585-.653.377" transform="translate(4927.687 1696.286)" fill="#2c3e50"/>
      <path id="Path_832" data-name="Path 832" d="M385.812,202.513V267.19a1.441,1.441,0,0,1-.653,1.13l-1.388.8a1.442,1.442,0,0,1-1.305,0l-1.387-.8a1.442,1.442,0,0,1-.653-1.13V202.513c0-.416.293-.585.653-.377l1.388.8a1.441,1.441,0,0,0,1.3,0l1.388-.8c.361-.208.653-.04.653.377" transform="translate(4885.354 1720.741)" fill="#37474f"/>
      <path id="Path_833" data-name="Path 833" d="M382.465,269.122l-1.387-.8a1.442,1.442,0,0,1-.653-1.13V202.513c0-.416.292-.585.653-.377l1.387.8a1.442,1.442,0,0,1,.653,1.13v64.678c0,.416-.293.585-.653.377" transform="translate(4885.354 1720.741)" fill="#455a64"/>
      <path id="Path_834" data-name="Path 834" d="M147.586,182.265v64.678a1.444,1.444,0,0,1-.652,1.13l-1.389.8a1.442,1.442,0,0,1-1.305,0l-1.387-.8a1.444,1.444,0,0,1-.652-1.13V182.265c0-.416.292-.585.652-.377l1.388.8a1.442,1.442,0,0,0,1.305,0l1.388-.8c.36-.208.652-.04.652.377" transform="translate(4984.699 1729.185)" fill="#37474f"/>
      <path id="Path_835" data-name="Path 835" d="M144.239,248.874l-1.387-.8a1.442,1.442,0,0,1-.653-1.13V182.265c0-.416.292-.585.653-.377l1.387.8a1.442,1.442,0,0,1,.653,1.13V248.5c0,.416-.292.585-.652.377" transform="translate(4984.699 1729.185)" fill="#455a64"/>
      <path id="Path_836" data-name="Path 836" d="M287.773,165.665v-.473a2.625,2.625,0,0,0-1.188-2.058L182.224,102.94a2.624,2.624,0,0,0-2.376,0l-64.2,37.08a2.625,2.625,0,0,0-1.188,2.057v.473a2.627,2.627,0,0,0,1.188,2.057L220.008,204.8a2.628,2.628,0,0,0,2.376,0l64.2-37.08a2.625,2.625,0,0,0,1.188-2.057" transform="translate(4996.268 1762.19)" fill="#f2f2f2"/>
      <path id="Path_838" data-name="Path 838" d="M297.55,245.245v3.219a2.507,2.507,0,0,0,1.189-.283l64.2-37.081a2.626,2.626,0,0,0,1.189-2.057v-.476a2.625,2.625,0,0,0-.969-1.9c.43.366.357.878-.22,1.217l-64.2,37.081a2.409,2.409,0,0,1-1.189.283" transform="translate(4919.914 1718.816)" fill="#f2f2f2"/>
      <path id="Path_840" data-name="Path 840" d="M287.083,164.505l-64.2,37.079a2.624,2.624,0,0,1-2.376,0L116.144,141.39a.724.724,0,0,1,0-1.372l64.2-37.079a2.626,2.626,0,0,1,2.376,0l104.361,60.194a.724.724,0,0,1,0,1.372" transform="translate(4995.771 1762.19)" fill="#27debf"/>
      <g id="Group_110" data-name="Group 110" transform="translate(5111.423 1864.845)">
        <g id="Group_109" data-name="Group 109">
          <g id="Group_108" data-name="Group 108" clip-path="url(#clip-path)">
            <path id="Path_841" data-name="Path 841" d="M287.083,164.505l-64.2,37.079a2.624,2.624,0,0,1-2.376,0L116.144,141.39a.724.724,0,0,1,0-1.372l64.2-37.079a2.626,2.626,0,0,1,2.376,0l104.361,60.194a.724.724,0,0,1,0,1.372" transform="translate(-115.653 -102.655)" fill="#ddd"/>
          </g>
        </g>
      </g>
      <g id="Group_113" data-name="Group 113" transform="translate(5147.37 1898.788)" opacity="0.15">
        <g id="Group_112" data-name="Group 112">
          <g id="Group_111" data-name="Group 111" clip-path="url(#clip-path-2)">
            <path id="Path_842" data-name="Path 842" d="M239.522,187.977l-15.211,8.807a1.881,1.881,0,0,1-1.7,0l-44.938-25.91a.52.52,0,0,1,0-.985l15.212-8.807a1.88,1.88,0,0,1,1.7,0l44.939,25.91a.52.52,0,0,1,0,.985" transform="translate(-177.314 -160.879)" opacity="0.51"/>
          </g>
        </g>
      </g>
      <path id="Path_843" data-name="Path 843" d="M179.5,167.26a.6.6,0,0,1,.353-.493l14.29-8.249a1.883,1.883,0,0,1,1.7,0l43.6,25.216a.6.6,0,0,1,.353.492v1.5a.6.6,0,0,1-.354.493l-14.283,8.249a1.891,1.891,0,0,1-1.706,0l-43.609-25.176a.6.6,0,0,1-.353-.49c0-.178,0-1.361,0-1.538" transform="translate(4969.145 1738.979)" fill="#f2f2f2"/>
      <path id="Path_844" data-name="Path 844" d="M225.169,192.93l14.283-8.211a.519.519,0,0,0,0-.983l-43.6-25.217a1.885,1.885,0,0,0-1.7,0l-14.29,8.249a.519.519,0,0,0,0,.984l43.609,25.176a1.887,1.887,0,0,0,1.706,0" transform="translate(4969.144 1738.979)" fill="#fff"/>
      <path id="Path_845" data-name="Path 845" d="M256.469,211.667V213.2a1.766,1.766,0,0,0,.8-.2l14.278-8.249a.6.6,0,0,0,.354-.492v-1.5a.6.6,0,0,1-.354.492l-14.278,8.215a1.76,1.76,0,0,1-.8.2" transform="translate(4937.046 1720.444)" fill="#f2f2f2"/>
      <path id="Path_846" data-name="Path 846" d="M184.04,168.482a.022.022,0,0,1,.01-.018l1.414-.817,1.919,1.108-1.423.844-1.917-1.106Zm2.214-1.278a.024.024,0,0,1,.01-.018l1.414-.816,1.507.87-1.424.844-1.5-.869Zm.466,2.826a.022.022,0,0,1,.01-.018l1.415-.817,1.506.87-1.424.844-1.5-.869Zm1.748-4.1a.022.022,0,0,1,.01-.019l1.414-.817,2.434,1.406-1.423.845-2.433-1.4Zm.054,2.588a.023.023,0,0,1,.01-.018l1.414-.817,1.2.691-1.424.845-1.2-.69Zm.466,2.826a.022.022,0,0,1,.01-.018l1.414-.816,1.508.869-1.424.844-1.5-.869Zm1.492-1.695a.024.024,0,0,1,.011-.019l1.414-.816,1.2.691-1.422.844-1.2-.69Zm.2-5a.024.024,0,0,1,.01-.019l1.414-.816,1.919,1.108-1.424.844-1.917-1.107Zm.575,8a.026.026,0,0,1,.01-.018l1.414-.816L203.57,178.1l-1.425.844-10.886-6.286Zm.408-4.878a.024.024,0,0,1,.01-.019l1.414-.816,1.2.691-1.423.844-1.2-.69Zm.776,3a.022.022,0,0,1,.01-.019l1.414-.816,1.2.691-1.423.844-1.2-.69Zm.456-7.406a.026.026,0,0,1,.01-.019l1.414-.816,1.2.691-1.423.845-1.2-.69Zm.466,2.826a.022.022,0,0,1,.01-.018l1.414-.817,1.2.691-1.424.844-1.2-.69Zm.261,2.707a.026.026,0,0,1,.01-.019l1.414-.816,1.2.691-1.424.845-1.195-.69Zm.776,3a.024.024,0,0,1,.01-.019l1.414-.816,1.2.691-1.424.844-1.194-.69Zm.456-7.406a.024.024,0,0,1,.01-.019l1.414-.816,1.2.691-1.422.844-1.2-.69Zm.466,2.826a.022.022,0,0,1,.01-.018l1.414-.817,1.2.691-1.424.844-1.2-.69Zm.259,2.707a.026.026,0,0,1,.011-.019l1.414-.817,1.2.691-1.424.844-1.195-.69Zm0-8.215a.024.024,0,0,1,.01-.019l1.414-.817,1.506.87-1.424.844-1.5-.869Zm.775,11.219a.023.023,0,0,1,.01-.019l1.414-.816,1.2.691-1.423.844-1.2-.69Zm.456-7.406a.024.024,0,0,1,.01-.019l1.414-.816,1.2.691-1.423.844-1.2-.69Zm.466,2.826a.024.024,0,0,1,.01-.019l1.414-.817,1.2.692-1.424.844-1.2-.69Zm.261,2.706a.022.022,0,0,1,.01-.018l1.414-.817,1.2.691-1.424.844-1.195-.69Zm.775,3a.024.024,0,0,1,.01-.019l1.414-.816,1.2.691-1.422.844-1.2-.69Zm.387-10.549a.022.022,0,0,1,.01-.018l1.415-.817,1.2.692-1.424.844-1.2-.69Zm.069,3.143a.026.026,0,0,1,.011-.019l1.414-.816,1.2.691-1.424.845-1.194-.691Zm.467,2.826a.022.022,0,0,1,.01-.018l1.414-.817,1.2.691-1.424.844-1.2-.69Zm.26,2.707a.025.025,0,0,1,.011-.019l1.414-.816,1.2.691L200.7,173l-1.194-.69Zm.776,3a.025.025,0,0,1,.011-.018l1.414-.817,1.2.691-1.424.844-1.195-.69Zm.387-10.549a.024.024,0,0,1,.01-.019l1.414-.816,1.2.691-1.424.844-1.2-.69Zm.069,3.142a.022.022,0,0,1,.01-.017l1.415-.817,1.2.692-1.424.844-1.194-.691Zm.468,2.827a.022.022,0,0,1,.01-.019l1.414-.817,1.2.691-1.424.844-1.2-.69Zm.259,2.706a.023.023,0,0,1,.01-.018l1.415-.817,1.2.691-1.424.844-1.194-.69Zm.777,3a.022.022,0,0,1,.01-.018l1.414-.817,1.2.691-1.423.844-1.2-.69Zm.386-10.549a.025.025,0,0,1,.01-.019l1.414-.816,1.2.691-1.424.844-1.2-.69Zm.07,3.143a.026.026,0,0,1,.01-.019l1.414-.816,1.2.691-1.424.845-1.195-.69Zm.217,10.351a.023.023,0,0,1,.01-.019l1.414-.817,1.506.87-1.424.845-1.5-.869Zm.25-7.526a.022.022,0,0,1,.01-.018l1.414-.817,1.2.691-1.424.844-1.2-.69Zm.259,2.707a.022.022,0,0,1,.01-.018l1.415-.817,1.2.691-1.424.844-1.195-.69Zm.777,3a.026.026,0,0,1,.01-.019l1.414-.816,1.2.691-1.424.844-1.194-.69Zm.387-10.549a.022.022,0,0,1,.01-.018l1.414-.817,1.2.691-1.424.844-1.2-.69Zm.069,3.143a.026.026,0,0,1,.011-.019l1.414-.816,1.2.691-1.424.845-1.195-.691Zm.467,2.826a.023.023,0,0,1,.01-.018l1.414-.817,1.2.691-1.424.845-1.2-.69Zm.059,7.7a.026.026,0,0,1,.011-.019l1.414-.816,1.506.869-1.423.845-1.5-.869Zm.2-5a.025.025,0,0,1,.011-.019l1.414-.816,1.2.691-1.424.844-1.195-.69Zm.776,3a.028.028,0,0,1,.01-.02l1.414-.816,1.2.691-1.422.844-1.2-.69Zm.456-7.407a.024.024,0,0,1,.01-.019l1.415-.817,1.2.691-1.424.845-1.194-.691Zm.468,2.826a.023.023,0,0,1,.009-.018l1.414-.817,1.2.692-1.422.844-1.2-.69Zm.259,2.707a.022.022,0,0,1,.01-.018l1.415-.817,1.2.691-1.424.844-1.194-.69Zm.057-8.183a.022.022,0,0,1,.01-.018l1.414-.817,1.2.692-1.424.844-1.2-.69Zm.052,13.359a.024.024,0,0,1,.01-.019l1.414-.816,1.507.87-1.424.844-1.505-.869Zm.668-2.172a.021.021,0,0,1,.01-.017l1.415-.817,1.2.692-1.424.844-1.195-.69Zm.456-7.406a.025.025,0,0,1,.011-.019l1.413-.816,1.2.691-1.424.845-1.194-.691Zm.468,2.826a.022.022,0,0,1,.01-.018l1.414-.817,1.2.692-1.424.844-1.2-.691Zm.259,2.707a.023.023,0,0,1,.01-.018l1.415-.817,1.2.691-1.424.844-1.194-.69Zm.057-8.183a.023.023,0,0,1,.01-.018l1.414-.817,1.2.691-1.424.844-1.2-.691Zm.362,13.538a.022.022,0,0,1,.01-.019l1.414-.817,1.919,1.108-1.424.845-1.916-1.106Zm.357-2.35a.023.023,0,0,1,.011-.018l1.414-.817,3.775,2.18-1.424.844-3.772-2.178Zm.456-7.407a.024.024,0,0,1,.01-.019l1.415-.816,1.2.692-1.424.844-1.195-.691Zm.468,2.826a.022.022,0,0,1,.01-.018l1.414-.817,1.2.691-1.424.844-1.2-.69Zm.259,2.707a.023.023,0,0,1,.01-.018l1.415-.817,1.2.691-1.424.844-1.194-.69Zm.057-8.183a.022.022,0,0,1,.01-.018l1.414-.817,1.2.691-1.424.845-1.2-.691Zm1.176,3.781a.024.024,0,0,1,.01-.019l1.415-.816,1.2.691-1.424.845-1.195-.691Zm.319,10.411a.02.02,0,0,1,.01-.017l1.415-.818,1.2.691L214,185.79l-1.194-.69Zm.147-7.585a.022.022,0,0,1,.01-.018l1.414-.817,1.2.691-1.423.844-1.2-.69Zm.26,2.707a.022.022,0,0,1,.01-.017l1.415-.817,1.093.632a.749.749,0,0,0,.345.071.759.759,0,0,0,.362-.075l1.857-1.073,1.4.811-3.636,2.123-2.846-1.643Zm.057-8.183a.022.022,0,0,1,.01-.018l1.414-.817,1.2.691-1.424.845-1.2-.691Zm1.175,3.782a.022.022,0,0,1,.01-.018l1.414-.817,1.2.691-1.424.844-1.194-.69Zm.321,10.411a.022.022,0,0,1,.01-.019l1.414-.817,1.2.691-1.424.844-1.194-.69Zm.146-7.585a.023.023,0,0,1,.01-.018l1.414-.817,1.2.691-1.424.845-1.195-.69Zm1.169-4.984a.023.023,0,0,1,.01-.018l1.414-.817,1.2.691-1.424.844-1.2-.69Zm.323,3.289a.024.024,0,0,1,.01-.019l1.414-.816,1.2.691-1.424.845-1.194-.691Zm.319,10.411a.023.023,0,0,1,.011-.019l1.414-.816,1.2.691-1.424.844-1.195-.69Zm.255-2.409a.026.026,0,0,1,.01-.019l1.415-.816,1.2.692-1.424.844-1.2-.69Zm1.061-10.16a.023.023,0,0,1,.01-.018l1.414-.817,1.2.691-1.422.845-1.2-.69Zm.323,3.289a.026.026,0,0,1,.01-.019l1.414-.816,2.126,1.227-1.424.844-2.122-1.226Zm.733,10.649a.022.022,0,0,1,.01-.018l1.414-.817,3.157,1.822-1.424.844-3.154-1.821Zm.353-7.466a.026.026,0,0,1,.01-.019l1.414-.816,1.2.692-1.423.844-1.2-.69Zm.551-5.342a.024.024,0,0,1,.01-.019l1.414-.817,1.2.691-1.422.845-1.2-.69Zm1.311,11.529a.024.024,0,0,1,.01-.019l1.414-.816,1.2.691-1.423.845-1.2-.691Zm.1-5.056a.025.025,0,0,1,.01-.019l1.414-.816,1.2.691-1.424.845-1.2-.69Zm.255-2.409a.026.026,0,0,1,.01-.019l1.414-.817,1.2.691-1.424.844-1.2-.69Zm.3-2.932a.022.022,0,0,1,.01-.018l1.414-.817,1.2.691-1.423.845-1.2-.69Zm1.055,13.938a.025.025,0,0,1,.01-.019l1.414-.816,1.2.691-1.424.844-1.2-.69Zm.255-2.409a.026.026,0,0,1,.01-.019l1.414-.816,1.2.691-1.424.844-1.2-.69Zm.1-5.056a.024.024,0,0,1,.01-.019l1.414-.816,1.2.691-1.424.845-1.2-.69Zm.157,2.647a.022.022,0,0,1,.01-.019l1.414-.817,1.2.691-1.423.844-1.2-.69Zm.1-5.057a.024.024,0,0,1,.01-.019l1.414-.816,1.2.691-1.424.844-1.2-.69Zm.728-2.682a.022.022,0,0,1,.01-.018l1.414-.817,1.2.692-1.424.844-1.2-.69Zm.623,13.688a.023.023,0,0,1,.01-.019L228.609,190l1.2.691-3.637,2.123-1.2-.691Zm.255-2.409a.024.024,0,0,1,.01-.019l1.414-.816,1.2.691-1.424.844-1.2-.69Zm.255-2.409a.023.023,0,0,1,.01-.019l1.414-.817,1.2.691-1.423.844-1.2-.69Zm.1-5.057a.024.024,0,0,1,.01-.019L227,181.4l1.2.691-1.424.844-1.2-.69Zm.156,2.647a.023.023,0,0,1,.01-.017l1.415-.818,1.2.692-1.424.844-1.194-.69Zm.572-5.33a.022.022,0,0,1,.01-.018l1.414-.817,1.2.691-1.424.845-1.2-.69Zm1.133,8.87a.022.022,0,0,1,.01-.019l1.414-.817,1.2.691-1.422.845-1.2-.69Zm.254-2.409a.021.021,0,0,1,.01-.018l1.415-.818,1.2.691-1.424.845-1.195-.69Zm.255-2.409a.023.023,0,0,1,.01-.018l1.414-.817,1.2.691-1.424.844-1.195-.69Zm.317-2.92a.022.022,0,0,1,.01-.018l1.414-.817,1.2.691-1.424.845-1.2-.691Zm1.133,8.87a.024.024,0,0,1,.01-.019l3.628-2.095,1.2.691-3.636,2.123-1.2-.69Zm.254-2.409a.021.021,0,0,1,.01-.017l1.415-.818,1.2.691-1.424.845-1.195-.691Zm.255-2.409a.021.021,0,0,1,.01-.017l1.414-.817,1.2.691-1.424.844-1.195-.69Zm1.3-3.01a.022.022,0,0,1,.01-.018l.6-.354,1.2.691-.614.38-1.191-.687Zm.662,4.141a.022.022,0,0,1,.01-.018l1.414-.816,1.2.691-1.424.844-1.195-.69Zm1.3-3.01a.026.026,0,0,1,.01-.019l.6-.354,1.2.691-.615.38-1.191-.687Zm.662,4.141a.022.022,0,0,1,.01-.018l1.414-.816,1.2.691-1.424.844-1.194-.69Zm1.3-3.01a.024.024,0,0,1,.01-.019l.6-.354,1.2.691-.615.38L235.126,184Zm1.958,1.132a.026.026,0,0,1,.011-.019l.6-.354,1.2.691-.615.38-1.19-.687Z" transform="translate(4967.251 1737.866)" fill="#ddd"/>
      <g id="Group_116" data-name="Group 116" transform="translate(5177.82 1881.243)" opacity="0.03">
        <g id="Group_115" data-name="Group 115">
          <g id="Group_114" data-name="Group 114" clip-path="url(#clip-path-3)">
            <path id="Path_847" data-name="Path 847" d="M296.452,177.135l13.381-7.726-66.9-38.627-13.382,7.725Z" transform="translate(-229.547 -130.782)"/>
          </g>
        </g>
      </g>
      <path id="Path_848" data-name="Path 848" d="M271.431,169.093l-9.553-5.524a2.506,2.506,0,0,1-1.477-2.059c0-.745,0-1.329,0-1.329l8.989-5.1a2.1,2.1,0,0,0,.951-1.647V141.655l16.685,9.642v11.778a2.1,2.1,0,0,1-.951,1.647l-7.509,4.372a7.882,7.882,0,0,1-7.132,0" transform="translate(4935.408 1745.926)" fill="#e6e6e6"/>
      <path id="Path_849" data-name="Path 849" d="M299.2,170.747v1.323l3.058-1.762a2.1,2.1,0,0,0,.95-1.647V156.883l-3.179-1.833c-.066.807-.137,1.642-.2,2.454l2.229,1.29V168a2.089,2.089,0,0,1-.95,1.647Z" transform="translate(4919.228 1740.34)" fill="#e0e0e0"/>
      <path id="Path_850" data-name="Path 850" d="M285.873,163.78a2.1,2.1,0,0,1-.951,1.647l-6.357,3.706a7.883,7.883,0,0,1-7.133,0l-9.557-5.523c-1.97-1.137-1.97-2.98,0-4.117l6.361-3.709a2.1,2.1,0,0,0,.951-1.647v-9.2l16.686,9.641Z" transform="translate(4935.408 1744.558)" fill="#f5f5f5"/>
      <path id="Path_851" data-name="Path 851" d="M270.52,156.9h0l1.937-1.119a2.1,2.1,0,0,0,.951-1.647v-9.2l16.686,9.642v9.2a2.1,2.1,0,0,1-.951,1.647l-1.9,1.1Z" transform="translate(4931.187 1744.559)" fill="#ebebeb"/>
      <path id="Path_852" data-name="Path 852" d="M260.4,173.437v1.329a2.512,2.512,0,0,0,1.477,2.059l9.555,5.52a7.143,7.143,0,0,0,3.4.845v-1.323a7.151,7.151,0,0,1-3.4-.846l-9.555-5.525a2.505,2.505,0,0,1-1.477-2.059" transform="translate(4935.407 1732.672)" fill="#ebebeb"/>
      <path id="Path_853" data-name="Path 853" d="M301.393,128.874a2.549,2.549,0,0,1-2.3-.043L234.561,91.577a2.627,2.627,0,0,1-1.189-2.058V33.037a2.233,2.233,0,0,1,3.419-1.974l64.527,37.255a2.627,2.627,0,0,1,1.189,2.059v56.48a2.549,2.549,0,0,1-1.115,2.017" transform="translate(4946.679 1792.17)" fill="#ddd"/>
      <path id="Path_854" data-name="Path 854" d="M299.089,129.847,234.561,92.593a2.629,2.629,0,0,1-1.189-2.059V34.053c0-.758.532-1.066,1.189-.686l64.528,37.254a2.628,2.628,0,0,1,1.189,2.059v56.481c0,.758-.532,1.065-1.189.686" transform="translate(4946.679 1791.153)" fill="#f2f2f2"/>
      <path id="Path_855" data-name="Path 855" d="M346.4,193.363a2.222,2.222,0,0,0,3.245-2.064v-6.352l-2.229,1.29v6.352c0,.692-.439,1-1.016.774" transform="translate(4899.543 1727.872)" fill="#e0e0e0"/>
      <path id="Path_856" data-name="Path 856" d="M300.278,159.525v6.352c0,.758-.532,1.065-1.189.686l-64.528-37.254a2.628,2.628,0,0,1-1.189-2.059V120.9Z" transform="translate(4946.679 1754.583)" fill="#fff"/>
      <path id="Path_857" data-name="Path 857" d="M299.643,120.738v-44.7a1.576,1.576,0,0,0-.713-1.235L237.911,39.571c-.394-.227-.713-.043-.713.412l0,44.7a1.577,1.577,0,0,0,.713,1.235l61.021,35.227c.394.227.713.043.713-.412" transform="translate(4945.084 1788.538)" fill="#f2f2f2"/>
      <path id="Path_859" data-name="Path 859" d="M289.959,158.086a2.466,2.466,0,0,1,1.115,1.932c0,.711-.5,1-1.115.644a2.462,2.462,0,0,1-1.116-1.932c0-.711.5-1,1.116-.644" transform="translate(4923.546 1739.138)" fill="#ddd"/>
      <path id="Path_860" data-name="Path 860" d="M347.539,97.982a2.536,2.536,0,0,1,.352,1.175v50.278l2.229-1.291V97.872a2.465,2.465,0,0,0-.352-1.175Z" transform="translate(4899.067 1764.675)" fill="#ddd"/>
      <path id="Path_861" data-name="Path 861" d="M251.478,14.179a.459.459,0,0,1,.019-.1.025.025,0,0,1,0-.023.4.4,0,0,1,.026-.1.519.519,0,0,1,.068-.146.5.5,0,0,1,.071-.1.349.349,0,0,1,.075-.075l.008-.008a.463.463,0,0,1,.1-.056.825.825,0,0,1,.765.1l75.305,43.458a2.521,2.521,0,0,1,1.139,1.972v54.762a.77.77,0,0,1-.41.684l-.048.033c-.019.011-.037.022-.06.033a.424.424,0,0,1-.1.034.661.661,0,0,1-.146.019.733.733,0,0,1-.377-.108l-.03-.017h0L326.8,113.9,252.609,71.072A2.515,2.515,0,0,1,251.47,69.1V14.32c0-.048,0-.1.008-.142" transform="translate(4939.131 1799.366)" fill="#fff"/>
      <path id="Path_862" data-name="Path 862" d="M252.111,12.979a.824.824,0,0,1,.765.1l75.305,43.458a2.521,2.521,0,0,1,1.139,1.972v3.719l1.452-.851V57.68a2.51,2.51,0,0,0-1.135-1.968L254.329,12.254a.791.791,0,0,0-.825-.067c-.205.124-1.15.665-1.393.792" transform="translate(4938.863 1799.954)" fill="#e11212"/>
      <path id="Path_863" data-name="Path 863" d="M251.475,14.312c0-.719.511-1.009,1.137-.648l75.306,43.458a2.517,2.517,0,0,1,1.137,1.97v3.721L251.475,18.046Z" transform="translate(4939.129 1799.366)" fill="red"/>
      <path id="Path_866" data-name="Path 866" d="M379.69,89.62a1.7,1.7,0,0,1,.642,1.361c0,.546-.287.823-.642.619a1.7,1.7,0,0,1-.642-1.361c0-.547.287-.824.642-.619" transform="translate(4885.928 1767.655)" fill="#fff"/>
      <path id="Path_867" data-name="Path 867" d="M375.721,87.324a1.7,1.7,0,0,1,.642,1.361c0,.546-.288.823-.642.619a1.7,1.7,0,0,1-.643-1.361c0-.547.288-.824.643-.619" transform="translate(4887.583 1768.612)" fill="#fff"/>
      <path id="Path_868" data-name="Path 868" d="M371.751,85.029a1.7,1.7,0,0,1,.642,1.361c0,.546-.287.823-.642.619a1.7,1.7,0,0,1-.643-1.361c0-.547.288-.823.643-.619" transform="translate(4889.239 1769.569)" fill="#fff"/>
      <g id="Group_128" data-name="Group 128" transform="translate(5267.775 1861.327)" opacity="0.9">
        <g id="Group_127" data-name="Group 127">
          <g id="Group_126" data-name="Group 126" clip-path="url(#clip-path-4)">
            <path id="Path_869" data-name="Path 869" d="M383.85,149.2l.059-.033,1.2-.694a1.2,1.2,0,0,0,.594-.882,1.219,1.219,0,0,0,.012-.166V96.62l-1.454.852v51.04a.745.745,0,0,1-.354.646.273.273,0,0,1-.037.026s0,.007-.008.007Z" transform="translate(-383.85 -96.62)" fill="red"/>
          </g>
        </g>
      </g>
      <path id="Path_870" data-name="Path 870" d="M290.752,54.521l15.877,9.149a.867.867,0,0,1,.4.671c0,.242-.181.333-.4.2L290.752,55.4a.866.866,0,0,1-.4-.671c0-.242.181-.333.4-.2" transform="translate(4922.918 1782.288)" fill="#ddd"/>
      <path id="Path_871" data-name="Path 871" d="M301.159,84.563l6.018,3.461a.866.866,0,0,1,.4.671c0,.242-.181.333-.4.2l-6.018-3.461a.866.866,0,0,1-.4-.671c0-.242.181-.333.4-.2" transform="translate(4918.578 1769.759)" fill="#ddd"/>
      <path id="Path_872" data-name="Path 872" d="M301.159,90.571l6.018,3.461a.866.866,0,0,1,.4.671c0,.242-.181.333-.4.2l-6.018-3.461a.866.866,0,0,1-.4-.671c0-.242.181-.333.4-.2" transform="translate(4918.578 1767.254)" fill="#ddd"/>
      <path id="Path_873" data-name="Path 873" d="M320.674,71.767,352.46,90.073a.867.867,0,0,1,.4.671c0,.242-.181.333-.4.2L320.674,72.643a.866.866,0,0,1-.4-.671c0-.242.181-.333.4-.2" transform="translate(4910.439 1775.096)" fill="#ddd"/>
      <path id="Path_874" data-name="Path 874" d="M301.384,126.694l9.679,5.6a.867.867,0,0,1,.4.672c0,.242-.181.333-.4.2l-9.679-5.6a.866.866,0,0,1-.4-.671c0-.242.181-.333.4-.2" transform="translate(4918.484 1752.19)" fill="#ddd"/>
      <path id="Path_875" data-name="Path 875" d="M320.674,137.852l31.786,18.329a.866.866,0,0,1,.4.671c0,.242-.181.333-.4.2l-31.786-18.329a.866.866,0,0,1-.4-.671c0-.242.181-.333.4-.2" transform="translate(4910.439 1747.536)" fill="#ddd"/>
      <path id="Path_876" data-name="Path 876" d="M290.752,60.543l8,4.6a.867.867,0,0,1,.4.672c0,.241-.181.333-.4.2l-8-4.6a.866.866,0,0,1-.4-.671c0-.242.181-.333.4-.2" transform="translate(4922.918 1779.776)" fill="#ddd"/>
      <path id="Path_878" data-name="Path 878" d="M290.752,66.54l3.742,2.158a.867.867,0,0,1,.4.671c0,.242-.181.333-.4.2l-3.742-2.158a.866.866,0,0,1-.4-.671c0-.242.181-.333.4-.2" transform="translate(4922.918 1777.275)" fill="#ddd"/>
      <path id="Path_880" data-name="Path 880" d="M290.752,78.556l3.742,2.158a.868.868,0,0,1,.4.672c0,.241-.181.333-.4.2l-3.742-2.158a.866.866,0,0,1-.4-.671c0-.242.181-.333.4-.2" transform="translate(4922.918 1772.264)" fill="#ddd"/>
      <path id="Path_882" data-name="Path 882" d="M290.752,84.564l3.742,2.158a.868.868,0,0,1,.4.672c0,.241-.181.333-.4.2l-3.742-2.158a.866.866,0,0,1-.4-.671c0-.242.181-.333.4-.2" transform="translate(4922.918 1769.759)" fill="#ddd"/>
      <path id="Path_884" data-name="Path 884" d="M307.157,69.977l4.8,2.778a.867.867,0,0,1,.4.672c0,.241-.181.333-.4.2l-4.8-2.778a.866.866,0,0,1-.4-.671c0-.242.181-.333.4-.2" transform="translate(4916.076 1775.842)" fill="#ddd"/>
      <path id="Path_886" data-name="Path 886" d="M319.879,113.411l32.25,18.568a.866.866,0,0,1,.4.671c0,.242-.181.333-.4.2l-32.25-18.568a.866.866,0,0,1-.4-.671c0-.242.181-.333.4-.2" transform="translate(4910.771 1757.729)" fill="#ddd"/>
      <path id="Path_887" data-name="Path 887" d="M366.971,134.478l4.8,2.778a.867.867,0,0,1,.4.671c0,.242-.181.333-.4.2l-4.8-2.778a.866.866,0,0,1-.4-.671c0-.242.181-.333.4-.2" transform="translate(4891.133 1748.943)" fill="#ddd"/>
      <path id="Path_888" data-name="Path 888" d="M308.964,101.077l32.25,18.568a.867.867,0,0,1,.4.671c0,.242-.181.333-.4.2l-32.25-18.568a.866.866,0,0,1-.4-.671c0-.242.181-.333.4-.2" transform="translate(4915.323 1762.873)" fill="#ddd"/>
      <path id="Path_889" data-name="Path 889" d="M301.159,72.549l8,4.6a.867.867,0,0,1,.4.671c0,.242-.181.333-.4.2l-8-4.6a.866.866,0,0,1-.4-.671c0-.242.181-.333.4-.2" transform="translate(4918.578 1774.769)" fill="#ddd"/>
      <path id="Path_891" data-name="Path 891" d="M317.564,81.982l33.361,19.3a.867.867,0,0,1,.4.672c0,.241-.181.333-.4.2l-33.361-19.3a.866.866,0,0,1-.4-.671c0-.242.181-.333.4-.2" transform="translate(4911.736 1770.836)" fill="#ddd"/>
      <path id="Path_893" data-name="Path 893" d="M301.159,108.72l43.163,24.891a.866.866,0,0,1,.4.671c0,.242-.181.333-.4.2L301.159,109.6a.866.866,0,0,1-.4-.671c0-.242.181-.333.4-.2" transform="translate(4918.578 1759.685)" fill="#ddd"/>
      <path id="Path_894" data-name="Path 894" d="M290.752,102.714l3.742,2.158a.867.867,0,0,1,.4.671c0,.242-.181.333-.4.2l-3.742-2.158a.866.866,0,0,1-.4-.671c0-.242.181-.333.4-.2" transform="translate(4922.918 1762.19)" fill="#ddd"/>
      <path id="Path_896" data-name="Path 896" d="M301.159,114.726l43.163,24.891a.866.866,0,0,1,.4.671c0,.242-.181.333-.4.2L301.159,115.6a.866.866,0,0,1-.4-.671c0-.242.181-.333.4-.2" transform="translate(4918.578 1757.181)" fill="#ddd"/>
      <path id="Path_897" data-name="Path 897" d="M290.752,108.719l3.742,2.158a.867.867,0,0,1,.4.672c0,.241-.181.333-.4.2l-3.742-2.158a.866.866,0,0,1-.4-.671c0-.242.181-.333.4-.2" transform="translate(4922.918 1759.686)" fill="#ddd"/>
      <path id="Path_899" data-name="Path 899" d="M301.159,120.732l43.163,24.891a.866.866,0,0,1,.4.671c0,.242-.181.333-.4.2l-43.163-24.891a.866.866,0,0,1-.4-.671c0-.242.181-.333.4-.2" transform="translate(4918.578 1754.676)" fill="#ddd"/>
      <path id="Path_900" data-name="Path 900" d="M290.752,114.726l3.742,2.158a.868.868,0,0,1,.4.672c0,.241-.181.333-.4.2l-3.742-2.158a.866.866,0,0,1-.4-.671c0-.242.181-.333.4-.2" transform="translate(4922.918 1757.181)" fill="#ddd"/>
      <g id="Group_197" data-name="Group 197" transform="translate(5207.438 1833.243)">
        <g id="Group_196" data-name="Group 196">
          <g id="Group_195" data-name="Group 195" clip-path="url(#clip-path-5)">
            <g id="Group_161" data-name="Group 161">
              <g id="Group_160" data-name="Group 160">
                <g id="Group_159" data-name="Group 159" clip-path="url(#clip-path-6)">
                  <path id="Path_902" data-name="Path 902" d="M280.75,48.5l2.2,1.27a.883.883,0,0,1,.4.692v.809c0,.255-.178.358-.4.23l-2.2-1.269a.884.884,0,0,1-.4-.692v-.809c0-.255.179-.358.4-.231" transform="translate(-280.352 -48.446)" fill="#ddd"/>
                </g>
              </g>
            </g>
            <g id="Group_164" data-name="Group 164" transform="translate(0 3.536)">
              <g id="Group_163" data-name="Group 163">
                <g id="Group_162" data-name="Group 162" clip-path="url(#clip-path-6)">
                  <path id="Path_903" data-name="Path 903" d="M280.75,54.565l2.2,1.27a.882.882,0,0,1,.4.692v.808c0,.255-.178.359-.4.231l-2.2-1.27a.882.882,0,0,1-.4-.691V54.8c0-.255.179-.358.4-.231" transform="translate(-280.352 -54.511)" fill="#ddd"/>
                </g>
              </g>
            </g>
            <g id="Group_167" data-name="Group 167" transform="translate(0 7.071)">
              <g id="Group_166" data-name="Group 166">
                <g id="Group_165" data-name="Group 165" clip-path="url(#clip-path-6)">
                  <path id="Path_904" data-name="Path 904" d="M280.75,60.63l2.2,1.27a.882.882,0,0,1,.4.692V63.4c0,.255-.178.359-.4.231l-2.2-1.27a.882.882,0,0,1-.4-.691v-.809c0-.255.179-.359.4-.231" transform="translate(-280.352 -60.575)" fill="#ddd"/>
                </g>
              </g>
            </g>
            <g id="Group_170" data-name="Group 170" transform="translate(0 10.607)">
              <g id="Group_169" data-name="Group 169">
                <g id="Group_168" data-name="Group 168" clip-path="url(#clip-path-6)">
                  <path id="Path_905" data-name="Path 905" d="M280.75,66.695l2.2,1.27a.883.883,0,0,1,.4.692v.808c0,.255-.178.359-.4.231l-2.2-1.269a.884.884,0,0,1-.4-.692v-.809c0-.255.179-.359.4-.231" transform="translate(-280.352 -66.64)" fill="#ddd"/>
                </g>
              </g>
            </g>
            <g id="Group_173" data-name="Group 173" transform="translate(0 14.142)">
              <g id="Group_172" data-name="Group 172">
                <g id="Group_171" data-name="Group 171" clip-path="url(#clip-path-6)">
                  <path id="Path_906" data-name="Path 906" d="M280.75,72.759l2.2,1.27a.883.883,0,0,1,.4.692v.808c0,.255-.178.359-.4.231l-2.2-1.269a.884.884,0,0,1-.4-.692V72.99c0-.255.179-.358.4-.231" transform="translate(-280.352 -72.705)" fill="#ddd"/>
                </g>
              </g>
            </g>
            <g id="Group_176" data-name="Group 176" transform="translate(0 17.678)">
              <g id="Group_175" data-name="Group 175">
                <g id="Group_174" data-name="Group 174" clip-path="url(#clip-path-6)">
                  <path id="Path_907" data-name="Path 907" d="M280.75,78.824l2.2,1.27a.882.882,0,0,1,.4.692v.808c0,.255-.178.359-.4.231l-2.2-1.27a.882.882,0,0,1-.4-.691v-.809c0-.255.179-.358.4-.231" transform="translate(-280.352 -78.77)" fill="#ddd"/>
                </g>
              </g>
            </g>
            <g id="Group_179" data-name="Group 179" transform="translate(0 21.213)">
              <g id="Group_178" data-name="Group 178">
                <g id="Group_177" data-name="Group 177" clip-path="url(#clip-path-6)">
                  <path id="Path_908" data-name="Path 908" d="M280.75,84.889l2.2,1.27a.882.882,0,0,1,.4.692v.808c0,.255-.178.359-.4.231l-2.2-1.269a.884.884,0,0,1-.4-.692V85.12c0-.255.179-.358.4-.231" transform="translate(-280.352 -84.834)" fill="#ddd"/>
                </g>
              </g>
            </g>
            <g id="Group_182" data-name="Group 182" transform="translate(0 24.749)">
              <g id="Group_181" data-name="Group 181">
                <g id="Group_180" data-name="Group 180" clip-path="url(#clip-path-6)">
                  <path id="Path_909" data-name="Path 909" d="M280.75,90.954l2.2,1.27a.883.883,0,0,1,.4.692v.808c0,.255-.178.359-.4.231l-2.2-1.269a.884.884,0,0,1-.4-.692v-.809c0-.255.179-.358.4-.231" transform="translate(-280.352 -90.899)" fill="#ddd"/>
                </g>
              </g>
            </g>
            <g id="Group_185" data-name="Group 185" transform="translate(0 28.285)">
              <g id="Group_184" data-name="Group 184">
                <g id="Group_183" data-name="Group 183" clip-path="url(#clip-path-6)">
                  <path id="Path_910" data-name="Path 910" d="M280.75,97.018l2.2,1.27a.882.882,0,0,1,.4.692v.809c0,.255-.178.358-.4.23l-2.2-1.27a.882.882,0,0,1-.4-.691v-.809c0-.255.179-.358.4-.231" transform="translate(-280.352 -96.964)" fill="#ddd"/>
                </g>
              </g>
            </g>
            <g id="Group_188" data-name="Group 188" transform="translate(0 31.821)">
              <g id="Group_187" data-name="Group 187">
                <g id="Group_186" data-name="Group 186" clip-path="url(#clip-path-6)">
                  <path id="Path_911" data-name="Path 911" d="M280.75,103.083l2.2,1.27a.882.882,0,0,1,.4.692v.808c0,.255-.178.359-.4.231l-2.2-1.27a.882.882,0,0,1-.4-.691v-.809c0-.255.179-.359.4-.231" transform="translate(-280.352 -103.029)" fill="#ddd"/>
                </g>
              </g>
            </g>
            <g id="Group_191" data-name="Group 191" transform="translate(0 35.356)">
              <g id="Group_190" data-name="Group 190" transform="translate(0 0)">
                <g id="Group_189" data-name="Group 189" clip-path="url(#clip-path-6)">
                  <path id="Path_912" data-name="Path 912" d="M280.75,109.148l2.2,1.27a.882.882,0,0,1,.4.692v.808c0,.255-.178.359-.4.231l-2.2-1.269a.884.884,0,0,1-.4-.692v-.809c0-.255.179-.358.4-.231" transform="translate(-280.352 -109.093)" fill="#ddd"/>
                </g>
              </g>
            </g>
            <g id="Group_194" data-name="Group 194" transform="translate(0 38.891)">
              <g id="Group_193" data-name="Group 193">
                <g id="Group_192" data-name="Group 192" clip-path="url(#clip-path-6)">
                  <path id="Path_913" data-name="Path 913" d="M280.75,115.213l2.2,1.27a.882.882,0,0,1,.4.692v.808c0,.255-.178.359-.4.231l-2.2-1.27a.882.882,0,0,1-.4-.691v-.809c0-.255.179-.358.4-.231" transform="translate(-280.352 -115.158)" fill="#ddd"/>
                </g>
              </g>
            </g>
          </g>
        </g>
      </g>
      <path id="Path_914" data-name="Path 914" d="M255.44,28.761l11.892,6.866a1.765,1.765,0,0,1,.8,1.383V50.743c0,.51-.358.716-.8.461L255.44,44.337a1.765,1.765,0,0,1-.8-1.383V29.222c0-.51.357-.716.8-.461" transform="translate(4937.809 1793.052)" fill="#0a58ca"/>
      <path id="Path_915" data-name="Path 915" d="M257.616,52.146l1.095.633a.867.867,0,0,1,.4.671c0,.242-.181.333-.4.2l-1.095-.633a.866.866,0,0,1-.4-.671c0-.242.181-.333.4-.2" transform="translate(4936.736 1783.278)" fill="#fff"/>
      <path id="Path_917" data-name="Path 917" d="M257.616,32.856l1.095.633a.867.867,0,0,1,.4.671c0,.242-.181.333-.4.2l-1.095-.633a.866.866,0,0,1-.4-.671c0-.242.181-.333.4-.2" transform="translate(4936.736 1791.322)" fill="#fff"/>
      <path id="Path_919" data-name="Path 919" d="M260.255,38.23l1.095.633a.867.867,0,0,1,.4.671c0,.242-.181.333-.4.2l-1.095-.633a.866.866,0,0,1-.4-.671c0-.242.181-.333.4-.2" transform="translate(4935.636 1789.081)" fill="#fff"/>
      <path id="Path_921" data-name="Path 921" d="M260.255,42.078l1.095.633a.867.867,0,0,1,.4.671c0,.242-.181.333-.4.2l-1.095-.633a.866.866,0,0,1-.4-.671c0-.242.181-.333.4-.2" transform="translate(4935.636 1787.477)" fill="#fff"/>
      <path id="Path_923" data-name="Path 923" d="M257.616,44.427l1.095.633a.867.867,0,0,1,.4.671c0,.242-.181.333-.4.2l-1.095-.633a.866.866,0,0,1-.4-.671c0-.242.181-.333.4-.2" transform="translate(4936.736 1786.497)" fill="#fff"/>
      <path id="Path_925" data-name="Path 925" d="M260.255,49.8l1.095.633a.867.867,0,0,1,.4.671c0,.242-.181.333-.4.2l-1.095-.633a.866.866,0,0,1-.4-.671c0-.242.181-.333.4-.2" transform="translate(4935.636 1784.255)" fill="#fff"/>
      <path id="Path_927" data-name="Path 927" d="M262.758,35.827l6.686,3.86a.867.867,0,0,1,.4.671c0,.242-.181.333-.4.2l-6.686-3.86a.866.866,0,0,1-.4-.671c0-.242.181-.333.4-.2" transform="translate(4934.592 1790.083)" fill="#fff"/>
      <path id="Path_929" data-name="Path 929" d="M262.758,55.117l6.686,3.86a.866.866,0,0,1,.4.671c0,.242-.181.333-.4.2l-6.686-3.86a.866.866,0,0,1-.4-.671c0-.242.181-.333.4-.2" transform="translate(4934.592 1782.039)" fill="#fff"/>
      <path id="Path_931" data-name="Path 931" d="M265.4,41.2l5.147,2.977a.867.867,0,0,1,.4.672c0,.242-.181.333-.4.2L265.4,42.076a.866.866,0,0,1-.4-.671c0-.242.181-.333.4-.2" transform="translate(4933.491 1787.843)" fill="#fff"/>
      <path id="Path_933" data-name="Path 933" d="M265.4,45.058l5.147,2.977a.867.867,0,0,1,.4.672c0,.241-.181.333-.4.2L265.4,45.934a.866.866,0,0,1-.4-.671c0-.242.181-.333.4-.2" transform="translate(4933.491 1786.234)" fill="#fff"/>
      <path id="Path_935" data-name="Path 935" d="M262.758,47.4l6.686,3.86a.867.867,0,0,1,.4.671c0,.242-.181.333-.4.2l-6.686-3.86a.866.866,0,0,1-.4-.671c0-.242.181-.333.4-.2" transform="translate(4934.592 1785.257)" fill="#fff"/>
      <path id="Path_937" data-name="Path 937" d="M265.4,52.775l5.147,2.977a.866.866,0,0,1,.4.671c0,.242-.181.333-.4.2L265.4,53.651a.866.866,0,0,1-.4-.671c0-.242.181-.333.4-.2" transform="translate(4933.491 1783.016)" fill="#fff"/>
      <path id="Path_939" data-name="Path 939" d="M255.44,59.912l11.892,6.866a1.766,1.766,0,0,1,.8,1.384V95.3c0,.51-.358.716-.8.461L255.44,88.891a1.766,1.766,0,0,1-.8-1.384V60.373c0-.51.357-.716.8-.461" transform="translate(4937.809 1780.061)" fill="red"/>
      <path id="Path_940" data-name="Path 940" d="M257.616,64.008l1.095.633a.867.867,0,0,1,.4.671c0,.242-.181.333-.4.2l-1.095-.633a.866.866,0,0,1-.4-.671c0-.242.181-.333.4-.2" transform="translate(4936.736 1778.331)" fill="#fff"/>
      <path id="Path_942" data-name="Path 942" d="M260.255,69.381l1.095.633a.867.867,0,0,1,.4.671c0,.242-.181.333-.4.2l-1.095-.633a.866.866,0,0,1-.4-.671c0-.242.181-.333.4-.2" transform="translate(4935.636 1776.091)" fill="#fff"/>
      <path id="Path_944" data-name="Path 944" d="M260.255,73.229l1.095.633a.867.867,0,0,1,.4.671c0,.242-.181.333-.4.2l-1.095-.633a.866.866,0,0,1-.4-.671c0-.242.181-.333.4-.2" transform="translate(4935.636 1774.486)" fill="#fff"/>
      <path id="Path_946" data-name="Path 946" d="M257.616,75.579l1.095.633a.867.867,0,0,1,.4.671c0,.242-.181.333-.4.2l-1.095-.633a.866.866,0,0,1-.4-.671c0-.242.181-.333.4-.2" transform="translate(4936.736 1773.506)" fill="#fff"/>
      <path id="Path_948" data-name="Path 948" d="M262.758,66.978l6.686,3.86a.866.866,0,0,1,.4.671c0,.242-.181.333-.4.2l-6.686-3.86a.866.866,0,0,1-.4-.671c0-.242.181-.333.4-.2" transform="translate(4934.592 1777.093)" fill="#fff"/>
      <path id="Path_950" data-name="Path 950" d="M265.4,72.351l5.147,2.977a.867.867,0,0,1,.4.672c0,.241-.181.333-.4.2L265.4,73.227a.866.866,0,0,1-.4-.671c0-.242.181-.333.4-.2" transform="translate(4933.491 1774.852)" fill="#fff"/>
      <path id="Path_952" data-name="Path 952" d="M265.4,76.209l5.147,2.977a.867.867,0,0,1,.4.672c0,.241-.181.333-.4.2L265.4,77.085a.866.866,0,0,1-.4-.671c0-.242.181-.333.4-.2" transform="translate(4933.491 1773.243)" fill="#fff"/>
      <path id="Path_954" data-name="Path 954" d="M262.758,78.552l6.686,3.86a.867.867,0,0,1,.4.671c0,.242-.181.333-.4.2l-6.686-3.86a.866.866,0,0,1-.4-.671c0-.242.181-.333.4-.2" transform="translate(4934.592 1772.266)" fill="#fff"/>
      <path id="Path_956" data-name="Path 956" d="M260.255,80.978l1.095.633a.867.867,0,0,1,.4.671c0,.242-.181.333-.4.2l-1.095-.633a.866.866,0,0,1-.4-.671c0-.242.181-.333.4-.2" transform="translate(4935.636 1771.254)" fill="#fff"/>
      <path id="Path_958" data-name="Path 958" d="M260.255,84.826l1.095.633a.867.867,0,0,1,.4.671c0,.242-.181.333-.4.2l-1.095-.633a.866.866,0,0,1-.4-.671c0-.242.181-.333.4-.2" transform="translate(4935.636 1769.65)" fill="#27debf"/>
      <g id="Group_263" data-name="Group 263" transform="translate(5195.487 1854.418)" opacity="0.6">
        <g id="Group_262" data-name="Group 262">
          <g id="Group_261" data-name="Group 261" clip-path="url(#clip-path-18)">
            <path id="Path_959" data-name="Path 959" d="M260.255,84.826l1.095.633a.867.867,0,0,1,.4.671c0,.242-.181.333-.4.2l-1.095-.633a.866.866,0,0,1-.4-.671c0-.242.181-.333.4-.2" transform="translate(-259.851 -84.768)" fill="#fff"/>
          </g>
        </g>
      </g>
      <path id="Path_960" data-name="Path 960" d="M265.4,83.948l5.147,2.977a.868.868,0,0,1,.4.672c0,.242-.181.333-.4.2L265.4,84.824a.866.866,0,0,1-.4-.671c0-.242.181-.333.4-.2" transform="translate(4933.491 1770.016)" fill="#fff"/>
      <path id="Path_962" data-name="Path 962" d="M265.4,87.806l5.147,2.977a.867.867,0,0,1,.4.672c0,.241-.181.333-.4.2L265.4,88.682a.866.866,0,0,1-.4-.671c0-.242.181-.333.4-.2" transform="translate(4933.491 1768.407)" fill="#27debf"/>
      <g id="Group_269" data-name="Group 269" transform="translate(5198.484 1856.155)" opacity="0.8">
        <g id="Group_268" data-name="Group 268">
          <g id="Group_267" data-name="Group 267" clip-path="url(#clip-path-19)">
            <path id="Path_963" data-name="Path 963" d="M265.4,87.806l5.147,2.977a.867.867,0,0,1,.4.672c0,.241-.181.333-.4.2L265.4,88.682a.866.866,0,0,1-.4-.671c0-.242.181-.333.4-.2" transform="translate(-264.993 -87.748)" fill="#fff"/>
          </g>
        </g>
      </g>
      <path id="Path_964" data-name="Path 964" d="M257.616,94.915l1.095.633a.867.867,0,0,1,.4.671c0,.242-.181.333-.4.2l-1.095-.633a.866.866,0,0,1-.4-.671c0-.242.181-.333.4-.2" transform="translate(4936.736 1765.442)" fill="#27debf"/>
      <g id="Group_272" data-name="Group 272" transform="translate(5193.948 1860.299)" opacity="0.6">
        <g id="Group_271" data-name="Group 271">
          <g id="Group_270" data-name="Group 270" clip-path="url(#clip-path-20)">
            <path id="Path_965" data-name="Path 965" d="M257.616,94.915l1.095.633a.867.867,0,0,1,.4.671c0,.242-.181.333-.4.2l-1.095-.633a.866.866,0,0,1-.4-.671c0-.242.181-.333.4-.2" transform="translate(-257.211 -94.856)" fill="#fff"/>
          </g>
        </g>
      </g>
      <path id="Path_966" data-name="Path 966" d="M262.758,97.888l6.686,3.86a.867.867,0,0,1,.4.671c0,.242-.181.333-.4.2l-6.686-3.86a.866.866,0,0,1-.4-.671c0-.242.181-.333.4-.2" transform="translate(4934.592 1764.203)" fill="#fff"/>
      <path id="Path_968" data-name="Path 968" d="M260.255,100.314l1.095.633a.867.867,0,0,1,.4.671c0,.242-.181.333-.4.2l-1.095-.633a.866.866,0,0,1-.4-.671c0-.242.181-.333.4-.2" transform="translate(4935.636 1763.191)" fill="#fff"/>
      <path id="Path_970" data-name="Path 970" d="M260.255,104.162l1.095.633a.867.867,0,0,1,.4.671c0,.242-.181.333-.4.2l-1.095-.633a.866.866,0,0,1-.4-.671c0-.242.181-.333.4-.2" transform="translate(4935.636 1761.586)" fill="#fff"/>
      <path id="Path_972" data-name="Path 972" d="M265.4,103.284l5.147,2.977a.868.868,0,0,1,.4.672c0,.241-.181.333-.4.2L265.4,104.16a.866.866,0,0,1-.4-.671c0-.242.181-.333.4-.2" transform="translate(4933.491 1761.952)" fill="#fff"/>
      <path id="Path_974" data-name="Path 974" d="M265.4,107.142l5.147,2.977a.867.867,0,0,1,.4.672c0,.241-.181.333-.4.2l-5.147-2.977a.866.866,0,0,1-.4-.671c0-.242.181-.333.4-.2" transform="translate(4933.491 1760.343)" fill="#fff"/>
      <path id="Path_976" data-name="Path 976" d="M260.255,88.653l1.095.633a.867.867,0,0,1,.4.671c0,.242-.181.333-.4.2l-1.095-.633a.866.866,0,0,1-.4-.671c0-.242.181-.333.4-.2" transform="translate(4935.636 1768.054)" fill="#27debf"/>
      <g id="Group_290" data-name="Group 290" transform="translate(5195.487 1856.649)" opacity="0.6">
        <g id="Group_289" data-name="Group 289">
          <g id="Group_288" data-name="Group 288" clip-path="url(#clip-path-20)">
            <path id="Path_977" data-name="Path 977" d="M260.255,88.653l1.095.633a.867.867,0,0,1,.4.671c0,.242-.181.333-.4.2l-1.095-.633a.866.866,0,0,1-.4-.671c0-.242.181-.333.4-.2" transform="translate(-259.851 -88.595)" fill="#fff"/>
          </g>
        </g>
      </g>
      <path id="Path_978" data-name="Path 978" d="M257.616,91l1.095.633a.867.867,0,0,1,.4.671c0,.242-.181.333-.4.2l-1.095-.633a.866.866,0,0,1-.4-.671c0-.242.181-.333.4-.2" transform="translate(4936.736 1767.074)" fill="#27debf"/>
      <g id="Group_293" data-name="Group 293" transform="translate(5193.948 1858.019)" opacity="0.6">
        <g id="Group_292" data-name="Group 292">
          <g id="Group_291" data-name="Group 291" clip-path="url(#clip-path-20)">
            <path id="Path_979" data-name="Path 979" d="M257.616,91l1.095.633a.867.867,0,0,1,.4.671c0,.242-.181.333-.4.2l-1.095-.633a.866.866,0,0,1-.4-.671c0-.242.181-.333.4-.2" transform="translate(-257.211 -90.945)" fill="#fff"/>
          </g>
        </g>
      </g>
      <path id="Path_980" data-name="Path 980" d="M265.4,91.633l5.147,2.977a.868.868,0,0,1,.4.672c0,.241-.181.333-.4.2L265.4,92.509a.866.866,0,0,1-.4-.671c0-.242.181-.333.4-.2" transform="translate(4933.491 1766.811)" fill="#fff"/>
      <path id="Path_982" data-name="Path 982" d="M262.758,93.977l6.686,3.86a.866.866,0,0,1,.4.671c0,.242-.181.333-.4.2l-6.686-3.86a.866.866,0,0,1-.4-.671c0-.242.181-.333.4-.2" transform="translate(4934.592 1765.833)" fill="#fff"/>
      <path id="Path_984" data-name="Path 984" d="M257.616,106.565l1.095.633a.867.867,0,0,1,.4.671c0,.242-.181.333-.4.2l-1.095-.633a.866.866,0,0,1-.4-.671c0-.242.181-.333.4-.2" transform="translate(4936.736 1760.584)" fill="#fff"/>
      <path id="Path_986" data-name="Path 986" d="M262.758,109.539l6.686,3.86a.867.867,0,0,1,.4.671c0,.242-.181.333-.4.2l-6.686-3.86a.866.866,0,0,1-.4-.671c0-.242.181-.333.4-.2" transform="translate(4934.592 1759.344)" fill="#fff"/>
      <g id="Group_308" data-name="Group 308" transform="translate(5259.418 1877.457)">
        <g id="Group_307" data-name="Group 307">
          <g id="Group_306" data-name="Group 306" clip-path="url(#clip-path-23)">
            <path id="Path_988" data-name="Path 988" d="M369.515,124.948v44.526a2.045,2.045,0,0,0,.926,1.6l25.58,14.759a.6.6,0,0,0,.307.088.51.51,0,0,0,.118-.015.336.336,0,0,0,.079-.027.528.528,0,0,0,.048-.027l.055-.036a.385.385,0,0,0,.051-.045.732.732,0,0,0,.17-.243,1.158,1.158,0,0,0,.1-.467v-44.3a2.049,2.049,0,0,0-.926-1.6l-25.58-14.743a.67.67,0,0,0-.622-.079.429.429,0,0,0-.079.045l-.006.006a.271.271,0,0,0-.061.061.151.151,0,0,0-.027.033.157.157,0,0,0-.03.048.423.423,0,0,0-.055.119.328.328,0,0,0-.021.082.019.019,0,0,0,0,.018.442.442,0,0,0-.015.085c0,.037-.006.076-.006.115" transform="translate(-369.515 -124.289)" fill="#fff"/>
          </g>
        </g>
      </g>
      <path id="Path_989" data-name="Path 989" d="M370.036,123.743a.672.672,0,0,1,.622.079l25.58,14.744a2.051,2.051,0,0,1,.926,1.6v3.023l1.474-.852v-3a2.042,2.042,0,0,0-.922-1.6l-25.583-14.744a.644.644,0,0,0-.671-.054c-.167.1-1.228.7-1.425.8" transform="translate(4889.686 1753.761)" fill="#3283fb"/>
      <path id="Path_990" data-name="Path 990" d="M369.519,124.941c0-.584.416-.82.924-.527l25.58,14.744a2.042,2.042,0,0,1,.925,1.6v3.024l-27.428-15.808Z" transform="translate(4889.901 1753.169)" fill="#0a58ca"/>
      <path id="Path_993" data-name="Path 993" d="M413.888,151.889a1.378,1.378,0,0,1,.522,1.106c0,.444-.234.669-.522.5a1.377,1.377,0,0,1-.522-1.106c0-.444.234-.669.522-.5" transform="translate(4871.616 1741.682)" fill="#fff"/>
      <path id="Path_994" data-name="Path 994" d="M410.661,150.023a1.378,1.378,0,0,1,.522,1.106c0,.444-.234.669-.522.5a1.378,1.378,0,0,1-.522-1.106c0-.444.234-.669.522-.5" transform="translate(4872.962 1742.46)" fill="#fff"/>
      <path id="Path_995" data-name="Path 995" d="M407.435,148.157a1.378,1.378,0,0,1,.522,1.106c0,.444-.234.669-.522.5a1.377,1.377,0,0,1-.522-1.106c0-.444.234-.669.522-.5" transform="translate(4874.308 1743.238)" fill="#fff"/>
      <g id="Group_317" data-name="Group 317" transform="translate(5286.51 1896.099)" opacity="0.9">
        <g id="Group_316" data-name="Group 316">
          <g id="Group_315" data-name="Group 315" clip-path="url(#clip-path-24)">
            <path id="Path_996" data-name="Path 996" d="M415.986,199.174c.033-.021.073-.043.115-.067.085-.051.182-.106.285-.161l0,0c.051-.03.1-.061.155-.088a.024.024,0,0,1,.012-.006c.085-.048.167-.1.243-.14s.442-.245.5-.275.1-.055.115-.064a.519.519,0,0,0,.158-.128.72.72,0,0,0,.125-.188,1.148,1.148,0,0,0,.106-.489v-41.3l-1.474.852V198.4a1.386,1.386,0,0,1-.1.468.73.73,0,0,1-.17.243.148.148,0,0,1-.052.046.065.065,0,0,1-.021.021" transform="translate(-415.986 -156.266)" fill="#3283fb"/>
          </g>
        </g>
      </g>
      <path id="Path_997" data-name="Path 997" d="M373.162,138.852a.138.138,0,0,1,.047-.118l.665-.608a.032.032,0,0,1,.03-.006l.017.007a.142.142,0,0,1,.052.064.216.216,0,0,1,.022.093v.462a.432.432,0,0,1-.013.127.187.187,0,0,1-.047.072l-.351.322.351.726a.759.759,0,0,1,.047.126.628.628,0,0,1,.013.143v.462a.092.092,0,0,1-.022.068.04.04,0,0,1-.052,0l-.017-.012a.144.144,0,0,1-.03-.041l-.665-1.376a.367.367,0,0,1-.047-.172Z" transform="translate(4888.383 1747.401)" fill="#ddd"/>
      <path id="Path_998" data-name="Path 998" d="M376.52,138.21a.184.184,0,0,1,.05-.078c.023-.02.055-.017.1.008l.25.144a.136.136,0,0,1,.052.064.215.215,0,0,1,.022.093.14.14,0,0,1-.006.043l-1.14,3.543a.174.174,0,0,1-.047.076c-.023.022-.057.02-.1-.006l-.24-.138a.14.14,0,0,1-.052-.064.212.212,0,0,1-.022-.093.161.161,0,0,1,.006-.043Z" transform="translate(4887.456 1747.401)" fill="#ddd"/>
      <path id="Path_999" data-name="Path 999" d="M379.763,142.724a.137.137,0,0,1-.047.118l-.665.609a.032.032,0,0,1-.03.006l-.017-.007a.146.146,0,0,1-.052-.064.225.225,0,0,1-.022-.093v-.462a.44.44,0,0,1,.013-.128.183.183,0,0,1,.047-.071l.351-.322-.351-.728a.678.678,0,0,1-.047-.126.621.621,0,0,1-.013-.142v-.462a.1.1,0,0,1,.022-.068.04.04,0,0,1,.052,0l.017.012a.144.144,0,0,1,.03.041l.665,1.376a.369.369,0,0,1,.047.173Z" transform="translate(4885.977 1746.295)" fill="#ddd"/>
      <path id="Path_1000" data-name="Path 1000" d="M383.24,147.1a.17.17,0,0,1,.064.079.265.265,0,0,1,.027.114v.509a.112.112,0,0,1-.027.083.051.051,0,0,1-.064,0l-.314-.181a.168.168,0,0,1-.064-.078.264.264,0,0,1-.027-.114V147a.11.11,0,0,1,.027-.083.048.048,0,0,1,.064,0Z" transform="translate(4884.349 1743.737)" fill="#ddd"/>
      <path id="Path_1001" data-name="Path 1001" d="M385.04,148.135a.171.171,0,0,1,.064.078.266.266,0,0,1,.027.114v.509a.111.111,0,0,1-.027.083.05.05,0,0,1-.064,0l-.314-.181a.17.17,0,0,1-.064-.079.262.262,0,0,1-.027-.114v-.509a.111.111,0,0,1,.027-.083.049.049,0,0,1,.064,0Z" transform="translate(4883.598 1743.303)" fill="#ddd"/>
      <path id="Path_1002" data-name="Path 1002" d="M386.839,149.174a.173.173,0,0,1,.064.079.264.264,0,0,1,.027.114v.509a.11.11,0,0,1-.027.083.049.049,0,0,1-.064,0l-.314-.181a.168.168,0,0,1-.064-.078.263.263,0,0,1-.026-.114v-.509a.112.112,0,0,1,.026-.083.05.05,0,0,1,.064,0Z" transform="translate(4882.848 1742.87)" fill="#ddd"/>
      <path id="Path_1003" data-name="Path 1003" d="M373.407,146.262l15.37,8.873a.706.706,0,0,1,.329.546c0,.2-.148.271-.329.166l-15.37-8.873a.706.706,0,0,1-.329-.546c0-.2.147-.271.329-.166" transform="translate(4888.417 1744.025)" fill="#ddd"/>
      <path id="Path_1004" data-name="Path 1004" d="M381.865,165.8l15.37,8.873a.7.7,0,0,1,.329.546c0,.2-.147.271-.329.166l-15.37-8.873a.706.706,0,0,1-.329-.546c0-.2.147-.271.329-.166" transform="translate(4884.891 1735.878)" fill="#e6e6e6"/>
      <path id="Path_1005" data-name="Path 1005" d="M381.865,175.564l7.357,4.25a.7.7,0,0,1,.328.546c0,.2-.147.271-.328.166l-7.357-4.25a.706.706,0,0,1-.329-.546c0-.2.147-.271.329-.166" transform="translate(4884.891 1731.805)" fill="#e6e6e6"/>
      <path id="Path_1006" data-name="Path 1006" d="M401.955,162.744l6.124,3.522a.705.705,0,0,1,.328.546c0,.2-.147.271-.328.166l-6.124-3.522a.706.706,0,0,1-.329-.546c0-.2.148-.271.329-.166" transform="translate(4876.512 1737.151)" fill="#ddd"/>
      <path id="Path_1007" data-name="Path 1007" d="M373.407,199.978l15.37,8.873a.706.706,0,0,1,.329.546c0,.2-.148.271-.329.166l-15.37-8.873a.706.706,0,0,1-.329-.546c0-.2.147-.271.329-.166" transform="translate(4888.417 1721.624)" fill="#ddd"/>
      <path id="Path_1008" data-name="Path 1008" d="M401.955,216.46l6.124,3.522a.705.705,0,0,1,.328.546c0,.2-.147.271-.328.166l-6.124-3.522a.706.706,0,0,1-.329-.546c0-.2.148-.271.329-.166" transform="translate(4876.512 1714.751)" fill="#ddd"/>
      <path id="Path_1009" data-name="Path 1009" d="M401.955,201.835l6.124,3.522a.705.705,0,0,1,.328.546c0,.2-.147.271-.328.166l-6.124-3.522a.706.706,0,0,1-.329-.546c0-.2.148-.271.329-.166" transform="translate(4876.512 1720.85)" fill="#ddd"/>
      <path id="Path_1010" data-name="Path 1010" d="M401.955,206.718l6.124,3.522a.705.705,0,0,1,.328.546c0,.2-.147.271-.328.166l-6.124-3.522a.706.706,0,0,1-.329-.546c0-.2.148-.271.329-.166" transform="translate(4876.512 1718.813)" fill="#ddd"/>
      <path id="Path_1011" data-name="Path 1011" d="M393,196.65l3.441,1.987a.7.7,0,0,1,.328.545c0,.2-.147.271-.328.166L393,197.362a.705.705,0,0,1-.328-.546c0-.2.147-.271.328-.166" transform="translate(4880.247 1723.012)" fill="#ddd"/>
      <path id="Path_1012" data-name="Path 1012" d="M373.407,151.157l8.965,5.172a.7.7,0,0,1,.328.546c0,.2-.147.27-.328.166l-8.965-5.172a.706.706,0,0,1-.329-.546c0-.2.147-.271.329-.166" transform="translate(4888.417 1741.984)" fill="#ddd"/>
      <path id="Path_1014" data-name="Path 1014" d="M373.407,156.031l3.041,1.754a.705.705,0,0,1,.328.546c0,.2-.147.271-.328.166l-3.041-1.754a.706.706,0,0,1-.329-.546c0-.2.147-.271.329-.166" transform="translate(4888.417 1739.951)" fill="#ddd"/>
      <path id="Path_1016" data-name="Path 1016" d="M373.407,160.915l3.041,1.754a.705.705,0,0,1,.328.546c0,.2-.147.271-.328.166l-3.041-1.754a.706.706,0,0,1-.329-.546c0-.2.147-.271.329-.166" transform="translate(4888.417 1737.914)" fill="#ddd"/>
      <path id="Path_1018" data-name="Path 1018" d="M373.407,165.8l3.041,1.754a.705.705,0,0,1,.328.546c0,.2-.147.271-.328.166l-3.041-1.754a.706.706,0,0,1-.329-.546c0-.2.147-.271.329-.166" transform="translate(4888.417 1735.878)" fill="#ddd"/>
      <g id="Group_332" data-name="Group 332" transform="translate(5266.427 1904.475)">
        <g id="Group_331" data-name="Group 331">
          <g id="Group_330" data-name="Group 330" clip-path="url(#clip-path-25)">
            <path id="Path_1020" data-name="Path 1020" d="M381.865,170.68l8.965,5.172a.705.705,0,0,1,.328.546c0,.2-.147.271-.328.166l-8.965-5.172a.706.706,0,0,1-.329-.546c0-.2.147-.271.329-.166" transform="translate(-381.537 -170.633)" fill="#ddd"/>
          </g>
        </g>
      </g>
      <g id="Group_335" data-name="Group 335" transform="translate(5276.665 1910.382)">
        <g id="Group_334" data-name="Group 334">
          <g id="Group_333" data-name="Group 333" clip-path="url(#clip-path-26)">
            <path id="Path_1021" data-name="Path 1021" d="M399.427,180.813l3.9,2.258a.706.706,0,0,1,.329.546c0,.2-.147.271-.329.166l-3.9-2.258a.706.706,0,0,1-.329-.546c0-.2.148-.271.329-.166" transform="translate(-399.099 -180.766)" fill="#ddd"/>
          </g>
        </g>
      </g>
      <path id="Path_1024" data-name="Path 1024" d="M373.407,170.682l3.041,1.754a.7.7,0,0,1,.328.545c0,.2-.147.271-.328.166l-3.041-1.754a.706.706,0,0,1-.329-.546c0-.2.147-.271.329-.166" transform="translate(4888.417 1733.841)" fill="#ddd"/>
      <path id="Path_1026" data-name="Path 1026" d="M390.969,161.29l3.9,2.258a.706.706,0,0,1,.329.546c0,.2-.147.271-.329.166l-3.9-2.258a.706.706,0,0,1-.329-.546c0-.2.147-.271.329-.166" transform="translate(4881.094 1737.758)" fill="#ddd"/>
      <path id="Path_1028" data-name="Path 1028" d="M388.21,184.1l8.965,5.172a.7.7,0,0,1,.328.546c0,.2-.147.271-.328.166l-8.965-5.172a.705.705,0,0,1-.328-.546c0-.2.147-.271.328-.166" transform="translate(4882.244 1728.244)" fill="#fff"/>
      <path id="Path_1029" data-name="Path 1029" d="M397.082,194.129l8.965,5.172a.705.705,0,0,1,.328.546c0,.2-.147.271-.328.166l-8.965-5.172a.705.705,0,0,1-.328-.546c0-.2.147-.271.328-.166" transform="translate(4878.544 1724.063)" fill="#fff"/>
      <path id="Path_1030" data-name="Path 1030" d="M405.772,194.236l3.9,2.258a.706.706,0,0,1,.329.546c0,.2-.147.271-.329.166l-3.9-2.258a.705.705,0,0,1-.328-.546c0-.2.147-.271.328-.166" transform="translate(4874.92 1724.019)" fill="#fff"/>
      <path id="Path_1031" data-name="Path 1031" d="M405.772,213.579l3.9,2.258a.706.706,0,0,1,.329.546c0,.2-.147.271-.329.166l-3.9-2.258a.705.705,0,0,1-.328-.546c0-.2.147-.271.328-.166" transform="translate(4874.92 1715.952)" fill="#e6e6e6"/>
      <path id="Path_1032" data-name="Path 1032" d="M381.865,160.915l8.965,5.172a.705.705,0,0,1,.328.546c0,.2-.147.27-.328.166l-8.965-5.172a.706.706,0,0,1-.329-.546c0-.2.147-.271.329-.166" transform="translate(4884.891 1737.914)" fill="#ddd"/>
      <path id="Path_1034" data-name="Path 1034" d="M399.427,171.048l3.9,2.258a.706.706,0,0,1,.329.546c0,.2-.147.271-.329.166l-3.9-2.258a.706.706,0,0,1-.329-.546c0-.2.148-.271.329-.166" transform="translate(4877.566 1733.689)" fill="#ddd"/>
      <g id="Group_356" data-name="Group 356" transform="translate(5214.618 1927.234)" opacity="0.04">
        <g id="Group_355" data-name="Group 355">
          <g id="Group_354" data-name="Group 354" clip-path="url(#clip-path-27)">
            <path id="Path_1036" data-name="Path 1036" d="M293.938,219.792l5.495,3.172a6.047,6.047,0,0,0,6.063-.319l9.062-6.617a2.181,2.181,0,0,0-.205-3.946l-2.755-1.6a7.481,7.481,0,0,0-6.369-.193l-11.189,6.067c-1.788.9-1.833,2.433-.1,3.433" transform="translate(-292.668 -209.673)"/>
          </g>
        </g>
      </g>
      <path id="Path_1037" data-name="Path 1037" d="M315.341,213.019l-6.271,4.9-4.627,3.621a4.277,4.277,0,0,1-3.671-.109l-4.917-2.839a.007.007,0,0,1-.007-.007l-.029-.016a3.475,3.475,0,0,1-.993-4.975q.071-.1.146-.2a6.54,6.54,0,0,1,3.954-2.506l2.49-.5c4.034-.818,7.343-1.217,7.726-.955l6.163,3.57a.056.056,0,0,1,.036.015" transform="translate(4921.317 1717.693)" fill="red"/>
      <path id="Path_1038" data-name="Path 1038" d="M317.6,216.3l.352-.276-5.53-3.193,4.839-1.5-.49-.282-4.839,1.5-3.3-1.9-.625.118Z" transform="translate(4915.551 1717.157)" fill="#fff"/>
      <path id="Path_1039" data-name="Path 1039" d="M311.268,223.842c.007-.007.022-.015.029-.022a.007.007,0,0,1,.007-.008l4.4-3.179,5.945-4.294v-.673a.055.055,0,0,0-.029-.051.053.053,0,0,0-.036-.015c-.442-.152-3.02.623-6.133,1.861l-2.064.818a6.416,6.416,0,0,0-1.759,1.042,6.561,6.561,0,0,0-2.383,5.062v.108a4.053,4.053,0,0,0,1.477-.355Z" transform="translate(4915.036 1715.097)" fill="#e11212"/>
      <path id="Path_1040" data-name="Path 1040" d="M170.883,317.664c-.021-.117-1.871-6.875-1.871-6.875s.609.621,4.518-.409a22.143,22.143,0,0,0,4.249-1.784l1.116,4.941c1.041,1.9,4.491,1.026,8.271.6.635-.072,1.289-.178,1.942-.291l.04,0c2.041-.113,4.09,1.114,1.968,2.854s-5.622,2.4-8.849,2.983c-3.881.7-10.688,1.84-11.384-2.01" transform="translate(4973.518 1676.308)" fill="#ffb797"/>
      <path id="Path_1041" data-name="Path 1041" d="M199.046,323.125a3.965,3.965,0,0,1,.283,2.077c-.074.753-1.936,3.307-5.224,4.871s-7.357,1.668-9.262,2.216-3.649,1.642-5.893,2.188c-2.313.563-4.464.836-6.713-.645a5.02,5.02,0,0,1-.74-2.259c.358-.386,27.549-8.448,27.549-8.448" transform="translate(4972.491 1670.249)" fill="#0a58ca"/>
      <path id="Path_1042" data-name="Path 1042" d="M180.086,317.481c1.448,1,4.442.306,7.678-.062,3.051-.347,6.487-1.42,8.56-.7s3.808,3.16,1.005,6.291a12.117,12.117,0,0,1-3.9,2.99c-3.484,1.248-6.611,1.348-8.852,1.9-2.917.72-4.51,2.011-7.208,2.324-3.491.405-5.7-.492-6.3-1.424s-1.164-8.447.333-8.292c0,0,.629,2.432,6.332.07,2.49-1.031,2.45-2.549,2.353-3.1" transform="translate(4972.92 1673.022)"/>
      <path id="Path_1044" data-name="Path 1044" d="M200.746,322.166s-.328-3.174-2.673-4.014a1.23,1.23,0,0,0-1.292.17s2.177.316,2.89,4.039c0,0,.112.246.586.16.16-.029.512-.093.489-.354" transform="translate(4961.938 1672.37)" fill="#fafafa"/>
      <path id="Path_1045" data-name="Path 1045" d="M193.35,318.784s0-.1.551-.209a.984.984,0,0,1,.643.071s1.75.757,2.077,4.076c0,0-.014.4-.539.51a.482.482,0,0,1-.626-.325s-.36-3.49-2.106-4.122" transform="translate(4963.368 1672.155)" fill="#fafafa"/>
      <path id="Path_1046" data-name="Path 1046" d="M190.13,318.925s.1-.2.51-.2c.519,0,.639.2.639.2a6.005,6.005,0,0,1,1.26,4.049s.052.47-.6.518-.56-.483-.56-.483-.225-3.532-1.247-4.09" transform="translate(4964.711 1672.083)" fill="#fafafa"/>
      <path id="Path_1047" data-name="Path 1047" d="M159.071,245.321c2.858,8.588,10.436,38.16,10.436,38.16s-4.932,4.431-10.284,2.412l-12.748-36.825Z" transform="translate(4982.916 1702.695)" fill="#e11212"/>
      <path id="Path_1048" data-name="Path 1048" d="M203.885,333.977c-.584-.867-2.775-6.881-2.775-6.881s2.288,1.307,6.221.373a9.172,9.172,0,0,0,3.869-2.647l1.68,5.782c.993,1.927,4.2,1.289,7.991.952.637-.057,1.293-.147,1.949-.244l.04,0c2.043-.062,4.061,1.214,1.9,2.9s-5.679,2.261-8.92,2.765c-3.9.606-9.767.249-11.952-3" transform="translate(4960.133 1669.542)" fill="#ffb797"/>
      <path id="Path_1049" data-name="Path 1049" d="M234.955,340.216a4.251,4.251,0,0,1,.248,2.237c-.1.806-2.165,3.5-5.736,5.091s-7.942,1.6-10,2.135-3.96,1.666-6.384,2.194c-2.5.543-4.814.78-7.19-.869a5.4,5.4,0,0,1-.735-2.444c.395-.405,29.8-8.344,29.8-8.344" transform="translate(4958.456 1663.121)" fill="#0a58ca"/>
      <path id="Path_1050" data-name="Path 1050" d="M214.716,333.535a6.987,6.987,0,0,0,.716.444,2.184,2.184,0,0,0,.8.161,11.231,11.231,0,0,0,1.909.048c1.6-.079,3.191-.32,4.786-.462,3.284-.293,7-1.353,9.209-.527s4.223,3.484,1.131,6.771a15.153,15.153,0,0,1-4.143,3.143c-3.667,1.534-7.472,1.247-9.893,1.782-3.15.7-4.895,2.04-7.8,2.305-3.758.343-6.105-.678-6.729-1.7-.347-.567.039-3.514-.432-5.8-.406-1.97-.3-3.313.409-3.221a3.516,3.516,0,0,0,.549.7,2.592,2.592,0,0,0,.834.659,6.634,6.634,0,0,0,1.41.474,8.213,8.213,0,0,0,2.618.36,1.265,1.265,0,0,0,.711-.226,1.491,1.491,0,0,0,.413-.888q.093-.435.185-.87a1.273,1.273,0,0,1,.159-.454,1.235,1.235,0,0,1,.446-.354,3.832,3.832,0,0,0,1.432-1.091,3.355,3.355,0,0,0,.42-1.35.337.337,0,0,1,.094-.222c.107-.086.263-.013.378.061s.259.171.39.26" transform="translate(4958.914 1666.176)"/>
      <path id="Path_1052" data-name="Path 1052" d="M236.96,338.725s-.268-3.416-2.763-4.38a1.322,1.322,0,0,0-1.392.148s2.329.4,3,4.412c0,0,.114.267.625.188.173-.027.552-.086.534-.368" transform="translate(4946.915 1665.627)" fill="#fff"/>
      <path id="Path_1053" data-name="Path 1053" d="M229.111,334.9s0-.113.6-.209a1.056,1.056,0,0,1,.688.092s1.859.86,2.122,4.43a.636.636,0,0,1-.592.533.518.518,0,0,1-.663-.366s-.294-3.756-2.152-4.481" transform="translate(4948.455 1665.432)" fill="#fff"/>
      <path id="Path_1054" data-name="Path 1054" d="M225.651,334.961s.111-.212.553-.2c.557.017.68.236.68.236a6.45,6.45,0,0,1,1.246,4.38s.043.506-.66.54-.588-.533-.588-.533-.149-3.8-1.231-4.423" transform="translate(4949.898 1665.396)" fill="#fff"/>
      <path id="Path_1055" data-name="Path 1055" d="M191.992,262.063c2.25,6.92,7.995,26.621,10.619,36.753,0,0-4.716,4.241-10.783,3.87L177.2,264.756l5.826-3.605Z" transform="translate(4970.104 1696.094)" fill="red"/>
      <path id="Path_1056" data-name="Path 1056" d="M119.282,380.178a.948.948,0,0,0,.949-.948V318.257a.948.948,0,1,0-1.9,0V379.23a.948.948,0,0,0,.948.948" transform="translate(4994.652 1672.675)" fill="#2c3e50"/>
      <path id="Path_1057" data-name="Path 1057" d="M54.571,351.872a.946.946,0,0,0,.881-.6l18.7-47.324a.948.948,0,0,0-1.763-.7l-18.7,47.324a.946.946,0,0,0,.534,1.229.933.933,0,0,0,.348.067" transform="translate(5021.639 1678.787)" fill="#2c3e50"/>
      <path id="Path_1058" data-name="Path 1058" d="M58.424,349.118a.945.945,0,0,0,.689-.3L93.9,312.005l34.728,36.66a.948.948,0,1,0,1.376-1.3L94.591,309.973a.948.948,0,0,0-.688-.3h0a.945.945,0,0,0-.688.3L57.735,347.518a.949.949,0,0,0,.689,1.6" transform="translate(5020.031 1675.857)" fill="#2c3e50"/>
      <path id="Path_1059" data-name="Path 1059" d="M170.617,351.872a.949.949,0,0,0,.881-1.3l-18.7-47.324a.948.948,0,1,0-1.763.7l18.7,47.324a.948.948,0,0,0,.882.6" transform="translate(4981.041 1678.787)" fill="#2c3e50"/>
      <path id="Path_1060" data-name="Path 1060" d="M130.763,267.468c.68-3.824-2.436-6.809-8.3-10.766a138.3,138.3,0,0,0-16.985-9.543c-4.9-2.251-9.921-2.044-16.2,1.182-8.723,4.482-34.973,20.4-34.973,20.4s39.245,22.157,46.8,21.163,26.424-13.267,27.919-17.586,1.74-4.852,1.74-4.852" transform="translate(5021.353 1702.552)" fill="#fff"/>
      <path id="Path_1062" data-name="Path 1062" d="M128.076,300.842c5.634,5.1,11.523.711,20.84-5.335,10.544-6.842,12.611-12.442,12.611-12.442s0,4.2-.786,6.162-2.491,4.2-10.095,9.439-13.11,7.866-18.223,8.84l-4.034-.557" transform="translate(4990.589 1686.955)" fill="#ddd"/>
      <path id="Path_1064" data-name="Path 1064" d="M55.679,374.343,52.79,381a1.143,1.143,0,0,0-.037.295.8.8,0,0,0,.367.446,1.724,1.724,0,0,0,1.564.073.684.684,0,0,0,.319-.305.013.013,0,0,1,0-.011l.024-.092,2.681-6.244Z" transform="translate(5022.001 1648.89)" fill="red"/>
      <path id="Path_1065" data-name="Path 1065" d="M181.036,374.824l2.472,6.523a.628.628,0,0,1,.023.167.669.669,0,0,1,0,.118.777.777,0,0,1-.373.412,1.656,1.656,0,0,1-1.5,0,.655.655,0,0,1-.293-.308.013.013,0,0,0,0-.011l-.019-.089-2.292-6.116Z" transform="translate(4969.334 1648.689)" fill="red"/>
      <path id="Path_1066" data-name="Path 1066" d="M118.084,415.231v5.4a.543.543,0,0,0,.32.447,1.709,1.709,0,0,0,1.547,0,.543.543,0,0,0,.32-.447v-5.4a2.317,2.317,0,0,0-2.187,0" transform="translate(4994.756 1631.953)" fill="red"/>
      <path id="Path_1067" data-name="Path 1067" d="M81.269,239.917c2.235,2.6,22.576-3.248,27.964-3.982,8.691-1.183,15.767-2.049,18.715-1.122s4.2,2.43,5.107,5.963c1.066,4.167,1.619,6.29,1.619,6.29s-14.44,5.543-25.827,6.877-27.578-14.027-27.578-14.027" transform="translate(5010.109 1707.24)" fill="#e11212"/>
      <path id="Path_1068" data-name="Path 1068" d="M73.08,248.28c-2.255,8.59-4.281,18.585.938,24.056,3.514,3.684,21.169,13.255,32.559,9.484,11.221-3.714,34.454-20.963,36.785-22.7s4.452-2.92,4.229-3.659c-3.133-10.4-7.712-11.215-16.2-9.347C121,248.4,98.206,257.7,98.206,257.7Z" transform="translate(5014.503 1702.694)" fill="red"/>
      <path id="Path_1069" data-name="Path 1069" d="M148.6,148.931l-7.833,8.858-12.653-6,8.845-12.238Z" transform="translate(4990.575 1746.806)" fill="#ffb797"/>
      <path id="Path_1070" data-name="Path 1070" d="M179.921,126.784s3.207,4.631,2.864,5.1-2.613.939-2.613.939Z" transform="translate(4968.969 1752.128)" fill="#ffb797"/>
      <circle id="Ellipse_32" data-name="Ellipse 32" cx="3.483" cy="3.483" r="3.483" transform="translate(5144.313 1876.251) rotate(-22.5)" fill="none" stroke="#000" stroke-miterlimit="10" stroke-width="1.207"/>
      <path id="Path_1071" data-name="Path 1071" d="M150.982,104.455c6.3,1.179,8.176,3.895,8.995,13.844.856,10.4-.132,13.692-1.467,15.126-.9.967-6.028,1.255-8.633.6-3.259-.819-10.639-3.245-14.188-8.4-4.174-6.068-5.424-14.394-1.185-17.918,5.966-4.959,13.914-3.729,16.478-3.249" transform="translate(4989.005 1761.645)" fill="#ffb797"/>
      <path id="Path_1073" data-name="Path 1073" d="M157.315,103.53l-.018.012a14.318,14.318,0,0,1-6.016,2.046,12.36,12.36,0,0,1-.89,4.969c-.363,1.116-1.674,4.62-3.1,2.7-1.031-1.39-1.968-2.655-3.942-2.314-3.254.561-3.6,4.733-1.484,7.214s4.011,1.468,4.011,1.468.3,4.484-2.065,7.654a10.659,10.659,0,0,1-8.483.537c-3.126-1.03-7.639-4.972-9.3-8.049-4.576-8.468-4.6-16.58.95-19.076.513-4.059,3.656-5.945,7.268-6.862,5.005-1.271,10.207,1.869,15.047-.2,1.019-.437,1.958-1.055,3-1.434a2.055,2.055,0,0,1,1.8.006,2.167,2.167,0,0,1,.77,1.376,3.884,3.884,0,0,1-.19,2.89,8.473,8.473,0,0,1,2.275-.838,2.862,2.862,0,0,1,2.3.519,2.952,2.952,0,0,1,.923,2,6.171,6.171,0,0,1-2.854,5.384" transform="translate(4992.834 1766.641)"/>
      <path id="Path_1074" data-name="Path 1074" d="M127.2,106.923l-3.8-2.127a2.179,2.179,0,0,1,3.8,2.127" transform="translate(4992.54 1761.763)" fill="#263238"/>
      <line id="Line_61" data-name="Line 61" y1="2.277" x2="12.185" transform="translate(5140.123 1877.618)" fill="none" stroke="#000" stroke-miterlimit="10" stroke-width="1.027"/>
      <path id="Path_1075" data-name="Path 1075" d="M191.495,162.3c-.328-.549-1.057-.656-1.661-.867-1.119-.391-1.994-1.283-3.072-1.777a6.029,6.029,0,0,0-3.881-.262,9.3,9.3,0,0,0-1.3.415,16.652,16.652,0,0,0-2.317,1.174c-3.087,1.828-5.408,5.959-8.444,7.854-1.131.706-2.187,1.347-3.229,1.986l7.25,6.465a43.559,43.559,0,0,1,3.577-2.724c1.784-1.062,3.586-1.086,5.591-1.376a27.738,27.738,0,0,0,4.088-1.024,1.772,1.772,0,0,0,1.2-.786,1.21,1.21,0,0,0-.777-1.492,10.691,10.691,0,0,0-2.121-.29c-.521-.084-1.921.23-2.231-.3-.161-.276.039-.617.24-.867,1.258-1.568,2.848-3.248,4.861-3.719a4.229,4.229,0,0,0,1.77-.7,1.4,1.4,0,0,0,.447-1.706" transform="translate(4974.109 1738.611)" fill="#ffb797"/>
      <path id="Path_1076" data-name="Path 1076" d="M116.792,150.646c-7.7-4.2-14.713-1.5-17.239,3.9-2.286,4.89-7.092,23.811-7.092,23.811,2.31,4.331,24.331-27.711,24.331-27.711" transform="translate(5005.441 1743.035)" fill="#27debf"/>
      <path id="Path_1077" data-name="Path 1077" d="M108.265,152.646l1.153-1.52c-8.694-4.131-16.478,1.3-23.335,11.96-7.39,11.5-11.268,28-11.305,45.42,0,0,1.476,7.828,11.366,11.743,10.494,4.154,25.132,2.394,29.693-8.482,0,0,.092-10.864,3.4-16.213,2.138-3.462,7.123-11.156,10.832-16.673,3.229-4.8,5.738-15.734-1.008-19.734a56.356,56.356,0,0,0-5.484-2.8c-6.136,2.026-16.1-1.267-15.309-3.7" transform="translate(5012.816 1742.555)" fill="#0a58ca"/>
      <path id="Path_1080" data-name="Path 1080" d="M207.974,189.821a16.751,16.751,0,0,1-1.807,1.866c-2.66,2.409-5.767,3.564-9.379,5.91-2.92,1.9-7.423,4.659-11.218,7.024a56.706,56.706,0,0,1-12.214,5.644c-3.525,1.036-5.5,1.079-7.583-4.568-1.022-2.77-1.832-5.611-2.714-8.428q-1.971-6.289-3.873-12.6s-4.688-11.56,5.8-17.366c4.564,2.612,6.3,3.669,7.734,9.136,1.712,6.544,4.487,19.463,4.487,19.463a91.592,91.592,0,0,0,10.842-4.614c1.33-.662,2.967-1.121,3.916-2.305a18.139,18.139,0,0,0,1.668-2.6c.447-.806.77-1.682,1.262-2.451a22,22,0,0,1,3.448-3.8,1.444,1.444,0,0,1,.833-.494.953.953,0,0,1,.846.516c.387.673.027,1.334-.17,2.022q-.337,1.178-.676,2.356a20.542,20.542,0,0,0,6.691-6.273,3.345,3.345,0,0,1,.528-.669,1.017,1.017,0,0,1,.778-.285c.7.087,1.4,1.221,1.434,1.868a10.127,10.127,0,0,0,.051,1.975c.156.61.569,1.11.76,1.705a9.845,9.845,0,0,1,.4,1.888,6.5,6.5,0,0,1-1.065,3.957,9.412,9.412,0,0,1-.779,1.116" transform="translate(4978.052 1735.23)" fill="#ffb797"/>
      <path id="Path_1081" data-name="Path 1081" d="M163.694,166.475c4,1.616,6.875,3.441,8.7,9.538,1.832,6.131,3.8,15.881,3.8,15.881s.037,2.046-4.815,4.907a11.946,11.946,0,0,1-9.391,1.265l-3.664-11.774s-6.5-15.748,5.373-19.816" transform="translate(4978.716 1735.576)" fill="#0a58ca"/>
      <path id="Path_1082" data-name="Path 1082" d="M94.141,275.487c-3.208-.161-5.719-2.517-13.347-5.7-14.085-5.869-24.648-10.564-28.672-17.942s-6.874-28.672-5.869-37.895a12.184,12.184,0,0,1,.69-3.057l-.99-.145,2.566-2.184v.006c2.632-2.149,6.914-.233,10.141,1.523,9.221,5.018,16.432,9.893,22.133,27.5,4.288,13.243,7.116,25.323,13.035,31.783" transform="translate(5024.837 1718.416)" fill="#ddd"/>
      <path id="Path_1084" data-name="Path 1084" d="M54.143,213.985c9.221,5.018,16.432,9.893,22.133,27.5s8.819,33.16,20.053,36.179c0,0-5.079,2.019-20.646-4.565-4.952-2.095-10.963-5.914-14.911-8.13-7.737-4.342-12.427-7.9-13.168-9.231-4.09-7.342-6.875-28.673-5.869-37.9s7.79-6.37,12.408-3.856" transform="translate(5026.682 1716.797)" fill="#ddd"/>
      <path id="Path_1085" data-name="Path 1085" d="M147.227,71.572l-2.547-4.789,2.049-5.915V57.247l-6.271,3.621v3.621l2.7,4.67a.389.389,0,0,0,.183.163v0Z" transform="translate(4985.426 1781.127)" fill="#27debf"/>
      <g id="Group_380" data-name="Group 380" transform="translate(5125.884 1838.374)">
        <g id="Group_379" data-name="Group 379">
          <g id="Group_378" data-name="Group 378" clip-path="url(#clip-path-28)">
            <path id="Path_1086" data-name="Path 1086" d="M147.227,71.572l-2.547-4.789,2.049-5.915V57.247l-6.271,3.621v3.621l2.7,4.67a.389.389,0,0,0,.183.163v0Z" transform="translate(-140.458 -57.247)" fill="#ddd"/>
          </g>
        </g>
      </g>
      <g class="code hoverClass">
        <path id="Path_1087" data-name="Path 1087" d="M154.488,4.59a4.155,4.155,0,0,0-1.88-3.256L151.077.45a4.153,4.153,0,0,0-3.76,0L123.839,14.029a4.154,4.154,0,0,0-1.881,3.256V43.118a4.158,4.158,0,0,0,1.881,3.257l1.531.884a4.157,4.157,0,0,0,3.76,0l7.551-4.363,2.69,4.661a.4.4,0,0,0,.727-.069l2.844-8.209,9.666-5.6a4.153,4.153,0,0,0,1.88-3.256Z" transform="translate(4993.141 1805)" fill="#f2f2f2"/>
        <g id="Group_383" data-name="Group 383" transform="translate(5115.1 1820.432)">
          <g id="Group_382" data-name="Group 382">
            <g id="Group_381" data-name="Group 381" clip-path="url(#clip-path-29)">
              <path id="Path_1088" data-name="Path 1088" d="M121.959,54.157a4.155,4.155,0,0,0,1.88,3.256l1.531.884a4.2,4.2,0,0,0,3.44.151c-.885.335-1.559-.164-1.559-1.237V31.38a3.848,3.848,0,0,1,.551-1.853l-5.292-3.055a3.847,3.847,0,0,0-.55,1.853Z" transform="translate(-121.959 -26.472)" fill="#ddd"/>
            </g>
          </g>
        </g>
        <g id="Group_386" data-name="Group 386" transform="translate(5115.656 1805.004)">
          <g id="Group_385" data-name="Group 385">
            <g id="Group_384" data-name="Group 384" clip-path="url(#clip-path-30)">
              <path id="Path_1089" data-name="Path 1089" d="M154.825,4.058c-.219-.8-.947-1.053-1.815-.553L129.528,17.088a3.722,3.722,0,0,0-1.325,1.4l-5.289-3.052a3.79,3.79,0,0,1,1.325-1.4L147.712.453a4.181,4.181,0,0,1,3.763,0l1.535.886a4.145,4.145,0,0,1,1.815,2.719" transform="translate(-122.914 -0.006)" fill="#ddd"/>
            </g>
          </g>
        </g>
        <path id="Path_1090" data-name="Path 1090" d="M136.956,45.522a1.357,1.357,0,0,1,.1-.536,3.544,3.544,0,0,1,.275-.5l5.1-8.253a.675.675,0,0,1,.083-.1.343.343,0,0,1,.058-.043.145.145,0,0,1,.191.008.336.336,0,0,1,.077.25v3.183a1.38,1.38,0,0,1-.147.664,4.649,4.649,0,0,1-.261.436L139.8,44.647l2.632,1.21a1.072,1.072,0,0,1,.261.125c.1.061.147.223.147.485v2.261a.784.784,0,0,1-.077.339.5.5,0,0,1-.191.228.255.255,0,0,1-.058.023.174.174,0,0,1-.083,0l-5.1-2.357a.7.7,0,0,1-.275-.186.679.679,0,0,1-.1-.426Z" transform="translate(4986.886 1789.962)" fill="#0a58ca"/>
        <path id="Path_1091" data-name="Path 1091" d="M152.968,29.041a2.645,2.645,0,0,1,.191-.513.916.916,0,0,1,.371-.4l1.71-.988a.152.152,0,0,1,.2.013.345.345,0,0,1,.083.257.9.9,0,0,1-.026.192l-4.313,18.385a2.371,2.371,0,0,1-.178.5.925.925,0,0,1-.383.418l-1.672.965a.149.149,0,0,1-.2-.014.343.343,0,0,1-.083-.257.833.833,0,0,1,.026-.191Z" transform="translate(4982.002 1793.694)" fill="#0a58ca"/>
        <path id="Path_1092" data-name="Path 1092" d="M167.926,32.806a1.354,1.354,0,0,1-.1.536,3.655,3.655,0,0,1-.275.5l-5.1,8.251a.564.564,0,0,1-.083.1.326.326,0,0,1-.057.043.146.146,0,0,1-.191-.008.335.335,0,0,1-.076-.25V38.8a1.321,1.321,0,0,1,.146-.654c.1-.174.185-.317.261-.427l2.233-3.45-2.233-.852a.942.942,0,0,1-.261-.134c-.1-.069-.146-.233-.146-.495V29.6a.784.784,0,0,1,.076-.339.5.5,0,0,1,.191-.228.262.262,0,0,1,.057-.024.211.211,0,0,1,.083,0l5.1,2.358a.7.7,0,0,1,.275.185.683.683,0,0,1,.1.426Z" transform="translate(4976.424 1792.903)" fill="#0a58ca"/>
      </g>
      <g class="css hoverClass">
        <path id="Path_1093" data-name="Path 1093" d="M32.2,2.194.779,20.293A1.722,1.722,0,0,0,0,21.643V39.18a1.7,1.7,0,0,0,.784,1.342l3.1,1.762a1.743,1.743,0,0,0,1.564-.008l31.415-18.1a1.721,1.721,0,0,0,.78-1.35V5.293A1.7,1.7,0,0,0,36.86,3.95l-3.1-1.763a1.748,1.748,0,0,0-1.564.007" transform="translate(5044 1804.163)" fill="#e11212"/>
        <path id="Path_1094" data-name="Path 1094" d="M37.808,5.15c-.061-.392-.382-.533-.771-.31L5.625,22.939a1.6,1.6,0,0,0-.551.583L.419,20.846a1.555,1.555,0,0,1,.537-.555l31.416-18.1a1.743,1.743,0,0,1,1.563-.007l3.1,1.762a1.721,1.721,0,0,1,.774,1.2" transform="translate(5043.825 1804.164)" fill="#e11212"/>
        <path id="Path_1095" data-name="Path 1095" d="M40.2,6.8,8.788,24.894a1.723,1.723,0,0,0-.779,1.35V43.78c0,.5.349.7.779.45L40.2,26.133a1.723,1.723,0,0,0,.779-1.35V7.246c0-.5-.349-.7-.779-.45" transform="translate(5040.66 1802.21)" fill="red"/>
        <path id="Path_1096" data-name="Path 1096" d="M19.984,41.761c-.008.138-.012.326-.015.565s-.005.484-.005.737,0,.5.005.739.008.425.015.554a3.433,3.433,0,0,0,.09.628.972.972,0,0,0,.221.444.546.546,0,0,0,.381.174,1.077,1.077,0,0,0,.572-.184,2.2,2.2,0,0,0,.562-.448,2.778,2.778,0,0,0,.36-.51,2.617,2.617,0,0,0,.216-.518c.05-.173.088-.329.115-.468a1.9,1.9,0,0,1,.111-.412.527.527,0,0,1,.231-.233l1.314-.759a.119.119,0,0,1,.155.01.271.271,0,0,1,.066.2,6.156,6.156,0,0,1-.251,1.627,7.569,7.569,0,0,1-1.65,2.968,5.056,5.056,0,0,1-1.228,1.011,2.6,2.6,0,0,1-1.29.412,1.469,1.469,0,0,1-.968-.345,2.142,2.142,0,0,1-.617-.98,5.228,5.228,0,0,1-.245-1.472c-.013-.414-.02-.863-.02-1.347s.008-.951.02-1.4A8.083,8.083,0,0,1,18.368,41a8.291,8.291,0,0,1,.617-1.692,6.9,6.9,0,0,1,.968-1.462,5.03,5.03,0,0,1,1.294-1.08,2.752,2.752,0,0,1,1.228-.408,1.669,1.669,0,0,1,.989.24,1.767,1.767,0,0,1,.662.823,3.48,3.48,0,0,1,.251,1.338.643.643,0,0,1-.066.278.408.408,0,0,1-.155.189l-1.314.759c-.114.065-.191.077-.231.033a.679.679,0,0,1-.111-.283,2.136,2.136,0,0,0-.115-.335.62.62,0,0,0-.216-.269.605.605,0,0,0-.36-.093,1.254,1.254,0,0,0-.562.2,2.071,2.071,0,0,0-.572.477,2.731,2.731,0,0,0-.381.614,3.1,3.1,0,0,0-.221.7,5.361,5.361,0,0,0-.09.731" transform="translate(5036.449 1789.838)" fill="#fff"/>
        <path id="Path_1097" data-name="Path 1097" d="M33.795,29.576a2.63,2.63,0,0,1,1.179-.395,1.693,1.693,0,0,1,.928.2,1.549,1.549,0,0,1,.612.635,1.987,1.987,0,0,1,.231.9.649.649,0,0,1-.066.277.4.4,0,0,1-.145.184l-1.315.759a.3.3,0,0,1-.4-.016c-.02-.019-.052-.052-.1-.1a.481.481,0,0,0-.186-.117.649.649,0,0,0-.3-.026,1.177,1.177,0,0,0-.441.169,2.988,2.988,0,0,0-.366.25,2.13,2.13,0,0,0-.311.3,1.455,1.455,0,0,0-.221.367,1.11,1.11,0,0,0-.085.435.466.466,0,0,0,.1.331.429.429,0,0,0,.321.1,2.6,2.6,0,0,0,.6-.089q.372-.091.923-.24a3.043,3.043,0,0,1,.962-.124,1.136,1.136,0,0,1,.688.26,1.4,1.4,0,0,1,.411.688,4.26,4.26,0,0,1,.135,1.181,5.226,5.226,0,0,1-.23,1.539,6.276,6.276,0,0,1-.647,1.431,6.5,6.5,0,0,1-.983,1.239,6.1,6.1,0,0,1-1.239.947,3.035,3.035,0,0,1-1.244.441,1.694,1.694,0,0,1-.968-.175A1.547,1.547,0,0,1,31,40.273a2.244,2.244,0,0,1-.241-1.019.644.644,0,0,1,.065-.277.407.407,0,0,1,.146-.184l1.314-.758a.412.412,0,0,1,.221-.073.319.319,0,0,1,.16.069c.027.026.067.07.12.131a.694.694,0,0,0,.216.161.666.666,0,0,0,.34.059,1.2,1.2,0,0,0,.507-.185,3.78,3.78,0,0,0,.888-.69,1.215,1.215,0,0,0,.356-.846.333.333,0,0,0-.131-.311.673.673,0,0,0-.391-.06,3.71,3.71,0,0,0-.667.13q-.406.112-.958.245a1.452,1.452,0,0,1-1.51-.264,2.75,2.75,0,0,1-.477-1.849,5.243,5.243,0,0,1,.2-1.38,6.423,6.423,0,0,1,.567-1.393,6.349,6.349,0,0,1,.9-1.252,4.95,4.95,0,0,1,1.178-.951" transform="translate(5031.175 1792.832)" fill="#fff"/>
        <path id="Path_1098" data-name="Path 1098" d="M46.253,22.383a2.63,2.63,0,0,1,1.179-.395,1.693,1.693,0,0,1,.928.2,1.554,1.554,0,0,1,.612.635,1.979,1.979,0,0,1,.231.9.648.648,0,0,1-.065.277.4.4,0,0,1-.146.184l-1.315.759a.3.3,0,0,1-.4-.016c-.02-.019-.052-.052-.1-.1A.479.479,0,0,0,47,24.711a.651.651,0,0,0-.3-.026,1.177,1.177,0,0,0-.441.169,2.938,2.938,0,0,0-.366.25,2.164,2.164,0,0,0-.311.3,1.473,1.473,0,0,0-.221.367,1.122,1.122,0,0,0-.085.435.466.466,0,0,0,.1.331.427.427,0,0,0,.32.1,2.6,2.6,0,0,0,.6-.089q.372-.091.923-.24a3.044,3.044,0,0,1,.963-.124,1.136,1.136,0,0,1,.687.26,1.4,1.4,0,0,1,.411.688,4.238,4.238,0,0,1,.135,1.181,5.226,5.226,0,0,1-.23,1.539,6.24,6.24,0,0,1-.647,1.431,6.5,6.5,0,0,1-.983,1.239,6.1,6.1,0,0,1-1.239.947,3.04,3.04,0,0,1-1.244.441,1.693,1.693,0,0,1-.968-.175,1.537,1.537,0,0,1-.637-.659,2.245,2.245,0,0,1-.241-1.019.637.637,0,0,1,.066-.277.41.41,0,0,1,.145-.184l1.314-.758a.413.413,0,0,1,.221-.073.319.319,0,0,1,.16.069c.027.026.067.07.121.131a.684.684,0,0,0,.216.161.668.668,0,0,0,.34.059A1.2,1.2,0,0,0,46.3,31a3.788,3.788,0,0,0,.887-.69,1.216,1.216,0,0,0,.357-.846.333.333,0,0,0-.131-.311.672.672,0,0,0-.391-.06,3.7,3.7,0,0,0-.666.13q-.407.112-.958.245a1.452,1.452,0,0,1-1.51-.264,2.754,2.754,0,0,1-.476-1.849,5.211,5.211,0,0,1,.2-1.379,6.466,6.466,0,0,1,1.464-2.645,4.962,4.962,0,0,1,1.178-.951" transform="translate(5025.979 1795.831)" fill="#fff"/>
      </g>
      <g class="html hoverClass">
        <path id="Path_1099" data-name="Path 1099" d="M32.2,64.708.779,82.806A1.723,1.723,0,0,0,0,84.156v17.537a1.7,1.7,0,0,0,.784,1.342l3.1,1.763a1.743,1.743,0,0,0,1.564-.008l31.415-18.1a1.723,1.723,0,0,0,.78-1.35V67.806a1.7,1.7,0,0,0-.784-1.343l-3.1-1.763a1.747,1.747,0,0,0-1.564.008" transform="translate(5044 1778.094)" fill="#3283fb"/>
        <path id="Path_1100" data-name="Path 1100" d="M37.808,67.664c-.061-.392-.382-.533-.771-.31L5.625,85.453a1.592,1.592,0,0,0-.551.583L.419,83.359A1.558,1.558,0,0,1,.956,82.8l31.416-18.1a1.743,1.743,0,0,1,1.563-.007l3.1,1.762a1.721,1.721,0,0,1,.774,1.2" transform="translate(5043.825 1778.094)" fill="#3283fb"/>
        <path id="Path_1101" data-name="Path 1101" d="M40.2,69.309,8.788,87.407a1.723,1.723,0,0,0-.779,1.35v17.536c0,.5.349.7.779.45L40.2,88.646a1.723,1.723,0,0,0,.779-1.35V69.759c0-.5-.349-.7-.779-.45" transform="translate(5040.66 1776.141)" fill="#0a58ca"/>
        <path id="Path_1102" data-name="Path 1102" d="M17.529,100.924a.145.145,0,0,1,.19.013.331.331,0,0,1,.08.248v9.977a.79.79,0,0,1-.08.34.506.506,0,0,1-.19.233l-1.315.759a.145.145,0,0,1-.19-.014.326.326,0,0,1-.081-.247v-3.784l-2.226,1.285v3.784a.781.781,0,0,1-.081.34.5.5,0,0,1-.19.233l-1.314.759a.152.152,0,0,1-.191-.006.326.326,0,0,1-.08-.255v-9.977a.788.788,0,0,1,.08-.34.508.508,0,0,1,.191-.234l1.314-.759a.145.145,0,0,1,.19.014.328.328,0,0,1,.081.247v3.722l2.226-1.286v-3.722a.783.783,0,0,1,.081-.34.509.509,0,0,1,.19-.233Z" transform="translate(5039.054 1762.924)" fill="#fff"/>
        <path id="Path_1103" data-name="Path 1103" d="M30.115,93.661a.146.146,0,0,1,.191.013.331.331,0,0,1,.08.248v1.636a.786.786,0,0,1-.08.34.506.506,0,0,1-.191.234l-1.765,1.02v7.923a.788.788,0,0,1-.08.339.508.508,0,0,1-.191.234l-1.313.758a.146.146,0,0,1-.191-.013.329.329,0,0,1-.08-.247V98.223l-1.765,1.019a.144.144,0,0,1-.19-.013.329.329,0,0,1-.08-.248V97.344a.784.784,0,0,1,.08-.34.505.505,0,0,1,.19-.233Z" transform="translate(5033.801 1765.953)" fill="#fff"/>
        <path id="Path_1104" data-name="Path 1104" d="M39.969,95.622a.686.686,0,0,1-.135-.177l-.943-2v5.113a.8.8,0,0,1-.08.339.512.512,0,0,1-.191.234l-1.314.758a.146.146,0,0,1-.191-.013.331.331,0,0,1-.08-.247V89.647a.8.8,0,0,1,.08-.34.512.512,0,0,1,.191-.234L38.47,88.4c.134-.078.234-.078.3,0a.9.9,0,0,1,.131.171l1.625,3.34,1.625-5.216c.019-.064.064-.171.13-.322a.72.72,0,0,1,.3-.345l1.164-.672a.146.146,0,0,1,.191.014.332.332,0,0,1,.08.247v9.977a.8.8,0,0,1-.08.34.514.514,0,0,1-.191.233l-1.314.759a.146.146,0,0,1-.191-.014.331.331,0,0,1-.08-.247V91.553l-.943,3.093a2.963,2.963,0,0,1-.136.333.584.584,0,0,1-.236.267l-.642.371c-.1.058-.179.06-.236.005" transform="translate(5028.556 1769.417)" fill="#fff"/>
        <path id="Path_1105" data-name="Path 1105" d="M57.2,88.047a.145.145,0,0,1,.19.013.329.329,0,0,1,.081.248v1.637a.781.781,0,0,1-.081.34.5.5,0,0,1-.19.233L52.552,93.2a.145.145,0,0,1-.191-.013.328.328,0,0,1-.08-.247V82.962a.79.79,0,0,1,.08-.34.511.511,0,0,1,.191-.234l1.314-.758a.145.145,0,0,1,.19.013.329.329,0,0,1,.081.247v7.923Z" transform="translate(5022.198 1770.97)" fill="#fff"/>
      </g>
      <rect id="Rectangle_466" data-name="Rectangle 466" width="244.325" height="251.185" transform="translate(5044 1805)" fill="none"/>
      <rect id="Rectangle_467" data-name="Rectangle 467" width="244.325" height="251.185" transform="translate(5044 1805)" fill="none"/>
    </g>
  </g>
</svg>
