<svg xmlns="http://www.w3.org/2000/svg" xmlns:xlink="http://www.w3.org/1999/xlink" width="536.388" height="391.452" viewBox="0 0 536.388 391.452">
<style xmlns="http://www.w3.org/2000/svg">
      #Rectangle_514{animation: hover 2s ease-in-out infinite;}
      @-webkit-keyframes hover {
        0%{fill: #DDDDDD}
        50%{fill: #0A58CA}
        100%{fill: #DDDDDD}
      }
    </style>
  <defs>
    <filter id="Path_255" x="52.5" y="13.452" width="483.888" height="378" filterUnits="userSpaceOnUse">
      <feOffset dy="26" input="SourceAlpha"/>
      <feGaussianBlur stdDeviation="13" result="blur"/>
      <feFlood flood-color="#ddd" flood-opacity="0.502"/>
      <feComposite operator="in" in2="blur"/>
      <feComposite in="SourceGraphic"/>
    </filter>
  </defs>
  <g id="Group_1123" data-name="Group 1123" transform="translate(-140 -935)">
    <circle id="Ellipse_3" data-name="Ellipse 3" cx="132.5" cy="132.5" r="132.5" transform="translate(140 1021)" fill="#eff6ff"/>
    <circle id="Ellipse_2" data-name="Ellipse 2" cx="57" cy="57" r="57" transform="translate(538 935)" fill="#fff6f6"/>
    <g id="Group_830" data-name="Group 830" transform="translate(-3558.5 -872.985)">
      <g id="Group_490" data-name="Group 490" transform="translate(-118 176.485)">
        <g transform="matrix(1, 0, 0, 1, 3816.5, 1631.5)" filter="url(#Path_255)">
          <path id="Path_255-2" data-name="Path 255" d="M404.888,56.057V242.214c0,29.851-23.906,49.986-52.786,54.049-33.706,4.743-68.431,2.768-139.383-2.195-39.841-2.789-119.947,1.83-159.933,2.195C23.634,296.529,0,272.064,0,242.214V56.057C0,26.206,23.684.251,52.786,2.008,79.811,3.639,119.563,10.093,161,6.14c21.681-2.068,51.927-4,83.117-5.125C283.827-.418,325.065-.546,352.1,2.008a65.232,65.232,0,0,1,6.983,1.04c25.761,5.257,45.8,25.591,45.8,53.009" transform="translate(92 27)" fill="#fff" stroke="#ddd" stroke-width="1"/>
        </g>
        <path id="Path_1302" data-name="Path 1302" d="M1491.425,1307.809c0,5.973,46.3,10.816,103.415,10.816s103.415-4.843,103.415-10.816-46.3-10.814-103.415-10.814-103.415,4.842-103.415,10.814" transform="translate(2487.043 621.737)" fill="rgba(221,221,221,0.4)"/>
        <path id="Path_1215" data-name="Path 1215" d="M121.666,75.067c.552-2.768,2.51-4.242,5.115-5.328a8.8,8.8,0,0,1,8.1.77c1.574,1.042,2.858,2.622,4.678,3.122,3,.824,6.286-1.6,9.182-.467a4.01,4.01,0,0,1-1.389,7.745c1.958.571,2.733,3.26,1.729,5.035a5.343,5.343,0,0,1-5.282,2.329,11.255,11.255,0,0,1-5.455-2.6c-1.6-1.261-3.063-2.71-4.762-3.839a8.753,8.753,0,0,0-5.748-1.69c-2.742.331-4.966,2.561-6.029,5.111a20.522,20.522,0,0,0-1.131,8.148,33.9,33.9,0,0,1-.475,8.248c-.075.315-.2.671-.5.787-.437.167-.849-.283-1.1-.679a40.533,40.533,0,0,1-5.616-14.731c-.513-3.028-.624-5.921.882-8.6s5.617-4.848,7.8-3.365" transform="translate(3936.262 1655.103)"/>
        <path id="Path_1216" data-name="Path 1216" d="M120.647,91.083l.58,28.2c.108,5.265,2.752,10.71,11.068,10.16,7.18-1.022,7.367-6.057,7.332-12.3h0s7.867-.9,8.276-8.716c.2-3.775-.029-11.585-.315-18.648A14.573,14.573,0,0,0,133.6,75.811l-.754-.03c-8.152.15-12.578,7.157-12.2,15.3" transform="translate(3932.805 1652.209)" fill="#ffb797"/>
        <path id="Path_1218" data-name="Path 1218" d="M161.571,113.49a1.117,1.117,0,0,1-1.122,1.083,1.068,1.068,0,0,1-1.11-1.052,1.118,1.118,0,0,1,1.12-1.084,1.07,1.07,0,0,1,1.111,1.053" transform="translate(3916.053 1636.348)"/>
        <path id="Path_1219" data-name="Path 1219" d="M161.559,106.126c-.144.14-.965-.52-2.167-.564-1.2-.062-2.105.521-2.23.369-.061-.068.09-.325.485-.589a3.067,3.067,0,0,1,1.793-.475,2.943,2.943,0,0,1,1.717.631c.358.3.473.566.4.629" transform="translate(3917 1639.625)"/>
        <path id="Path_1220" data-name="Path 1220" d="M141.947,112.631a1.117,1.117,0,0,1-1.122,1.083,1.068,1.068,0,0,1-1.11-1.052,1.118,1.118,0,0,1,1.12-1.084,1.069,1.069,0,0,1,1.111,1.053" transform="translate(3924.544 1636.719)"/>
        <path id="Path_1221" data-name="Path 1221" d="M140.729,105.69c-.145.14-.966-.52-2.167-.564-1.2-.062-2.105.521-2.23.369-.061-.068.089-.325.486-.589a3.064,3.064,0,0,1,1.792-.475,2.946,2.946,0,0,1,1.717.631c.357.3.473.567.4.629" transform="translate(3926.014 1639.814)"/>
        <path id="Path_1222" data-name="Path 1222" d="M151.024,115.012a7.934,7.934,0,0,1,1.965-.274c.308-.019.6-.069.661-.276a1.563,1.563,0,0,0-.168-.917q-.389-1.131-.814-2.372a40.224,40.224,0,0,1-1.793-6.191,40.177,40.177,0,0,1,2.287,6.032q.406,1.248.775,2.384a1.779,1.779,0,0,1,.111,1.211.769.769,0,0,1-.522.428,2.1,2.1,0,0,1-.524.052,7.824,7.824,0,0,1-1.978-.077" transform="translate(3919.722 1639.574)"/>
        <path id="Path_1223" data-name="Path 1223" d="M140.773,97.617c-.132.322-1.325.119-2.741.233-1.419.085-2.572.453-2.747.152-.078-.144.133-.442.6-.741a4.783,4.783,0,0,1,4.18-.293c.509.229.76.5.7.649" transform="translate(3926.468 1643.192)"/>
        <path id="Path_1224" data-name="Path 1224" d="M161.275,99.916c-.222.264-1.038-.052-2.033-.1-.992-.088-1.845.11-2.027-.183-.079-.142.064-.41.442-.654a2.948,2.948,0,0,1,3.272.233c.34.294.445.58.346.709" transform="translate(3916.981 1642.341)"/>
        <path id="Path_1225" data-name="Path 1225" d="M117.3,112.758c-.131-.063-5.308-1.8-5.35,3.548s5.338,4.29,5.348,4.137,0-7.685,0-7.685" transform="translate(3936.558 1636.347)" fill="#ffb797"/>
        <path id="Path_1227" data-name="Path 1227" d="M147.29,81.558a10.2,10.2,0,0,0-3.131-3.911,17.42,17.42,0,0,0-9.954-4.014,14.189,14.189,0,0,0-10.1,3.361,14.982,14.982,0,0,0-4.415,7.39,22,22,0,0,0-.4,8.666,6.614,6.614,0,0,0,1.31,3.543,1.7,1.7,0,0,0,2.111.555,2.133,2.133,0,0,0,.671-1.208c1.193-4.083,2.385-8.476,1.033-12.509a12.277,12.277,0,0,1,3.816-3.236,6.355,6.355,0,0,1,4.882-.47c2.354.829,3.728,3.2,5.565,4.893a11.3,11.3,0,0,0,9.94,2.659Z" transform="translate(3933.487 1653.149)"/>
        <path id="Path_1228" data-name="Path 1228" d="M149.365,127.7a5.325,5.325,0,0,1-.6,1.392,1.793,1.793,0,0,1-1.223.822,1.608,1.608,0,0,1-1.406-.65,2.572,2.572,0,0,1-.481-1.519c-.01-.488.174-1.084.654-1.173a1.215,1.215,0,0,1,.6.091l2.611.863" transform="translate(3921.973 1630.238)" fill="red"/>
        <path id="Path_1229" data-name="Path 1229" d="M148.236,129.664a3.684,3.684,0,0,1-1.367-.078,1.944,1.944,0,0,1-1.087-.864,2.047,2.047,0,0,1-.144-1.661,1.808,1.808,0,0,1,.2-.395c.094-.112.075-.106.186-.1s.278.088.418.133l.429.142c.559.184,1.064.344,1.491.472a4.626,4.626,0,0,0,1.412.325,4.657,4.657,0,0,0-1.305-.629c-.414-.167-.908-.358-1.459-.564l-.424-.157a4.642,4.642,0,0,0-.477-.161.6.6,0,0,0-.376.036.7.7,0,0,0-.266.241,2.2,2.2,0,0,0-.254.5,2.388,2.388,0,0,0,.212,2.029,2.179,2.179,0,0,0,1.36.958,2.059,2.059,0,0,0,1.1-.03c.248-.083.361-.178.349-.2" transform="translate(3922.225 1630.428)"/>
        <path id="Path_1233" data-name="Path 1233" d="M178.66,242.8l28.461,11.462-4.537,8.13-32.273-4.95Z" transform="translate(3911.306 1579.938)" fill="#ffb797"/>
        <path id="Path_1234" data-name="Path 1234" d="M135.625,169.129c.146,8.009-.111,27.295-.111,27.295l4.562,7.169-7.984,10.754-9.224,1.3-.917,7.153s-16.158,7.233-29.087,2.848c-10.059-3.412-21.815,8.06-21.815,8.06s-1.074-1.873.67-18.054c1.663-15.422,4.57-40.876,4.57-40.876l9.3-23.255L99.553,149.1c5.847,9.943,17.542,10,18.481,3.956l9.285,3.866a13.186,13.186,0,0,1,8.306,12.209" transform="translate(3954.398 1620.484)" fill="#0a58ca"/>
        <path id="Path_1237" data-name="Path 1237" d="M127.62,403.931h-5.363l-3.064-36.062h8.427Z" transform="translate(3933.424 1525.82)" fill="#2c3e50"/>
        <path id="Path_1238" data-name="Path 1238" d="M53.976,403.931H48.613l-3.064-36.062h8.427Z" transform="translate(3965.291 1525.82)" fill="#2c3e50"/>
        <path id="Path_1239" data-name="Path 1239" d="M232.107,403.931h-5.363l-3.064-36.062h8.427Z" transform="translate(3888.212 1525.82)" fill="#2c3e50"/>
        <path id="Path_1240" data-name="Path 1240" d="M48.972,251.587,54.081,173.4H5.869A5.867,5.867,0,0,0,.1,180.34L19.494,285.068c6.17-.087,118.648,0,118.648,0V251.587Z" transform="translate(3985 1609.967)" fill="#ddd"/>
        <path id="Path_1242" data-name="Path 1242" d="M275.517,382l3.471,16.552s17.99,2.031,18.929,5.028l-31.852,7.882L259.6,385.893Z" transform="translate(3872.67 1519.706)"/>
        <path id="Path_1243" data-name="Path 1243" d="M275.313,412.923a1.341,1.341,0,0,0-.533,1.707,1.288,1.288,0,0,0,1.687.542,1.413,1.413,0,0,0,.554-1.811,1.336,1.336,0,0,0-1.818-.369" transform="translate(3866.155 1506.392)" fill="#fff"/>
        <path id="Path_1244" data-name="Path 1244" d="M270.77,427.6l-.629-2.477,30.68-7.386s1.571.266,1.658,1.3Z" transform="translate(3868.108 1504.241)" fill="#0a58ca"/>
        <path id="Path_1245" data-name="Path 1245" d="M292.716,410.615c.033.157-.727.42-1.368,1.109-.66.673-.888,1.444-1.046,1.418-.151.005-.149-.982.642-1.8s1.77-.875,1.772-.724" transform="translate(3859.418 1507.353)" fill="#263238"/>
        <path id="Path_1246" data-name="Path 1246" d="M299.851,411.617c.073.142-.535.573-.9,1.361-.389.778-.346,1.522-.5,1.554-.14.061-.474-.824,0-1.8s1.363-1.267,1.4-1.12" transform="translate(3855.966 1506.906)" fill="#263238"/>
        <path id="Path_1247" data-name="Path 1247" d="M305.89,415.594c-.133.068-.542-.655-.353-1.606s.832-1.47.93-1.356c.119.106-.24.68-.383,1.463-.161.779-.043,1.446-.194,1.5" transform="translate(3852.813 1506.458)" fill="#263238"/>
        <path id="Path_1248" data-name="Path 1248" d="M289.988,403.962c-.03.158-.8.12-1.661.4-.87.26-1.481.724-1.6.611-.118-.09.408-.832,1.43-1.144s1.873-.006,1.826.136" transform="translate(3860.936 1510.322)" fill="#263238"/>
        <path id="Path_1250" data-name="Path 1250" d="M194.786,281.711l20.164,58.538-17.414,6.44-32.09-64.169-53.311-8.34,32-8.608L189.771,277.1a7.158,7.158,0,0,1,5.015,4.609" transform="translate(3936.478 1570.085)" fill="#e11212"/>
        <path id="Path_1251" data-name="Path 1251" d="M277.618,370.536l11.516,12.647s16.723-7.458,19.078-5.327l-23.72,23.209L265.741,382.1Z" transform="translate(3870.012 1524.666)"/>
        <path id="Path_1252" data-name="Path 1252" d="M292.148,403.2a1.355,1.355,0,0,0,.412,1.761,1.3,1.3,0,0,0,1.748-.393,1.429,1.429,0,0,0-.445-1.862,1.352,1.352,0,0,0-1.774.61" transform="translate(3858.658 1510.797)" fill="#fff"/>
        <path id="Path_1253" data-name="Path 1253" d="M298.239,406.8l-1.819-1.836,22.954-22.175s1.506-.574,2.114.287Z" transform="translate(3856.737 1519.445)" fill="#0a58ca"/>
        <path id="Path_1254" data-name="Path 1254" d="M306.494,391.94c.109.12-.418.739-.623,1.669-.23.925-.033,1.714-.184,1.772-.129.082-.634-.779-.365-1.9s1.094-1.671,1.173-1.54" transform="translate(3852.919 1515.413)" fill="#fff"/>
        <path id="Path_1255" data-name="Path 1255" d="M313.106,389.469c.136.086-.173.774-.087,1.649.06.877.479,1.5.359,1.612-.091.125-.835-.475-.921-1.565s.538-1.8.648-1.7" transform="translate(3849.802 1516.479)" fill="#fff"/>
        <path id="Path_1256" data-name="Path 1256" d="M320.258,390.092c-.081.128-.808-.293-1.132-1.219s-.028-1.708.115-1.659c.158.031.14.715.417,1.472.259.761.7,1.282.6,1.406" transform="translate(3846.976 1517.45)" fill="#fff"/>
        <path id="Path_1257" data-name="Path 1257" d="M300.439,387.35c.055.153-.633.513-1.244,1.2s-.92,1.391-1.077,1.351c-.149-.018-.071-.934.66-1.73s1.629-.966,1.661-.819" transform="translate(3856.029 1517.412)" fill="#fff"/>
        <path id="Path_1258" data-name="Path 1258" d="M88.37,301.246l46.487-.2,51.59,48.04,16.038-14.936s-43.805-49.435-48.869-54.535-53.826-8.5-53.826-8.5L70.476,283.855l.665,3.326A17.494,17.494,0,0,0,88.37,301.246" transform="translate(3954.504 1567.684)" fill="red"/>
        <path id="Path_1262" data-name="Path 1262" d="M131.99,254.3l-14.023,4.726-25.821-10.5L78.362,261.344l36.83,6.61a8.064,8.064,0,0,0,3.717-.265l10.859-3.411s3.549,4.009,4.289,4.069,2.237-.043,1.525-1.367a35.2,35.2,0,0,0-2.538-3.63s4.986,4.113,5.552,3.563.339-1.823-.545-2.862-3.815-4.4-3.815-4.4,6.145,5.089,6.729,4.316.874-1.989-1.588-4.349c-1.617-1.551-4.106-3.763-5.415-4.916a2.009,2.009,0,0,0-1.971-.4" transform="translate(3951.092 1577.46)" fill="#ffb797"/>
        <path id="Path_1267" data-name="Path 1267" d="M72.3,220.457s-5.24-5.885-4.91-13.737,2.582-30.578,3.584-36.814c.991-6.168,5.692-14.742,13.163-16.6,5.464-1.358,6.592,15.171,6.592,15.171l-4.126,36.483,8.225,4.777-7.676,13Z" transform="translate(3955.845 1618.697)" fill="#0a58ca"/>
        <path id="Path_1270" data-name="Path 1270" d="M190.359,228.743l-9.023,32.767h42.132l10.265-31.217a1.9,1.9,0,0,0-1.781-2.49l-39.742-.454a1.9,1.9,0,0,0-1.851,1.394" transform="translate(3906.535 1586.625)" fill="#ddd"/>
        <path id="Path_1272" data-name="Path 1272" d="M230.584,255.642a1.778,1.778,0,1,0,2.465-1.052,1.9,1.9,0,0,0-2.465,1.052" transform="translate(3885.323 1574.905)" fill="#fff"/>
        <path id="Path_1273" data-name="Path 1273" d="M159.831,285.727H131.638a2.412,2.412,0,0,1,2.412-2.412h26.827Z" transform="translate(3928.039 1562.407)" fill="#ddd"/>
        <path id="Path_1275" data-name="Path 1275" d="M30.2,265.573s49.828,6.307,51.605,8.053c1.562,1.535,3.555,42,4,41.808l-46.5-1.763Z" transform="translate(3971.933 1570.085)" fill="#fff"/>
        <rect id="Rectangle_512" data-name="Rectangle 512" width="250.333" height="246.843" transform="translate(3985 1685)" fill="none"/>
        <rect id="Rectangle_513" data-name="Rectangle 513" width="115.543" height="101.179" transform="translate(4112.067 1692.227)" fill="#fff" stroke="#ddd" stroke-width="1"/>
        <path id="Path_1301" data-name="Path 1301" d="M258.023,68.048a4.612,4.612,0,1,1-4.612-4.612,4.612,4.612,0,0,1,4.612,4.612" transform="translate(3957.201 1657.551)" fill="#0a58ca"/>
        <rect id="Rectangle_514" data-name="Rectangle 514" width="115.261" height="54.756" transform="translate(4112.349 1738.65)" fill="#ddd"/>
        <path id="Path_1281" data-name="Path 1281" d="M235.433,20.687a1.753,1.753,0,1,1-1.753-1.753,1.753,1.753,0,0,1,1.753,1.753" transform="translate(3884.644 1676.807)" fill="red"/>
        <path id="Path_1282" data-name="Path 1282" d="M245.772,20.687a1.753,1.753,0,1,1-1.753-1.753,1.753,1.753,0,0,1,1.753,1.753" transform="translate(3880.17 1676.807)" fill="red"/>
        <path id="Path_1283" data-name="Path 1283" d="M256.112,20.687a1.753,1.753,0,1,1-1.753-1.753,1.753,1.753,0,0,1,1.753,1.753" transform="translate(3875.696 1676.807)" fill="red"/>
        <path id="Path_1284" data-name="Path 1284" d="M258.023,68.048a4.612,4.612,0,1,1-4.612-4.612,4.612,4.612,0,0,1,4.612,4.612" transform="translate(3877.343 1657.551)" fill="#0a58ca"/>
        <path id="Path_1285" data-name="Path 1285" d="M256.835,67.489v4.466H255.8V68.318h-.893v-.829Z" transform="translate(3874.699 1655.797)" fill="#fff"/>
        <path id="Path_1286" data-name="Path 1286" d="M328.451,66.627A13.146,13.146,0,0,0,328.185,65a6.687,6.687,0,0,0-2.449-3.628,6.588,6.588,0,0,0-6.239-.924,6.592,6.592,0,0,0-3.049,2.295,6.546,6.546,0,0,0,0,7.765,6.6,6.6,0,0,0,3.05,2.3,6.589,6.589,0,0,0,6.24-.924,6.693,6.693,0,0,0,2.449-3.628,13.181,13.181,0,0,0,.265-1.625,2.341,2.341,0,0,1,.008.429,3.022,3.022,0,0,1-.039.521,4.668,4.668,0,0,1-.124.7,6.766,6.766,0,0,1-5.3,5.062,6.844,6.844,0,0,1-3.6-.281,6.846,6.846,0,0,1-3.19-2.38,6.81,6.81,0,0,1,0-8.107,6.846,6.846,0,0,1,3.189-2.379A6.836,6.836,0,0,1,323,59.912a6.767,6.767,0,0,1,5.3,5.062,4.655,4.655,0,0,1,.124.7,3.02,3.02,0,0,1,.039.52,2.346,2.346,0,0,1-.008.43" transform="translate(3848.751 1659.127)" fill="#0a58ca"/>
        <rect id="Rectangle_515" data-name="Rectangle 515" width="72.803" height="0.812" transform="translate(4134.734 1725.405)" fill="#0a58ca"/>
        <path id="Path_1288" data-name="Path 1288" d="M328.065,68.048a4.612,4.612,0,1,1-4.612-4.612,4.612,4.612,0,0,1,4.612,4.612" transform="translate(3847.035 1657.551)" fill="#0a58ca"/>
        <path id="Path_1289" data-name="Path 1289" d="M327.309,71.054V71.9h-3.375v-.669l1.722-1.627c.4-.377.466-.606.466-.823,0-.351-.243-.555-.715-.555a1.092,1.092,0,0,0-.925.446l-.753-.485a2.074,2.074,0,0,1,1.773-.829c1,0,1.659.51,1.659,1.32a1.782,1.782,0,0,1-.746,1.41l-1.027.97Z" transform="translate(3844.92 1655.855)" fill="#fff"/>
        <path id="Path_1290" data-name="Path 1290" d="M398.389,70.589c0,.753-.58,1.442-1.85,1.442a3.074,3.074,0,0,1-1.7-.479l.4-.791a2.172,2.172,0,0,0,1.276.4c.517,0,.836-.21.836-.574,0-.338-.248-.549-.836-.549h-.472v-.682l.918-1.04h-1.9v-.829h3.126v.669l-1.008,1.149a1.269,1.269,0,0,1,1.212,1.282" transform="translate(3814.152 1655.797)" fill="#fff"/>
        <path id="Path_1292" data-name="Path 1292" d="M321.543,92.15l3.463-4.7,3.463,4.7Z" transform="translate(3845.866 1647.16)" fill="#ddd"/>
        <path id="Path_1295" data-name="Path 1295" d="M277.476,131.668H247.714a4.035,4.035,0,0,1,0-8.071h29.762a4.035,4.035,0,1,1,0,8.071" transform="translate(3879.558 1631.519)" fill="#fff"/>
        <path id="Path_1298" data-name="Path 1298" d="M372.75,131.668H342.988a4.035,4.035,0,0,1,0-8.071H372.75a4.035,4.035,0,1,1,0,8.071" transform="translate(3838.333 1631.519)" fill="#fff"/>
        <path id="Path_1299" data-name="Path 1299" d="M332.8,171.029H248.1a4.035,4.035,0,0,1,0-8.071H332.8a4.035,4.035,0,1,1,0,8.071" transform="translate(3879.391 1614.487)" fill="#fff"/>
        <path id="Path_1300" data-name="Path 1300" d="M428.483,8.387A8.387,8.387,0,1,1,420.1,0a8.387,8.387,0,0,1,8.387,8.387" transform="translate(3806.85 1685)" fill="red"/>
        <rect id="Rectangle_516" data-name="Rectangle 516" width="7.531" height="1.681" transform="translate(4223.895 1695.185) rotate(-45)" fill="#fff"/>
        <rect id="Rectangle_517" data-name="Rectangle 517" width="1.681" height="7.531" transform="translate(4223.895 1691.049) rotate(-45)" fill="#fff"/>
        <rect id="Rectangle_518" data-name="Rectangle 518" width="250.333" height="246.843" transform="translate(3985 1685)" fill="none"/>
        <rect id="Rectangle_519" data-name="Rectangle 519" width="250.333" height="246.843" transform="translate(3985 1685)" fill="none"/>
      </g>
    </g>
  </g>
</svg>
