<svg xmlns="http://www.w3.org/2000/svg" xmlns:xlink="http://www.w3.org/1999/xlink" width="536.388" height="391.452" viewBox="0 0 536.388 391.452">
<style xmlns="http://www.w3.org/2000/svg">
      #Group_32 path{animation: hover1 2s ease-in-out infinite;}
      @-webkit-keyframes hover1 {
        <!-- FF8989 -->
        0%{fill: #0A58CA}
        50%{fill: #FF0000}
        100%{fill: #0A58CA}
      }
  </style>
  <defs>
    <filter id="Path_350" x="52.5" y="13.452" width="483.888" height="378" filterUnits="userSpaceOnUse">
      <feOffset dy="26" input="SourceAlpha"/>
      <feGaussianBlur stdDeviation="13" result="blur"/>
      <feFlood flood-color="#ddd" flood-opacity="0.502"/>
      <feComposite operator="in" in2="blur"/>
      <feComposite in="SourceGraphic"/>
    </filter>
  </defs>
  <g id="Group_1125" data-name="Group 1125" transform="translate(-140 -1717)">
    <circle id="Ellipse_3" data-name="Ellipse 3" cx="132.5" cy="132.5" r="132.5" transform="translate(140 1803)" fill="#eff6ff"/>
    <circle id="Ellipse_2" data-name="Ellipse 2" cx="57" cy="57" r="57" transform="translate(538 1717)" fill="#fff6f6"/>
    <g id="Group_99" data-name="Group 99" transform="translate(-3769.563 328.5)">
      <g transform="matrix(1, 0, 0, 1, 3909.56, 1388.5)" filter="url(#Path_350)">
        <path id="Path_350-2" data-name="Path 350" d="M404.888,56.057V242.214c0,29.851-23.906,49.986-52.786,54.049-33.706,4.743-68.431,2.768-139.383-2.195-39.841-2.789-119.947,1.83-159.933,2.195C23.634,296.529,0,272.064,0,242.214V56.057C0,26.206,23.684.251,52.786,2.008,79.811,3.639,119.563,10.093,161,6.14c21.681-2.068,51.927-4,83.117-5.125C283.827-.418,325.065-.546,352.1,2.008a65.232,65.232,0,0,1,6.983,1.04c25.761,5.257,45.8,25.591,45.8,53.009" transform="translate(92 27)" fill="#fff" stroke="#ddd" stroke-width="1"/>
      </g>
      <path id="Path_826" data-name="Path 826" d="M1491.425,1302.1c0,2.82,21.854,5.105,48.814,5.105s48.814-2.286,48.814-5.105-21.855-5.1-48.814-5.1-48.814,2.285-48.814,5.1" transform="translate(2791.752 387.15)" fill="rgba(221,221,221,0.4)"/>
      <path id="Path_825" data-name="Path 825" d="M1491.425,1302.364c0,2.966,22.988,5.37,51.347,5.37s51.347-2.4,51.347-5.37-22.989-5.37-51.347-5.37-51.347,2.4-51.347,5.37" transform="translate(2557.935 383.885)" fill="rgba(221,221,221,0.4)"/>
      <rect id="Rectangle_28" data-name="Rectangle 28" width="237.581" height="203.516" transform="translate(4091.081 1454.456)" fill="#fff"/>
      <rect id="Rectangle_29" data-name="Rectangle 29" width="237.581" height="203.516" transform="translate(4091.081 1454.456)" fill="#fff" stroke="#ddd" stroke-width="1"/>
      <rect id="Rectangle_30" data-name="Rectangle 30" width="121.282" height="203.516" transform="translate(4091.081 1454.456)" fill="#f2f2f2"/>
      <rect id="Rectangle_31" data-name="Rectangle 31" width="121.282" height="203.516" transform="translate(4091.081 1454.456)" fill="#f2f2f2" stroke="#ddd" stroke-width="1"/>
      <rect id="Rectangle_32" data-name="Rectangle 32" width="102.135" height="40.681" transform="translate(4216.285 1609.563)" fill="#efefef"/>
      <rect id="Rectangle_33" data-name="Rectangle 33" width="102.135" height="40.681" transform="translate(4216.285 1609.563)" fill="none" stroke="#ddd" stroke-linecap="round" stroke-linejoin="round" stroke-width="1"/>
      <path id="Path_256" data-name="Path 256" d="M335.816,320.495a7.152,7.152,0,1,0-7.152,7.151,7.152,7.152,0,0,0,7.152-7.151" transform="translate(3897.801 1300.378)" fill="#fee2e2"/>
      <path id="Path_257" data-name="Path 257" d="M335.816,320.495a7.152,7.152,0,1,0-7.152,7.151A7.152,7.152,0,0,0,335.816,320.495Z" transform="translate(3897.801 1300.378)" fill="none" stroke="red" stroke-linecap="round" stroke-linejoin="round" stroke-width="1"/>
      <path id="Path_258" data-name="Path 258" d="M334.954,319.668a2.756,2.756,0,1,0-2.756,2.756,2.756,2.756,0,0,0,2.756-2.756" transform="translate(3894.268 1298.788)" fill="#fff"/>
      <circle id="Ellipse_27" data-name="Ellipse 27" cx="2.756" cy="2.756" r="2.756" transform="matrix(0.997, -0.071, 0.071, 0.997, 4223.521, 1615.902)" fill="none" stroke="red" stroke-linecap="round" stroke-linejoin="round" stroke-width="1"/>
      <path id="Path_259" data-name="Path 259" d="M330.754,327.8a4.553,4.553,0,0,0-4.553,4.553c0,.035,0,.069,0,.1a7.152,7.152,0,0,0,9.1,0c0-.034.005-.068.005-.1a4.553,4.553,0,0,0-4.553-4.553" transform="translate(3895.712 1293.937)" fill="#fff"/>
      <path id="Path_260" data-name="Path 260" d="M330.754,327.8a4.553,4.553,0,0,0-4.553,4.553c0,.035,0,.069,0,.1a7.152,7.152,0,0,0,9.1,0c0-.034.005-.068.005-.1A4.553,4.553,0,0,0,330.754,327.8Z" transform="translate(3895.712 1293.937)" fill="none" stroke="red" stroke-linecap="round" stroke-linejoin="round" stroke-width="1"/>
      <line id="Line_1" data-name="Line 1" x2="39.857" transform="translate(4239.822 1617.791)" fill="none" stroke="#ddd" stroke-linecap="round" stroke-linejoin="round" stroke-width="1"/>
      <line id="Line_2" data-name="Line 2" x2="50.574" transform="translate(4255.598 1624.95)" fill="none" stroke="#ddd" stroke-linecap="round" stroke-linejoin="round" stroke-width="1"/>
      <line id="Line_3" data-name="Line 3" x2="12.805" transform="translate(4239.822 1624.95)" fill="none" stroke="#ddd" stroke-linecap="round" stroke-linejoin="round" stroke-width="1"/>
      <line id="Line_4" data-name="Line 4" x2="66.348" transform="translate(4239.822 1631.872)" fill="none" stroke="#ddd" stroke-linecap="round" stroke-linejoin="round" stroke-width="1"/>
      <line id="Line_5" data-name="Line 5" x2="4.883" transform="translate(4301.288 1638.793)" fill="none" stroke="#ddd" stroke-linecap="round" stroke-linejoin="round" stroke-width="1"/>
      <line id="Line_6" data-name="Line 6" x2="58.039" transform="translate(4239.822 1638.793)" fill="none" stroke="#ddd" stroke-linecap="round" stroke-linejoin="round" stroke-width="1"/>
      <rect id="Rectangle_34" data-name="Rectangle 34" width="54.756" height="32.316" transform="translate(4098.129 1528.709)" fill="#fff"/>
      <path id="Path_261" data-name="Path 261" d="M201.027,216.794v.832H200.2" transform="translate(3951.859 1343.399)" fill="none" stroke="#263238" stroke-linecap="round" stroke-linejoin="round" stroke-width="1"/>
      <line id="Line_7" data-name="Line 7" x1="50.524" transform="translate(4099.817 1561.025)" fill="none" stroke="#263238" stroke-linecap="round" stroke-linejoin="round" stroke-width="1" stroke-dasharray="3.089 3.089"/>
      <path id="Path_262" data-name="Path 262" d="M103.763,217.626h-.832v-.832" transform="translate(3995.198 1343.399)" fill="none" stroke="#263238" stroke-linecap="round" stroke-linejoin="round" stroke-width="1"/>
      <line id="Line_8" data-name="Line 8" y1="28.233" transform="translate(4098.129 1530.347)" fill="none" stroke="#ddd" stroke-linecap="round" stroke-linejoin="round" stroke-width="1" stroke-dasharray="2.91 2.91"/>
      <path id="Path_263" data-name="Path 263" d="M102.931,160.838v-.832h.832" transform="translate(3995.198 1368.703)" fill="none" stroke="#ddd" stroke-linecap="round" stroke-linejoin="round" stroke-width="1"/>
      <line id="Line_9" data-name="Line 9" x2="50.524" transform="translate(4100.674 1528.709)" fill="none" stroke="#ddd" stroke-linecap="round" stroke-linejoin="round" stroke-width="1" stroke-dasharray="3.089 3.089"/>
      <path id="Path_264" data-name="Path 264" d="M200.2,160.006h.832v.832" transform="translate(3951.859 1368.703)" fill="none" stroke="#ddd" stroke-linecap="round" stroke-linejoin="round" stroke-width="1"/>
      <line id="Line_10" data-name="Line 10" y2="28.232" transform="translate(4152.886 1531.154)" fill="none" stroke="#ddd" stroke-linecap="round" stroke-linejoin="round" stroke-width="1" stroke-dasharray="2.91 2.91"/>
      <rect id="Rectangle_35" data-name="Rectangle 35" width="54.756" height="32.316" transform="translate(4157.501 1528.709)" fill="#fff"/>
      <line id="Line_11" data-name="Line 11" x1="50.524" transform="translate(4159.189 1561.025)" fill="none" stroke="#ddd" stroke-linecap="round" stroke-linejoin="round" stroke-width="1" stroke-dasharray="3.089 3.089"/>
      <path id="Path_266" data-name="Path 266" d="M210.852,217.626h-.832v-.832" transform="translate(3947.48 1343.399)" fill="none" stroke="#263238" stroke-linecap="round" stroke-linejoin="round" stroke-width="1"/>
      <line id="Line_12" data-name="Line 12" y1="28.233" transform="translate(4157.501 1530.347)" fill="none" stroke="#ddd" stroke-linecap="round" stroke-linejoin="round" stroke-width="1" stroke-dasharray="2.91 2.91"/>
      <path id="Path_267" data-name="Path 267" d="M210.021,160.838v-.832h.832" transform="translate(3947.48 1368.703)" fill="none" stroke="#ddd" stroke-linecap="round" stroke-linejoin="round" stroke-width="1"/>
      <line id="Line_13" data-name="Line 13" x2="50.524" transform="translate(4160.046 1528.709)" fill="none" stroke="#ddd" stroke-linecap="round" stroke-linejoin="round" stroke-width="1" stroke-dasharray="3.089 3.089"/>
      <path id="Path_268" data-name="Path 268" d="M307.285,160.006h.832v.832" transform="translate(3904.141 1368.703)" fill="none" stroke="#ddd" stroke-linecap="round" stroke-linejoin="round" stroke-width="1"/>
      <line id="Line_14" data-name="Line 14" y2="28.232" transform="translate(4212.258 1531.154)" fill="none" stroke="#263238" stroke-linecap="round" stroke-linejoin="round" stroke-width="1" stroke-dasharray="2.91 2.91"/>
      <rect id="Rectangle_36" data-name="Rectangle 36" width="237.581" height="9.542" transform="translate(4091.081 1454.455)" fill="#0a58ca"/>
      <rect id="Rectangle_37" data-name="Rectangle 37" width="237.581" height="9.542" transform="translate(4091.081 1454.455)" fill="none" stroke="#0a58ca" stroke-linecap="round" stroke-linejoin="round" stroke-width="1"/>
      <rect id="Rectangle_38" data-name="Rectangle 38" width="116.512" height="9.542" transform="translate(4212.15 1454.455)" fill="red"/>
      <rect id="Rectangle_39" data-name="Rectangle 39" width="116.512" height="9.542" transform="translate(4212.15 1454.455)" fill="none" stroke="red" stroke-linecap="round" stroke-linejoin="round" stroke-width="1"/>
      <path id="Path_269" data-name="Path 269" d="M476.333,33.2a2.146,2.146,0,1,0-2.146,2.146,2.146,2.146,0,0,0,2.146-2.146" transform="translate(3830.728 1426.164)" fill="#fff"/>
      <circle id="Ellipse_28" data-name="Ellipse 28" cx="2.146" cy="2.146" r="2.146" transform="translate(4302.452 1457.587) rotate(-9.217)" fill="none" stroke="#fff" stroke-linecap="round" stroke-linejoin="round" stroke-width="1"/>
      <path id="Path_270" data-name="Path 270" d="M490.712,33.2a2.146,2.146,0,1,0-2.146,2.146,2.146,2.146,0,0,0,2.146-2.146" transform="translate(3824.32 1426.164)" fill="#fff"/>
      <circle id="Ellipse_29" data-name="Ellipse 29" cx="2.146" cy="2.146" r="2.146" transform="translate(4310.425 1457.587) rotate(-9.217)" fill="none" stroke="#fff" stroke-linecap="round" stroke-linejoin="round" stroke-width="1"/>
      <path id="Path_271" data-name="Path 271" d="M505.09,33.2a2.146,2.146,0,1,0-2.146,2.146A2.146,2.146,0,0,0,505.09,33.2" transform="translate(3817.914 1426.164)" fill="#fff"/>
      <circle id="Ellipse_30" data-name="Ellipse 30" cx="2.146" cy="2.146" r="2.146" transform="translate(4318.396 1457.587) rotate(-9.217)" fill="none" stroke="#fff" stroke-linecap="round" stroke-linejoin="round" stroke-width="1"/>
      <rect id="Rectangle_40" data-name="Rectangle 40" width="114.128" height="32.316" transform="translate(4098.226 1485.349)" fill="#fff"/>
      <path id="Path_272" data-name="Path 272" d="M308.29,138.585v.832h-.832" transform="translate(3904.063 1378.249)" fill="none" stroke="#ddd" stroke-linecap="round" stroke-linejoin="round" stroke-width="1"/>
      <line id="Line_15" data-name="Line 15" x1="109.947" transform="translate(4099.896 1517.665)" fill="none" stroke="rgba(221,221,221,0.46)" stroke-linecap="round" stroke-linejoin="round" stroke-width="1" stroke-dasharray="3.028 3.028"/>
      <path id="Path_273" data-name="Path 273" d="M103.937,139.416h-.832v-.832" transform="translate(3995.121 1378.249)" fill="none" stroke="#ddd" stroke-linecap="round" stroke-linejoin="round" stroke-width="1"/>
      <line id="Line_16" data-name="Line 16" y1="28.232" transform="translate(4098.226 1486.987)" fill="none" stroke="rgba(221,221,221,0.46)" stroke-linecap="round" stroke-linejoin="round" stroke-width="1" stroke-dasharray="3.028 3.028"/>
      <path id="Path_274" data-name="Path 274" d="M103.105,82.628V81.8h.832" transform="translate(3995.121 1403.553)" fill="none" stroke="#ddd" stroke-linecap="round" stroke-linejoin="round" stroke-width="1"/>
      <line id="Line_17" data-name="Line 17" x2="109.947" transform="translate(4100.736 1485.349)" fill="none" stroke="rgba(221,221,221,0.46)" stroke-linecap="round" stroke-linejoin="round" stroke-width="1" stroke-dasharray="3.028 3.028"/>
      <path id="Path_275" data-name="Path 275" d="M307.459,81.8h.832v.832" transform="translate(3904.063 1403.553)" fill="none" stroke="#ddd" stroke-linecap="round" stroke-linejoin="round" stroke-width="1"/>
      <path id="Path_276" data-name="Path 276" d="M286.78,359.284a8.181,8.181,0,1,0-8.181,8.181,8.182,8.182,0,0,0,8.181-8.181" transform="translate(3920.568 1283.553)" fill="#fff"/>
      <path id="Path_277" data-name="Path 277" d="M286.78,359.284a8.181,8.181,0,1,0-8.181,8.181A8.182,8.182,0,0,0,286.78,359.284Z" transform="translate(3920.568 1283.553)" fill="none" stroke="#ddd" stroke-linecap="round" stroke-linejoin="round" stroke-width="1" stroke-dasharray="3 3"/>
      <path id="Path_278" data-name="Path 278" d="M239.559,359.284a8.181,8.181,0,1,0-8.181,8.181,8.181,8.181,0,0,0,8.181-8.181" transform="translate(3941.609 1283.553)" fill="#fff"/>
      <path id="Path_279" data-name="Path 279" d="M239.559,359.284a8.181,8.181,0,1,0-8.181,8.181A8.181,8.181,0,0,0,239.559,359.284Z" transform="translate(3941.609 1283.553)" fill="none" stroke="#ddd" stroke-linecap="round" stroke-linejoin="round" stroke-width="1" stroke-dasharray="3 3"/>
      <path id="Path_280" data-name="Path 280" d="M128.992,65.98H107.464a4.051,4.051,0,1,1,0-8.1h21.528a4.051,4.051,0,1,1,0,8.1" transform="translate(3994.983 1414.21)" fill="#fff"/>
      <path id="Path_281" data-name="Path 281" d="M128.992,65.98H107.464a4.051,4.051,0,1,1,0-8.1h21.528a4.051,4.051,0,1,1,0,8.1Z" transform="translate(3994.983 1414.21)" fill="none" stroke="rgba(221,221,221,0.46)" stroke-linecap="round" stroke-linejoin="round" stroke-width="1" stroke-dasharray="3.028 3.028"/>
      <path id="Path_282" data-name="Path 282" d="M199.638,65.98H178.11a4.051,4.051,0,1,1,0-8.1h21.528a4.051,4.051,0,1,1,0,8.1" transform="translate(3963.505 1414.21)" fill="#fff"/>
      <path id="Path_283" data-name="Path 283" d="M199.638,65.98H178.11a4.051,4.051,0,1,1,0-8.1h21.528a4.051,4.051,0,1,1,0,8.1Z" transform="translate(3963.505 1414.21)" fill="none" stroke="rgba(221,221,221,0.46)" stroke-linecap="round" stroke-linejoin="round" stroke-width="1" stroke-dasharray="3.028 3.028"/>
      <path id="Path_284" data-name="Path 284" d="M270.283,65.98H248.755a4.051,4.051,0,1,1,0-8.1h21.528a4.051,4.051,0,1,1,0,8.1" transform="translate(3932.026 1414.21)" fill="#fff"/>
      <path id="Path_285" data-name="Path 285" d="M270.283,65.98H248.755a4.051,4.051,0,1,1,0-8.1h21.528a4.051,4.051,0,1,1,0,8.1Z" transform="translate(3932.026 1414.21)" fill="none" stroke="rgba(221,221,221,0.46)" stroke-linecap="round" stroke-linejoin="round" stroke-width="1" stroke-dasharray="3.028 3.028"/>
      <path id="Path_286" data-name="Path 286" d="M340.929,65.98H319.4a4.051,4.051,0,1,1,0-8.1h21.528a4.051,4.051,0,1,1,0,8.1" transform="translate(3900.547 1414.21)" fill="#c6dcfc"/>
      <path id="Path_288" data-name="Path 288" d="M411.575,65.98H390.047a4.051,4.051,0,1,1,0-8.1h21.528a4.051,4.051,0,1,1,0,8.1" transform="translate(3869.068 1414.21)" fill="#c6dcfc"/>
      <path id="Path_290" data-name="Path 290" d="M482.221,65.98H460.693a4.051,4.051,0,1,1,0-8.1h21.528a4.051,4.051,0,1,1,0,8.1" transform="translate(3837.589 1414.21)" fill="#c6dcfc"/>
      <line id="Line_19" data-name="Line 19" y2="228.629" transform="translate(4212.258 1440)" fill="none" stroke="#ddd" stroke-width="1"/>
      <line id="Line_20" data-name="Line 20" x2="4.996" transform="translate(4246.231 1528.572)" fill="none" stroke="#ddd" stroke-linecap="round" stroke-linejoin="round" stroke-width="1"/>
      <line id="Line_21" data-name="Line 21" x2="24.093" transform="translate(4218.939 1528.572)" fill="none" stroke="#ddd" stroke-linecap="round" stroke-linejoin="round" stroke-width="1"/>
      <line id="Line_22" data-name="Line 22" x2="32.287" transform="translate(4218.939 1535.116)" fill="none" stroke="#ddd" stroke-linecap="round" stroke-linejoin="round" stroke-width="1"/>
      <line id="Line_23" data-name="Line 23" x2="24.643" transform="translate(4226.584 1541.661)" fill="none" stroke="#ddd" stroke-linecap="round" stroke-linejoin="round" stroke-width="1"/>
      <line id="Line_24" data-name="Line 24" x2="4.446" transform="translate(4218.939 1541.661)" fill="none" stroke="#ddd" stroke-linecap="round" stroke-linejoin="round" stroke-width="1"/>
      <line id="Line_25" data-name="Line 25" x2="32.287" transform="translate(4218.939 1548.206)" fill="none" stroke="#ddd" stroke-linecap="round" stroke-linejoin="round" stroke-width="1"/>
      <line id="Line_26" data-name="Line 26" x2="32.287" transform="translate(4218.939 1554.751)" fill="none" stroke="#ddd" stroke-linecap="round" stroke-linejoin="round" stroke-width="1"/>
      <line id="Line_27" data-name="Line 27" x2="32.287" transform="translate(4218.939 1561.295)" fill="none" stroke="#ddd" stroke-linecap="round" stroke-linejoin="round" stroke-width="1"/>
      <line id="Line_28" data-name="Line 28" x2="11.393" transform="translate(4239.834 1567.84)" fill="none" stroke="#ddd" stroke-linecap="round" stroke-linejoin="round" stroke-width="1"/>
      <line id="Line_29" data-name="Line 29" x2="16.783" transform="translate(4218.939 1567.84)" fill="none" stroke="#ddd" stroke-linecap="round" stroke-linejoin="round" stroke-width="1"/>
      <line id="Line_30" data-name="Line 30" x2="47.558" transform="translate(4218.939 1574.385)" fill="none" stroke="#ddd" stroke-linecap="round" stroke-linejoin="round" stroke-width="1"/>
      <line id="Line_31" data-name="Line 31" x2="47.558" transform="translate(4218.939 1580.929)" fill="none" stroke="#ddd" stroke-linecap="round" stroke-linejoin="round" stroke-width="1"/>
      <line id="Line_32" data-name="Line 32" x2="28.491" transform="translate(4238.007 1587.474)" fill="none" stroke="#ddd" stroke-linecap="round" stroke-linejoin="round" stroke-width="1"/>
      <line id="Line_33" data-name="Line 33" x2="15.412" transform="translate(4218.939 1587.474)" fill="none" stroke="#ddd" stroke-linecap="round" stroke-linejoin="round" stroke-width="1"/>
      <line id="Line_34" data-name="Line 34" x2="47.558" transform="translate(4218.939 1594.019)" fill="none" stroke="#ddd" stroke-linecap="round" stroke-linejoin="round" stroke-width="1"/>
      <line id="Line_35" data-name="Line 35" x2="5.418" transform="translate(4261.08 1600.564)" fill="none" stroke="#ddd" stroke-linecap="round" stroke-linejoin="round" stroke-width="1"/>
      <line id="Line_36" data-name="Line 36" x2="38.943" transform="translate(4218.939 1600.564)" fill="none" stroke="#ddd" stroke-linecap="round" stroke-linejoin="round" stroke-width="1"/>
      <line id="Line_37" data-name="Line 37" x2="47.558" transform="translate(4272.606 1574.385)" fill="none" stroke="#ddd" stroke-linecap="round" stroke-linejoin="round" stroke-width="1"/>
      <line id="Line_38" data-name="Line 38" x2="23.446" transform="translate(4296.719 1580.929)" fill="none" stroke="#ddd" stroke-linecap="round" stroke-linejoin="round" stroke-width="1"/>
      <line id="Line_39" data-name="Line 39" x2="21.143" transform="translate(4272.606 1580.929)" fill="none" stroke="#ddd" stroke-linecap="round" stroke-linejoin="round" stroke-width="1"/>
      <line id="Line_40" data-name="Line 40" x2="47.558" transform="translate(4272.606 1587.474)" fill="none" stroke="#ddd" stroke-linecap="round" stroke-linejoin="round" stroke-width="1"/>
      <line id="Line_41" data-name="Line 41" x2="13.165" transform="translate(4306.999 1594.019)" fill="none" stroke="#ddd" stroke-linecap="round" stroke-linejoin="round" stroke-width="1"/>
      <line id="Line_42" data-name="Line 42" x2="30.052" transform="translate(4272.606 1594.019)" fill="none" stroke="#ddd" stroke-linecap="round" stroke-linejoin="round" stroke-width="1"/>
      <line id="Line_43" data-name="Line 43" x2="47.558" transform="translate(4272.606 1600.564)" fill="none" stroke="#ddd" stroke-linecap="round" stroke-linejoin="round" stroke-width="1"/>
      <g id="Group_32" data-name="Group 32" transform="translate(709.063 461)">
        <path id="Path_292" data-name="Path 292" d="M320.624,116.657V89.072h-5.205V85.88h14.552v3.192h-5.053v27.585Z" transform="translate(3191.454 940.733)" fill="red"/>
        <path id="Path_293" data-name="Path 293" d="M347.012,116.657V85.88h11.931v3.192H351.3V99.255H357.5v3.039H351.3V113.58h7.713v3.078Z" transform="translate(3177.376 940.733)" fill="red"/>
        <path id="Path_294" data-name="Path 294" d="M371.477,116.657l6.421-16.11L371.592,85.88h3.99l4.673,10.866L384.51,85.88h3.99l-6.459,15.009,6.763,15.768h-3.99L379.8,105.068l-4.332,11.589Z" transform="translate(3166.474 940.733)" fill="red"/>
        <path id="Path_295" data-name="Path 295" d="M409.853,116.657V89.072h-5.205V85.88H419.2v3.192h-5.053v27.585Z" transform="translate(3151.694 940.733)" fill="red"/>
      </g>
      <rect id="Rectangle_41" data-name="Rectangle 41" width="54.301" height="76.767" transform="translate(4283.94 1548.31) rotate(-87.214)" fill="#fff"/>
      <rect id="Rectangle_42" data-name="Rectangle 42" width="54.301" height="76.767" transform="translate(4283.94 1548.31) rotate(-87.214)" fill="none" stroke="red" stroke-linecap="round" stroke-linejoin="round" stroke-width="1"/>
      <path id="Path_298" data-name="Path 298" d="M516.037,143.821,502.4,130.387,479.991,152l-11.2-8.41L438.08,166.408l76.676,3.731Z" transform="translate(3845.86 1381.901)" fill="#fee2e2"/>
      <path id="Path_299" data-name="Path 299" d="M516.037,143.821,502.4,130.387,479.991,152l-11.2-8.41L438.08,166.408l76.676,3.731Z" transform="translate(3845.86 1381.901)" fill="none" stroke="red" stroke-linecap="round" stroke-linejoin="round" stroke-width="1"/>
      <path id="Path_300" data-name="Path 300" d="M475.187,118.27a7.6,7.6,0,1,0-7.6,7.6,7.6,7.6,0,0,0,7.6-7.6" transform="translate(3836.099 1390.687)" fill="#c6dcfc"/>
      <circle id="Ellipse_31" data-name="Ellipse 31" cx="7.6" cy="7.6" r="7.6" transform="translate(4294.967 1502.673) rotate(-9.217)" fill="none" stroke="#0a58ca" stroke-linecap="round" stroke-linejoin="round" stroke-width="1"/>
      <path id="Path_301" data-name="Path 301" d="M507.668,149.9s-2.637,1.27-3.125,2.734-.586,3.613-1.27,4.3-4.395,2.442-4.395,3.223,1.27,2.246,1.27,2.246-.293,6.152.684,7.129,4.98,1.367,4.98,1.367l-.1,4.3s2.344-.1,6.25,0,5.371.293,5.371.293l.1-8.2s4.785-2.832,4.98-7.324-3.32-8.593-7.129-10.156a10.733,10.733,0,0,0-7.617.1" transform="translate(3818.769 1373.548)" fill="#ffb797"/>
      <path id="Path_303" data-name="Path 303" d="M517.935,142.388s.781-2.344-.586-2.442-7.031,4.1-6.055,5.86,4.688.879,4.395,1.856-2.734,2.246-2.344,3.417a17.345,17.345,0,0,1,.977,3.32c-.1.293-1.953,1.172-1.758,1.856s-.1,1.074.586,1.171,2.442-2.246,3.711-1.171,1.953,4.2,1.27,5.566-1.074,1.855,0,2.93,4.98,1.757,5.566.879,5.566-3.711,6.445-6.933.684-8.3-1.855-10.644a34.376,34.376,0,0,0-5.957-4.2s1.27-1.465.2-1.856a7.268,7.268,0,0,0-4.589.391" transform="translate(3813.287 1377.642)"/>
      <path id="Path_304" data-name="Path 304" d="M517.935,142.388s.781-2.344-.586-2.442-7.031,4.1-6.055,5.86,4.688.879,4.395,1.856-2.734,2.246-2.344,3.417a17.345,17.345,0,0,1,.977,3.32c-.1.293-1.953,1.172-1.758,1.856s-.1,1.074.586,1.171,2.442-2.246,3.711-1.171,1.953,4.2,1.27,5.566-1.074,1.855,0,2.93,4.98,1.757,5.566.879,5.566-3.711,6.445-6.933.684-8.3-1.855-10.644a34.376,34.376,0,0,0-5.957-4.2s1.27-1.465.2-1.856A7.268,7.268,0,0,0,517.935,142.388Z" transform="translate(3813.287 1377.642)" fill="none" stroke="#000" stroke-linecap="round" stroke-linejoin="round" stroke-width="1"/>
      <path id="Path_305" data-name="Path 305" d="M515.065,170.324s2.12-1.681,2.777.365-1.681,4.751-3,4.97-2.412-1.1-2.265-1.316" transform="translate(3812.67 1364.395)" fill="none" stroke="#000" stroke-linecap="round" stroke-linejoin="round" stroke-width="1"/>
      <path id="Path_306" data-name="Path 306" d="M509.691,159.773s1.023-.658,1.754.658" transform="translate(3813.951 1368.88)" fill="none" stroke="#000" stroke-linecap="round" stroke-linejoin="round" stroke-width="1"/>
      <path id="Path_307" data-name="Path 307" d="M510.011,163.689c-.1.659-.375,1.163-.614,1.127s-.353-.6-.253-1.258.375-1.163.614-1.127.352.6.253,1.258" transform="translate(3814.211 1367.623)"/>
      <path id="Path_308" data-name="Path 308" d="M502.045,175.018a3.15,3.15,0,0,0,3.362-.877" transform="translate(3817.358 1362.405)" fill="none" stroke="#000" stroke-linecap="round" stroke-linejoin="round" stroke-width="1"/>
      <path id="Path_309" data-name="Path 309" d="M519.9,191.716s-8.807-.979-10.438-.761a23.9,23.9,0,0,0-6.415,2.5,8.967,8.967,0,0,0-1.848,1.522s9.46-.761,12.83-.327a88.118,88.118,0,0,1,8.7,1.848s-1.631-4.349-2.827-4.784" transform="translate(3817.735 1354.927)" fill="#fff"/>
      <path id="Path_310" data-name="Path 310" d="M519.9,191.716s-8.807-.979-10.438-.761a23.9,23.9,0,0,0-6.415,2.5,8.967,8.967,0,0,0-1.848,1.522s9.46-.761,12.83-.327a88.118,88.118,0,0,1,8.7,1.848S521.1,192.151,519.9,191.716Z" transform="translate(3817.735 1354.927)" fill="none" stroke="#000" stroke-linecap="round" stroke-linejoin="round" stroke-width="1"/>
      <path id="Path_311" data-name="Path 311" d="M572.268,204.949s-2.718-5.11-2.827-6.415a19.388,19.388,0,0,1,.979-5c.217-.653,0-3.044.87-2.718s.979,1.2.979,1.957-.435,1.74-.435,2.283,1.63-1.413,1.63-1.413a20.3,20.3,0,0,1,.435-3.045c.217-.435,1.413-.761,1.848-.108a9.926,9.926,0,0,1,.543,3.044,45.292,45.292,0,0,1,.979,4.675c.109,1.305-1.74,4.893-2.066,5.111s-.435,2.5-.435,2.5Z" transform="translate(3787.331 1355.285)" fill="#ffb797"/>
      <path id="Path_313" data-name="Path 313" d="M444.932,166.8s-2.174-7.068-3.154-8.481a26.574,26.574,0,0,0-3.044-3.045c-.761-.87-1.413-3.262-2.392-2.174a2.515,2.515,0,0,0,.109,3.044c.326.326-2.719,2.066-2.719,2.61s.979,1.631,1.088,1.957,1.2,3.7,1.848,3.915,3.262,1.522,3.262,1.522l2.284,2.718Z" transform="translate(3847.798 1371.904)" fill="#ffb797"/>
      <path id="Path_315" data-name="Path 315" d="M485.169,276.084s-.644,14.523-.644,20.462,2.414,47.388,2.414,49.408,1.51,15.294,1.51,15.294-1.9.119-1.9.712.238,3.445.238,3.445a17.682,17.682,0,0,1-4.513,2.969c-2.494,1.069-3.207,1.782-2.494,2.613s7.72,1.544,10.57,1.188,4.751-.357,4.989-1.188a32.684,32.684,0,0,0,.357-4.513c0-.475.712-2.375.831-4.038a36.8,36.8,0,0,0-.119-3.682c0-1.544,5.306-57.151,5.306-57.151l11.732,28.556,10.726,31.8s-.713.475-.475,1.069,2.256,5.463,2.256,5.463-.119,2.376.237,2.613a18.275,18.275,0,0,0,6.057.95c3.445.119,8.077-.356,7.958-1.069s-2.019-1.663-2.85-2.375-4.276-5.107-4.276-5.107a26.507,26.507,0,0,0-.95-2.851c-.238-.356-1.544-2.256-1.544-2.256s-4.5-29.4-5.09-31.3-8.425-37.206-8.425-37.206l-2.563-12.267Z" transform="translate(3827.396 1316.98)" fill="red"/>
      <path id="Path_317" data-name="Path 317" d="M477.342,188.773s-7.176.87-9.677,1.74-10.439,1.631-10.439,1.631-4.893-15.005-5.219-15.114-3.7,0-4.023,1.3l-.326,1.305s3.153,24.682,3.7,25.878,1.631.979,2.392.87,15.223-1.957,15.223-1.957l1.007,26.563a3.682,3.682,0,0,0,.406,1.708c.435.761,5.437,4.023,15.44,3.806s14.9-1.087,15.222-1.957-.435-4.131-.543-4.784,2.827-14.461,2.827-14.461,15.222,8.481,17.723,8.59,2.61-3.153,2.5-4.132-2.827-21.964-2.827-21.964a3.8,3.8,0,0,0-2.283-.87h-1.305l-1.631,12.722s-6.633-9.025-7.612-10.656a26.08,26.08,0,0,0-4.458-5.654,30.078,30.078,0,0,0-4.567-3.044s-5.98-4.458-21.529-1.522" transform="translate(3841.592 1361.132)" fill="#0a58ca"/>
      <rect id="Rectangle_43" data-name="Rectangle 43" width="84.848" height="56.566" transform="translate(4091.182 1563.372)" fill="#ddd"/>
      <rect id="Rectangle_44" data-name="Rectangle 44" width="84.848" height="56.566" transform="translate(4091.182 1563.372)" fill="none" stroke="#ddd" stroke-linecap="round" stroke-linejoin="round" stroke-width="1"/>
      <rect id="Rectangle_45" data-name="Rectangle 45" width="98.972" height="56.728" transform="translate(4073.418 1557.871)" fill="#fff"/>
      <rect id="Rectangle_46" data-name="Rectangle 46" width="98.972" height="56.728" transform="translate(4073.418 1557.871)" fill="none" stroke="#ddd" stroke-linecap="round" stroke-linejoin="round" stroke-width="1"/>
      <line id="Line_51" data-name="Line 51" y1="56.728" x2="98.972" transform="translate(4073.418 1557.871)" fill="none" stroke="#ddd" stroke-linecap="round" stroke-linejoin="round" stroke-width="1"/>
      <line id="Line_52" data-name="Line 52" x2="98.972" y2="56.728" transform="translate(4073.418 1557.871)" fill="none" stroke="#ddd" stroke-linecap="round" stroke-linejoin="round" stroke-width="1"/>
      <path id="Path_323" data-name="Path 323" d="M118.233,235.328a16.83,16.83,0,0,1,.68,4.834c-.075,2.417.3,3.777.756,4.456s1.812,1.359,1.133,1.888-2.115,1.51-2.115,1.51a60.773,60.773,0,0,1-1.51,5.967c-.68,1.888-4.683-.529-4.683-.529a32.365,32.365,0,0,0-1.737,4c-.151.831-.453.906-.453.906l-8.988-2.794,1.133-3.928s-2.039-6.8-1.812-11.858,7.251-8.233,10.951-8.082,6.647,3.625,6.647,3.625" transform="translate(3996.229 1336.759)" fill="#ffb797"/>
      <path id="Path_325" data-name="Path 325" d="M132.178,251.413c0,.5-.135.907-.3.907s-.3-.406-.3-.907.135-.906.3-.906.3.405.3.906" transform="translate(3982.435 1328.377)"/>
      <path id="Path_326" data-name="Path 326" d="M130.076,248.9s.906-1.057,1.737-.453" transform="translate(3983.103 1329.377)" fill="none" stroke="#000" stroke-linecap="round" stroke-linejoin="round" stroke-width="1"/>
      <path id="Path_327" data-name="Path 327" d="M128.713,262.495a1.637,1.637,0,0,0,1.737.6" transform="translate(3983.71 1323.036)" fill="none" stroke="#000" stroke-linecap="round" stroke-linejoin="round" stroke-width="1"/>
      <path id="Path_328" data-name="Path 328" d="M117.4,231.523a10.92,10.92,0,0,1-2.946,4.607,14.315,14.315,0,0,1-4.683,2.568s.529.529-.075.756-1.586-.529-2.19-.076-2.115,5.363-1.51,7.855,3.852,1.964,3.852,1.964-3.626,3.248-6.42,3.474-8.686-1.812-10.045-3.248-3.4-6.5-2.266-9.517,3.172-8.686,5.287-10.725,6.8-3.475,9.064-3.626a9.683,9.683,0,0,1,6.647,1.813c1.662,1.435,2.417,2.946,2.719,2.946s2.719.151,2.568,1.209" transform="translate(4000.608 1339.506)" stroke="#000" stroke-width="1"/>
      <path id="Path_329" data-name="Path 329" d="M117.4,231.523a10.92,10.92,0,0,1-2.946,4.607,14.315,14.315,0,0,1-4.683,2.568s.529.529-.075.756-1.586-.529-2.19-.076-2.115,5.363-1.51,7.855,3.852,1.964,3.852,1.964-3.626,3.248-6.42,3.474-8.686-1.812-10.045-3.248-3.4-6.5-2.266-9.517,3.172-8.686,5.287-10.725,6.8-3.475,9.064-3.626a9.683,9.683,0,0,1,6.647,1.813c1.662,1.435,2.417,2.946,2.719,2.946S117.555,230.466,117.4,231.523Z" transform="translate(4000.608 1339.506)" fill="none" stroke="#000" stroke-linecap="round" stroke-linejoin="round" stroke-width="1"/>
      <path id="Path_330" data-name="Path 330" d="M122.3,251.637s-1.209-1.209-2.115-1.133-1.285,4.306-.6,5.212,2.266.151,2.266.151" transform="translate(3987.935 1328.38)" fill="none" stroke="#000" stroke-linecap="round" stroke-linejoin="round" stroke-width="1"/>
      <path id="Path_331" data-name="Path 331" d="M99.056,273.122s11.4,3.4,11.632,3.852,1.133,3.475,1.133,3.475l-14.577-5.287Z" transform="translate(3997.733 1318.3)" fill="#fff"/>
      <path id="Path_332" data-name="Path 332" d="M99.056,273.122s11.4,3.4,11.632,3.852,1.133,3.475,1.133,3.475l-14.577-5.287Z" transform="translate(3997.733 1318.3)" fill="none" stroke="#000" stroke-linecap="round" stroke-linejoin="round" stroke-width="1"/>
      <path id="Path_333" data-name="Path 333" d="M185.4,313.564a26.9,26.9,0,0,1,3.568-2.586,11.471,11.471,0,0,1,4.281.089c.8.178,2.23-.714,3.122-.357s.535.8,0,1.338a9,9,0,0,1-1.784,1.16l2.955-.022s-.012.111-.012.824a2.036,2.036,0,0,1-.8,1.427,8.866,8.866,0,0,1-2.319,2.23c-1.516.981-4.37,0-5.44-.446a14.845,14.845,0,0,0-2.5-.714l-1.07.356-1.159-3.3Z" transform="translate(3958.968 1301.59)" fill="#ffb797"/>
      <path id="Path_335" data-name="Path 335" d="M61.268,275.058s.089-3.121.179-3.657a18.105,18.105,0,0,0,.535-3.924c-.179-.714-2.23-3.121-2.408-3.924s-.267-2.676-.713-3.121-1.427-.089-1.606.714a6.42,6.42,0,0,0-.179,1.249l.268,2.5a.743.743,0,0,1-.981-.535c-.267-.8-.446-1.516-.446-1.516s-2.051.714-1.873,1.695a10.844,10.844,0,0,0,.446,1.694s-1.427,3.568-.714,4.37,2.943,3.032,3.211,3.389a28.361,28.361,0,0,1,1.16,3.032Z" transform="translate(4017.19 1324.042)" fill="#ffb797"/>
      <path id="Path_338" data-name="Path 338" d="M41.721,339a99.218,99.218,0,0,0-4.459,10.792c-1.16,3.924-.357,8.651.891,13.022s5.53,22.3,5.53,22.3S28.61,389.122,27.9,389.3s-1.784-1.249-2.854-.981a32.95,32.95,0,0,0-4.549,1.962c-.446.268-4.548-3.032-5.44-2.943a10.905,10.905,0,0,0-4.459,2.5c-1.338,1.249-7.224,2.676-8.384,4.459s-2.14,2.23-1.516,2.676,18.1-.891,19.621-.891,23.01,1.159,25.953.981,7.492-.8,7.849-1.427.446-15.519.981-20.067.535-10.257.535-10.257a91.919,91.919,0,0,0,14.805-2.319c6.065-1.694,8.74-2.408,8.74-2.408l-2.943,25.24a16.239,16.239,0,0,0-1.695,2.586v4.638s-1.249,3.746-.8,4.013a49.613,49.613,0,0,0,8.116,2.5c1.784.178,8.74,0,9.543-.357a1.6,1.6,0,0,0,.891-1.873c-.268-.446-2.854-1.071-3.478-1.695s-4.638-4.192-4.638-4.192a15.561,15.561,0,0,0,.089-3.032c-.179-.535-.624-3.033-.624-3.033l8.383-24.883s2.765-10.524,2.587-11.327-1.16-1.516-1.695-1.873-14.537-2.23-18.462-1.873a74.707,74.707,0,0,1-7.58.267l-2.051-4.816a41.631,41.631,0,0,1-13.021.089,28.044,28.044,0,0,1-9.543-3.478Z" transform="translate(4040.84 1289.622)" fill="red"/>
      <path id="Path_343" data-name="Path 343" d="M80.383,276.8s-9.918,5.1-10.275,5.638-2.943,7.313-2.943,7.313l-3.122-9.1s-2.765.535-3.478,1.516a19.361,19.361,0,0,0-1.159,1.784s2.23,13.913,2.23,14.181-.535,2.051.089,3.211,2.586,4.638,4.638,4.816,2.676-.624,2.676-.624-1.07,3.032-1.606,4.638-.178,2.319.714,2.586,7.938,3.478,13.914,3.746,9.186-.981,9.81-1.784a7.116,7.116,0,0,0,1.071-2.765c.178-.8,3.924-8.2,3.924-8.2s8.918,7.759,10.7,8.383,22.653-9.543,22.653-9.543.536-1.873-.178-2.765-1.427-1.694-1.963-1.605S110.6,301.97,110.6,301.97s-10.078-15.608-10.7-16.41-4.936-3.473-4.936-3.473Z" transform="translate(4014.593 1316.661)" fill="#0a58ca"/>
      <path id="Path_351" data-name="Path 351" d="M0,1.766" transform="translate(4076.675 1614.636)" fill="none" stroke="#263238" stroke-linecap="round" stroke-width="1"/>
      <rect id="Rectangle_47" data-name="Rectangle 47" width="326.818" height="249.526" transform="translate(4041.063 1440)" fill="none"/>
    </g>
  </g>
</svg>
