<svg xmlns="http://www.w3.org/2000/svg" xmlns:xlink="http://www.w3.org/1999/xlink" width="535.5" height="391.452" viewBox="0 0 535.5 391.452">
<style xmlns="http://www.w3.org/2000/svg">
      .hand{animation: hover 2s ease-in-out infinite; transform-origin: center; transform-box: fill-box;}
      @-webkit-keyframes hover {
        0%{transform: rotate(0);}
        50%{transform: rotate(27deg);}
        100%{transform: rotate(0);}
      }
  </style>
  <defs>
    <filter id="Path_350" x="0" y="13.452" width="483.888" height="378" filterUnits="userSpaceOnUse">
      <feOffset dy="26" input="SourceAlpha"/>
      <feGaussianBlur stdDeviation="13" result="blur"/>
      <feFlood flood-color="#ddd" flood-opacity="0.502"/>
      <feComposite operator="in" in2="blur"/>
      <feComposite in="SourceGraphic"/>
    </filter>
    <clipPath id="clip-path">
      <rect id="Rectangle_349" data-name="Rectangle 349" width="13.177" height="9.295" fill="red"/>
    </clipPath>
    <clipPath id="clip-path-3">
      <rect id="Rectangle_359" data-name="Rectangle 359" width="47.411" height="48.215" fill="none"/>
    </clipPath>
    <clipPath id="clip-path-4">
      <rect id="Rectangle_360" data-name="Rectangle 360" width="13.928" height="13.413" fill="#0a58ca"/>
    </clipPath>
  </defs>
  <g id="Group_1131" data-name="Group 1131" transform="translate(-690.5 -2108)">
    <circle id="Ellipse_2" data-name="Ellipse 2" cx="57" cy="57" r="57" transform="translate(714 2345)" fill="#fff6f6"/>
    <circle id="Ellipse_25" data-name="Ellipse 25" cx="132.5" cy="132.5" r="132.5" transform="translate(961 2108)" fill="#eff6ff"/>
    <g id="Group_477" data-name="Group 477" transform="translate(-3798.5 719.5)">
      <g transform="matrix(1, 0, 0, 1, 4489, 1388.5)" filter="url(#Path_350)">
        <path id="Path_350-2" data-name="Path 350" d="M404.888,56.057V242.214c0,29.851-23.906,49.986-52.786,54.049-33.706,4.743-68.431,2.768-139.383-2.195-39.841-2.789-119.947,1.83-159.933,2.195C23.634,296.529,0,272.064,0,242.214V56.057C0,26.206,23.684.251,52.786,2.008,79.811,3.639,119.563,10.093,161,6.14c21.681-2.068,51.927-4,83.117-5.125C283.827-.418,325.065-.546,352.1,2.008a65.232,65.232,0,0,1,6.983,1.04c25.761,5.257,45.8,25.591,45.8,53.009" transform="translate(39.5 27)" fill="#fff" stroke="#ddd" stroke-width="1"/>
      </g>
      <path id="Path_827" data-name="Path 827" d="M1491.425,1302.364c0,2.966,22.988,5.37,51.347,5.37s51.347-2.4,51.347-5.37-22.989-5.37-51.347-5.37-51.347,2.4-51.347,5.37" transform="translate(3248.935 393.885)" fill="rgba(221,221,221,0.4)"/>
      <g id="Group_97" data-name="Group 97">
        <path id="Path_701" data-name="Path 701" d="M0,0,10.8,154.424H217.583L206.785,0Z" transform="translate(4600 1446.875)" fill="#f2f2f2"/>
        <path id="Path_703" data-name="Path 703" d="M232.631,24.129a.535.535,0,0,0,.287-.083l3.316-2.1a.537.537,0,0,0,.007-.9l-3.481-2.277a.538.538,0,0,0-.589.9l2.783,1.82-2.611,1.653a.538.538,0,0,0,.288.992" transform="translate(4540.23 1442.062)" fill="#0a58ca"/>
        <path id="Path_704" data-name="Path 704" d="M230.263,22.82h5.116a.537.537,0,0,0,0-1.075h-5.116a.537.537,0,0,0,0,1.075" transform="translate(4540.797 1441.271)" fill="#0a58ca"/>
        <path id="Path_705" data-name="Path 705" d="M218.141,24.129a.537.537,0,0,0,.295-.987l-2.783-1.82,2.611-1.653a.537.537,0,0,0-.575-.909l-3.317,2.1a.538.538,0,0,0-.007.9l3.481,2.277a.537.537,0,0,0,.294.088" transform="translate(4544.818 1442.062)" fill="#0a58ca"/>
        <path id="Path_706" data-name="Path 706" d="M214.659,22.581h5.116a.537.537,0,1,0,0-1.075h-5.116a.537.537,0,0,0,0,1.075" transform="translate(4544.818 1441.332)" fill="#0a58ca"/>
        <path id="Path_707" data-name="Path 707" d="M201.107,25.145a3.16,3.16,0,0,0,3.188-3.426,3.655,3.655,0,0,0-3.587-3.352,3.161,3.161,0,0,0-3.188,3.427.537.537,0,1,0,1.072-.075,2.088,2.088,0,0,1,2.116-2.277,2.564,2.564,0,0,1,2.515,2.352,2.087,2.087,0,0,1-2.116,2.277.537.537,0,0,0,0,1.075" transform="translate(4549.099 1442.142)" fill="red"/>
        <path id="Path_708" data-name="Path 708" d="M197.771,22.887a.533.533,0,0,0,.151-.022l1.73-.507a.538.538,0,0,0-.3-1.032l-1.336.391-.626-1.018a.537.537,0,0,0-.916.563l.841,1.369a.539.539,0,0,0,.458.256" transform="translate(4549.388 1441.606)" fill="red"/>
        <path id="Path_709" data-name="Path 709" d="M79.175,23.014a2.828,2.828,0,0,1-.9-1.955,2.5,2.5,0,0,1,2.43-2.612,2.86,2.86,0,0,1,2.916,2.725,2.5,2.5,0,0,1-2.43,2.612h-.092a2.83,2.83,0,0,1-1.92-.771m1.563-3.493a1.426,1.426,0,0,0-1.394,1.5,1.752,1.752,0,0,0,.564,1.207h0a1.735,1.735,0,0,0,1.239.479,1.423,1.423,0,0,0,1.394-1.5,1.788,1.788,0,0,0-1.749-1.689h-.056" transform="translate(4579.829 1442.121)" fill="#0a58ca"/>
        <path id="Path_710" data-name="Path 710" d="M77.284,26.429a.538.538,0,0,0,.393-.171l1.866-2.006a.538.538,0,1,0-.787-.733l-1.866,2a.538.538,0,0,0,.393.9" transform="translate(4580.222 1440.858)" fill="#0a58ca"/>
        <path id="Path_711" data-name="Path 711" d="M.607,8.686H207.392L206.784,0H0Z" transform="translate(4600 1446.875)" fill="red"/>
        <rect id="Rectangle_347" data-name="Rectangle 347" width="207.392" height="8.686" transform="translate(4600 1446.875)" fill="none" stroke="red" stroke-width="1"/>
        <path id="Path_713" data-name="Path 713" d="M27.8,4.949a2.83,2.83,0,0,0,2.78,2.6,2.391,2.391,0,0,0,2.416-2.6,2.83,2.83,0,0,0-2.78-2.6,2.391,2.391,0,0,0-2.416,2.6" transform="translate(4592.838 1446.269)" fill="#fff"/>
        <path id="Path_714" data-name="Path 714" d="M17.066,4.949a2.83,2.83,0,0,0,2.78,2.6,2.391,2.391,0,0,0,2.416-2.6,2.83,2.83,0,0,0-2.78-2.6,2.391,2.391,0,0,0-2.416,2.6" transform="translate(4595.604 1446.269)" fill="#fff"/>
        <path id="Path_715" data-name="Path 715" d="M6.335,4.949a2.83,2.83,0,0,0,2.78,2.6,2.391,2.391,0,0,0,2.416-2.6,2.83,2.83,0,0,0-2.78-2.6,2.391,2.391,0,0,0-2.416,2.6" transform="translate(4598.369 1446.269)" fill="#fff"/>
        <line id="Line_53" data-name="Line 53" x2="6.574" y2="0.102" transform="translate(4791.537 1460.496)" fill="none" stroke="red" stroke-linecap="round" stroke-linejoin="round" stroke-width="1.5"/>
        <line id="Line_54" data-name="Line 54" x2="6.574" y2="0.102" transform="translate(4791.795 1463.451)" fill="none" stroke="red" stroke-linecap="round" stroke-linejoin="round" stroke-width="1.5"/>
        <line id="Line_55" data-name="Line 55" x2="6.574" y2="0.102" transform="translate(4792.054 1466.406)" fill="none" stroke="red" stroke-linecap="round" stroke-linejoin="round" stroke-width="1.5"/>
        <path id="Path_716" data-name="Path 716" d="M96.757,24.5h63.02a3.013,3.013,0,0,0,3.045-3.273,3.566,3.566,0,0,0-3.5-3.273H96.3a3.013,3.013,0,0,0-3.045,3.273,3.567,3.567,0,0,0,3.5,3.273" transform="translate(4575.969 1442.248)" fill="#fff" stroke="#0a58ca" stroke-width="1"/>
        <g id="Group_63" data-name="Group 63" transform="translate(4702.203 1472.178)">
          <g id="Group_62" data-name="Group 62" clip-path="url(#clip-path)">
            <path id="Path_717" data-name="Path 717" d="M144.182,38.317h3.032l-.3-4.23h-3.032Z" transform="translate(-139.284 -34.088)" fill="red"/>
            <path id="Path_718" data-name="Path 718" d="M142.295,39.746l3.2,2.991,2.781-2.991Z" transform="translate(-138.874 -35.546)" fill="red"/>
            <path id="Path_719" data-name="Path 719" d="M138.045,44.828h12.819l-.357-5.1h-1.612l.244,3.487h-9.594L139.3,39.7h-1.612Z" transform="translate(-137.686 -35.533)" fill="red"/>
            <g id="Group_61" data-name="Group 61" opacity="0.5">
              <g id="Group_60" data-name="Group 60">
                <g id="Group_59" data-name="Group 59" clip-path="url(#clip-path)">
                  <path id="Path_720" data-name="Path 720" d="M144.182,38.317h3.032l-.3-4.23h-3.032Z" transform="translate(-139.284 -34.088)" fill="red"/>
                  <path id="Path_721" data-name="Path 721" d="M142.295,39.746l3.2,2.991,2.781-2.991Z" transform="translate(-138.874 -35.546)" fill="red"/>
                  <path id="Path_722" data-name="Path 722" d="M138.045,44.828h12.819l-.357-5.1h-1.612l.244,3.487h-9.594L139.3,39.7h-1.612Z" transform="translate(-137.686 -35.533)" fill="red"/>
                </g>
              </g>
            </g>
          </g>
        </g>
        <path id="Path_726" data-name="Path 726" d="M104.791,76.275h62a6.34,6.34,0,0,0,6.407-6.888l-.46-6.574a7.5,7.5,0,0,0-7.369-6.888h-62a6.339,6.339,0,0,0-6.407,6.888l.459,6.574a7.5,7.5,0,0,0,7.37,6.888" transform="translate(4575.017 1432.463)" fill="#0a58ca"/>
        <path id="Path_727" data-name="Path 727" d="M125.464,68.682a2.052,2.052,0,0,1,2.188-2.34,2.557,2.557,0,0,1,1.877.76l-.491.514a1.778,1.778,0,0,0-1.27-.533,1.375,1.375,0,0,0-1.453,1.6,1.761,1.761,0,0,0,1.79,1.6,1.413,1.413,0,0,0,1.157-.54l.6.52a2.069,2.069,0,0,1-1.724.76,2.627,2.627,0,0,1-2.673-2.34" transform="translate(4567.67 1429.778)" fill="#fff"/>
        <path id="Path_728" data-name="Path 728" d="M131.8,66.062h.811l.507,4.823h-.811Z" transform="translate(4566.034 1429.85)" fill="#fff"/>
        <path id="Path_729" data-name="Path 729" d="M134.221,66.287a.438.438,0,0,1,.468-.488.549.549,0,0,1,.569.468.442.442,0,0,1-.466.507.561.561,0,0,1-.57-.488m.221,1.059h.811l.364,3.471h-.811Z" transform="translate(4565.411 1429.918)" fill="#fff"/>
        <path id="Path_730" data-name="Path 730" d="M136.905,69.6a1.556,1.556,0,0,1,1.689-1.775,1.754,1.754,0,0,1,1.564.806l-.584.364a1.105,1.105,0,0,0-.914-.481.9.9,0,0,0-.937,1.085,1.15,1.15,0,0,0,1.165,1.085.868.868,0,0,0,.813-.481l.661.364a1.4,1.4,0,0,1-1.395.813,2,2,0,0,1-2.063-1.781" transform="translate(4564.721 1429.394)" fill="#fff"/>
        <path id="Path_731" data-name="Path 731" d="M143.661,69.4l-.543.572.1.916H142.4l-.507-4.823h.812l.306,2.912,1.516-1.56h.974l-1.295,1.456,1.8,2.015h-.986Z" transform="translate(4563.432 1429.85)" fill="#fff"/>
        <path id="Path_732" data-name="Path 732" d="M154.055,66.43l.478,4.55h-.844l-.2-1.95h-2.349l.2,1.95H150.5l-.478-4.55h.844l.2,1.878h2.349l-.2-1.878Z" transform="translate(4561.339 1429.755)" fill="#fff"/>
        <path id="Path_733" data-name="Path 733" d="M160.567,69.865h-2.719a1.191,1.191,0,0,0,1.21.832,1.12,1.12,0,0,0,.9-.377l.488.5a1.583,1.583,0,0,1-1.336.565,2,2,0,0,1-2.1-1.781,1.529,1.529,0,0,1,1.606-1.775,1.919,1.919,0,0,1,1.94,1.794c.007.065.01.163.012.241m-2.782-.54h1.966a1.074,1.074,0,0,0-1.069-.845.844.844,0,0,0-.9.845" transform="translate(4559.54 1429.394)" fill="#fff"/>
        <path id="Path_734" data-name="Path 734" d="M164.6,67.831l.081.773a1.024,1.024,0,0,0-.19-.019c-.616,0-.967.364-.893,1.072l.177,1.684h-.811l-.364-3.472h.772l.053.508a1.221,1.221,0,0,1,1.176-.546" transform="translate(4558.098 1429.394)" fill="#fff"/>
        <path id="Path_735" data-name="Path 735" d="M169.6,69.865h-2.719a1.191,1.191,0,0,0,1.211.832,1.12,1.12,0,0,0,.9-.377l.487.5a1.58,1.58,0,0,1-1.335.565,2,2,0,0,1-2.1-1.781,1.529,1.529,0,0,1,1.606-1.775,1.919,1.919,0,0,1,1.94,1.794c.007.065.01.163.012.241m-2.782-.54h1.966a1.074,1.074,0,0,0-1.069-.845.844.844,0,0,0-.9.845" transform="translate(4557.213 1429.394)" fill="#fff"/>
        <g class="hand">
        <path id="Path_736" data-name="Path 736" d="M198.036,87.015,191.4,83.735s-1.745-2.013.088-2.869a2.527,2.527,0,0,1,2.261.12l2.458,1.335L185.241,71.357a1.6,1.6,0,0,1,2.262-2.263l7.665,7.666-3.488-3.489,1.155-1.155a1.433,1.433,0,0,1,2.026,0l2.946,2.947L194.7,71.951l1.344-1.344a1.434,1.434,0,0,1,2.027,0l2.569,2.569-2.452-2.451.778-.778a1.434,1.434,0,0,1,2.027,0l6.186,6.187a4.975,4.975,0,0,1,.754.966l1.032,1.719a4.424,4.424,0,0,1,.63,2.277l-6.269,6.269-2.78.16a5.01,5.01,0,0,1-2.507-.51" transform="translate(4552.382 1429.189)" fill="#ffb797"/>
        </g>
        <line id="Line_56" data-name="Line 56" x2="2.265" y2="2.265" transform="translate(4732.99 1493.645)" fill="none" stroke="#ffb797" stroke-linecap="round" stroke-linejoin="round" stroke-width="2"/>
        <line id="Line_57" data-name="Line 57" x2="3.198" transform="translate(4730.526 1499.584)" fill="none" stroke="#ffb797" stroke-linecap="round" stroke-linejoin="round" stroke-width="2"/>
        <line id="Line_58" data-name="Line 58" y1="2.269" x2="2.269" transform="translate(4742.599 1493.645)" fill="none" stroke="#ffb797" stroke-linecap="round" stroke-linejoin="round" stroke-width="2"/>
        <line id="Line_59" data-name="Line 59" y1="2.257" x2="2.257" transform="translate(4732.99 1503.266)" fill="none" stroke="#ffb797" stroke-linecap="round" stroke-linejoin="round" stroke-width="2"/>
        <line id="Line_60" data-name="Line 60" y1="3.206" transform="translate(4738.925 1491.185)" fill="none" stroke="#ffb797" stroke-linecap="round" stroke-linejoin="round" stroke-width="2"/>
        <path id="Path_737" data-name="Path 737" d="M113.139,154.067h64.947L173.042,96.42H108.1Z" transform="translate(4572.143 1422.026)" fill="red"/>
        <path id="Path_739" data-name="Path 739" d="M114.771,134.577h59.915l-3.014-34.447H111.757Z" transform="translate(4571.199 1421.07)" fill="#fee2e2"/>
        <path id="Path_740" data-name="Path 740" d="M171.107,153.512h15.649l-.327-3.738H170.78Z" transform="translate(4555.988 1408.276)" fill="#fee2e2"/>
        <path id="Path_741" data-name="Path 741" d="M146.3,153.512h15.649l-.327-3.738h-15.65Z" transform="translate(4562.382 1408.276)" fill="#fee2e2"/>
        <path id="Path_742" data-name="Path 742" d="M121.486,153.512h15.649l-.327-3.738H121.158Z" transform="translate(4568.776 1408.276)" fill="#fee2e2"/>
        <path id="Path_746" data-name="Path 746" d="M183.214,161.306h2.412l-.188-2.139h-2.411Z" transform="translate(4552.832 1405.856)" fill="#fff"/>
        <path id="Path_747" data-name="Path 747" d="M169.258,161.306h8.955l-.187-2.139h-8.955Z" transform="translate(4556.429 1405.856)" fill="#fff"/>
        <path id="Path_748" data-name="Path 748" d="M155.059,161.306h8.956l-.187-2.139h-8.956Z" transform="translate(4560.088 1405.856)" fill="#fee2e2"/>
        <path id="Path_749" data-name="Path 749" d="M128.6,161.306h4.477l-.187-2.139h-4.477Z" transform="translate(4566.908 1405.856)" fill="#fff"/>
        <path id="Path_750" data-name="Path 750" d="M136.393,161.306h12.219l-.187-2.139H136.206Z" transform="translate(4564.898 1405.856)" fill="#fff"/>
        <path id="Path_751" data-name="Path 751" d="M140.85,166.222h-8.956l-.187-2.139h8.956Z" transform="translate(4566.058 1404.589)" fill="#fff"/>
        <path id="Path_752" data-name="Path 752" d="M155.049,166.222h-8.956l-.187-2.139h8.956Z" transform="translate(4562.398 1404.589)" fill="#fee2e2"/>
        <path id="Path_753" data-name="Path 753" d="M183.067,166.222H178.59l-.188-2.139h4.478Z" transform="translate(4554.024 1404.589)" fill="#fff"/>
        <path id="Path_754" data-name="Path 754" d="M172.582,166.222H160.363l-.187-2.139h12.219Z" transform="translate(4558.721 1404.589)" fill="#fff"/>
        <path id="Path_764" data-name="Path 764" d="M186.155,140.065l-21.319-18.912-8.6,18.912Z" transform="translate(4559.736 1415.652)" fill="#fff"/>
        <path id="Path_765" data-name="Path 765" d="M154.715,138.1,127,113.514,115.825,138.1Z" transform="translate(4570.15 1417.621)" fill="#fff"/>
        <path id="Path_766" data-name="Path 766" d="M147.09,112.275a5.049,5.049,0,0,0,4.933,4.535,4.09,4.09,0,0,0,4.139-4.535,5.049,5.049,0,0,0-4.933-4.535,4.09,4.09,0,0,0-4.139,4.535" transform="translate(4562.098 1419.109)" fill="#fff"/>
        <path id="Path_767" data-name="Path 767" d="M254.557,116.928c-1.629,5.129.157,17.671-4.951,20.93a14.178,14.178,0,0,0-6.738,12.833c3.328-4.6,8.858-7.217,14.455-8.159s11.327-.386,16.964.278c2.657.313,15.066,4.254,14.391,6.843,3.992-5.945-.555-32.693-2.358-39.624-.542-2.083.51-5.027-1.548-5.656-4.758-1.453-15.056-4.374-25.483,2.333-4.186,2.693-3.688,6.937-4.731,10.221" transform="translate(4537.412 1420.465)" fill="#407bff"/>
        <g id="Group_93" data-name="Group 93" transform="translate(4780.272 1522.942)">
          <g id="Group_92" data-name="Group 92" clip-path="url(#clip-path-3)">
            <path id="Path_768" data-name="Path 768" d="M254.557,116.928c-1.629,5.129.157,17.671-4.951,20.93a14.178,14.178,0,0,0-6.738,12.833c3.328-4.6,8.858-7.217,14.455-8.159s11.327-.386,16.964.278c2.657.313,15.066,4.254,14.391,6.843,3.992-5.945-.555-32.693-2.358-39.624-.542-2.083.51-5.027-1.548-5.656-4.758-1.453-15.056-4.374-25.483,2.333-4.186,2.693-3.688,6.937-4.731,10.221" transform="translate(-242.86 -102.476)" fill="#0c4caa"/>
          </g>
        </g>
        <path id="Path_769" data-name="Path 769" d="M222.681,108.281l-2.749-6.98-3.367,5.235s1.774,3.55,3.935,3.68Z" transform="translate(4544.189 1420.768)" fill="#ffb797"/>
        <path id="Path_770" data-name="Path 770" d="M214.226,98.977l-1.05,1.187a1.969,1.969,0,0,0-.062,2.534l2.45,3.061,3.367-5.228-1.917-1.717a1.969,1.969,0,0,0-2.789.163" transform="translate(4545.189 1421.539)" fill="#ffb797"/>
        <path id="Path_771" data-name="Path 771" d="M217.018,106.4h0l-.868-.517a5.577,5.577,0,0,1-1.193-.952l-.128-.608a.852.852,0,0,1,.977-.324l.733.249,3.676.512-.005,1.562-1.183,1.606-.376-.009a1.682,1.682,0,0,1-1.633-1.519" transform="translate(4544.636 1420.085)" fill="#ffb797"/>
        <path id="Path_772" data-name="Path 772" d="M247.39,112.555s-7.009,5.3-12.37,10.218c0,0-9.977-10.325-11.4-12.914l-2.8,2.438a56.009,56.009,0,0,0,4.389,10.615,19.486,19.486,0,0,0,3.239,4.12,9.821,9.821,0,0,0,2.583,1.776,6.467,6.467,0,0,0,3.861.534,6.149,6.149,0,0,0,1-.263l.631-.231,1.139-.435c.768-.284,1.509-.632,2.257-.951a45.1,45.1,0,0,0,4.371-2.286,43.052,43.052,0,0,0,4.119-2.8c.687-.526,1.3-1.064,1.937-1.651.316-.287.632-.594.942-.908l.46-.492c.165-.184.289-.321.523-.6Z" transform="translate(4543.094 1418.563)" fill="#407bff"/>
        <path id="Path_773" data-name="Path 773" d="M258.754,108.081c-2.532-.625-20.434,15.294-20.434,15.294l2.709,5.01s16.246-6.774,21.232-14.079c-.413-3.5.189-5.308-3.507-6.225" transform="translate(4538.583 1419.026)" fill="#407bff"/>
        <g id="Group_96" data-name="Group 96" transform="translate(4783.007 1532.611)">
          <g id="Group_95" data-name="Group 95" clip-path="url(#clip-path-4)">
            <path id="Path_774" data-name="Path 774" d="M260.472,115.5l-2.138,6.461c-8.81,6.108-11.789,6.952-11.789,6.952Z" transform="translate(-246.544 -115.503)" fill="#0a58ca"/>
          </g>
        </g>
        <path id="Path_775" data-name="Path 775" d="M265.865,323.681l-6.1.219-1.041-14.181,6.1-.219Z" transform="translate(4533.325 1367.114)" fill="#ffb797"/>
        <path id="Path_776" data-name="Path 776" d="M255.513,329.46a.144.144,0,0,0,.122-.112.158.158,0,0,0-.074-.153c-.269-.15-2.672-1.479-3.435-1.087a.465.465,0,0,0-.257.379.81.81,0,0,0,.234.713,2.326,2.326,0,0,0,1.476.424,10.556,10.556,0,0,0,1.934-.163m-2.98-1.138a7.919,7.919,0,0,1,2.522.928c-1.364.179-2.371.09-2.729-.253a.548.548,0,0,1-.152-.472.184.184,0,0,1,.106-.154.525.525,0,0,1,.272-.043Z" transform="translate(4535.093 1362.337)" fill="#0a58ca"/>
        <path id="Path_777" data-name="Path 777" d="M256.151,328.948a.159.159,0,0,0,.043-.137,4.12,4.12,0,0,0-.839-2.385,1.034,1.034,0,0,0-.8-.255.535.535,0,0,0-.555.392c-.139.689,1.26,2.058,1.982,2.409l.052.016a.144.144,0,0,0,.121-.041m-1.489-2.49a.746.746,0,0,1,.516.163,3.289,3.289,0,0,1,.716,1.915c-.733-.455-1.681-1.524-1.591-1.941,0-.034.022-.137.288-.16l.085.027Z" transform="translate(4534.545 1362.819)" fill="#0a58ca"/>
        <path id="Path_778" data-name="Path 778" d="M256.34,325.628l5.48.572a.481.481,0,0,1,.445.465l.833,7.712a.993.993,0,0,1-1,.986.823.823,0,0,1-.114-.007c-2.377-.272-3.514-.521-6.53-.814-1.848-.178-7.587.136-10.05-.6s-1.865-3.21-.774-3.127a13.028,13.028,0,0,0,9.909-4.3c.316-.21,1.424-.94,1.8-.894" transform="translate(4537.2 1362.957)"/>
        <path id="Path_780" data-name="Path 780" d="M259.465,114.211c-3.836,5.672.091,10.912,2.525,28.741l22.845,1.493c.224-9.514.743-17.183,5.963-35.6a3.159,3.159,0,0,0-2.829-4.023c-1.89-.117-4.267-.2-6.692-.105a83.044,83.044,0,0,0-11.421,1,48.622,48.622,0,0,0-6.067,1.486c-1.2.327-2.813,3.435-4.324,7" transform="translate(4533.547 1419.898)" fill="#fff"/>
        <path id="Path_781" data-name="Path 781" d="M257.536,157.771s-15.869,30.485-13.058,73.409c-.465,10.23,10.1,42.36,10.1,42.36l8.254.028s.48-46.608,1.788-58.7c2.122-19.813,10.307-56.323,10.307-56.323Z" transform="translate(4537.082 1406.215)" fill="#e11212"/>
        <path id="Path_782" data-name="Path 782" d="M267.014,315.413l-11.628-.039-.84-3.549,13.023-.386Z" transform="translate(4534.401 1366.614)" fill="#fee2e2"/>
        <path id="Path_785" data-name="Path 785" d="M286.118,221.156c-6.862-20.584,9.538-47.347.916-61.905l-14.264-.235s-18.28,63.721,2.467,72.392Z" transform="translate(4531.622 1405.895)" fill="red"/>
        <path id="Path_786" data-name="Path 786" d="M337.008,141.748c.883,1.5,5.864.834,5.864.834l1.427-6.035-6.2,2.044Z" transform="translate(4513.149 1411.685)" fill="#ffb797"/>
        <path id="Path_787" data-name="Path 787" d="M346.333,136.481l-1.424,6.085,3.684.966a.809.809,0,0,0,.9-.576l1.672-4.452a.417.417,0,0,0-.27-.512Z" transform="translate(4511.113 1411.702)" fill="#ffb797"/>
        <path id="Path_788" data-name="Path 788" d="M327.232,130.44l-1.09,3.16a81.448,81.448,0,0,1-14.115-.244.164.164,0,0,1-.052-.011c-2.143-.216-7.578-1.2-9.878-5.326-3.276-5.888-7.2-13.334-7.26-15.785-.129-5.184,2.146-8.5,4.426-6.9,4.668,3.26,8.665,14.956,10.934,19.7l5.434,1.724Z" transform="translate(4524.019 1419.833)" fill="#0a58ca"/>
        <path id="Path_789" data-name="Path 789" d="M331.683,294.374l-4.667,3.959-10.783-9.417,4.242-5.047Z" transform="translate(4518.503 1373.719)" fill="#ffb797"/>
        <path id="Path_790" data-name="Path 790" d="M327.833,298.747l3.079-4.569a.479.479,0,0,1,.619-.174l7.2,2.886a.993.993,0,0,1,.4,1.346.872.872,0,0,1-.06.1c-1.357,1.97-2.111,2.857-3.785,5.382-1.025,1.547-3.443,6.761-5.246,8.592s-3.711.139-3.124-.785a13.026,13.026,0,0,0,.859-10.766,5.3,5.3,0,0,1,.057-2.009" transform="translate(4515.778 1371.12)"/>
        <path id="Path_792" data-name="Path 792" d="M269.784,246.124c1,11.945,34.325,34.951,34.325,34.951l6.282-6.442s-23.548-27.409-23.125-31.9Z" transform="translate(4530.474 1384.321)" fill="red"/>
        <path id="Path_793" data-name="Path 793" d="M322.084,282.88l-8.089,8.463-3.425-1.75,9.631-10.064Z" transform="translate(4519.963 1374.837)" fill="#fee2e2"/>
        <path id="Path_795" data-name="Path 795" d="M327.49,302.746a.15.15,0,0,0-.016-.156.137.137,0,0,0-.152-.048c-.215.064-2.369.684-2.589,1.432a.492.492,0,0,0,.112.485.826.826,0,0,0,.737.328l.065-.036c.709-.134,1.445-1.308,1.842-2m-.453.172c-.533.961-1.1,1.517-1.489,1.567a.555.555,0,0,1-.485-.225.219.219,0,0,1-.064-.215c.111-.406,1.208-.871,2.055-1.136Z" transform="translate(4516.319 1368.908)" fill="#0a58ca"/>
        <path id="Path_796" data-name="Path 796" d="M327.323,302.473a.167.167,0,0,0,.1-.108.138.138,0,0,0-.07-.126c-.057-.046-1.387-1.2-2.271-1.092a.757.757,0,0,0-.563.312.514.514,0,0,0-.016.635c.4.492,1.836.574,2.58.42a2.057,2.057,0,0,0,.243-.041m-2.254-1.062a.1.1,0,0,0,.046,0,3.267,3.267,0,0,1,1.828.844,3.146,3.146,0,0,1-2.2-.347c-.039-.056-.076-.138.027-.289a.453.453,0,0,1,.3-.206" transform="translate(4516.399 1369.268)" fill="#0a58ca"/>
        <path id="Path_797" data-name="Path 797" d="M286.08,156.106l.492,2.262c.075.178-.138.342-.425.321l-23.579-1.508c-.226,0-.4-.138-.411-.275l-.081-2.239c0-.151.2-.273.445-.252l23.168,1.479a.445.445,0,0,1,.39.214" transform="translate(4532.46 1407.081)" fill="#0a58ca"/>
        <path id="Path_798" data-name="Path 798" d="M287.983,158.934l.684.044c.131,0,.241-.054.234-.137l-.127-2.911c0-.082-.117-.158-.253-.166l-.685-.05c-.13,0-.24.053-.233.143l.127,2.9c.007.082.123.165.253.172" transform="translate(4525.882 1406.745)" fill="#407bff"/>
        <path id="Path_799" data-name="Path 799" d="M265.049,157.5l.685.044c.13,0,.24-.054.233-.137l-.127-2.9c0-.089-.117-.165-.246-.172l-.684-.043c-.131,0-.241.053-.234.136l.128,2.9c0,.089.109.165.246.172" transform="translate(4531.79 1407.114)" fill="#407bff"/>
        <path id="Path_800" data-name="Path 800" d="M275.554,158.134l.684.044c.131,0,.241-.054.234-.137l-.127-2.9c0-.089-.117-.165-.246-.172l-.684-.043c-.131,0-.241.053-.234.136l.128,2.9c0,.089.108.165.246.172" transform="translate(4529.083 1406.95)" fill="#407bff"/>
        <path id="Path_801" data-name="Path 801" d="M284.762,87.885c-.958,3.675-2.09,10.356.307,12.542,0,0-1.246,3.756-8.069,4.35-7.536.66-3.352-3.347-3.352-3.347,4.162-1.356,4.247-4.3,3.716-7.049Z" transform="translate(4529.776 1424.226)" fill="#ffb797"/>
        <path id="Path_802" data-name="Path 802" d="M284.11,104.735a72.378,72.378,0,0,0-10.806.819l-3.869.891a4.673,4.673,0,0,0,3.126,6.929s8.675,1.756,13.228-5.869a1.852,1.852,0,0,0-1.678-2.77" transform="translate(4530.715 1419.884)" fill="#ffb797"/>
        <path id="Path_804" data-name="Path 804" d="M280.833,65.225a5.7,5.7,0,0,1-2.742,2.917,15.1,15.1,0,0,0-3.658,2.075c-1.169,1.277-1.869-4.328,1.136-5.811s6.768-2.395,5.264.819" transform="translate(4529.534 1430.625)"/>
        <path id="Path_805" data-name="Path 805" d="M276.492,94.036a2.938,2.938,0,0,1-4.508-1.427,3.287,3.287,0,0,1-3.049-1.105,3.8,3.8,0,0,1-.71-3.433,7.045,7.045,0,0,1,2.547-3.213,20.054,20.054,0,0,0,5.463,8.731Z" transform="translate(4530.913 1425.006)"/>
        <path id="Path_806" data-name="Path 806" d="M289.055,77.983c-2.191,5.67-2.993,8.12-6.883,10.162-5.812,3.069-12.326-.857-11.846-7.061.4-5.588,3.91-13.918,10.322-14.431a8.287,8.287,0,0,1,8.407,11.33" transform="translate(4530.341 1429.705)" fill="#ffb797"/>
        <path id="Path_807" data-name="Path 807" d="M276.184,79.549a13.1,13.1,0,0,1-2.508,2.6,2.142,2.142,0,0,0,1.619.77Z" transform="translate(4529.471 1426.374)"/>
        <path id="Path_808" data-name="Path 808" d="M294.411,87.383a4.472,4.472,0,0,1-2.957,1.668c-1.549.173-2.051-1.267-1.437-2.6.573-1.2,2.064-2.733,3.521-2.29a1.993,1.993,0,0,1,.873,3.222" transform="translate(4525.325 1425.206)" fill="#dd8c6a"/>
        <path id="Path_809" data-name="Path 809" d="M285.114,77.307a.282.282,0,0,1-.28-.186,3.336,3.336,0,0,0-2.162-1.705.289.289,0,1,1,.142-.56,3.952,3.952,0,0,1,2.563,2.075.287.287,0,0,1-.163.373h0Z" transform="translate(4527.208 1427.586)"/>
        <path id="Path_810" data-name="Path 810" d="M274.18,73.7a.281.281,0,0,1-.246-.145.288.288,0,0,1,.1-.394l0,0a2.891,2.891,0,0,1,2.644-.169.291.291,0,1,1-.262.52,2.272,2.272,0,0,0-2.09.157.4.4,0,0,1-.151.033" transform="translate(4529.415 1428.128)"/>
        <path id="Path_811" data-name="Path 811" d="M274.161,77.166c-.324-.082-.689.266-.81.766s.049.978.373,1.053.689-.266.81-.766-.049-.97-.373-1.053" transform="translate(4529.564 1426.991)"/>
        <path id="Path_812" data-name="Path 812" d="M273.135,76.412l1.12.64c-.728.448-1.12-.64-1.12-.64" transform="translate(4529.61 1427.183)"/>
        <path id="Path_813" data-name="Path 813" d="M281.772,79.227c-.324-.082-.689.266-.81.766s.049.978.373,1.053.69-.266.81-.766-.049-.97-.373-1.053" transform="translate(4527.603 1426.46)"/>
        <path id="Path_814" data-name="Path 814" d="M280.746,78.473l1.12.64c-.728.448-1.12-.64-1.12-.64" transform="translate(4527.649 1426.651)"/>
        <path id="Path_815" data-name="Path 815" d="M274.836,87.044a18.316,18.316,0,0,1,.076,2.649c.151.034.3.068.457.094,2.077.41,3.175-.087,3.763-.761a2.733,2.733,0,0,0,.57-1.159,2.6,2.6,0,0,0,.083-.735,9.978,9.978,0,0,1-4.24.041c-.438-.066-.71-.128-.71-.128" transform="translate(4529.172 1424.443)"/>
        <path id="Path_816" data-name="Path 816" d="M275.792,87.2l.043.781c1.957.38,3.385.385,4.115-.087a2.655,2.655,0,0,0,.082-.735,9.966,9.966,0,0,1-4.24.041" transform="translate(4528.925 1424.412)" fill="#fff"/>
        <path id="Path_817" data-name="Path 817" d="M275.556,90.439c2.076.409,3.175-.087,3.763-.762a6.812,6.812,0,0,0-2.4,0,2.548,2.548,0,0,0-1.367.759" transform="translate(4528.986 1423.791)" fill="red"/>
        <path id="Path_818" data-name="Path 818" d="M282.976,63.125a4.6,4.6,0,0,1,5.053-.381,13.335,13.335,0,0,1,4,3.557c2.018,2.362,4.064,4.818,5.027,7.771s.6,6.554-1.693,8.649c-.673.615-1.479,1.075-2.125,1.718a2.732,2.732,0,0,0-.923,2.447,1.439,1.439,0,0,0,2.1.948,3.316,3.316,0,0,1-4.288.587,3.529,3.529,0,0,1-3.761.736c-1.249-.524-4.017-2.293-3.425-4.977,1.47-.243,5.52-3.553,5.788-5.509a17.718,17.718,0,0,0-.9-7.643c-.226.716-1.2.632-1.848.256a3.874,3.874,0,0,1-1.347-1.764,5.917,5.917,0,0,0-1.367-1.744c-1.837-1.67-3.019.335-3.55.139a9.8,9.8,0,0,1,3.267-4.791" transform="translate(4527.916 1430.851)"/>
        <path id="Path_821" data-name="Path 821" d="M294.131,114.514s5.8,11.74,7.125,24.574c1.212,11.7.633,13.188.633,13.188s2.349-2.243,1.8-14.407a114.015,114.015,0,0,0-4.155-25.216,50.471,50.471,0,0,0-5.4,1.862" transform="translate(4524.199 1417.843)" fill="#0a58ca"/>
        <path id="Path_822" data-name="Path 822" d="M292.705,112.309l-3.629-8.116-.958-1.56a58.344,58.344,0,0,1,8.316,1.781,27.838,27.838,0,0,0-2.164,5.171c-.289.865-.586,2.787-1.565,2.725" transform="translate(4525.749 1420.425)" fill="#0a58ca"/>
        <path id="Path_823" data-name="Path 823" d="M260.794,112.443s6.658-7.225,13.271-9.524c0,0-4.431.327-10.155,3.9,0,0-2.689,2.91-3.116,5.622" transform="translate(4532.791 1420.351)" fill="#407bff"/>
        <rect id="Rectangle_369" data-name="Rectangle 369" width="262.292" height="251.446" transform="translate(4600 1446.875)" fill="none"/>
        <rect id="Rectangle_370" data-name="Rectangle 370" width="262.292" height="251.446" transform="translate(4600 1446.875)" fill="none"/>
      </g>
    </g>
  </g>
</svg>
