<svg xmlns="http://www.w3.org/2000/svg" xmlns:xlink="http://www.w3.org/1999/xlink" width="535" height="391.952" viewBox="0 0 535 391.952">
<style xmlns="http://www.w3.org/2000/svg">
      #Path_133{animation: hover1 2s ease-in-out infinite;}
      @-webkit-keyframes hover1 {
        <!-- FF8989 -->
        0%{fill: #0A58CA}
        50%{fill: #FF0000}
        100%{fill: #0A58CA}
      }
      #Path_92{animation: hover2 2s ease-in-out infinite;}
      @-webkit-keyframes hover2 {
        <!-- FF8989 -->
        0%{fill: #dddddd}
        50%{fill: #0A58CA}
        100%{fill: #dddddd}
      }
  </style>
  <defs>
    <filter id="Path_255" x="0" y="13.952" width="483.888" height="378" filterUnits="userSpaceOnUse">
      <feOffset dy="26" input="SourceAlpha"/>
      <feGaussianBlur stdDeviation="13" result="blur"/>
      <feFlood flood-color="#ddd" flood-opacity="0.502"/>
      <feComposite operator="in" in2="blur"/>
      <feComposite in="SourceGraphic"/>
    </filter>
  </defs>
  <g id="Group_1135" data-name="Group 1135" transform="translate(-691 -3672)">
    <circle id="Ellipse_2" data-name="Ellipse 2" cx="57" cy="57" r="57" transform="translate(714 3909)" fill="#fff6f6"/>
    <circle id="Ellipse_25" data-name="Ellipse 25" cx="132.5" cy="132.5" r="132.5" transform="translate(961 3672)" fill="#eff6ff"/>
    <g transform="matrix(1, 0, 0, 1, 691, 3672)" filter="url(#Path_255)">
      <path id="Path_255-2" data-name="Path 255" d="M404.888,56.057V242.214c0,29.851-23.906,49.986-52.786,54.049-33.706,4.743-68.431,2.768-139.383-2.195-39.841-2.789-119.947,1.83-159.933,2.195C23.634,296.529,0,272.064,0,242.214V56.057C0,26.206,23.684.251,52.786,2.008,79.811,3.639,119.563,10.093,161,6.14c21.681-2.068,51.927-4,83.117-5.125C283.827-.418,325.065-.546,352.1,2.008a65.232,65.232,0,0,1,6.983,1.04c25.761,5.257,45.8,25.591,45.8,53.009" transform="translate(39.5 27.5)" fill="#fff" stroke="#ddd" stroke-width="1"/>
    </g>
    <g id="Group_33" data-name="Group 33" transform="translate(0.417 -0.151)">
      <path id="Path_92" data-name="Path 92" d="M361.258,88.347V253.523a5.9,5.9,0,0,1-5.9,5.9H72.2a5.9,5.9,0,0,1-5.9-5.9V88.347Z" transform="translate(710.35 3662.552)" fill="#f2f2f2"/>
      <path id="Path_93" data-name="Path 93" d="M188.388,170.026H156.315a1.661,1.661,0,0,1-1.661-1.661v-8.476a1.661,1.661,0,0,1,1.661-1.661h32.072a1.661,1.661,0,0,1,1.661,1.661v8.476a1.661,1.661,0,0,1-1.661,1.661" transform="translate(636.746 3604.337)"/>
      <path id="Path_94" data-name="Path 94" d="M1610.713,170.818h-23.224a1.661,1.661,0,0,1-1.661-1.661v-8.476a1.661,1.661,0,0,1,1.661-1.661h23.224a1.661,1.661,0,0,1,1.661,1.661v8.476a1.661,1.661,0,0,1-1.661,1.661" transform="translate(-555.513 3603.677)" fill="#0a58ca"/>
      <path id="Path_95" data-name="Path 95" d="M603.8,170.026H421.347a1.661,1.661,0,0,1-1.661-1.661v-8.476a1.661,1.661,0,0,1,1.661-1.661H603.8a1.661,1.661,0,0,1,1.661,1.661v8.476a1.661,1.661,0,0,1-1.661,1.661" transform="translate(415.958 3604.337)" fill="#fff" stroke="#ddd" stroke-width="1"/>
      <path id="Path_96" data-name="Path 96" d="M357.944,0H69.633A3.323,3.323,0,0,0,66.31,3.323V14.748H361.267V3.323A3.323,3.323,0,0,0,357.944,0" transform="translate(710.342 3736.151)" fill="red"/>
      <path id="Path_97" data-name="Path 97" d="M159.078,33.132a2.212,2.212,0,1,1-2.212-2.212,2.212,2.212,0,0,1,2.212,2.212" transform="translate(636.746 3710.393)" fill="#fff"/>
      <path id="Path_98" data-name="Path 98" d="M212.084,33.132a2.212,2.212,0,1,1-2.212-2.212,2.212,2.212,0,0,1,2.212,2.212" transform="translate(592.589 3710.393)" fill="#fff"/>
      <path id="Path_99" data-name="Path 99" d="M265.091,33.132a2.212,2.212,0,1,1-2.212-2.212,2.212,2.212,0,0,1,2.212,2.212" transform="translate(548.43 3710.393)" fill="#fff"/>
      <path id="Path_100" data-name="Path 100" d="M1496.064,192.279l-.3.3a.27.27,0,0,1-.382,0l-3.008-3.008a.27.27,0,0,1,0-.382l.3-.3a.27.27,0,0,1,.382,0l3.008,3.008a.27.27,0,0,1,0,.382" transform="translate(-477.597 3578.86)" fill="#2c3e50"/>
      <path id="Path_101" data-name="Path 101" d="M1483.392,176.513a2.4,2.4,0,1,1-3.39,0,2.4,2.4,0,0,1,3.39,0" transform="translate(-466.768 3589.689)" fill="#2c3e50"/>
      <path id="Path_102" data-name="Path 102" d="M1486.473,180.61a1.678,1.678,0,1,1-2.373,0,1.678,1.678,0,0,1,2.373,0" transform="translate(-470.357 3586.101)" fill="#fff"/>
      <path id="Path_103" data-name="Path 103" d="M199.392,187.3v-2.5h1.671v.361h-1.225v.687h1.154v.357h-1.154v.729h1.225v.361Z" transform="translate(599.476 3582.198)" fill="#fff"/>
      <rect id="Rectangle_24" data-name="Rectangle 24" width="1.055" height="0.351" transform="translate(800.914 3768.375)" fill="#fff"/>
      <path id="Path_104" data-name="Path 104" d="M221.119,187.015a1.052,1.052,0,0,1-.421-.448,1.625,1.625,0,0,1,0-1.351,1.051,1.051,0,0,1,.421-.446,1.266,1.266,0,0,1,.642-.157,1.429,1.429,0,0,1,.474.078,1.048,1.048,0,0,1,.375.219l-.152.333a1.241,1.241,0,0,0-.336-.2,1,1,0,0,0-.354-.062.688.688,0,0,0-.558.234,1.255,1.255,0,0,0,0,1.349.688.688,0,0,0,.558.234,1,1,0,0,0,.354-.062,1.251,1.251,0,0,0,.336-.2l.152.333a1.05,1.05,0,0,1-.375.219,1.425,1.425,0,0,1-.474.078,1.266,1.266,0,0,1-.642-.157" transform="translate(581.85 3582.356)" fill="#fff"/>
      <path id="Path_105" data-name="Path 105" d="M234.8,190.82a.757.757,0,0,1-.31-.315,1,1,0,0,1-.11-.478.982.982,0,0,1,.11-.476.757.757,0,0,1,.31-.313,1.04,1.04,0,0,1,.931,0,.752.752,0,0,1,.308.313,1,1,0,0,1,.108.476,1.017,1.017,0,0,1-.108.478.753.753,0,0,1-.308.315,1.042,1.042,0,0,1-.931,0m.791-.375a.822.822,0,0,0,0-.834.39.39,0,0,0-.325-.144.4.4,0,0,0-.328.144.651.651,0,0,0-.115.416.659.659,0,0,0,.113.418.45.45,0,0,0,.655,0" transform="translate(570.333 3578.595)" fill="#fff"/>
      <path id="Path_106" data-name="Path 106" d="M249.636,189.3a.827.827,0,0,1,.145.536V190.9h-.442v-1.044a.49.49,0,0,0-.067-.288.252.252,0,0,0-.216-.09.338.338,0,0,0-.276.12.514.514,0,0,0-.1.336v.967h-.443v-1.044a.5.5,0,0,0-.066-.288.25.25,0,0,0-.218-.09.334.334,0,0,0-.272.12.512.512,0,0,0-.1.336v.967h-.442v-1.731h.432v.244a.517.517,0,0,1,.216-.214.668.668,0,0,1,.315-.073.5.5,0,0,1,.521.326.59.59,0,0,1,.234-.239.674.674,0,0,1,.34-.087.537.537,0,0,1,.439.175" transform="translate(559.698 3578.595)" fill="#fff"/>
      <path id="Path_107" data-name="Path 107" d="M268.145,189.3a.828.828,0,0,1,.145.536V190.9h-.442v-1.044a.487.487,0,0,0-.068-.288.251.251,0,0,0-.216-.09.339.339,0,0,0-.276.12.514.514,0,0,0-.1.336v.967h-.443v-1.044a.5.5,0,0,0-.065-.288.251.251,0,0,0-.218-.09.334.334,0,0,0-.273.12.514.514,0,0,0-.1.336v.967h-.442v-1.731h.432v.244a.517.517,0,0,1,.216-.214.669.669,0,0,1,.315-.073.5.5,0,0,1,.52.326.592.592,0,0,1,.234-.239.674.674,0,0,1,.34-.087.537.537,0,0,1,.439.175" transform="translate(544.279 3578.595)" fill="#fff"/>
      <path id="Path_108" data-name="Path 108" d="M285.2,190.116H284.02a.539.539,0,0,0,.145.358.5.5,0,0,0,.354.117.835.835,0,0,0,.524-.184l.127.3a.921.921,0,0,1-.3.159,1.16,1.16,0,0,1-.366.06.918.918,0,0,1-.671-.241.88.88,0,0,1-.246-.659,1.009,1.009,0,0,1,.106-.471.775.775,0,0,1,.3-.318.848.848,0,0,1,.437-.113.721.721,0,0,1,.565.23.912.912,0,0,1,.207.633Zm-1.046-.563a.553.553,0,0,0-.133.326h.8a.5.5,0,0,0-.106-.327.349.349,0,0,0-.276-.112.376.376,0,0,0-.285.114" transform="translate(529.338 3578.595)" fill="#fff"/>
      <path id="Path_109" data-name="Path 109" d="M296.557,189.479l-.258.025q-.439.046-.439.446v.935h-.442v-1.731h.421v.3a.589.589,0,0,1,.556-.34l.135-.011Z" transform="translate(519.481 3578.613)" fill="#fff"/>
      <path id="Path_110" data-name="Path 110" d="M303.165,190.82a.742.742,0,0,1-.306-.311,1.084,1.084,0,0,1,.005-.947.782.782,0,0,1,.317-.32.965.965,0,0,1,.474-.114,1.133,1.133,0,0,1,.359.058.759.759,0,0,1,.282.157l-.128.311a.837.837,0,0,0-.232-.134.684.684,0,0,0-.243-.046.453.453,0,0,0-.357.143.724.724,0,0,0,0,.821.452.452,0,0,0,.357.143.684.684,0,0,0,.243-.046.842.842,0,0,0,.232-.135l.128.308a.8.8,0,0,1-.29.161,1.165,1.165,0,0,1-.368.058.969.969,0,0,1-.472-.11" transform="translate(513.37 3578.595)" fill="#fff"/>
      <path id="Path_111" data-name="Path 111" d="M314.713,190.116h-1.179a.539.539,0,0,0,.145.358.5.5,0,0,0,.354.117.835.835,0,0,0,.524-.184l.127.3a.925.925,0,0,1-.3.159,1.16,1.16,0,0,1-.366.06.919.919,0,0,1-.671-.241.88.88,0,0,1-.246-.659,1.009,1.009,0,0,1,.107-.471.771.771,0,0,1,.3-.318.847.847,0,0,1,.437-.113.722.722,0,0,1,.565.23.914.914,0,0,1,.207.633Zm-1.046-.563a.55.55,0,0,0-.133.326h.8a.5.5,0,0,0-.106-.327.35.35,0,0,0-.276-.112.375.375,0,0,0-.285.114" transform="translate(504.751 3578.595)" fill="#fff"/>
      <path id="Path_112" data-name="Path 112" d="M1648.9,187.885a1.241,1.241,0,0,1-.424-.219l.152-.333a1.25,1.25,0,0,0,.381.2,1.428,1.428,0,0,0,.434.064.735.735,0,0,0,.4-.09.285.285,0,0,0,.14-.253.236.236,0,0,0-.129-.216,1.663,1.663,0,0,0-.43-.142,2.522,2.522,0,0,1-.506-.156.712.712,0,0,1-.294-.226.588.588,0,0,1-.1-.35.67.67,0,0,1,.121-.393.791.791,0,0,1,.34-.271,1.238,1.238,0,0,1,.506-.1,1.552,1.552,0,0,1,.5.08,1.087,1.087,0,0,1,.39.218l-.152.333a1.154,1.154,0,0,0-.736-.265.654.654,0,0,0-.38.1.312.312,0,0,0-.14.271.249.249,0,0,0,.124.223,1.458,1.458,0,0,0,.422.145,2.8,2.8,0,0,1,.511.157.756.756,0,0,1,.3.221.538.538,0,0,1,.1.34.664.664,0,0,1-.118.391.748.748,0,0,1-.344.258,1.413,1.413,0,0,1-.529.09,1.8,1.8,0,0,1-.538-.078" transform="translate(-607.698 3581.698)" fill="#fff"/>
      <path id="Path_113" data-name="Path 113" d="M1663.5,190.907h-1.178a.537.537,0,0,0,.145.358.5.5,0,0,0,.354.117.835.835,0,0,0,.524-.184l.127.3a.928.928,0,0,1-.3.159,1.167,1.167,0,0,1-.366.06.919.919,0,0,1-.671-.241.878.878,0,0,1-.246-.658,1.012,1.012,0,0,1,.106-.471.772.772,0,0,1,.3-.319.849.849,0,0,1,.437-.113.721.721,0,0,1,.564.23.913.913,0,0,1,.207.633Zm-1.046-.563a.549.549,0,0,0-.132.326h.8a.508.508,0,0,0-.106-.328.351.351,0,0,0-.276-.112.376.376,0,0,0-.285.113" transform="translate(-618.877 3577.936)" fill="#fff"/>
      <rect id="Rectangle_25" data-name="Rectangle 25" width="0.443" height="2.496" transform="translate(1044.988 3767.133)" fill="#fff"/>
      <rect id="Rectangle_26" data-name="Rectangle 26" width="0.443" height="2.496" transform="translate(1045.887 3767.133)" fill="#fff"/>
      <path id="Path_114" data-name="Path 114" d="M215.139,422.34H156.323a1.669,1.669,0,0,1-1.669-1.669V302.49a1.669,1.669,0,0,1,1.669-1.669h58.816a1.669,1.669,0,0,1,1.669,1.669v118.18a1.669,1.669,0,0,1-1.669,1.669" transform="translate(636.746 3485.548)" fill="#fff" stroke="#ddd" stroke-width="1"/>
      <path id="Path_115" data-name="Path 115" d="M244.118,944.436H197.906a.9.9,0,0,1-.9-.9v-6.2a.9.9,0,0,1,.9-.9h46.212a.9.9,0,0,1,.9.9v6.2a.9.9,0,0,1-.9.9" transform="translate(601.465 2956.042)" fill="#efefef"/>
      <path id="Path_116" data-name="Path 116" d="M283.475,955.613H248.016a.676.676,0,0,1-.676-.676v-1.048a.676.676,0,0,1,.676-.676h35.459a.676.676,0,0,1,.676.676v1.048a.676.676,0,0,1-.676.676" transform="translate(559.533 2942.065)" fill="#fff"/>
      <path id="Path_117" data-name="Path 117" d="M217.784,950.419a2,2,0,1,1-2-2,2,2,0,0,1,2,2" transform="translate(587.488 2946.059)" fill="#b3b3ff"/>
      <path id="Path_118" data-name="Path 118" d="M244.118,878.745H197.906a.9.9,0,0,1-.9-.9v-6.2a.9.9,0,0,1,.9-.9h46.212a.9.9,0,0,1,.9.9v6.2a.9.9,0,0,1-.9.9" transform="translate(601.465 3010.768)" fill="#efefef"/>
      <path id="Path_119" data-name="Path 119" d="M283.475,889.921H248.016a.676.676,0,0,1-.676-.676V888.2a.676.676,0,0,1,.676-.676h35.459a.676.676,0,0,1,.676.676v1.049a.676.676,0,0,1-.676.676" transform="translate(559.533 2996.791)" fill="#fff"/>
      <path id="Path_120" data-name="Path 120" d="M217.784,884.727a2,2,0,1,1-2-2,2,2,0,0,1,2,2" transform="translate(587.488 3000.784)" fill="#36ccc4"/>
      <path id="Path_121" data-name="Path 121" d="M230.159,347.46h-32.52a.634.634,0,0,1-.634-.634v-.984a.634.634,0,0,1,.634-.634h32.52a.634.634,0,0,1,.634.634v.984a.634.634,0,0,1-.634.634" transform="translate(601.465 3448.572)" fill="#efefef"/>
      <path id="Path_122" data-name="Path 122" d="M283.422,390.18H250.9a.634.634,0,0,1-.634-.634v-.984a.634.634,0,0,1,.634-.634h32.52a.634.634,0,0,1,.634.634v.984a.634.634,0,0,1-.634.634" transform="translate(557.093 3412.982)" fill="#efefef"/>
      <path id="Path_123" data-name="Path 123" d="M282.19,432.309H250.655a1.274,1.274,0,1,1,0-2.549H282.19a1.274,1.274,0,0,1,0,2.549m-31.536-2.252a.978.978,0,1,0,0,1.956H282.19a.978.978,0,1,0,0-1.956Z" transform="translate(557.833 3378.134)" fill="#efefef"/>
      <path id="Path_124" data-name="Path 124" d="M282.19,475.03H250.655a1.274,1.274,0,1,1,0-2.549H282.19a1.274,1.274,0,0,1,0,2.549m-31.536-2.253a.978.978,0,1,0,0,1.956H282.19a.978.978,0,1,0,0-1.956Z" transform="translate(557.833 3342.544)" fill="#efefef"/>
      <path id="Path_125" data-name="Path 125" d="M230.159,518.341h-32.52a.634.634,0,0,1-.634-.634v-.984a.634.634,0,0,1,.634-.634h32.52a.634.634,0,0,1,.634.634v.984a.634.634,0,0,1-.634.634" transform="translate(601.465 3306.216)" fill="#efefef"/>
      <path id="Path_126" data-name="Path 126" d="M282.19,560.471H250.655a1.275,1.275,0,1,1,0-2.549H282.19a1.275,1.275,0,0,1,0,2.549m-31.536-2.253a.978.978,0,0,0,0,1.957H282.19a.978.978,0,0,0,0-1.957Z" transform="translate(557.833 3271.366)" fill="#efefef"/>
      <path id="Path_127" data-name="Path 127" d="M282.19,603.19H250.655a1.275,1.275,0,1,1,0-2.549H282.19a1.275,1.275,0,0,1,0,2.549m-31.536-2.253a.978.978,0,1,0,0,1.956H282.19a.978.978,0,0,0,0-1.956Z" transform="translate(557.833 3235.779)" fill="#efefef"/>
      <path id="Path_128" data-name="Path 128" d="M230.159,646.5h-32.52a.634.634,0,0,1-.634-.634v-.984a.634.634,0,0,1,.634-.634h32.52a.634.634,0,0,1,.634.634v.984a.634.634,0,0,1-.634.634" transform="translate(601.465 3199.45)" fill="#efefef"/>
      <path id="Path_129" data-name="Path 129" d="M230.159,689.223h-32.52a.634.634,0,0,1-.634-.634V687.6a.635.635,0,0,1,.634-.634h32.52a.634.634,0,0,1,.634.634v.984a.634.634,0,0,1-.634.634" transform="translate(601.465 3163.861)" fill="#efefef"/>
      <path id="Path_130" data-name="Path 130" d="M282.19,731.353H250.655a1.274,1.274,0,1,1,0-2.549H282.19a1.274,1.274,0,1,1,0,2.549M250.655,729.1a.978.978,0,1,0,0,1.956H282.19a.978.978,0,1,0,0-1.956Z" transform="translate(557.833 3129.011)" fill="#efefef"/>
      <path id="Path_131" data-name="Path 131" d="M282.19,774.072H250.655a1.274,1.274,0,1,1,0-2.549H282.19a1.274,1.274,0,0,1,0,2.549m-31.536-2.252a.978.978,0,1,0,0,1.956H282.19a.978.978,0,1,0,0-1.956Z" transform="translate(557.833 3093.423)" fill="#efefef"/>
      <path id="Path_132" data-name="Path 132" d="M735.716,383.81H603a2.8,2.8,0,0,1-2.8-2.8V303.62a2.8,2.8,0,0,1,2.8-2.8H735.716a2.8,2.8,0,0,1,2.8,2.8v77.391a2.8,2.8,0,0,1-2.8,2.8" transform="translate(265.578 3485.548)" fill="#fff" stroke="#ddd" stroke-width="1"/>
      <path id="Path_133" data-name="Path 133" d="M690.4,427.549a.741.741,0,0,1-.475-1.31L711.6,408.147a6.676,6.676,0,0,1,6-1.323l17.125,4.587a5.178,5.178,0,0,0,5.128-1.465l14.994-16.009a6.7,6.7,0,0,1,4.769-2.109l15.972-.235a5.168,5.168,0,0,0,3.526-1.454l19.809-19.12a.741.741,0,1,1,1.029,1.066L780.141,391.2a6.646,6.646,0,0,1-4.533,1.87l-15.972.235a5.214,5.214,0,0,0-3.71,1.641l-14.994,16.009a6.657,6.657,0,0,1-6.592,1.883l-17.126-4.586a5.189,5.189,0,0,0-4.666,1.029L690.88,427.377a.738.738,0,0,1-.475.172" transform="translate(191.049 3427.242)" fill="#ddd"/>
      <path id="Path_134" data-name="Path 134" d="M714.833,460.3a6.623,6.623,0,0,1-2.653-.555l-22.073-9.627a.741.741,0,0,1,.592-1.359l22.073,9.627a5.2,5.2,0,0,0,6.822-2.666l10.509-23.9a6.668,6.668,0,0,1,11.129-1.7l10.859,12.445a5.187,5.187,0,0,0,8.452-.909l10.031-18.226a6.668,6.668,0,0,1,10.038-1.968l18.133,14.676a.741.741,0,1,1-.933,1.152L779.68,422.611a5.187,5.187,0,0,0-7.807,1.53l-10.031,18.226a6.669,6.669,0,0,1-10.867,1.169l-10.859-12.445a5.187,5.187,0,0,0-8.656,1.322l-10.509,23.9a6.683,6.683,0,0,1-6.117,3.984" transform="translate(191.05 3386.287)" fill="#0a58ca"/>
      <path id="Path_135" data-name="Path 135" d="M690.4,463.306a.741.741,0,0,1-.55-1.237l19.153-21.258a6.633,6.633,0,0,1,7.281-1.786l15.631,5.821a5.2,5.2,0,0,0,4.738-.579l15.623-10.681a6.677,6.677,0,0,1,8.111.448l14.2,12.2a5.187,5.187,0,0,0,7.4-.652l16.875-20.652a.741.741,0,0,1,1.147.938l-16.875,20.652a6.669,6.669,0,0,1-9.511.837l-14.2-12.2a5.2,5.2,0,0,0-6.308-.348L737.493,445.49a6.676,6.676,0,0,1-6.091.745l-15.631-5.821a5.162,5.162,0,0,0-5.664,1.389l-19.153,21.258a.738.738,0,0,1-.551.245" transform="translate(191.049 3382.379)" fill="red"/>
      <path id="Path_136" data-name="Path 136" d="M896.267,722.01h-5.236a.84.84,0,0,1-.84-.84v-5.236a.84.84,0,0,1,.84-.84h5.236a.84.84,0,0,1,.84.84v5.236a.84.84,0,0,1-.84.84" transform="translate(23.997 3140.432)" fill="rgba(221,221,221,0.46)"/>
      <path id="Path_137" data-name="Path 137" d="M967.9,731.208h-8.1a.56.56,0,0,1-.56-.56v-1.186a.56.56,0,0,1,.56-.56h8.1a.56.56,0,0,1,.56.56v1.186a.56.56,0,0,1-.56.56" transform="translate(-33.522 3128.928)" fill="rgba(221,221,221,0.46)"/>
      <path id="Path_138" data-name="Path 138" d="M1075.785,722.01h-5.236a.84.84,0,0,1-.84-.84v-5.236a.84.84,0,0,1,.84-.84h5.236a.84.84,0,0,1,.84.84v5.236a.84.84,0,0,1-.84.84" transform="translate(-125.553 3140.432)" fill="#c6dcfc"/>
      <path id="Path_139" data-name="Path 139" d="M1147.415,731.208h-8.1a.56.56,0,0,1-.56-.56v-1.186a.56.56,0,0,1,.56-.56h8.1a.56.56,0,0,1,.56.56v1.186a.56.56,0,0,1-.56.56" transform="translate(-183.072 3128.928)" fill="#c6dcfc"/>
      <path id="Path_140" data-name="Path 140" d="M1255.3,722.01h-5.236a.84.84,0,0,1-.84-.84v-5.236a.84.84,0,0,1,.84-.84h5.236a.84.84,0,0,1,.84.84v5.236a.84.84,0,0,1-.84.84" transform="translate(-275.103 3140.432)" fill="#fee2e2"/>
      <path id="Path_141" data-name="Path 141" d="M1326.933,731.208h-8.1a.56.56,0,0,1-.56-.56v-1.186a.56.56,0,0,1,.56-.56h8.1a.56.56,0,0,1,.56.56v1.186a.56.56,0,0,1-.56.56" transform="translate(-332.622 3128.928)" fill="#fee2e2"/>
      <path id="Path_142" data-name="Path 142" d="M639.037,883.449H601.869a1.669,1.669,0,0,1-1.669-1.669V856a1.669,1.669,0,0,1,1.669-1.669h37.168A1.669,1.669,0,0,1,640.706,856V881.78a1.669,1.669,0,0,1-1.669,1.669" transform="translate(265.578 3024.439)" fill="#fff"/>
      <path id="Path_143" data-name="Path 143" d="M931.987,883.449H894.819a1.669,1.669,0,0,1-1.669-1.669V856a1.669,1.669,0,0,1,1.669-1.669h37.168A1.669,1.669,0,0,1,933.656,856V881.78a1.669,1.669,0,0,1-1.669,1.669" transform="translate(21.532 3024.439)" fill="#fff"/>
      <path id="Path_144" data-name="Path 144" d="M1224.937,883.449h-37.168a1.669,1.669,0,0,1-1.669-1.669V856a1.669,1.669,0,0,1,1.669-1.669h37.168a1.67,1.67,0,0,1,1.67,1.669V881.78a1.669,1.669,0,0,1-1.67,1.669" transform="translate(-222.514 3024.439)" fill="#fff"/>
      <path id="Path_145" data-name="Path 145" d="M661.721,983.862h-28.3a.668.668,0,0,1-.668-.668v-1.036a.668.668,0,0,1,.668-.668h28.3a.668.668,0,0,1,.668.668v1.036a.668.668,0,0,1-.668.668" transform="translate(238.462 2918.507)" fill="rgba(221,221,221,0.46)"/>
      <path id="Path_146" data-name="Path 146" d="M686.854,951.9H670.407a.668.668,0,0,1-.668-.668V950.2a.668.668,0,0,1,.668-.668h16.448a.668.668,0,0,1,.668.668v1.036a.668.668,0,0,1-.668.668" transform="translate(207.647 2945.13)" fill="rgba(221,221,221,0.46)"/>
      <path id="Path_147" data-name="Path 147" d="M707.384,894.8h-5.74a.835.835,0,0,1-.835-.835v-5.74a.835.835,0,0,1,.835-.835h5.74a.835.835,0,0,1,.835.835v5.74a.835.835,0,0,1-.835.835" transform="translate(181.764 2996.896)" fill="rgba(221,221,221,0.46)"/>
      <path id="Path_148" data-name="Path 148" d="M954.671,983.862h-28.3a.668.668,0,0,1-.668-.668v-1.036a.668.668,0,0,1,.668-.668h28.3a.668.668,0,0,1,.668.668v1.036a.668.668,0,0,1-.668.668" transform="translate(-5.584 2918.507)" fill="#c6dcfc"/>
      <path id="Path_149" data-name="Path 149" d="M979.8,951.9H963.357a.668.668,0,0,1-.668-.668V950.2a.668.668,0,0,1,.668-.668H979.8a.668.668,0,0,1,.668.668v1.036a.668.668,0,0,1-.668.668" transform="translate(-36.398 2945.13)" fill="#c6dcfc"/>
      <path id="Path_150" data-name="Path 150" d="M1000.334,894.8h-5.74a.835.835,0,0,1-.835-.835v-5.74a.834.834,0,0,1,.835-.835h5.74a.835.835,0,0,1,.835.835v5.74a.835.835,0,0,1-.835.835" transform="translate(-62.282 2996.896)" fill="#c6dcfc"/>
      <path id="Path_151" data-name="Path 151" d="M1247.621,983.862h-28.3a.668.668,0,0,1-.668-.668v-1.036a.668.668,0,0,1,.668-.668h28.3a.668.668,0,0,1,.668.668v1.036a.668.668,0,0,1-.668.668" transform="translate(-249.63 2918.507)" fill="#fee2e2"/>
      <path id="Path_152" data-name="Path 152" d="M1272.754,951.9h-16.448a.668.668,0,0,1-.668-.668V950.2a.668.668,0,0,1,.668-.668h16.448a.668.668,0,0,1,.668.668v1.036a.668.668,0,0,1-.668.668" transform="translate(-280.444 2945.13)" fill="#fee2e2"/>
      <path id="Path_153" data-name="Path 153" d="M1293.284,894.8h-5.74a.835.835,0,0,1-.835-.835v-5.74a.835.835,0,0,1,.835-.835h5.74a.835.835,0,0,1,.834.835v5.74a.835.835,0,0,1-.834.835" transform="translate(-306.328 2996.896)" fill="#fee2e2"/>
      <path id="Path_154" data-name="Path 154" d="M1542.511,725.209h-40.546V692.69a1.269,1.269,0,0,1,1.269-1.269h38.008a1.269,1.269,0,0,1,1.269,1.269Z" transform="translate(-485.65 3160.153)" fill="#fff"/>
      <path id="Path_155" data-name="Path 155" d="M1541.242,916.348h-38.008a1.269,1.269,0,0,1-1.269-1.269V893.823h40.546V915.08a1.269,1.269,0,0,1-1.269,1.269" transform="translate(-485.65 2991.54)" fill="#fff"/>
      <path id="Path_156" data-name="Path 156" d="M1555.359,916.315h-32.52a.634.634,0,0,1-.634-.634V914.7a.634.634,0,0,1,.634-.634h32.52a.634.634,0,0,1,.634.634v.984a.634.634,0,0,1-.634.634" transform="translate(-502.511 2974.678)" fill="#b3b3ff"/>
      <path id="Path_157" data-name="Path 157" d="M1546.349,943.3h-23.51a.634.634,0,0,1-.634-.634v-.984a.634.634,0,0,1,.634-.634h23.51a.634.634,0,0,1,.634.634v.984a.634.634,0,0,1-.634.634" transform="translate(-502.511 2952.197)" fill="#d7d7ff"/>
      <path id="Path_158" data-name="Path 158" d="M1539.591,970.289h-16.752a.634.634,0,0,1-.634-.634v-.984a.634.634,0,0,1,.634-.634h16.752a.634.634,0,0,1,.634.634v.984a.634.634,0,0,1-.634.634" transform="translate(-502.511 2929.715)" fill="#36ccc4"/>
      <path id="Path_159" data-name="Path 159" d="M1525.288,995.361l.383.741.856.119-.619.577.146.815-.766-.385-.766.385.146-.815-.619-.577.856-.119Z" transform="translate(-504.047 2906.952)" fill="#ffc800"/>
      <path id="Path_160" data-name="Path 160" d="M1550.251,995.361l.383.741.856.119-.619.577.146.815-.766-.385-.766.385.146-.815-.619-.577.856-.119Z" transform="translate(-524.843 2906.952)" fill="#ffc800"/>
      <path id="Path_161" data-name="Path 161" d="M1575.214,995.361l.383.741.856.119-.619.577.146.815-.766-.385-.766.385.146-.815-.619-.577.856-.119Z" transform="translate(-545.638 2906.952)" fill="#ffc800"/>
      <path id="Path_162" data-name="Path 162" d="M1600.177,995.361l.383.741.856.119-.619.577.146.815-.766-.385-.766.385.146-.815-.619-.577.856-.119Z" transform="translate(-566.434 2906.952)" fill="#ffc800"/>
      <path id="Path_163" data-name="Path 163" d="M1626.378,996.221l-.856-.119-.383-.741-.383.741-.856.119.62.577-.146.815.766-.385.766.385-.146-.815Zm-.822.36-.118.11.028.159.042.232-.236-.119-.133-.067-.133.067-.236.119.041-.232.029-.159-.118-.11-.164-.152.239-.033.152-.021.07-.136.12-.231.119.231.071.136.152.021.239.033Z" transform="translate(-587.229 2906.952)" fill="#ffc800"/>
      <rect id="Rectangle_27" data-name="Rectangle 27" width="13.983" height="2.012" transform="translate(1029.597 3860.113)" fill="#b3b3ff"/>
      <path id="Path_164" data-name="Path 164" d="M1573.846,757.472s-.445.163-1.27.388a39.886,39.886,0,0,1-6.648,1.2c-.888.088-1.838.155-2.841.192-.539.019-1.094.029-1.663.029A41.873,41.873,0,0,1,1549.7,757.7c-.455-.136-.7-.224-.7-.224l.378-1.038,2.237-6.139.955-2.623,1.859-5.1a19.307,19.307,0,0,0,7.152,1.424,16.682,16.682,0,0,0,6.832-1.424l1.009,2.77.646,1.767,3.375,9.261Z" transform="translate(-524.835 3117.542)" fill="#f0f2f7"/>
      <path id="Path_165" data-name="Path 165" d="M1585.219,760.111a.975.975,0,1,1-.975-.975.975.975,0,0,1,.975.975" transform="translate(-553.381 3103.742)" fill="#d7d7ff"/>
      <path id="Path_166" data-name="Path 166" d="M1690.733,826.318s-.445.163-1.27.388a.959.959,0,0,1-.15-.518.975.975,0,0,1,.974-.975.32.32,0,0,1,.046,0Z" transform="translate(-641.722 3048.696)" fill="#b3b3ff"/>
      <path id="Path_167" data-name="Path 167" d="M1667.538,760.929a.955.955,0,0,1-.56.178.974.974,0,0,1-.086-1.945Z" transform="translate(-622.304 3103.721)" fill="#b3b3ff"/>
      <path id="Path_168" data-name="Path 168" d="M1631.547,774.1a.975.975,0,1,1-.975-.975.975.975,0,0,1,.975.975" transform="translate(-591.975 3092.089)" fill="#d7d7ff"/>
      <path id="Path_169" data-name="Path 169" d="M1583.474,819.127a.975.975,0,1,1-.975-.975.975.975,0,0,1,.975.975" transform="translate(-551.928 3054.578)" fill="#d7d7ff"/>
      <path id="Path_170" data-name="Path 170" d="M1647.268,809.9a.975.975,0,1,1-.975-.975.975.975,0,0,1,.975.975" transform="translate(-605.073 3062.266)" fill="#d7d7ff"/>
      <path id="Path_171" data-name="Path 171" d="M1636.17,834.535c-.888.088-1.838.155-2.841.192a.924.924,0,0,1-.008-.13,1.425,1.425,0,0,1,2.849-.063" transform="translate(-595.077 3042.067)" fill="#b3b3ff"/>
      <path id="Path_172" data-name="Path 172" d="M1566.67,774.48a1.4,1.4,0,0,1-1.4,1.4,1.372,1.372,0,0,1-.6-.136l.955-2.623a1.4,1.4,0,0,1,1.049,1.355" transform="translate(-537.884 3092.089)" fill="#b3b3ff"/>
      <path id="Path_173" data-name="Path 173" d="M1588.455,791.341a.716.716,0,1,1-.716-.716.716.716,0,0,1,.716.716" transform="translate(-556.508 3077.51)" fill="#d7d7ff"/>
      <path id="Path_174" data-name="Path 174" d="M1668.986,809.746a.716.716,0,1,1-.716-.716.716.716,0,0,1,.716.716" transform="translate(-623.596 3062.177)" fill="#d7d7ff"/>
      <path id="Path_175" data-name="Path 175" d="M1630.047,795.632a.716.716,0,1,1-.716-.716.716.716,0,0,1,.716.716" transform="translate(-591.157 3073.936)" fill="#b3b3ff"/>
      <path id="Path_176" data-name="Path 176" d="M1549.966,826.317a.711.711,0,0,1-.267.558c-.455-.136-.7-.224-.7-.224l.378-1.038a.717.717,0,0,1,.585.7" transform="translate(-524.835 3048.363)" fill="#b3b3ff"/>
      <path id="Path_177" data-name="Path 177" d="M1669.773,790.18a.716.716,0,1,1-.716-.716.716.716,0,0,1,.716.716" transform="translate(-624.251 3078.477)" fill="#b3b3ff"/>
      <path id="Path_178" data-name="Path 178" d="M1611.283,808.112a.716.716,0,1,1-.716-.716.716.716,0,0,1,.716.716" transform="translate(-575.524 3063.539)" fill="#d7d7ff"/>
      <path id="Path_179" data-name="Path 179" d="M1605.189,767.849a.589.589,0,1,1-.589-.589.589.589,0,0,1,.589.589" transform="translate(-570.66 3096.975)" fill="#b3b3ff"/>
      <path id="Path_180" data-name="Path 180" d="M1567.364,806.855a.589.589,0,1,1-.589-.589.589.589,0,0,1,.589.589" transform="translate(-539.15 3064.48)" fill="#b3b3ff"/>
      <path id="Path_181" data-name="Path 181" d="M1610.68,826.892a.589.589,0,1,1-.589-.589.589.589,0,0,1,.589.589" transform="translate(-575.235 3047.788)" fill="#b3b3ff"/>
      <path id="Path_182" data-name="Path 182" d="M1663.656,825.8a.589.589,0,1,1-.589-.589.589.589,0,0,1,.589.589" transform="translate(-619.367 3048.694)" fill="#b3b3ff"/>
      <path id="Path_183" data-name="Path 183" d="M1646.5,758.948a.589.589,0,1,1-.589-.589.589.589,0,0,1,.589.589" transform="translate(-605.072 3104.39)" fill="#b3b3ff"/>
      <path id="Path_184" data-name="Path 184" d="M1624.276,760.64a.435.435,0,1,1-.435-.435.435.435,0,0,1,.435.435" transform="translate(-586.818 3102.852)" fill="#d7d7ff"/>
      <path id="Path_185" data-name="Path 185" d="M1611.295,788.456a.435.435,0,1,1-.435-.435.435.435,0,0,1,.435.435" transform="translate(-576.003 3079.679)" fill="#d7d7ff"/>
      <path id="Path_186" data-name="Path 186" d="M1630.466,817.234a.435.435,0,1,1-.435-.435.435.435,0,0,1,.435.435" transform="translate(-591.974 3055.706)" fill="#d7d7ff"/>
      <path id="Path_187" data-name="Path 187" d="M1653.243,785.852a.435.435,0,1,1-.435-.435.435.435,0,0,1,.435.435" transform="translate(-610.949 3081.849)" fill="#d7d7ff"/>
      <path id="Path_188" data-name="Path 188" d="M1542.511,334.609h-40.546V302.09a1.269,1.269,0,0,1,1.269-1.269h38.008a1.269,1.269,0,0,1,1.269,1.269Z" transform="translate(-485.65 3485.548)" fill="#e1edff"/>
      <path id="Path_189" data-name="Path 189" d="M1541.242,525.748h-38.008a1.269,1.269,0,0,1-1.269-1.269V503.222h40.546v21.257a1.269,1.269,0,0,1-1.269,1.269" transform="translate(-485.65 3316.935)" fill="#fff"/>
      <path id="Path_190" data-name="Path 190" d="M1555.359,525.715h-32.52a.634.634,0,0,1-.634-.634V524.1a.634.634,0,0,1,.634-.634h32.52a.634.634,0,0,1,.634.634v.984a.634.634,0,0,1-.634.634" transform="translate(-502.511 3300.073)" fill="red"/>
      <path id="Path_191" data-name="Path 191" d="M1550.854,552.7h-28.015a.634.634,0,0,1-.634-.634v-.984a.634.634,0,0,1,.634-.634h28.015a.634.634,0,0,1,.634.634v.984a.634.634,0,0,1-.634.634" transform="translate(-502.511 3277.591)" fill="#ffd8d8"/>
      <path id="Path_192" data-name="Path 192" d="M1539.591,579.69h-16.752a.634.634,0,0,1-.634-.634v-.984a.634.634,0,0,1,.634-.634h16.752a.634.634,0,0,1,.634.634v.984a.634.634,0,0,1-.634.634" transform="translate(-502.511 3255.109)" fill="#fee"/>
      <path id="Path_193" data-name="Path 193" d="M1525.288,604.761l.383.742.856.119-.619.577.146.815-.766-.385-.766.385.146-.815-.619-.577.856-.119Z" transform="translate(-504.047 3232.347)" fill="#ffc800"/>
      <path id="Path_194" data-name="Path 194" d="M1550.251,604.761l.383.742.856.119-.619.577.146.815-.766-.385-.766.385.146-.815-.619-.577.856-.119Z" transform="translate(-524.843 3232.347)" fill="#ffc800"/>
      <path id="Path_195" data-name="Path 195" d="M1575.214,604.761l.383.742.856.119-.619.577.146.815-.766-.385-.766.385.146-.815-.619-.577.856-.119Z" transform="translate(-545.638 3232.347)" fill="#ffc800"/>
      <path id="Path_196" data-name="Path 196" d="M1600.177,604.761l.383.742.856.119-.619.577.146.815-.766-.385-.766.385.146-.815-.619-.577.856-.119Z" transform="translate(-566.434 3232.347)" fill="#ffc800"/>
      <path id="Path_197" data-name="Path 197" d="M1626.378,605.621l-.856-.119-.383-.741-.383.741-.856.119.62.577-.146.815.766-.385.766.385-.146-.815Zm-.822.36-.118.11.028.159.042.232-.236-.119-.133-.067-.133.067-.236.119.041-.232.029-.159-.118-.11-.164-.152.239-.033.152-.021.07-.136.12-.231.119.231.071.136.152.021.239.033Z" transform="translate(-587.229 3232.347)" fill="#ffc800"/>
      <path id="Path_198" data-name="Path 198" d="M1597.694,357.84a5.152,5.152,0,1,1,5.152-5.152,5.158,5.158,0,0,1-5.152,5.152m0-8.823a3.67,3.67,0,1,0,3.67,3.67,3.675,3.675,0,0,0-3.67-3.67" transform="translate(-561.106 3446.632)" fill="#0a58ca"/>
      <path id="Path_199" data-name="Path 199" d="M1580.828,390.7h-13.647a3.075,3.075,0,0,1-2.983-3.82l1.828-7.314a1.537,1.537,0,0,1,1.492-1.164h12.972a1.537,1.537,0,0,1,1.491,1.164l1.828,7.314a3.075,3.075,0,0,1-2.982,3.82" transform="translate(-537.416 3420.92)" fill="#fff"/>
      <path id="Path_200" data-name="Path 200" d="M1612.91,401.853h0a1.477,1.477,0,0,1,0,2.088l-2.091,2.091-2.089-2.089a1.477,1.477,0,0,1,0-2.088h0a1.474,1.474,0,0,1,2.086,0h0a1.478,1.478,0,0,1,2.089,0" transform="translate(-574.232 3401.742)" fill="red"/>
      <path id="Path_201" data-name="Path 201" d="M0,1317.455c0,1.637,11.279,2.964,25.193,2.964s25.193-1.327,25.193-2.964-11.279-2.964-25.193-2.964S0,1315.818,0,1317.455" transform="translate(765.583 2641.097)" fill="rgba(221,221,221,0.4)"/>
      <path id="Path_202" data-name="Path 202" d="M77.756,1027.146H42.878a1.037,1.037,0,0,1-1.037-1.037V1024.5a1.037,1.037,0,0,1,1.037-1.037H77.756a1.037,1.037,0,0,1,1.037,1.037v1.608a1.037,1.037,0,0,1-1.037,1.037" transform="translate(730.726 2883.541)" fill="#2c3e50"/>
      <path id="Path_203" data-name="Path 203" d="M96.9,1270.223H69.028l.429-3.682h27.02Z" transform="translate(708.078 2681.042)" fill="#2c3e50"/>
      <path id="Path_204" data-name="Path 204" d="M106.283,1148.673H83.106l.429-3.682h22.319Z" transform="translate(696.35 2782.301)" fill="#2c3e50"/>
      <path id="Path_205" data-name="Path 205" d="M73.219,1045.52l-2.564,16.605-.569,3.682-2.564,16.609-.569,3.682-1.123,7.287H63.981l.843-7.287.429-3.682,1.922-16.609.429-3.682,1.922-16.605Z" transform="translate(712.283 2865.167)" fill="#2c3e50"/>
      <path id="Path_206" data-name="Path 206" d="M194.964,1093.385h-1.848l-1.123-7.287-.569-3.682-2.564-16.609-.569-3.682-2.564-16.606h3.7l1.922,16.606.429,3.682,1.922,16.609.429,3.682Z" transform="translate(610.861 2865.167)" fill="#2c3e50"/>
      <path id="Path_207" data-name="Path 207" d="M97.16,693.082c3.575,0,5.558,1.276,6.318,3.152,1.1,2.722.457,5,2.172,5.816s3.055,3.966,2.826,6.031-1.5,12.83-4.468,13.373H89.133c-2-1.169-3.429-10.5-2.96-12.882.629-3.194,3.548-3.579,3.833-5.753s.207-9.737,7.154-9.737" transform="translate(693.87 3158.77)"/>
      <path id="Path_208" data-name="Path 208" d="M141.316,770.294a2.847,2.847,0,0,1-5.686,0l.461-2.917.55-3.47h3.6l.6,3.847.4,2.54Z" transform="translate(652.594 3099.769)" fill="#feccc6"/>
      <path id="Path_209" data-name="Path 209" d="M64.614,834.015H34.37a4.992,4.992,0,0,1-4.966-6.4l6.255-19.2a9.3,9.3,0,0,1,8.916-6.242h2.366a2.847,2.847,0,0,0,5.686,0H54.4q.288,0,.576.02a9.256,9.256,0,0,1,8.34,6.222l6.261,19.2a5,5,0,0,1-4.965,6.4" transform="translate(741.283 3067.895)" fill="#0a58ca"/>
      <path id="Path_210" data-name="Path 210" d="M87.161,1008.509H62.28a3.062,3.062,0,0,0-3.083,3.764l1.744,6.574a37.7,37.7,0,0,0,13.779,2.6,41.747,41.747,0,0,0,14.222-2.6l1.344-6.751a3.072,3.072,0,0,0-3.124-3.586" transform="translate(716.35 2895.999)" fill="#e11212"/>
      <path id="Path_211" data-name="Path 211" d="M151.68,1231.412h0a2.421,2.421,0,0,1-2.391-2.355l-1.755-9.75a2.518,2.518,0,0,1,2.363-2.692,2.589,2.589,0,0,1,2.942,2.114l.61,9.875a2.356,2.356,0,0,1-1.769,2.809" transform="translate(642.69 2722.648)"/>
      <path id="Path_212" data-name="Path 212" d="M156.176,1228.471h0a1.431,1.431,0,0,1-1.413-1.392l-1.358-8.423a1.489,1.489,0,0,1,1.4-1.591,1.53,1.53,0,0,1,1.739,1.25l.681,8.5a1.393,1.393,0,0,1-1.045,1.66" transform="translate(637.794 2722.268)" fill="#ffb797"/>
      <path id="Path_213" data-name="Path 213" d="M123.894,1227.768h0a2.36,2.36,0,0,1-1.929-2.7l.457-10.43a2.685,2.685,0,0,1,5.34.493l-1.474,10.337a2.364,2.364,0,0,1-2.395,2.3" transform="translate(663.989 2726.204)"/>
      <path id="Path_214" data-name="Path 214" d="M129.651,1224.936h0a1.4,1.4,0,0,1-1.14-1.6l.55-9.179a1.587,1.587,0,0,1,3.156.292l-1.151,9.123a1.4,1.4,0,0,1-1.415,1.362" transform="translate(658.531 2725.814)" fill="#ffb797"/>
      <path id="Path_215" data-name="Path 215" d="M78.578,1047.481H75.052c-.4,0-.745-.4-.847-.979l-.417-1.294-9.4-29.283a5.949,5.949,0,0,1,5.023-7.347,6.632,6.632,0,0,1,1.026-.081,6.15,6.15,0,0,1,6.172,5.122l2.771,31.59.068.789c.074.782-.335,1.484-.867,1.484" transform="translate(712.114 2896.009)" fill="red"/>
      <path id="Path_216" data-name="Path 216" d="M163.974,1015.925l-9.24,29.283-.41,1.294c-.112.576-.488.979-.921.979H149.28a.66.66,0,0,1-.311-.075,1.392,1.392,0,0,1-.63-1.409l3.411-32.379a6.151,6.151,0,0,1,6.175-5.122,6.63,6.63,0,0,1,1.026.081,5.953,5.953,0,0,1,5.023,7.347" transform="translate(642.015 2896.009)" fill="red"/>
      <path id="Path_217" data-name="Path 217" d="M131.965,802.187a5.2,5.2,0,0,1-10.383-.02h2.345a2.847,2.847,0,0,0,5.686,0h1.776q.288,0,.576.02" transform="translate(664.297 3067.895)" fill="#fff"/>
      <path id="Path_218" data-name="Path 218" d="M143.14,767.753a4.05,4.05,0,0,1-2.114.588,4,4,0,0,1-2.635-.965l.55-3.471h3.6Z" transform="translate(650.294 3099.769)" fill="#f4c0bd"/>
      <path id="Path_219" data-name="Path 219" d="M131.777,735.426h0a3.856,3.856,0,0,1-3.916-3.433l-.571-6.676h8.973l-.571,6.676a3.855,3.855,0,0,1-3.915,3.433" transform="translate(659.541 3131.917)" fill="#feccc6"/>
      <path id="Path_220" data-name="Path 220" d="M119.829,724.606s4.872.394,7.1-2.446a3.4,3.4,0,0,0,3.76,2.446l.143-5.707-10.5-.177Z" transform="translate(665.757 3137.41)"/>
      <path id="Path_221" data-name="Path 221" d="M79.579,869.718a.209.209,0,0,1-.061-.009.2.2,0,0,1-.133-.248l4.81-14.962a.2.2,0,0,1,.255-.13.2.2,0,0,1,.133.248l-4.81,14.961a.2.2,0,0,1-.194.139" transform="translate(699.458 3024.414)" fill="#fff"/>
      <path id="Path_222" data-name="Path 222" d="M200.254,869.718a.209.209,0,0,0,.061-.009.2.2,0,0,0,.133-.248l-4.81-14.962a.2.2,0,0,0-.255-.13.2.2,0,0,0-.133.248l4.81,14.961a.2.2,0,0,0,.194.139" transform="translate(602.935 3024.414)" fill="#fff"/>
      <path id="Path_223" data-name="Path 223" d="M85.544,910.412H56.754a1.654,1.654,0,0,0-1.691,1.861l2.154,13.958a.676.676,0,0,0,.679.558H84.4a.676.676,0,0,0,.679-.558l2.154-13.958a1.654,1.654,0,0,0-1.69-1.861" transform="translate(719.726 2977.72)" fill="#e3e3e3"/>
      <path id="Path_224" data-name="Path 224" d="M142.78,950.306a2.223,2.223,0,1,1-2.189-1.834,2.035,2.035,0,0,1,2.189,1.834" transform="translate(650.284 2946.013)" fill="#fff"/>
      <path id="Path_225" data-name="Path 225" d="M156.47,1228.41l-.41,1.294c-.112.576-.488.979-.921.979h-4.725a.633.633,0,0,0,.291-.074,1.44,1.44,0,0,0,.576-1.409l-.068-.789Z" transform="translate(640.278 2712.807)" fill="#ededf7"/>
      <path id="Path_226" data-name="Path 226" d="M126.512,1230.683h-3.526c-.4,0-.745-.4-.847-.979l-.417-1.294h5.589l.068.789c.074.782-.335,1.484-.867,1.484" transform="translate(664.18 2712.807)" fill="#ededf7"/>
      <path id="Path_227" data-name="Path 227" d="M1491.425,1301.418c0,2.444,18.941,4.425,42.305,4.425s42.306-1.981,42.306-4.425-18.941-4.424-42.306-4.424-42.305,1.981-42.305,4.424" transform="translate(-476.869 2655.672)" fill="rgba(221,221,221,0.4)"/>
      <path id="Path_228" data-name="Path 228" d="M1586.33,1160.653h-1.205l1.894-31.618h3.392Z" transform="translate(-554.927 2795.593)" fill="#2c3e50"/>
      <path id="Path_229" data-name="Path 229" d="M1650.606,1160.653H1649.4l1.894-31.618h3.392Z" transform="translate(-608.473 2795.593)" fill="#2c3e50"/>
      <path id="Path_230" data-name="Path 230" d="M1755.358,1160.653h-1.205l-4.08-31.618h3.392Z" transform="translate(-692.339 2795.593)" fill="#2c3e50"/>
      <path id="Path_231" data-name="Path 231" d="M1819.634,1160.653h-1.205l-4.08-31.618h3.392Z" transform="translate(-745.885 2795.593)" fill="#2c3e50"/>
      <path id="Path_232" data-name="Path 232" d="M1539.752,839.462l4.77,28.71a13.321,13.321,0,0,0,13.238,11h22.894a15.254,15.254,0,0,0,15.261-13.183,14.89,14.89,0,0,0-6.963-14.473l-.03-.019a81.14,81.14,0,0,1-23.372-22.125,14.338,14.338,0,0,0-11.743-6.041,14.013,14.013,0,0,0-14.055,16.132" transform="translate(-516.973 3050.265)" fill="#ddd"/>
      <path id="Path_233" data-name="Path 233" d="M1574.857,855.8l3.314,19.945a9.254,9.254,0,0,0,9.2,7.641h28.354c5.4,0,5.756-3.17,5.712-6.287-.056-4.011-9-9.654-12.529-11.9-6.379-4.058-11.82-10.282-16.125-16.414a9.962,9.962,0,0,0-8.158-4.2,9.735,9.735,0,0,0-9.765,11.207" transform="translate(-546.265 3032.549)" fill="#fff"/>
      <path id="Path_234" data-name="Path 234" d="M1746.06,921.481l5.1,10.053-3.964,2.039-7.492-7.436s-.388-7.061,6.357-4.655" transform="translate(-683.698 2968.915)" fill="#ffb797"/>
      <path id="Path_235" data-name="Path 235" d="M1644.373,752.239l.085,7.761.969,5.388,4.763.7,3.328-2.531-2.034-2.906h-.832l-.37-2.264-.189-1.166-4.745-4.78-.322-.326-.141.026Z" transform="translate(-604.284 3109.588)" fill="#ffb797"/>
      <path id="Path_236" data-name="Path 236" d="M1675.712,1018.327l4.993.937s8.386-25.3,9.5-29.235-1.326-13.074-6.134-16.073-11.65-6.749-11.65-6.749H1654.85l6.657,14.622,17.752,9Z" transform="translate(-613.012 2930.405)" fill="#e11212"/>
      <path id="Path_237" data-name="Path 237" d="M1616.2,980.358c8.688,4.982,22.56,7.934,22.56,7.934l11.083,27.5.779,1.931h6.471s-.173-.714-.471-1.931c-1.57-6.428-6.573-26.9-7.506-30.686-1.111-4.5-30.88-20.434-30.88-20.434l-11.993-.507s-.618,10.129,9.957,16.192" transform="translate(-572.514 2932.939)" fill="red"/>
      <path id="Path_238" data-name="Path 238" d="M1677.343,989.274l18.777.115c.782,0,.925-.312.317-.708l-8.522-5.554a5.468,5.468,0,0,0-2.517-.725l-18.777-.115c-.783,0-.925.312-.318.708l8.521,5.554a5.468,5.468,0,0,0,2.517.725" transform="translate(-622.241 2917.844)" fill="#fff"/>
      <path id="Path_239" data-name="Path 239" d="M1571.166,825.9c1.109.562,1.731-1.732,3.117-3.419s3.976-1.117,3.976-1.117l2.034,5.991h20.067v-5.946c.836-1.447,3.6-1.271,3.6-1.271-1.546-3.063-4.808-12.185-6.749-15.091a4.835,4.835,0,0,0-.429-.551c-2.319-2.625-7.985-4.51-7.985-4.51s.37,3.281-2.127,3.281-4.9-3.937-4.9-3.937a14.053,14.053,0,0,0-10.329,6.048c-2.319,3.607-2.219,11.81-2.311,15.473s.924,4.488,2.034,5.05" transform="translate(-541.599 3070.26)" fill="#0a58ca"/>
      <path id="Path_240" data-name="Path 240" d="M1580.266,933.673s1.171-3.5,3.144-4.442a5.463,5.463,0,0,1,4.13,0s9.369,4.865,10.725,5.677,6.595.595,7.951,1.75.74,4.249-2.65,3.937-4.561-2.062-4.561-2.062-16.231-3-18.738-4.859" transform="translate(-550.879 2962.393)" fill="#ffb797"/>
      <path id="Path_241" data-name="Path 241" d="M1639.484,734.386c.024.966.526,1.737,1.122,1.721s1.059-.811,1.035-1.777-.526-1.737-1.122-1.721-1.059.811-1.035,1.777" transform="translate(-600.21 3125.841)" fill="#ffb797"/>
      <path id="Path_242" data-name="Path 242" d="M1878.759,1285v1.946a2.664,2.664,0,0,0,.882,1.989,31.209,31.209,0,0,0,5.651,3.939c2.065,1.023,3.677,1.1,2.848-1.024s-3.059-3.522-4.019-6.849Z" transform="translate(-799.543 2665.661)" fill="#2c3e50"/>
      <path id="Path_243" data-name="Path 243" d="M1784.5,1274.365s3.39,5.811,2.465,6.811-6.4-4.569-7.212-6a2.457,2.457,0,0,1-.246-1.75Z" transform="translate(-716.805 2675.305)" fill="#2c3e50"/>
      <path id="Path_244" data-name="Path 244" d="M1651.441,760.139a3.932,3.932,0,0,0,2.049-.12l-.189-1.166-4.745-4.78-.251,1.256a4.077,4.077,0,0,0,3.136,4.81" transform="translate(-607.492 3107.96)" fill="#e29c83"/>
      <path id="Path_245" data-name="Path 245" d="M1649.22,723.394h0a4.024,4.024,0,0,0,4.745-3.18l.9-4.454a4.076,4.076,0,0,0-3.137-4.81,4.024,4.024,0,0,0-4.745,3.18l-.9,4.454a4.076,4.076,0,0,0,3.137,4.81" transform="translate(-605.641 3143.954)" fill="#ffb797"/>
      <path id="Path_246" data-name="Path 246" d="M1649.059,702.509c-1.482-.545-2.088-1.7-2.919-1.357-.718.294-1.766,1.7-2.6,4.6l-.43-.171s.523-2.038-.511-2.448c-.421-.167-.943.363-.943.363s-.045-5.153,2.562-6.072a6.755,6.755,0,0,1,6.211,1.409c.81.774,1.647,2,1.153,3.039-.44.93-1.36,1.059-2.519.633" transform="translate(-602.018 3155.362)" fill="#12195f"/>
      <path id="Path_247" data-name="Path 247" d="M1571.166,840.717c1.109.562,1.731-1.732,3.117-3.419s3.976-1.117,3.976-1.117a12.131,12.131,0,0,0-1.332-3.693s1.332-9.749-2.607-15.372a12.887,12.887,0,0,0-2.877,3.078c-2.319,3.607-2.219,11.81-2.311,15.473s.924,4.488,2.034,5.05" transform="translate(-541.599 3055.441)" fill="#0a58ca"/>
      <path id="Path_248" data-name="Path 248" d="M1606.826,841.074a.148.148,0,0,1-.146-.127,12.1,12.1,0,0,0-1.315-3.643.148.148,0,0,1-.017-.091c.011-.085,1.127-8.587-1.912-14.182a.148.148,0,1,1,.26-.141c2.965,5.457,2.04,13.6,1.952,14.314a12.165,12.165,0,0,1,1.325,3.7.149.149,0,0,1-.125.168l-.021,0" transform="translate(-570.167 3050.696)" fill="#fff"/>
      <path id="Path_249" data-name="Path 249" d="M1734.76,839.12c1.971,3.048,2.341,10.577,2.341,10.577a4.409,4.409,0,0,1,1.243-1.474v-1.035c.836-1.447,3.6-1.271,3.6-1.271-1.546-3.063-4.808-12.185-6.749-15.091a4.809,4.809,0,0,0-.429-.551,31.583,31.583,0,0,1-.007,8.844" transform="translate(-679.583 3044.478)" fill="#0a58ca"/>
      <path id="Path_250" data-name="Path 250" d="M1736.361,849.105a.148.148,0,0,1-.148-.141c0-.075-.391-7.524-2.318-10.5a.148.148,0,0,1-.022-.1,31.67,31.67,0,0,0,.008-8.8.148.148,0,0,1,.292-.048,31.953,31.953,0,0,1,0,8.836c1.944,3.074,2.319,10.295,2.334,10.6a.148.148,0,0,1-.141.155h-.007" transform="translate(-678.843 3045.218)" fill="#fff"/>
      <path id="Path_251" data-name="Path 251" d="M1727.238,946.911l18.315.521a1.753,1.753,0,0,0,1.625-1.559l1.879-12.385a1.307,1.307,0,0,0-1.14-1.637l-18.315-.521a1.753,1.753,0,0,0-1.625,1.559l-1.88,12.385a1.307,1.307,0,0,0,1.14,1.637" transform="translate(-672.349 2960.294)" fill="#ddd"/>
      <path id="Path_252" data-name="Path 252" d="M1786.585,971.545a1.307,1.307,0,0,0,1.14,1.637,1.753,1.753,0,0,0,1.625-1.559,1.307,1.307,0,0,0-1.14-1.637,1.753,1.753,0,0,0-1.625,1.559" transform="translate(-722.739 2928.091)" fill="#fff"/>
      <path id="Path_253" data-name="Path 253" d="M1867.451,1273.428l.779,1.931h6.471s-.173-.714-.471-1.931Z" transform="translate(-790.123 2675.305)" fill="#fff"/>
      <path id="Path_254" data-name="Path 254" d="M1779.821,1263.668l.252-1.956,5.265,1.307-.525,1.586Z" transform="translate(-717.122 2685.064)" fill="#fff"/>
    </g>
  </g>
</svg>
