<svg xmlns="http://www.w3.org/2000/svg" xmlns:xlink="http://www.w3.org/1999/xlink" width="536.388" height="391.452" viewBox="0 0 536.388 391.452">
<style xmlns="http://www.w3.org/2000/svg">
      #Path_361, #Path_481{animation: hover1 2s ease-in-out infinite;}
      @-webkit-keyframes hover1 {
        <!-- FF8989 -->
        0%{fill: #DDDDDD}
        50%{fill: #0A58CA}
        100%{fill: #DDDDDD}
      }
  </style>
  <defs>
    <filter id="Path_700" x="52.5" y="13.452" width="483.888" height="378" filterUnits="userSpaceOnUse">
      <feOffset dy="26" input="SourceAlpha"/>
      <feGaussianBlur stdDeviation="13" result="blur"/>
      <feFlood flood-color="#ddd" flood-opacity="0.502"/>
      <feComposite operator="in" in2="blur"/>
      <feComposite in="SourceGraphic"/>
    </filter>
    <clipPath id="clip-path">
      <rect id="Rectangle_53" data-name="Rectangle 53" width="52.872" height="122.13" fill="none"/>
    </clipPath>
    <clipPath id="clip-path-2">
      <rect id="Rectangle_343" data-name="Rectangle 343" width="54.178" height="36.253" fill="none"/>
    </clipPath>
  </defs>
  <g id="Group_1134" data-name="Group 1134" transform="translate(-140 -3281)">
    <circle id="Ellipse_3" data-name="Ellipse 3" cx="132.5" cy="132.5" r="132.5" transform="translate(140 3367)" fill="#eff6ff"/>
    <circle id="Ellipse_2" data-name="Ellipse 2" cx="57" cy="57" r="57" transform="translate(538 3281)" fill="#fff6f6"/>
    <g id="Group_479" data-name="Group 479" transform="translate(-3972.5 2346.939)">
      <g transform="matrix(1, 0, 0, 1, 4112.5, 934.06)" filter="url(#Path_700)">
        <path id="Path_700-2" data-name="Path 700" d="M404.888,56.057V242.214c0,29.851-23.906,49.986-52.786,54.049-33.706,4.743-68.431,2.768-139.383-2.195-39.841-2.789-119.947,1.83-159.933,2.195C23.634,296.529,0,272.064,0,242.214V56.057C0,26.206,23.684.251,52.786,2.008,79.811,3.639,119.563,10.093,161,6.14c21.681-2.068,51.927-4,83.117-5.125C283.827-.418,325.065-.546,352.1,2.008a65.232,65.232,0,0,1,6.983,1.04c25.761,5.257,45.8,25.591,45.8,53.009" transform="translate(92 27)" fill="#fff" stroke="#ddd" stroke-width="1"/>
      </g>
      <path id="Path_824" data-name="Path 824" d="M1491.425,1301.418c0,2.444,18.941,4.425,42.305,4.425s42.306-1.981,42.306-4.425-18.941-4.424-42.306-4.424-42.305,1.981-42.305,4.424" transform="translate(2769.925 -70.667)" fill="rgba(221,221,221,0.4)"/>
      <path id="Path_353" data-name="Path 353" d="M438.014,396.367c.177,1.687,23.693-.019,31.537-19.3,6.11-15.012,11.106-17.093,15.188-20.255-30.561,4.491-47.192,35.132-46.725,39.551" transform="translate(4024.798 793.259)" fill="#95999f"/>
      <path id="Path_354" data-name="Path 354" d="M440,396.744a9.087,9.087,0,0,1-1.249-.074c-.681-.1-1.027-.278-1.056-.554-.225-2.133,3.617-10.834,11.764-19.86,6.975-7.727,18.724-17.444,35.084-19.848l.54-.08-.431.335c-.515.4-1.034.773-1.585,1.17-3.667,2.644-8.232,5.936-13.558,19.026C463.057,392.721,446.1,396.743,440,396.744m44.029-39.968c-15.986,2.527-27.493,12.067-34.357,19.672-8.09,8.964-11.912,17.549-11.691,19.637.007.066.184.212.81.3,4.5.644,23.54-2.65,30.452-19.635,5.358-13.166,9.959-16.484,13.656-19.15.389-.28.763-.55,1.13-.825" transform="translate(4024.97 793.525)" fill="#373737"/>
      <path id="Path_357" data-name="Path 357" d="M448.077,331.476c-1.95,2.829-2.841,6.178-4.748,8.947-1.539,2.232-1.387,5.039-2.48,7.186-1.175,2.307-3.23,3.5-3.352,6.734-.058,1.511.324,2.768.188,4.139-.17,1.7-.885,3.28-.906,5.1-.016,1.27.377,2.486.41,3.7.1,3.4-5.31,8.98-.976,12.083-.235,2.871.286,3.892,1.769,3.937,3.164.092,3.048-3.135,3.668-4.907.715-2.049,3.036-3.39,3.261-6.2.115-1.45-.724-3.162-.568-4.483.117-.992,1.038-1.536,1.563-2.371,1.351-2.149,1.406-4.637,1.265-7.088-.086-1.443-1.216-3.737-1.04-5.031.337-2.492,2.875-3.126,2.1-6.713-.235-1.088-1.165-2.4-1.139-3.513.024-1.032.761-1.867,1.139-2.88,1.049-2.814-.116-5.748-.156-8.634" transform="translate(4026.697 807.097)" fill="#ffd936"/>
      <path id="Path_358" data-name="Path 358" d="M437.946,382.9l-.137,0a1.8,1.8,0,0,1-1.367-.546c-.518-.58-.688-1.65-.547-3.465-2.847-2.1-1.465-5.291-.244-8.108a10.854,10.854,0,0,0,1.225-4.04,12.387,12.387,0,0,0-.2-1.668,11.628,11.628,0,0,1-.212-2.036,12.831,12.831,0,0,1,.482-2.958,15.3,15.3,0,0,0,.423-2.151,10.128,10.128,0,0,0-.078-2.12,13.714,13.714,0,0,1-.11-2.011,7.823,7.823,0,0,1,2.025-4.774,13.452,13.452,0,0,0,1.343-2.02,12.98,12.98,0,0,0,.948-3.033,11.574,11.574,0,0,1,1.541-4.169,29.039,29.039,0,0,0,2.333-4.4,29.723,29.723,0,0,1,2.415-4.545l.255-.37.006.449a22.679,22.679,0,0,0,.295,2.914,11.5,11.5,0,0,1-.149,5.773,8.62,8.62,0,0,1-.5,1.052,4.064,4.064,0,0,0-.629,1.781,5.292,5.292,0,0,0,.605,2.039,7.96,7.96,0,0,1,.53,1.441,4.967,4.967,0,0,1-1.036,4.448,5.178,5.178,0,0,0-1.062,2.314,7.76,7.76,0,0,0,.515,2.731,11.2,11.2,0,0,1,.526,2.272c.14,2.44.081,5-1.287,7.173a6.083,6.083,0,0,1-.667.828,2.763,2.763,0,0,0-.876,1.483,6.782,6.782,0,0,0,.27,2.158,8,8,0,0,1,.3,2.319,7.344,7.344,0,0,1-1.9,4.019,8.272,8.272,0,0,0-1.37,2.217,11.8,11.8,0,0,0-.324,1.24c-.377,1.681-.845,3.765-3.347,3.765m9.834-51.515a32.283,32.283,0,0,0-2.144,4.132,29.221,29.221,0,0,1-2.358,4.445,11.361,11.361,0,0,0-1.5,4.069,13.151,13.151,0,0,1-.972,3.1,13.643,13.643,0,0,1-1.369,2.063,7.488,7.488,0,0,0-1.967,4.612,13.358,13.358,0,0,0,.108,1.97,10.4,10.4,0,0,1,.078,2.178,15.7,15.7,0,0,1-.43,2.193,12.64,12.64,0,0,0-.474,2.893,11.409,11.409,0,0,0,.208,1.986,12.8,12.8,0,0,1,.2,1.706,11,11,0,0,1-1.249,4.162c-1.245,2.872-2.533,5.841.214,7.808l.066.047-.006.081c-.145,1.778,0,2.805.467,3.33a1.514,1.514,0,0,0,1.162.451h.125c2.276,0,2.7-1.879,3.071-3.54a11.684,11.684,0,0,1,.333-1.272,8.469,8.469,0,0,1,1.413-2.3,7.115,7.115,0,0,0,1.841-3.867,7.809,7.809,0,0,0-.293-2.233,6.961,6.961,0,0,1-.275-2.256,3.015,3.015,0,0,1,.949-1.642,5.818,5.818,0,0,0,.635-.788c1.252-1.992,1.4-4.239,1.244-7a10.992,10.992,0,0,0-.513-2.207,7.891,7.891,0,0,1-.526-2.852,5.477,5.477,0,0,1,1.111-2.438,4.678,4.678,0,0,0,.992-4.225,7.782,7.782,0,0,0-.513-1.387,5.476,5.476,0,0,1-.629-2.161,4.347,4.347,0,0,1,.662-1.909,8.619,8.619,0,0,0,.486-1.017,11.286,11.286,0,0,0,.133-5.632c-.118-.821-.241-1.664-.283-2.5" transform="translate(4026.865 807.64)" fill="#373737"/>
      <path id="Path_361" data-name="Path 361" d="M379.6,314.495H315.329a11.93,11.93,0,0,1-11.918-11.917v-117.9h1.583v117.9a10.346,10.346,0,0,0,10.335,10.334H379.6Z" transform="translate(4098.302 887.266)" fill="#ddd"/>
      <rect id="Rectangle_49" data-name="Rectangle 49" width="28.912" height="5.093" transform="translate(4517.677 1202.016)" fill="#ddd"/>
      <rect id="Rectangle_50" data-name="Rectangle 50" width="49.149" height="5.093" transform="translate(4468.528 1202.016)" fill="#fff"/>
      <path id="Path_362" data-name="Path 362" d="M499.726,476.308H450.181v-5.49h49.545Zm-49.149-.4H499.33v-4.7H450.578Z" transform="translate(4018.148 731)" fill="#ddd"/>
      <rect id="Rectangle_51" data-name="Rectangle 51" width="28.865" height="122.13" transform="translate(4519.839 1079.886)" fill="#fff"/>
      <path id="Path_363" data-name="Path 363" d="M592.491,324.266H563.23V201.74h29.261Zm-28.865-.4H592.1V202.135H563.626Z" transform="translate(3956.411 877.948)" fill="red"/>
      <rect id="Rectangle_52" data-name="Rectangle 52" width="52.872" height="122.13" transform="translate(4466.967 1079.886)" fill="#c6dcfc"/>
      <path id="Path_364" data-name="Path 364" d="M500.01,324.266H446.742V201.74H500.01Zm-52.871-.4h52.475V202.135H447.139Z" transform="translate(4020.027 877.948)" fill="#0a58ca"/>
      <path id="Path_366" data-name="Path 366" d="M571.429,324.823h21.818V212.478l-21.818-.089Z" transform="translate(3951.933 872.133)" fill="#f2f2f2"/>
      <path id="Path_367" data-name="Path 367" d="M571.429,431.436h21.818V407.649l-21.818-.088Z" transform="translate(3951.933 765.546)" fill="#fee2e2"/>
      <path id="Path_368" data-name="Path 368" d="M593.207,431.395H570.993V407.123h.2l22.016.089Zm-21.818-.4h21.422V407.607l-21.422-.087Z" transform="translate(3952.171 765.785)" fill="red"/>
      <path id="Path_369" data-name="Path 369" d="M611.2,430.312l1.122.009V410.369l-1.122-.008Z" transform="translate(3930.215 764.017)" fill="red"/>
      <path id="Path_370" data-name="Path 370" d="M611.9,429.8l-.7-.006v.525l1.122.009V410.376l-.418,0Z" transform="translate(3930.215 764.011)" fill="red"/>
      <path id="Path_371" data-name="Path 371" d="M603.622,430.19l1.122.008V410.247l-1.122-.009Z" transform="translate(3934.352 764.084)" fill="red"/>
      <path id="Path_372" data-name="Path 372" d="M604.326,429.676l-.7-.005v.525l1.122.008V410.253l-.418,0Z" transform="translate(3934.352 764.078)" fill="red"/>
      <path id="Path_373" data-name="Path 373" d="M596.048,430.067l1.122.008V410.125l-1.122-.009Z" transform="translate(3938.488 764.151)" fill="red"/>
      <path id="Path_374" data-name="Path 374" d="M596.751,429.555l-.7-.005v.524l1.122.008v-19.95l-.418,0Z" transform="translate(3938.488 764.144)" fill="red"/>
      <path id="Path_375" data-name="Path 375" d="M588.473,429.944l1.122.008V410l-1.122-.009Z" transform="translate(3942.625 764.218)" fill="red"/>
      <path id="Path_376" data-name="Path 376" d="M589.177,429.432l-.7-.006v.525l1.122.008v-19.95l-.419,0Z" transform="translate(3942.625 764.211)" fill="red"/>
      <path id="Path_377" data-name="Path 377" d="M580.9,429.821l1.123.009V409.879l-1.123-.009Z" transform="translate(3946.763 764.285)" fill="red"/>
      <path id="Path_378" data-name="Path 378" d="M581.6,429.309l-.7-.006v.525l1.123.008V409.886l-.418,0Z" transform="translate(3946.763 764.278)" fill="red"/>
      <path id="Path_379" data-name="Path 379" d="M573.323,429.7l1.123.008V409.758l-1.123-.008Z" transform="translate(3950.899 764.351)" fill="red"/>
      <path id="Path_380" data-name="Path 380" d="M574.027,429.186l-.7-.005v.524l1.123.009V409.763l-.419,0Z" transform="translate(3950.899 764.346)" fill="red"/>
      <path id="Path_381" data-name="Path 381" d="M571.429,458.1h21.819v-1.577l-21.819-.087Z" transform="translate(3951.933 738.854)" fill="red"/>
      <path id="Path_382" data-name="Path 382" d="M615.9,323.324l1.517,1.6h.116V212.577l-1.634-.007Z" transform="translate(3927.647 872.034)" fill="red"/>
      <path id="Path_383" data-name="Path 383" d="M622.357,464.5c-.294,0-.529.314-.529.7s.236.706.529.708.527-.315.527-.7-.236-.708-.527-.709" transform="translate(3924.409 734.451)" fill="#ddd"/>
      <path id="Path_384" data-name="Path 384" d="M567.3,464.288c-.291,0-.527.314-.527.7s.236.707.527.708.529-.313.529-.7-.236-.706-.529-.708" transform="translate(3954.476 734.567)" fill="#ddd"/>
      <path id="Path_385" data-name="Path 385" d="M622.357,205.578c-.294,0-.529.315-.529.7s.236.707.529.709.527-.314.527-.7-.236-.707-.527-.708" transform="translate(3924.409 875.852)" fill="#ddd"/>
      <path id="Path_386" data-name="Path 386" d="M567.3,205.366c-.291,0-.527.315-.527.7s.236.707.527.709.529-.315.529-.7-.236-.707-.529-.708" transform="translate(3954.476 875.968)" fill="#ddd"/>
      <path id="Path_387" data-name="Path 387" d="M571.429,264.544l21.818.088V262l-21.818-.088Z" transform="translate(3951.933 845.086)" fill="#fff"/>
      <path id="Path_388" data-name="Path 388" d="M593.207,264.592l-22.214-.09v-3.024l22.214.089Zm-21.818-.484,21.422.087v-2.234l-21.422-.085Z" transform="translate(3952.171 845.324)" fill="red"/>
      <path id="Path_389" data-name="Path 389" d="M610.942,276.947a.6.6,0,1,0,.487.6.546.546,0,0,0-.487-.6" transform="translate(3930.62 836.877)" fill="#ddd"/>
      <path id="Path_390" data-name="Path 390" d="M598.622,276.9a.605.605,0,1,0,.487.6.55.55,0,0,0-.487-.6" transform="translate(3937.347 836.901)" fill="#ddd"/>
      <path id="Path_391" data-name="Path 391" d="M586.3,276.857a.606.606,0,1,0,.486.6.548.548,0,0,0-.486-.6" transform="translate(3944.076 836.926)" fill="#ddd"/>
      <path id="Path_392" data-name="Path 392" d="M573.984,276.818a.543.543,0,0,0-.485.591.5.5,0,1,0,.485-.591" transform="translate(3950.802 836.947)" fill="#ddd"/>
      <path id="Path_393" data-name="Path 393" d="M604.781,289.182a.605.605,0,1,0,.486.6.547.547,0,0,0-.486-.6" transform="translate(3933.984 830.195)" fill="#ddd"/>
      <path id="Path_394" data-name="Path 394" d="M592.462,289.14a.606.606,0,1,0,.486.6.545.545,0,0,0-.486-.6" transform="translate(3940.712 830.218)" fill="#ddd"/>
      <path id="Path_395" data-name="Path 395" d="M580.143,289.1a.605.605,0,1,0,.487.6.547.547,0,0,0-.487-.6" transform="translate(3947.439 830.242)" fill="#ddd"/>
      <path id="Path_396" data-name="Path 396" d="M610.942,301.465a.545.545,0,0,0-.486.592.5.5,0,1,0,.486-.592" transform="translate(3930.62 823.487)" fill="#ddd"/>
      <path id="Path_397" data-name="Path 397" d="M598.622,301.422a.544.544,0,0,0-.485.592.5.5,0,1,0,.485-.592" transform="translate(3937.347 823.51)" fill="#ddd"/>
      <path id="Path_398" data-name="Path 398" d="M586.3,301.378a.545.545,0,0,0-.487.591.5.5,0,1,0,.487-.591" transform="translate(3944.076 823.534)" fill="#ddd"/>
      <path id="Path_399" data-name="Path 399" d="M573.984,301.333a.606.606,0,1,0,.486.6.546.546,0,0,0-.486-.6" transform="translate(3950.802 823.559)" fill="#ddd"/>
      <path id="Path_400" data-name="Path 400" d="M610.942,325.984a.544.544,0,0,0-.486.591.5.5,0,1,0,.486-.591" transform="translate(3930.62 810.097)" fill="#ddd"/>
      <path id="Path_401" data-name="Path 401" d="M598.622,325.937a.605.605,0,1,0,.487.6.547.547,0,0,0-.487-.6" transform="translate(3937.347 810.122)" fill="#ddd"/>
      <path id="Path_402" data-name="Path 402" d="M586.3,325.9a.546.546,0,0,0-.487.592.5.5,0,1,0,.487-.592" transform="translate(3944.076 810.145)" fill="#ddd"/>
      <path id="Path_403" data-name="Path 403" d="M573.984,325.851a.605.605,0,1,0,.486.6.546.546,0,0,0-.486-.6" transform="translate(3950.802 810.169)" fill="#ddd"/>
      <path id="Path_404" data-name="Path 404" d="M604.781,313.7a.6.6,0,1,0,.486.595.544.544,0,0,0-.486-.595" transform="translate(3933.984 816.804)" fill="#ddd"/>
      <path id="Path_405" data-name="Path 405" d="M592.462,313.657a.606.606,0,1,0,.486.6.546.546,0,0,0-.486-.6" transform="translate(3940.712 816.829)" fill="#ddd"/>
      <path id="Path_406" data-name="Path 406" d="M580.143,313.616a.6.6,0,1,0,.487.6.546.546,0,0,0-.487-.6" transform="translate(3947.439 816.851)" fill="#ddd"/>
      <path id="Path_407" data-name="Path 407" d="M610.942,348.713a.605.605,0,1,0,.487.6.545.545,0,0,0-.487-.6" transform="translate(3930.62 797.684)" fill="#ddd"/>
      <path id="Path_408" data-name="Path 408" d="M598.622,348.671a.544.544,0,0,0-.485.591.5.5,0,1,0,.485-.591" transform="translate(3937.347 797.707)" fill="#ddd"/>
      <path id="Path_409" data-name="Path 409" d="M586.3,348.627a.546.546,0,0,0-.487.592.5.5,0,1,0,.487-.592" transform="translate(3944.076 797.731)" fill="#ddd"/>
      <path id="Path_410" data-name="Path 410" d="M573.984,348.584a.6.6,0,1,0,.486.6.545.545,0,0,0-.486-.6" transform="translate(3950.802 797.754)" fill="#ddd"/>
      <path id="Path_411" data-name="Path 411" d="M604.781,360.95a.605.605,0,1,0,.486.6.546.546,0,0,0-.486-.6" transform="translate(3933.984 791.001)" fill="#ddd"/>
      <path id="Path_412" data-name="Path 412" d="M592.462,360.908a.6.6,0,1,0,.486.6.545.545,0,0,0-.486-.6" transform="translate(3940.712 791.024)" fill="#ddd"/>
      <path id="Path_413" data-name="Path 413" d="M580.143,360.864a.605.605,0,1,0,.487.6.551.551,0,0,0-.487-.6" transform="translate(3947.439 791.048)" fill="#ddd"/>
      <path id="Path_414" data-name="Path 414" d="M610.942,373.23a.605.605,0,1,0,.487.6.547.547,0,0,0-.487-.6" transform="translate(3930.62 784.295)" fill="#ddd"/>
      <path id="Path_415" data-name="Path 415" d="M598.622,373.188a.605.605,0,1,0,.487.6.551.551,0,0,0-.487-.6" transform="translate(3937.347 784.318)" fill="#ddd"/>
      <path id="Path_416" data-name="Path 416" d="M586.3,373.144a.605.605,0,1,0,.486.6.547.547,0,0,0-.486-.6" transform="translate(3944.076 784.342)" fill="#ddd"/>
      <path id="Path_417" data-name="Path 417" d="M573.984,373.1a.605.605,0,1,0,.486.6.55.55,0,0,0-.486-.6" transform="translate(3950.802 784.365)" fill="#ddd"/>
      <path id="Path_418" data-name="Path 418" d="M610.942,397.751a.6.6,0,1,0,.487.6.545.545,0,0,0-.487-.6" transform="translate(3930.62 770.904)" fill="#ddd"/>
      <path id="Path_419" data-name="Path 419" d="M598.622,397.706a.605.605,0,1,0,.487.6.546.546,0,0,0-.487-.6" transform="translate(3937.347 770.928)" fill="#ddd"/>
      <path id="Path_420" data-name="Path 420" d="M586.3,397.665a.543.543,0,0,0-.487.59.5.5,0,1,0,.487-.59" transform="translate(3944.076 770.95)" fill="#ddd"/>
      <path id="Path_421" data-name="Path 421" d="M573.984,397.62a.606.606,0,1,0,.486.6.545.545,0,0,0-.486-.6" transform="translate(3950.802 770.975)" fill="#ddd"/>
      <path id="Path_422" data-name="Path 422" d="M604.781,385.469a.605.605,0,1,0,.486.6.546.546,0,0,0-.486-.6" transform="translate(3933.984 777.611)" fill="#ddd"/>
      <path id="Path_423" data-name="Path 423" d="M592.462,385.427a.545.545,0,0,0-.486.591.5.5,0,1,0,.486-.591" transform="translate(3940.712 777.634)" fill="#ddd"/>
      <path id="Path_424" data-name="Path 424" d="M580.143,385.383a.605.605,0,1,0,.487.595.546.546,0,0,0-.487-.595" transform="translate(3947.439 777.658)" fill="#ddd"/>
      <path id="Path_425" data-name="Path 425" d="M571.429,337.772l21.818.089v-2.63l-21.818-.087Z" transform="translate(3951.933 805.095)" fill="#fff"/>
      <path id="Path_426" data-name="Path 426" d="M593.207,337.82h-.2l-22.016-.09V334.7h.2l22.016.089Zm-21.818-.484,21.422.087v-2.234l-21.422-.086Z" transform="translate(3952.171 805.334)" fill="red"/>
      <path id="Path_427" data-name="Path 427" d="M612.014,276.947a.6.6,0,1,0,.485.6.546.546,0,0,0-.485-.6" transform="translate(3930.035 836.877)" fill="#fff"/>
      <path id="Path_428" data-name="Path 428" d="M599.694,276.9a.605.605,0,1,0,.487.6.545.545,0,0,0-.487-.6" transform="translate(3936.762 836.901)" fill="#fff"/>
      <path id="Path_429" data-name="Path 429" d="M587.375,276.857a.606.606,0,1,0,.486.6.548.548,0,0,0-.486-.6" transform="translate(3943.49 836.926)" fill="#fff"/>
      <path id="Path_430" data-name="Path 430" d="M575.055,276.818a.544.544,0,0,0-.487.591.5.5,0,1,0,.487-.591" transform="translate(3950.219 836.947)" fill="#fff"/>
      <path id="Path_431" data-name="Path 431" d="M605.853,289.182a.605.605,0,1,0,.486.6.547.547,0,0,0-.486-.6" transform="translate(3933.399 830.195)" fill="#fff"/>
      <path id="Path_432" data-name="Path 432" d="M593.534,289.14a.605.605,0,1,0,.487.6.546.546,0,0,0-.487-.6" transform="translate(3940.127 830.218)" fill="#fff"/>
      <path id="Path_433" data-name="Path 433" d="M581.215,289.1a.606.606,0,1,0,.486.6.547.547,0,0,0-.486-.6" transform="translate(3946.854 830.242)" fill="#fff"/>
      <path id="Path_434" data-name="Path 434" d="M612.014,301.465a.545.545,0,0,0-.487.592.5.5,0,1,0,.487-.592" transform="translate(3930.035 823.487)" fill="#fff"/>
      <path id="Path_435" data-name="Path 435" d="M599.694,301.422a.545.545,0,0,0-.485.592.5.5,0,1,0,.485-.592" transform="translate(3936.762 823.51)" fill="#fff"/>
      <path id="Path_436" data-name="Path 436" d="M587.375,301.378a.545.545,0,0,0-.487.591.5.5,0,1,0,.487-.591" transform="translate(3943.49 823.534)" fill="#fff"/>
      <path id="Path_437" data-name="Path 437" d="M575.055,301.333a.606.606,0,1,0,.486.6.546.546,0,0,0-.486-.6" transform="translate(3950.219 823.559)" fill="#fff"/>
      <path id="Path_438" data-name="Path 438" d="M612.014,325.984a.544.544,0,0,0-.487.591.5.5,0,1,0,.487-.591" transform="translate(3930.035 810.097)" fill="#fff"/>
      <path id="Path_439" data-name="Path 439" d="M599.694,325.937a.605.605,0,1,0,.487.6.547.547,0,0,0-.487-.6" transform="translate(3936.762 810.122)" fill="#fff"/>
      <path id="Path_440" data-name="Path 440" d="M587.375,325.9a.546.546,0,0,0-.487.592.5.5,0,1,0,.487-.592" transform="translate(3943.49 810.145)" fill="#fff"/>
      <path id="Path_441" data-name="Path 441" d="M575.055,325.851a.605.605,0,1,0,.486.6.547.547,0,0,0-.486-.6" transform="translate(3950.219 810.169)" fill="#fff"/>
      <path id="Path_442" data-name="Path 442" d="M605.853,313.7a.6.6,0,1,0,.486.595.544.544,0,0,0-.486-.595" transform="translate(3933.399 816.804)" fill="#fff"/>
      <path id="Path_443" data-name="Path 443" d="M593.534,313.657a.606.606,0,1,0,.487.6.547.547,0,0,0-.487-.6" transform="translate(3940.127 816.829)" fill="#fff"/>
      <path id="Path_444" data-name="Path 444" d="M581.215,313.616a.605.605,0,1,0,.486.6.546.546,0,0,0-.486-.6" transform="translate(3946.854 816.851)" fill="#fff"/>
      <path id="Path_445" data-name="Path 445" d="M612.014,348.713a.606.606,0,1,0,.485.6.545.545,0,0,0-.485-.6" transform="translate(3930.035 797.684)" fill="#fff"/>
      <path id="Path_446" data-name="Path 446" d="M599.694,348.671a.545.545,0,0,0-.485.591.5.5,0,1,0,.485-.591" transform="translate(3936.762 797.707)" fill="#fff"/>
      <path id="Path_447" data-name="Path 447" d="M587.375,348.627a.546.546,0,0,0-.487.592.5.5,0,1,0,.487-.592" transform="translate(3943.49 797.731)" fill="#fff"/>
      <path id="Path_448" data-name="Path 448" d="M575.055,348.584a.6.6,0,1,0,.486.6.546.546,0,0,0-.486-.6" transform="translate(3950.219 797.754)" fill="#fff"/>
      <path id="Path_449" data-name="Path 449" d="M605.853,360.95a.605.605,0,1,0,.486.6.546.546,0,0,0-.486-.6" transform="translate(3933.399 791.001)" fill="#fff"/>
      <path id="Path_450" data-name="Path 450" d="M593.534,360.908a.6.6,0,1,0,.487.6.546.546,0,0,0-.487-.6" transform="translate(3940.127 791.024)" fill="#fff"/>
      <path id="Path_451" data-name="Path 451" d="M581.215,360.864a.606.606,0,1,0,.486.6.546.546,0,0,0-.486-.6" transform="translate(3946.854 791.048)" fill="#fff"/>
      <path id="Path_452" data-name="Path 452" d="M612.014,373.23a.605.605,0,1,0,.485.6.547.547,0,0,0-.485-.6" transform="translate(3930.035 784.295)" fill="#fff"/>
      <path id="Path_453" data-name="Path 453" d="M599.694,373.188a.605.605,0,1,0,.487.6.545.545,0,0,0-.487-.6" transform="translate(3936.762 784.318)" fill="#fff"/>
      <path id="Path_454" data-name="Path 454" d="M587.375,373.144a.605.605,0,1,0,.486.6.547.547,0,0,0-.486-.6" transform="translate(3943.49 784.342)" fill="#fff"/>
      <path id="Path_455" data-name="Path 455" d="M575.055,373.1a.605.605,0,1,0,.486.6.545.545,0,0,0-.486-.6" transform="translate(3950.219 784.365)" fill="#fff"/>
      <path id="Path_456" data-name="Path 456" d="M612.014,397.751a.6.6,0,1,0,.485.6.545.545,0,0,0-.485-.6" transform="translate(3930.035 770.904)" fill="#fff"/>
      <path id="Path_457" data-name="Path 457" d="M599.694,397.706a.605.605,0,1,0,.487.6.546.546,0,0,0-.487-.6" transform="translate(3936.762 770.928)" fill="#fff"/>
      <path id="Path_458" data-name="Path 458" d="M587.375,397.665a.543.543,0,0,0-.487.59.5.5,0,1,0,.487-.59" transform="translate(3943.49 770.95)" fill="#fff"/>
      <path id="Path_459" data-name="Path 459" d="M575.055,397.62a.606.606,0,1,0,.486.6.546.546,0,0,0-.486-.6" transform="translate(3950.219 770.975)" fill="#fff"/>
      <path id="Path_460" data-name="Path 460" d="M605.853,385.469a.605.605,0,1,0,.486.6.546.546,0,0,0-.486-.6" transform="translate(3933.399 777.611)" fill="#fff"/>
      <path id="Path_461" data-name="Path 461" d="M593.534,385.427a.545.545,0,0,0-.487.591.5.5,0,1,0,.487-.591" transform="translate(3940.127 777.634)" fill="#fff"/>
      <path id="Path_462" data-name="Path 462" d="M581.215,385.383a.605.605,0,1,0,.486.595.546.546,0,0,0-.486-.595" transform="translate(3946.854 777.658)" fill="#fff"/>
      <path id="Path_463" data-name="Path 463" d="M604.525,236.646l3.169.012v-9.611l-3.169-.014Z" transform="translate(3933.859 864.135)" fill="#fff"/>
      <path id="Path_464" data-name="Path 464" d="M607.652,236.617l-3.564-.014V226.6l3.564.015Zm-3.168-.408,2.772.01V227l-2.772-.012Z" transform="translate(3934.097 864.374)" fill="#ddd"/>
      <path id="Path_465" data-name="Path 465" d="M590.172,236.587l3.169.014v-9.612l-3.169-.013Z" transform="translate(3941.697 864.167)" fill="#c6dcfc"/>
      <path id="Path_466" data-name="Path 466" d="M593.3,236.56l-3.565-.015V226.539l3.565.014Zm-3.169-.409,2.772.012v-9.216l-2.772-.011Z" transform="translate(3941.935 864.405)" fill="#0a58ca"/>
      <path id="Path_467" data-name="Path 467" d="M575.822,236.531l3.168.012v-9.612l-3.168-.011Z" transform="translate(3949.534 864.197)" fill="#fee2e2"/>
      <path id="Path_468" data-name="Path 468" d="M578.95,236.5l-3.565-.014V226.483l3.565.013Zm-3.169-.408,2.772.01V226.89l-2.772-.01Z" transform="translate(3949.772 864.436)" fill="red"/>
      <path id="Path_469" data-name="Path 469" d="M458.642,252.533l41.318.023V224.522H458.642Z" transform="translate(4013.528 865.507)" fill="#0a58ca"/>
      <path id="Path_470" data-name="Path 470" d="M499.919,252.515l-41.714-.022V224.086h41.714ZM458.6,252.1l40.922.022V224.482H458.6Z" transform="translate(4013.767 865.745)" fill="#ddd"/>
      <rect id="Rectangle_54" data-name="Rectangle 54" width="41.318" height="28.093" transform="translate(4472.17 1126.837)" fill="#fff"/>
      <path id="Path_471" data-name="Path 471" d="M499.92,333.671H458.206V305.182H499.92Zm-41.318-.4h40.922v-27.7H458.6Z" transform="translate(4013.766 821.457)" fill="#0a58ca"/>
      <path id="Path_472" data-name="Path 472" d="M458.642,414.983l41.318-.085V386.713H458.642Z" transform="translate(4013.528 776.932)" fill="#fff"/>
      <path id="Path_473" data-name="Path 473" d="M458.2,414.942V386.277h41.714v28.58h-.2Zm.4-28.27v27.873l40.922-.084V386.673Z" transform="translate(4013.767 777.17)" fill="#0a58ca"/>
      <rect id="Rectangle_277" data-name="Rectangle 277" width="6.59" height="5.261" transform="translate(4399.321 1064.811)" fill="#fff"/>
      <path id="Path_477" data-name="Path 477" d="M304.691,174.183h-6.986v-5.657h6.986Zm-6.59-.4H304.3v-4.866H298.1Z" transform="translate(4101.418 896.087)" fill="#ddd"/>
      <path id="Path_478" data-name="Path 478" d="M304.258,183.138l.531-2.585H298.76l.53,2.585a1.451,1.451,0,0,0,1.423,1.161h2.122a1.451,1.451,0,0,0,1.423-1.161" transform="translate(4100.842 889.519)" fill="#efefef"/>
      <path id="Path_479" data-name="Path 479" d="M302.543,184.259h-2.122a1.656,1.656,0,0,1-1.617-1.32l-.579-2.822h6.514l-.579,2.822a1.656,1.656,0,0,1-1.617,1.32m-3.833-3.746.482,2.347a1.259,1.259,0,0,0,1.229,1h2.122a1.258,1.258,0,0,0,1.229-1h0l.482-2.347Z" transform="translate(4101.134 889.757)" fill="#ddd"/>
      <rect id="Rectangle_278" data-name="Rectangle 278" width="4.72" height="4.848" transform="translate(4400.256 1059.955)" fill="#fff"/>
      <path id="Path_480" data-name="Path 480" d="M304.88,163.072h-5.115v-5.244h5.115Zm-4.719-.4h4.324v-4.453h-4.324Z" transform="translate(4100.293 901.93)" fill="#ddd"/>
      <rect id="Rectangle_279" data-name="Rectangle 279" width="0.481" height="2.161" transform="translate(4404.206 1060.196)" fill="#373737"/>
      <rect id="Rectangle_280" data-name="Rectangle 280" width="0.481" height="2.161" transform="translate(4403.479 1060.196)" fill="#373737"/>
      <rect id="Rectangle_281" data-name="Rectangle 281" width="0.481" height="2.161" transform="translate(4402.751 1060.196)" fill="#373737"/>
      <rect id="Rectangle_282" data-name="Rectangle 282" width="0.482" height="2.161" transform="translate(4402.023 1060.196)" fill="#373737"/>
      <rect id="Rectangle_283" data-name="Rectangle 283" width="0.482" height="2.161" transform="translate(4401.295 1060.196)" fill="#373737"/>
      <rect id="Rectangle_284" data-name="Rectangle 284" width="0.482" height="2.161" transform="translate(4400.568 1060.196)" fill="#373737"/>
      <path id="Path_481" data-name="Path 481" d="M177.832,278.075l-.407-1.53,12.012-3.192a8.012,8.012,0,0,0,5.947-7.734v-80.94h1.583v80.94a9.6,9.6,0,0,1-7.123,9.263Z" transform="translate(4167.105 887.266)" fill="#ddd"/>
      <rect id="Rectangle_285" data-name="Rectangle 285" width="6.59" height="5.261" transform="translate(4360.137 1064.811)" fill="#fff"/>
      <path id="Path_482" data-name="Path 482" d="M218.359,174.183h-6.986v-5.657h6.986Zm-6.59-.4h6.195v-4.866h-6.195Z" transform="translate(4148.565 896.087)" fill="#ddd"/>
      <path id="Path_483" data-name="Path 483" d="M217.926,183.138l.531-2.585h-6.029l.53,2.585a1.452,1.452,0,0,0,1.423,1.161H216.5a1.451,1.451,0,0,0,1.423-1.161" transform="translate(4147.989 889.519)" fill="#efefef"/>
      <path id="Path_484" data-name="Path 484" d="M216.211,184.259H214.09a1.656,1.656,0,0,1-1.617-1.32l-.579-2.822h6.514l-.579,2.822a1.656,1.656,0,0,1-1.617,1.32m-3.832-3.746.481,2.347a1.259,1.259,0,0,0,1.23,1h2.121a1.259,1.259,0,0,0,1.23-1h0l.482-2.347Z" transform="translate(4148.281 889.757)" fill="#ddd"/>
      <rect id="Rectangle_286" data-name="Rectangle 286" width="4.719" height="4.848" transform="translate(4361.072 1059.955)" fill="#fff"/>
      <path id="Path_485" data-name="Path 485" d="M218.549,163.072h-5.115v-5.244h5.115Zm-4.719-.4h4.324v-4.453H213.83Z" transform="translate(4147.44 901.93)" fill="#ddd"/>
      <rect id="Rectangle_287" data-name="Rectangle 287" width="0.481" height="2.161" transform="translate(4365.021 1060.196)" fill="#373737"/>
      <rect id="Rectangle_288" data-name="Rectangle 288" width="0.481" height="2.161" transform="translate(4364.294 1060.196)" fill="#373737"/>
      <rect id="Rectangle_289" data-name="Rectangle 289" width="0.481" height="2.161" transform="translate(4363.567 1060.196)" fill="#373737"/>
      <rect id="Rectangle_290" data-name="Rectangle 290" width="0.482" height="2.161" transform="translate(4362.838 1060.196)" fill="#373737"/>
      <rect id="Rectangle_291" data-name="Rectangle 291" width="0.482" height="2.161" transform="translate(4362.111 1060.196)" fill="#373737"/>
      <rect id="Rectangle_292" data-name="Rectangle 292" width="0.482" height="2.161" transform="translate(4361.384 1060.196)" fill="#373737"/>
      <path id="Path_486" data-name="Path 486" d="M244.819,23.666H238.5A34.126,34.126,0,0,0,207.882.483V.436H194.624V2.445A34.186,34.186,0,0,0,173.2,25.791a25.1,25.1,0,1,0-4.341,49.828h75.962a25.977,25.977,0,0,0,0-51.953" transform="translate(4185.495 987.884)" fill="#c6dcfc"/>
      <path id="Path_487" data-name="Path 487" d="M244.58,75.579H168.618a25.3,25.3,0,1,1,4.2-50.251,34.3,34.3,0,0,1,21.373-23.26V0H207.84V.057A34.539,34.539,0,0,1,238.405,23.23h6.175a26.175,26.175,0,0,1,0,52.349M168.618,25.369a24.907,24.907,0,0,0,0,49.814H244.58a25.779,25.779,0,0,0,0-51.557h-6.459l-.044-.135A34.134,34.134,0,0,0,207.633.442l-.188-.009V.4H194.583V2.345l-.131.047A33.907,33.907,0,0,0,173.15,25.6l-.047.175-.178-.031a25.177,25.177,0,0,0-4.307-.378" transform="translate(4185.733 988.122)" fill="#ddd"/>
      <path id="Path_488" data-name="Path 488" d="M222.072,23.666a26.063,26.063,0,0,0-6.075.722,34.121,34.121,0,0,0-65.546,1.4,25.1,25.1,0,1,0-4.341,49.828h75.962a25.977,25.977,0,0,0,0-51.953" transform="translate(4197.917 987.884)" fill="#fff"/>
      <path id="Path_489" data-name="Path 489" d="M221.834,75.579H145.872a25.3,25.3,0,1,1,4.2-50.251,34.319,34.319,0,0,1,65.823-1.413,26.174,26.174,0,1,1,5.942,51.665M145.872,25.369a24.907,24.907,0,0,0,0,49.814h75.962a25.779,25.779,0,1,0-6.029-50.842l-.18.044-.055-.177A33.923,33.923,0,0,0,150.4,25.6l-.047.175-.178-.031a25.181,25.181,0,0,0-4.307-.378" transform="translate(4198.155 988.122)" fill="#ddd"/>
      <path id="Path_490" data-name="Path 490" d="M227.611,33.81a21.472,21.472,0,0,0-5,.595l-4.188,1L217.14,31.3a29.516,29.516,0,0,0-56.7,1.213l-1.081,4.082-4.161-.726a20.5,20.5,0,1,0-3.55,40.689h75.962a21.373,21.373,0,1,0,0-42.745" transform="translate(4192.377 982.344)" fill="#fff"/>
      <path id="Path_491" data-name="Path 491" d="M227.373,76.516H151.411a20.7,20.7,0,0,1,0-41.4,20.936,20.936,0,0,1,3.584.315l3.982.694,1.035-3.907A29.714,29.714,0,0,1,217.091,31l1.227,3.934,4.007-.961a21.57,21.57,0,1,1,5.049,42.542m-75.962-41a20.3,20.3,0,0,0,0,40.606h75.962a21.175,21.175,0,1,0-4.956-41.76l-4.367,1.047-1.336-4.288a29.318,29.318,0,0,0-56.319,1.2l-1.128,4.258-4.339-.758a20.525,20.525,0,0,0-3.516-.31" transform="translate(4192.615 982.582)" fill="#ddd"/>
      <path id="Path_495" data-name="Path 495" d="M250.28,28.009a7.213,7.213,0,1,0,7.213,7.212,7.213,7.213,0,0,0-7.213-7.212" transform="translate(4131.257 972.826)" fill="#fff"/>
      <path id="Path_496" data-name="Path 496" d="M250.042,42.395a7.411,7.411,0,1,1,7.41-7.411,7.42,7.42,0,0,1-7.41,7.411m0-14.426a7.015,7.015,0,1,0,7.015,7.014,7.023,7.023,0,0,0-7.015-7.014" transform="translate(4131.495 973.064)" fill="red"/>
      <path id="Path_498" data-name="Path 498" d="M312.194,76.6a1.895,1.895,0,1,1,1.9-1.895,1.9,1.9,0,0,1-1.9,1.895" transform="translate(4094.541 948.357)" fill="#fee2e2"/>
      <path id="Path_499" data-name="Path 499" d="M311.956,72.775a1.7,1.7,0,1,1-1.7,1.7,1.7,1.7,0,0,1,1.7-1.7m0-.4a2.093,2.093,0,1,0,2.093,2.092,2.093,2.093,0,0,0-2.093-2.092" transform="translate(4094.779 948.595)" fill="#fff"/>
      <path id="Path_501" data-name="Path 501" d="M333.733,76.6a1.895,1.895,0,1,1,1.895-1.895,1.9,1.9,0,0,1-1.895,1.895" transform="translate(4082.778 948.357)" fill="#c6dcfc"/>
      <path id="Path_502" data-name="Path 502" d="M333.495,72.775a1.7,1.7,0,1,1-1.7,1.7,1.7,1.7,0,0,1,1.7-1.7m0-.4a2.093,2.093,0,1,0,2.093,2.092,2.093,2.093,0,0,0-2.093-2.092" transform="translate(4083.016 948.595)" fill="#fff"/>
      <path id="Path_504" data-name="Path 504" d="M312.194,92.986a1.9,1.9,0,1,1,1.9-1.895,1.9,1.9,0,0,1-1.9,1.895" transform="translate(4094.541 939.411)" fill="#efefef"/>
      <path id="Path_505" data-name="Path 505" d="M311.956,89.156a1.7,1.7,0,1,1-1.7,1.7,1.7,1.7,0,0,1,1.7-1.7m0-.4a2.093,2.093,0,1,0,2.093,2.093,2.093,2.093,0,0,0-2.093-2.093" transform="translate(4094.779 939.649)" fill="#fff"/>
      <path id="Path_507" data-name="Path 507" d="M333.733,92.986a1.9,1.9,0,1,1,1.895-1.895,1.9,1.9,0,0,1-1.895,1.895" transform="translate(4082.778 939.411)" fill="#ddd"/>
      <path id="Path_508" data-name="Path 508" d="M333.495,89.156a1.7,1.7,0,1,1-1.7,1.7,1.7,1.7,0,0,1,1.7-1.7m0-.4a2.093,2.093,0,1,0,2.093,2.093,2.093,2.093,0,0,0-2.093-2.093" transform="translate(4083.016 939.649)" fill="#fff"/>
      <rect id="Rectangle_294" data-name="Rectangle 294" width="1.393" height="6.59" transform="translate(4345.28 1024.021)" fill="#fff"/>
      <path id="Path_509" data-name="Path 509" d="M180.429,85.645H178.64V78.659h1.789Zm-1.393-.4h1V79.055h-1Z" transform="translate(4166.442 945.165)" fill="#ddd"/>
      <path id="Path_510" data-name="Path 510" d="M255.744,35.362a.82.82,0,0,0-.8,1.432,2.841,2.841,0,1,1-2.758,0,.82.82,0,1,0-.8-1.432,4.481,4.481,0,1,0,4.354,0" transform="translate(4127.97 968.867)" fill="red"/>
      <path id="Path_511" data-name="Path 511" d="M257.973,32.695a.82.82,0,0,0-.82.82V37.78a.82.82,0,1,0,1.639,0V33.515a.82.82,0,0,0-.82-.82" transform="translate(4123.564 970.267)" fill="red"/>
      <rect id="Rectangle_296" data-name="Rectangle 296" width="1.393" height="6.591" transform="translate(4345.28 1036.387)" fill="#fff"/>
      <path id="Path_512" data-name="Path 512" d="M180.429,112.888H178.64V105.9h1.789Zm-1.393-.4h1V106.3h-1Z" transform="translate(4166.442 930.287)" fill="#ddd"/>
      <rect id="Rectangle_298" data-name="Rectangle 298" width="1.393" height="6.591" transform="translate(4345.28 1048.752)" fill="#fff"/>
      <path id="Path_513" data-name="Path 513" d="M180.429,140.131H178.64v-6.986h1.789Zm-1.393-.4h1v-6.195h-1Z" transform="translate(4166.442 915.409)" fill="#ddd"/>
      <rect id="Rectangle_300" data-name="Rectangle 300" width="1.393" height="6.59" transform="translate(4370.187 1024.021)" fill="#fff"/>
      <path id="Path_514" data-name="Path 514" d="M235.3,85.645h-1.789V78.659H235.3Zm-1.393-.4h1V79.055h-1Z" transform="translate(4136.473 945.165)" fill="#ddd"/>
      <rect id="Rectangle_302" data-name="Rectangle 302" width="1.393" height="6.591" transform="translate(4370.187 1036.387)" fill="#fff"/>
      <path id="Path_515" data-name="Path 515" d="M235.3,112.888h-1.789V105.9H235.3Zm-1.393-.4h1V106.3h-1Z" transform="translate(4136.473 930.287)" fill="#ddd"/>
      <rect id="Rectangle_304" data-name="Rectangle 304" width="1.393" height="6.591" transform="translate(4370.187 1048.752)" fill="#fff"/>
      <path id="Path_516" data-name="Path 516" d="M235.3,140.131h-1.789v-6.986H235.3Zm-1.393-.4h1v-6.195h-1Z" transform="translate(4136.473 915.409)" fill="#ddd"/>
      <rect id="Rectangle_305" data-name="Rectangle 305" width="22.883" height="14.354" transform="translate(4400.607 1037.251)" fill="#fff" stroke="#ddd" stroke-width="1"/>
      <rect id="Rectangle_306" data-name="Rectangle 306" width="2.938" height="14.354" transform="translate(4400.607 1037.251)" fill="#fff"/>
      <path id="Path_517" data-name="Path 517" d="M303.873,122.555H300.54v-14.75h3.333Zm-2.937-.4h2.542V108.2h-2.542Z" transform="translate(4099.87 929.248)" fill="#ddd"/>
      <path id="Path_518" data-name="Path 518" d="M275.247,99.678V90.687a5.3,5.3,0,0,0-5.292-5.292h-3.733v1.093h3.733a4.2,4.2,0,0,1,4.2,4.2v8.991a5.3,5.3,0,0,0,5.292,5.292h25.434v-1.093H279.445a4.2,4.2,0,0,1-4.2-4.2" transform="translate(4118.612 941.486)" fill="#fff"/>
      <path id="Path_519" data-name="Path 519" d="M304.839,104.93H279.207a5.5,5.5,0,0,1-5.489-5.491v-8.99a4.006,4.006,0,0,0-4-4h-3.931V84.959h3.931a5.5,5.5,0,0,1,5.49,5.49v8.99a4.006,4.006,0,0,0,4,4h25.632ZM266.182,86.052h3.535a4.4,4.4,0,0,1,4.4,4.4v8.99a5.1,5.1,0,0,0,5.094,5.095h25.236v-.7H279.207a4.4,4.4,0,0,1-4.4-4.4v-8.99a5.1,5.1,0,0,0-5.094-5.095h-3.535Z" transform="translate(4118.85 941.725)" fill="#ddd"/>
      <path id="Path_520" data-name="Path 520" d="M225.458,118.426v-2.738a3.472,3.472,0,0,0-3.468-3.469H210.93v1.094h11.06a2.378,2.378,0,0,1,2.375,2.375v2.738a3.472,3.472,0,0,0,3.468,3.467h46.851V120.8H227.833a2.378,2.378,0,0,1-2.375-2.374" transform="translate(4148.808 926.837)" fill="#c6dcfc"/>
      <rect id="Rectangle_307" data-name="Rectangle 307" width="5.261" height="6.59" transform="translate(4376.435 1024.021)" fill="#fff"/>
      <path id="Path_521" data-name="Path 521" d="M252.94,85.645h-5.657V78.659h5.657Zm-5.261-.4h4.866V79.055h-4.866Z" transform="translate(4128.955 945.165)" fill="#ddd"/>
      <path id="Path_522" data-name="Path 522" d="M261.895,80.244l-2.585-.53v6.028l2.585-.53a1.452,1.452,0,0,0,1.161-1.423V81.667a1.451,1.451,0,0,0-1.161-1.423" transform="translate(4122.386 944.589)" fill="#efefef"/>
      <path id="Path_523" data-name="Path 523" d="M258.874,85.693V79.179l2.822.579a1.657,1.657,0,0,1,1.319,1.617V83.5a1.656,1.656,0,0,1-1.319,1.617Zm.4-6.028v5.543l2.347-.481a1.26,1.26,0,0,0,1-1.23V81.375a1.259,1.259,0,0,0-1-1.23h0Z" transform="translate(4122.625 944.881)" fill="#ddd"/>
      <rect id="Rectangle_308" data-name="Rectangle 308" width="4.848" height="4.719" transform="translate(4371.58 1024.957)" fill="#fff"/>
      <path id="Path_524" data-name="Path 524" d="M241.829,85.835h-5.243V80.719h5.243Zm-4.848-.4h4.452V81.115h-4.452Z" transform="translate(4134.796 944.04)" fill="#ddd"/>
      <rect id="Rectangle_309" data-name="Rectangle 309" width="2.161" height="0.481" transform="translate(4371.821 1025.246)" fill="#ddd"/>
      <rect id="Rectangle_310" data-name="Rectangle 310" width="2.161" height="0.481" transform="translate(4371.821 1025.973)" fill="#ddd"/>
      <rect id="Rectangle_311" data-name="Rectangle 311" width="2.161" height="0.481" transform="translate(4371.821 1026.701)" fill="#ddd"/>
      <rect id="Rectangle_312" data-name="Rectangle 312" width="2.161" height="0.482" transform="translate(4371.821 1027.428)" fill="#ddd"/>
      <rect id="Rectangle_313" data-name="Rectangle 313" width="2.161" height="0.482" transform="translate(4371.821 1028.155)" fill="#ddd"/>
      <rect id="Rectangle_314" data-name="Rectangle 314" width="2.161" height="0.482" transform="translate(4371.821 1028.883)" fill="#ddd"/>
      <rect id="Rectangle_315" data-name="Rectangle 315" width="5.261" height="6.591" transform="translate(4351.528 1036.387)" fill="#fff"/>
      <path id="Path_525" data-name="Path 525" d="M198.065,112.888h-5.657V105.9h5.657Zm-5.261-.4h4.866V106.3H192.8Z" transform="translate(4158.923 930.287)" fill="#ddd"/>
      <path id="Path_526" data-name="Path 526" d="M207.021,107.487l-2.585-.53v6.028l2.585-.53a1.453,1.453,0,0,0,1.161-1.423v-2.121a1.452,1.452,0,0,0-1.161-1.423" transform="translate(4152.354 929.711)" fill="#efefef"/>
      <path id="Path_527" data-name="Path 527" d="M204,112.936v-6.514l2.823.579a1.657,1.657,0,0,1,1.319,1.617v2.121a1.657,1.657,0,0,1-1.319,1.617Zm.4-6.029v5.543l2.347-.481a1.259,1.259,0,0,0,1-1.23v-2.121a1.259,1.259,0,0,0-1-1.23Z" transform="translate(4152.593 930.003)" fill="#ddd"/>
      <rect id="Rectangle_316" data-name="Rectangle 316" width="4.848" height="4.719" transform="translate(4346.673 1037.323)" fill="#fff"/>
      <path id="Path_528" data-name="Path 528" d="M186.955,113.078h-5.244v-5.116h5.244Zm-4.848-.4h4.452v-4.324h-4.452Z" transform="translate(4164.765 929.162)" fill="#ddd"/>
      <rect id="Rectangle_317" data-name="Rectangle 317" width="2.161" height="0.481" transform="translate(4346.915 1037.611)" fill="#ddd"/>
      <rect id="Rectangle_318" data-name="Rectangle 318" width="2.161" height="0.481" transform="translate(4346.915 1038.339)" fill="#ddd"/>
      <rect id="Rectangle_319" data-name="Rectangle 319" width="2.161" height="0.481" transform="translate(4346.915 1039.066)" fill="#ddd"/>
      <rect id="Rectangle_320" data-name="Rectangle 320" width="2.161" height="0.482" transform="translate(4346.915 1039.793)" fill="#ddd"/>
      <rect id="Rectangle_321" data-name="Rectangle 321" width="2.161" height="0.482" transform="translate(4346.915 1040.521)" fill="#ddd"/>
      <rect id="Rectangle_322" data-name="Rectangle 322" width="2.161" height="0.482" transform="translate(4346.915 1041.249)" fill="#ddd"/>
      <rect id="Rectangle_323" data-name="Rectangle 323" width="5.261" height="6.591" transform="translate(4351.528 1048.752)" fill="#fff"/>
      <path id="Path_529" data-name="Path 529" d="M198.065,140.131h-5.657v-6.986h5.657Zm-5.261-.4h4.866v-6.195H192.8Z" transform="translate(4158.923 915.409)" fill="#ddd"/>
      <path id="Path_530" data-name="Path 530" d="M207.021,134.731l-2.585-.53v6.028l2.585-.53a1.452,1.452,0,0,0,1.161-1.423v-2.122a1.453,1.453,0,0,0-1.161-1.423" transform="translate(4152.354 914.833)" fill="#efefef"/>
      <path id="Path_531" data-name="Path 531" d="M204,140.18v-6.514l2.823.579a1.657,1.657,0,0,1,1.319,1.617v2.122a1.656,1.656,0,0,1-1.319,1.617Zm.4-6.028v5.543l2.347-.482a1.259,1.259,0,0,0,1-1.229v-2.122a1.259,1.259,0,0,0-1-1.23Z" transform="translate(4152.593 915.125)" fill="#ddd"/>
      <rect id="Rectangle_324" data-name="Rectangle 324" width="4.848" height="4.719" transform="translate(4346.673 1049.688)" fill="#fff"/>
      <path id="Path_532" data-name="Path 532" d="M186.955,140.321h-5.244v-5.115h5.244Zm-4.848-.4h4.452V135.6h-4.452Z" transform="translate(4164.765 914.284)" fill="#ddd"/>
      <rect id="Rectangle_325" data-name="Rectangle 325" width="2.161" height="0.481" transform="translate(4346.915 1049.976)" fill="#ddd"/>
      <rect id="Rectangle_326" data-name="Rectangle 326" width="2.161" height="0.481" transform="translate(4346.915 1050.704)" fill="#ddd"/>
      <rect id="Rectangle_327" data-name="Rectangle 327" width="2.161" height="0.481" transform="translate(4346.915 1051.432)" fill="#ddd"/>
      <rect id="Rectangle_328" data-name="Rectangle 328" width="2.161" height="0.482" transform="translate(4346.915 1052.159)" fill="#ddd"/>
      <rect id="Rectangle_329" data-name="Rectangle 329" width="2.161" height="0.482" transform="translate(4346.915 1052.886)" fill="#ddd"/>
      <rect id="Rectangle_330" data-name="Rectangle 330" width="2.161" height="0.482" transform="translate(4346.915 1053.614)" fill="#ddd"/>
      <path id="Path_533" data-name="Path 533" d="M229.593,137.389a.347.347,0,0,1-.345.346H212.689v1.092h16.559a1.439,1.439,0,0,0,1.438-1.438.347.347,0,0,1,.346-.347h44.612v-1.093H231.032a1.441,1.441,0,0,0-1.439,1.44" transform="translate(4147.847 913.878)" fill="#fff"/>
      <path id="Path_534" data-name="Path 534" d="M229.01,138.787H212.254V137.3H229.01a.148.148,0,0,0,.148-.147,1.639,1.639,0,0,1,1.637-1.638H275.6V137h-44.81a.149.149,0,0,0-.148.149,1.638,1.638,0,0,1-1.637,1.636m-16.36-.4h16.36a1.242,1.242,0,0,0,1.241-1.24.545.545,0,0,1,.543-.545h44.414v-.7H230.794a1.243,1.243,0,0,0-1.241,1.242.544.544,0,0,1-.544.543H212.65Z" transform="translate(4148.084 914.116)" fill="#ddd"/>
      <rect id="Rectangle_331" data-name="Rectangle 331" width="2.626" height="58.49" transform="translate(4374.182 1171.941)" fill="#2c3e50"/>
      <path id="Path_535" data-name="Path 535" d="M245.339,463.44h-3.022V404.554h3.022Zm-2.627-.4h2.231V404.95h-2.231Z" transform="translate(4131.667 767.188)" fill="#2c3e50"/>
      <rect id="Rectangle_332" data-name="Rectangle 332" width="0.869" height="58.49" transform="translate(4376.808 1171.941)" fill="#2c3e50"/>
      <rect id="Rectangle_333" data-name="Rectangle 333" width="2.626" height="58.49" transform="translate(4285.311 1171.941)" fill="#2c3e50"/>
      <path id="Path_536" data-name="Path 536" d="M49.537,463.44H46.516V404.554h3.021Zm-2.626-.4h2.23V404.95h-2.23Z" transform="translate(4238.597 767.188)" fill="#2c3e50"/>
      <rect id="Rectangle_334" data-name="Rectangle 334" width="0.867" height="58.49" transform="translate(4287.937 1171.941)" fill="#2c3e50"/>
      <rect id="Rectangle_336" data-name="Rectangle 336" width="2.626" height="58.49" transform="translate(4393.323 1171.941)" fill="#2c3e50"/>
      <path id="Path_537" data-name="Path 537" d="M287.508,463.436h-3.062V404.511h3.062ZM284.882,463h2.19V404.946h-2.19Z" transform="translate(4108.659 767.212)" fill="#2c3e50"/>
      <rect id="Rectangle_338" data-name="Rectangle 338" width="0.867" height="58.49" transform="translate(4395.949 1171.941)" fill="#2c3e50"/>
      <rect id="Rectangle_339" data-name="Rectangle 339" width="118.571" height="3.727" transform="translate(4273.345 1164.984)" fill="#fff"/>
      <path id="Path_539" data-name="Path 539" d="M139.12,393.351H20.153v-4.123H139.12Zm-118.571-.4H138.724v-3.331H20.549Z" transform="translate(4252.994 775.558)" fill="#ddd"/>
      <rect id="Rectangle_340" data-name="Rectangle 340" width="18.494" height="3.727" transform="translate(4391.917 1164.984)" fill="#ddd"/>
      <rect id="Rectangle_341" data-name="Rectangle 341" width="106.839" height="3.727" transform="translate(4280.845 1168.662)" fill="#fff"/>
      <path id="Path_540" data-name="Path 540" d="M143.913,401.454H36.679v-4.123H143.913Zm-106.839-.4H143.518v-3.331H37.074Z" transform="translate(4243.969 771.133)" fill="#ddd"/>
      <rect id="Rectangle_342" data-name="Rectangle 342" width="16.074" height="3.727" transform="translate(4386.294 1168.662)" fill="#ddd"/>
      <path id="Path_541" data-name="Path 541" d="M133.019,385.628h10.373v1.832H133.019a.916.916,0,1,1,0-1.832" transform="translate(4191.857 777.524)" fill="#fff"/>
      <path id="Path_542" data-name="Path 542" d="M143.352,387.419H132.781a1.114,1.114,0,1,1,0-2.229h10.571Zm-10.571-1.832a.718.718,0,1,0,0,1.436h10.175v-1.436Z" transform="translate(4192.095 777.763)" fill="#ddd"/>
      <path id="Path_543" data-name="Path 543" d="M155.411,367.453l-.133,4.26,3.312,3.989H148.441l-3.323-3.33a1.78,1.78,0,0,1-.512-1.429l.338-3.49Z" transform="translate(4185.033 787.45)" fill="#d9e0e6"/>
      <path id="Path_544" data-name="Path 544" d="M158.772,375.662H148.12l-3.381-3.389a1.968,1.968,0,0,1-.569-1.587l.355-3.669h10.851l-.137,4.389Zm-10.489-.4h9.645l-3.09-3.722.129-4.13H144.884l-.32,3.311a1.575,1.575,0,0,0,.455,1.27Z" transform="translate(4185.271 787.688)" fill="#ddd"/>
      <path id="Path_545" data-name="Path 545" d="M155.648,367.453l-.048,1.528H145.032l.149-1.528Z" transform="translate(4184.796 787.45)" fill="#ddd"/>
      <path id="Path_546" data-name="Path 546" d="M155.034,375.7h8.606l-3.332-3.33a1.782,1.782,0,0,1-.512-1.429l.338-3.49h1.841l-.37,3.622,3.373,3.373a1.849,1.849,0,0,1,.538,1.671,1.775,1.775,0,0,1-1.742,1.415h-8.739a.916.916,0,0,1,0-1.832" transform="translate(4179.833 787.45)" fill="#ddd"/>
      <path id="Path_547" data-name="Path 547" d="M103.724,287.652h47.209a3.065,3.065,0,0,1,3.052,3.332l-2.629,30.124a3.063,3.063,0,0,1-3.052,2.8h-47.21a3.063,3.063,0,0,1-3.052-3.33l2.629-30.123a3.065,3.065,0,0,1,3.053-2.8" transform="translate(4210.464 831.03)" fill="#ddd"/>
      <path id="Path_548" data-name="Path 548" d="M98.327,290.137a3.056,3.056,0,0,1,3-2.489h47.206a3.069,3.069,0,0,1,3.056,3.334L148.966,321.1a3.062,3.062,0,0,1-3.055,2.8H98.7a3.063,3.063,0,0,1-3.055-3.328l2.633-30.121a2.611,2.611,0,0,1,.046-.315" transform="translate(4211.771 831.033)" fill="#f2f2f2"/>
      <path id="Path_549" data-name="Path 549" d="M145.673,323.862H98.465a3.262,3.262,0,0,1-3.251-3.543L97.846,290.2a2.706,2.706,0,0,1,.049-.336,3.252,3.252,0,0,1,3.2-2.648H148.3a3.266,3.266,0,0,1,3.253,3.548l-2.628,30.123a3.245,3.245,0,0,1-3.252,2.978m-44.58-36.253a2.856,2.856,0,0,0-2.809,2.327v0a2.521,2.521,0,0,0-.043.291l-2.633,30.123a2.83,2.83,0,0,0,.743,2.183,2.876,2.876,0,0,0,2.115.93h47.209a2.851,2.851,0,0,0,2.858-2.617l2.628-30.121a2.887,2.887,0,0,0-.746-2.19,2.837,2.837,0,0,0-2.113-.928Z" transform="translate(4212.009 831.27)" fill="#ddd"/>
      <path id="Path_550" data-name="Path 550" d="M102.313,292.819a1.22,1.22,0,0,1,1.223-1.121h47.211a1.232,1.232,0,0,1,1.228,1.338l-.135,1.564-2.5,28.559a1.222,1.222,0,0,1-1.226,1.123H100.911a1.237,1.237,0,0,1-1.229-1.34l2.474-28.342Z" transform="translate(4209.564 828.821)" fill="#fff"/>
      <path id="Path_552" data-name="Path 552" d="M106.518,291.7h47.211a1.233,1.233,0,0,1,1.228,1.338l-.135,1.564H105.137l.158-1.781a1.22,1.22,0,0,1,1.223-1.121" transform="translate(4206.583 828.821)" fill="#fff"/>
      <path id="Path_553" data-name="Path 553" d="M154.748,294.561H104.689l.175-1.983a1.405,1.405,0,0,1,1.409-1.292h47.211a1.4,1.4,0,0,1,1.044.458,1.42,1.42,0,0,1,.37,1.082Zm-49.653-.373h49.311l.12-1.394a1.046,1.046,0,0,0-1.042-1.135H106.273a1.034,1.034,0,0,0-1.038.95Z" transform="translate(4206.828 829.046)" fill="#ddd"/>
      <path id="Path_554" data-name="Path 554" d="M157.717,293.226l-.157,1.513H129.69l.157-1.513Z" transform="translate(4193.174 827.986)" fill="#fff"/>
      <path id="Path_555" data-name="Path 555" d="M157.474,294.7H129.207l.2-1.909h28.267Zm-27.828-.4h27.472l.115-1.117H129.762Z" transform="translate(4193.438 828.224)" fill="#ddd"/>
      <path id="Path_557" data-name="Path 557" d="M108.878,293.827a.1.1,0,1,1,.135.148l-1.133,1.041a.1.1,0,0,1-.147,0,.1.1,0,0,1,.012-.146Z" transform="translate(4205.179 827.674)" fill="#ddd"/>
      <g id="Group_49" data-name="Group 49">
        <path id="Path_556" data-name="Path 556" d="M108.093,293.827l.951,1.042a.1.1,0,0,1-.014.146.1.1,0,0,1-.147,0l-.95-1.041a.109.109,0,0,1,.16-.148" transform="translate(4205.069 827.674)" fill="#ddd"/>
        <path id="Path_558" data-name="Path 558" d="M112.195,294.33a.632.632,0,0,0,.64.7.78.78,0,0,0,.763-.7.632.632,0,0,0-.64-.7.781.781,0,0,0-.763.7m.158,0a.607.607,0,0,1,.591-.544.491.491,0,0,1,.5.544.6.6,0,0,1-.59.541.49.49,0,0,1-.5-.541" transform="translate(4202.73 827.767)" fill="#ddd"/>
        <path id="Path_559" data-name="Path 559" d="M117.986,296.124a.071.071,0,0,1,.073.079.089.089,0,0,1-.087.079h-1.266a.07.07,0,0,1-.071-.079.085.085,0,0,1,.086-.079Z" transform="translate(4200.304 826.404)" fill="#ddd"/>
      </g>
      <g id="Group_48" data-name="Group 48">
        <path id="Path_560" data-name="Path 560" d="M208.291,296.026a.071.071,0,0,1,.073.079.089.089,0,0,1-.087.079h-1.266a.071.071,0,0,1-.072-.079.086.086,0,0,1,.086-.079Z" transform="translate(4150.987 826.457)" fill="#ddd"/>
        <path id="Path_561" data-name="Path 561" d="M208.38,295a.071.071,0,0,1,.073.079.089.089,0,0,1-.086.079H207.1a.071.071,0,0,1-.072-.079.087.087,0,0,1,.087-.079Z" transform="translate(4150.938 827.017)" fill="#ddd"/>
        <path id="Path_562" data-name="Path 562" d="M208.47,293.971a.071.071,0,0,1,.072.079.087.087,0,0,1-.086.079h-1.266a.071.071,0,0,1-.072-.079.088.088,0,0,1,.087-.079Z" transform="translate(4150.889 827.579)" fill="#ddd"/>
      </g>
      <path id="Path_563" data-name="Path 563" d="M134.578,306.156h29.782a.341.341,0,0,1,.343.368.4.4,0,0,1-.4.369H134.528a.342.342,0,0,1-.344-.369.4.4,0,0,1,.394-.368" transform="translate(4190.72 820.925)" fill="#ddd"/>
      <path id="Path_564" data-name="Path 564" d="M169.812,300.733h18.965a.438.438,0,0,1,.44.474.517.517,0,0,1-.507.473H169.745a.437.437,0,0,1-.44-.473.518.518,0,0,1,.506-.474" transform="translate(4171.54 823.887)" fill="#ddd"/>
      <path id="Path_565" data-name="Path 565" d="M207.37,306.156h1.912a.34.34,0,0,1,.342.368.4.4,0,0,1-.394.369h-1.913a.341.341,0,0,1-.342-.369.4.4,0,0,1,.394-.368" transform="translate(4150.967 820.925)" fill="#ddd"/>
      <path id="Path_566" data-name="Path 566" d="M177.251,311.219h15.335a.212.212,0,0,1,.214.228.253.253,0,0,1-.246.228H177.218a.21.21,0,0,1-.212-.228.249.249,0,0,1,.245-.228" transform="translate(4167.334 818.16)" fill="#0a58ca"/>
      <path id="Path_567" data-name="Path 567" d="M176.964,315.328H192.3a.209.209,0,0,1,.212.228.25.25,0,0,1-.245.229H176.932a.211.211,0,0,1-.213-.229.249.249,0,0,1,.245-.228" transform="translate(4167.491 815.916)" fill="#0a58ca"/>
      <path id="Path_568" data-name="Path 568" d="M176.678,319.432h15.335a.21.21,0,0,1,.212.228.247.247,0,0,1-.245.229H176.645a.209.209,0,0,1-.212-.229.25.25,0,0,1,.245-.228" transform="translate(4167.647 813.675)" fill="#0a58ca"/>
      <path id="Path_569" data-name="Path 569" d="M176.39,323.543h15.335a.211.211,0,0,1,.212.228.248.248,0,0,1-.244.228H176.359a.21.21,0,0,1-.213-.228.25.25,0,0,1,.245-.228" transform="translate(4167.805 811.43)" fill="#0a58ca"/>
      <path id="Path_570" data-name="Path 570" d="M204.735,327.651h2.34a.209.209,0,0,1,.212.229.251.251,0,0,1-.245.228H204.7a.211.211,0,0,1-.212-.228.249.249,0,0,1,.245-.229" transform="translate(4152.325 809.186)" fill="red"/>
      <path id="Path_571" data-name="Path 571" d="M195.737,327.651h2.339a.211.211,0,0,1,.214.229.251.251,0,0,1-.245.228H195.7a.212.212,0,0,1-.212-.228.248.248,0,0,1,.245-.229" transform="translate(4157.239 809.186)" fill="red"/>
      <path id="Path_572" data-name="Path 572" d="M186.739,327.651h2.339a.212.212,0,0,1,.214.229.25.25,0,0,1-.245.228h-2.34a.212.212,0,0,1-.214-.228.25.25,0,0,1,.245-.229" transform="translate(4162.153 809.186)" fill="red"/>
      <path id="Path_573" data-name="Path 573" d="M177.741,327.651h2.34a.209.209,0,0,1,.212.229.249.249,0,0,1-.244.228h-2.34a.211.211,0,0,1-.213-.228.25.25,0,0,1,.245-.229" transform="translate(4167.067 809.186)" fill="red"/>
      <path id="Path_574" data-name="Path 574" d="M168.744,327.651h2.339a.21.21,0,0,1,.213.229.25.25,0,0,1-.244.228h-2.339a.212.212,0,0,1-.214-.228.25.25,0,0,1,.246-.229" transform="translate(4171.98 809.186)" fill="red"/>
      <path id="Path_575" data-name="Path 575" d="M159.747,327.651h2.34a.21.21,0,0,1,.212.229.25.25,0,0,1-.245.228h-2.34a.21.21,0,0,1-.212-.228.248.248,0,0,1,.245-.229" transform="translate(4176.894 809.186)" fill="red"/>
      <path id="Path_576" data-name="Path 576" d="M175.816,331.757h15.335a.213.213,0,0,1,.213.23.251.251,0,0,1-.245.229H175.785a.211.211,0,0,1-.213-.229.249.249,0,0,1,.244-.23" transform="translate(4168.117 806.944)" fill="#0a58ca"/>
      <path id="Path_577" data-name="Path 577" d="M107.2,317.7h18.809a.3.3,0,0,1,.3.32.35.35,0,0,1-.342.319H107.158a.294.294,0,0,1-.3-.319.349.349,0,0,1,.341-.32" transform="translate(4205.642 814.621)" fill="red"/>
      <path id="Path_578" data-name="Path 578" d="M106.773,323.848h18.809a.294.294,0,0,1,.3.317.348.348,0,0,1-.34.32h-18.81a.3.3,0,0,1-.3-.32.35.35,0,0,1,.341-.317" transform="translate(4205.876 811.263)" fill="#ddd"/>
      <path id="Path_579" data-name="Path 579" d="M106.372,329.6H125.18a.3.3,0,0,1,.3.319.349.349,0,0,1-.342.318H106.327a.294.294,0,0,1-.3-.318.348.348,0,0,1,.34-.319" transform="translate(4206.095 808.12)" fill="#ddd"/>
      <path id="Path_580" data-name="Path 580" d="M105.971,335.359h18.808a.3.3,0,0,1,.3.319.35.35,0,0,1-.342.32H105.926a.294.294,0,0,1-.3-.32.347.347,0,0,1,.341-.319" transform="translate(4206.314 804.977)" fill="#ddd"/>
      <path id="Path_581" data-name="Path 581" d="M105.567,341.119h18.809a.294.294,0,0,1,.3.317.35.35,0,0,1-.342.319H105.522a.3.3,0,0,1-.3-.319.348.348,0,0,1,.342-.317" transform="translate(4206.535 801.831)" fill="#ddd"/>
      <path id="Path_582" data-name="Path 582" d="M125.312,346.873h9.665a.292.292,0,0,1,.3.317.347.347,0,0,1-.34.32h-9.665a.3.3,0,0,1-.3-.32.348.348,0,0,1,.341-.317" transform="translate(4195.752 798.689)" fill="#ddd"/>
      <path id="Path_583" data-name="Path 583" d="M111.117,350.789h9.665a.294.294,0,0,1,.3.32.348.348,0,0,1-.341.319h-9.665a.294.294,0,0,1-.3-.319.35.35,0,0,1,.341-.32" transform="translate(4203.504 796.55)" fill="#ddd"/>
      <path id="Path_584" data-name="Path 584" d="M110.835,354.85H120.5a.294.294,0,0,1,.3.319.349.349,0,0,1-.341.319H110.79a.294.294,0,0,1-.3-.319.347.347,0,0,1,.341-.319" transform="translate(4203.658 794.333)" fill="#ddd"/>
      <path id="Path_585" data-name="Path 585" d="M192.707,354.85h4.5a.3.3,0,0,1,.3.319.35.35,0,0,1-.341.319h-4.505a.294.294,0,0,1-.3-.319.348.348,0,0,1,.341-.319" transform="translate(4158.946 794.333)" fill="#ddd"/>
      <path id="Path_586" data-name="Path 586" d="M192.941,351.493h4.5a.3.3,0,0,1,.3.319.349.349,0,0,1-.342.319H192.9a.3.3,0,0,1-.3-.319.349.349,0,0,1,.342-.319" transform="translate(4158.819 796.166)" fill="#ddd"/>
      <path id="Path_587" data-name="Path 587" d="M193.176,348.137h4.5a.3.3,0,0,1,.3.32.348.348,0,0,1-.341.319h-4.505a.294.294,0,0,1-.3-.319.35.35,0,0,1,.342-.32" transform="translate(4158.69 797.999)" fill="#ddd"/>
      <path id="Path_588" data-name="Path 588" d="M193.41,344.785h4.5a.294.294,0,0,1,.3.319.348.348,0,0,1-.342.318h-4.505a.294.294,0,0,1-.3-.318.348.348,0,0,1,.341-.319" transform="translate(4158.562 799.829)" fill="#ddd"/>
      <path id="Path_589" data-name="Path 589" d="M184.037,344.785h1.368a.293.293,0,0,1,.3.319.347.347,0,0,1-.341.318h-1.368a.292.292,0,0,1-.3-.318.345.345,0,0,1,.34-.319" transform="translate(4163.681 799.829)" fill="#ddd"/>
      <path id="Path_590" data-name="Path 590" d="M183.519,352.2h1.368a.294.294,0,0,1,.3.319.348.348,0,0,1-.342.319h-1.368a.293.293,0,0,1-.3-.319.347.347,0,0,1,.341-.319" transform="translate(4163.964 795.779)" fill="#ddd"/>
      <path id="Path_594" data-name="Path 594" d="M84.261,503.263c.034-.241,5.06,1.233,5.158,2.822.084,1.356-.925,3.524.044,4.982,1.114,1.675,5.824,3.794,8.136,4.133.118.342-.283.628-.625.744a12.655,12.655,0,0,1-5.365.139c-2.078-.216-4.168-.335-6.259-.355-.93-.01-2.033-.093-2.506-.9a3.249,3.249,0,0,1-.108-2.038c.252-2.1,1.225-7.436,1.525-9.53" transform="translate(4218.876 713.296)" fill="#ffb797"/>
      <path id="Path_596" data-name="Path 596" d="M81.628,522.1c.581-.434,4.285,2.429,8.534,2.429,0-.563.536-1.52,1.236-1.278,1.869.648,5.157,1.822,5.525,1.976,1.193.5.723,2.5.02,2.5h-6.6c-1.255,0-3.258-1.155-5.279-1.155a10.992,10.992,0,0,1-3.207-.2c-2.136-.962-1.308-3.474-.233-4.275" transform="translate(4220.021 703.016)"/>
      <path id="Path_597" data-name="Path 597" d="M96.7,527.7h-6.6a7.565,7.565,0,0,1-2.094-.484,10.685,10.685,0,0,0-3.186-.669,10.552,10.552,0,0,1-3.288-.218,2.257,2.257,0,0,1-1.433-1.871,3.228,3.228,0,0,1,1.162-2.742c.311-.235.924.047,2.037.556a16.472,16.472,0,0,0,6.435,1.831,1.813,1.813,0,0,1,.66-1.134.88.88,0,0,1,.822-.133c1.806.627,5.148,1.82,5.536,1.982a1.587,1.587,0,0,1,.81,1.853c-.123.616-.472,1.03-.867,1.03m-15.2-5.669a2.845,2.845,0,0,0-1,2.383,1.892,1.892,0,0,0,1.2,1.553,12.365,12.365,0,0,0,3.126.182,11,11,0,0,1,3.307.689,7.353,7.353,0,0,0,1.973.465h6.6c.188,0,.4-.313.479-.712a1.2,1.2,0,0,0-.575-1.41c-.347-.145-3.593-1.307-5.514-1.972a.482.482,0,0,0-.463.08,1.415,1.415,0,0,0-.511,1.012v.2h-.2a16.507,16.507,0,0,1-6.781-1.87,5.113,5.113,0,0,0-1.636-.6" transform="translate(4220.26 703.252)"/>
      <path id="Path_598" data-name="Path 598" d="M85.247,526.2c1.5.079,6.231.651,7.03.865a6.828,6.828,0,0,0,3.523.011,5.062,5.062,0,0,0,1.486-.679c.716.713.281,2.26-.339,2.26h-6.6c-1.255,0-3.258-1.155-5.28-1.155a11,11,0,0,1-3.207-.2c-1.685-.759-1.518-2.468-.849-3.557a5.1,5.1,0,0,0,4.232,2.454" transform="translate(4220.017 702.098)"/>
      <path id="Path_599" data-name="Path 599" d="M85.941,531.366H81.792l-1.044-2.657,4.906,1.411a2.407,2.407,0,0,0,.287,1.246" transform="translate(4219.902 699.385)"/>
      <path id="Path_600" data-name="Path 600" d="M85.526,416.692s13.808.306,18.464,7.127c2.7,3.961-12.268,33.923-14.357,38.707a8.393,8.393,0,0,1-7.007-1.295c1.743-9.623,4.447-29.385,7.227-34.48,1.685-3.09-4.239-6.545-4.327-10.059" transform="translate(4218.876 760.559)" fill="#e11212"/>
      <path id="Path_601" data-name="Path 601" d="M115.929,509.425c.035-.241,4.758-1.58,4.857.009.083,1.356-1.428,3.457-.241,4.534,1.362,1.236,6.411,3.859,8.722,4.2.118.342-.281.628-.623.743a12.654,12.654,0,0,1-5.364.139c-2.079-.216-4.169-.335-6.259-.355-.93-.01-2.033-.093-2.506-.9a3.243,3.243,0,0,1-.109-2.038c.252-2.1,1.225-4.239,1.524-6.333" transform="translate(4201.581 710.33)" fill="#ffb797"/>
      <path id="Path_603" data-name="Path 603" d="M113.3,522.1c.581-.434,4.285,2.429,8.535,2.429,0-.563.536-1.52,1.236-1.278,1.869.648,5.157,1.822,5.525,1.976,1.193.5.724,2.5.02,2.5h-6.6c-1.255,0-3.258-1.155-5.28-1.155a11,11,0,0,1-3.207-.2c-2.136-.962-1.308-3.474-.234-4.275" transform="translate(4202.727 703.016)"/>
      <path id="Path_604" data-name="Path 604" d="M128.373,527.7h-6.6a7.564,7.564,0,0,1-2.094-.484,10.689,10.689,0,0,0-3.186-.67,10.556,10.556,0,0,1-3.288-.218,2.257,2.257,0,0,1-1.433-1.871,3.227,3.227,0,0,1,1.161-2.742c.313-.235.925.046,2.037.556a16.477,16.477,0,0,0,6.435,1.831,1.818,1.818,0,0,1,.66-1.134.876.876,0,0,1,.822-.133c1.809.628,5.151,1.82,5.536,1.982a1.586,1.586,0,0,1,.81,1.853c-.123.615-.472,1.029-.866,1.029m-15.2-5.669a2.846,2.846,0,0,0-1,2.383,1.891,1.891,0,0,0,1.2,1.553,12.378,12.378,0,0,0,3.126.182,11.005,11.005,0,0,1,3.307.689,7.346,7.346,0,0,0,1.973.465h6.6c.188,0,.4-.313.478-.712a1.2,1.2,0,0,0-.575-1.411c-.344-.144-3.591-1.305-5.513-1.972a.487.487,0,0,0-.463.08,1.416,1.416,0,0,0-.511,1.012v.2h-.2a16.5,16.5,0,0,1-6.781-1.869,5.146,5.146,0,0,0-1.636-.6" transform="translate(4202.965 703.253)"/>
      <path id="Path_605" data-name="Path 605" d="M116.917,526.2c1.5.079,6.231.651,7.028.865a6.829,6.829,0,0,0,3.523.011,5.06,5.06,0,0,0,1.486-.679c.714.713.281,2.26-.34,2.26h-6.6c-1.255,0-3.258-1.155-5.28-1.155a11,11,0,0,1-3.207-.2c-1.685-.759-1.518-2.468-.849-3.557a5.1,5.1,0,0,0,4.232,2.454" transform="translate(4202.722 702.098)"/>
      <path id="Path_606" data-name="Path 606" d="M117.609,531.366H113.46l-1.044-2.657,4.906,1.411a2.409,2.409,0,0,0,.286,1.246" transform="translate(4202.608 699.385)"/>
      <path id="Path_607" data-name="Path 607" d="M118.39,411.131s18.411,1.837,18.411,11.878c0,4.857-13.7,33.944-15.1,37.362-2.822,1.1-6.189-.278-7.718-1.786.5-1.329,7.414-27.71,9.119-34.278.9-3.471-4.624-9.6-4.711-13.176" transform="translate(4201.752 763.596)" fill="red"/>
      <path id="Path_608" data-name="Path 608" d="M63.824,408.141c11.438,0,19.555,1.71,22.8,2.892,5.012,1.828,9.566,12.623-4.088,13.9-2.44.229-14.608,0-17.957,0-22.1,0-22.168-3.8-22.168-7.264s9.978-9.527,21.415-9.527" transform="translate(4240.84 765.229)" fill="red"/>
      <path id="Path_609" data-name="Path 609" d="M114.722,350.342c.915,2.341-2.082,5.744-3.16,5.31a50.952,50.952,0,0,1-17.754-12.759l4.618-8.931s15.381,14.038,16.3,16.379" transform="translate(4212.77 805.739)" fill="#0a58ca"/>
      <path id="Path_611" data-name="Path 611" d="M20.249,332.306l4.312,11.23S10.116,354.505,3.744,354.505c-1.713,0-5.369-2.582-1.79-6.137,1.784-1.771,18.3-16.062,18.3-16.062" transform="translate(4263.761 806.644)" fill="#0a58ca"/>
      <path id="Path_613" data-name="Path 613" d="M54.408,324.761c6.56,0,14.676,2.652,14.5,4.749-1.81,21.662.39,33.23.39,33.23a30.212,30.212,0,0,1-10.28,6.7c-8.243,3.186-17.405,3.017-18.92,2.161-.132-.074-.2-.156-.216-.227-.285-1.634-.668-39.464.014-41.134.048-.132,1.953-5.477,14.511-5.477" transform="translate(4242.42 810.765)" fill="#0a58ca"/>
      <path id="Path_615" data-name="Path 615" d="M40.571,332.306s-2.424,2.111-2.844,2.482-.619,5.119-.619,5.119v.915l3.537-.643.3-1.113s.148-2.127.148-2.473-.519-4.288-.519-4.288" transform="translate(4243.735 806.644)" fill="#0a58ca"/>
      <path id="Path_616" data-name="Path 616" d="M64.536,278.034a6.549,6.549,0,0,1,4.257-1.293,12.982,12.982,0,0,1,4.4,1.034c1.044.412,4.249,2.357,3.322,9.329-.216,1.62-.878,6.205-1.749,7.59a6,6,0,0,1-7,2.4c-7.8-3.306-6.08-12.786-5.705-14.508a7.815,7.815,0,0,1,2.481-4.555" transform="translate(4230.341 836.991)" fill="#ffb797"/>
      <path id="Path_618" data-name="Path 618" d="M73.334,306.527c.026,2.224.369,4.685.5,6.863s-8.759,2.207-8.616,0c.3-4.576,0-10.167,0-10.167s8.085,1.081,8.111,3.3" transform="translate(4228.381 822.527)" fill="#ffb797"/>
      <path id="Path_620" data-name="Path 620" d="M82.259,312.759l-.7.438-.771-3.222,1.043-1.322,1.08,1.508Z" transform="translate(4219.88 819.561)" fill="#ffb797"/>
      <path id="Path_621" data-name="Path 621" d="M187.15,383.679l-2.373-1.692c-.033-.023-.074-.011-.11-.025a13.338,13.338,0,0,0-1.78-.638c-1.082-.343-2.612-.91-3.755-.486-.518.192-3.361-1.32-3.733-1.423a18.7,18.7,0,0,1-1.355,2.966c.315.091,3.187,1.325,3.524,1.439,2.037.679,4.93-1.355,6.84-.644a1,1,0,0,0,.277.063l1.888,1.249a.5.5,0,0,0,.577-.808" transform="translate(4168.952 780.918)" fill="#ffb797" fill-rule="evenodd"/>
      <path id="Path_623" data-name="Path 623" d="M64.489,273.2c5.973,0,7.575,5.1,10.614,5.549-6.271,1.582-3.145,12.587-11.535,15a5.391,5.391,0,0,1-6.627-3.027c-5.116-9.939.046-17.523,7.549-17.523" transform="translate(4234.026 838.92)"/>
      <path id="Path_624" data-name="Path 624" d="M130.2,369.577c1.764-.22,6.9.786,8.612,1.262,2.7.753,12.37,2.933,12.37,2.933a14.5,14.5,0,0,1-.683,4.361s-13.567-1.26-19.126-2.675-2.984-5.655-1.173-5.882" transform="translate(4194.092 786.307)" fill="#0a58ca"/>
      <path id="Path_628" data-name="Path 628" d="M21.672,448.054H39.44c1.579,0,3.625,1.27,3.858,2.83l5.066,36.894H46.407l-5.384-36.7a2.076,2.076,0,0,0-1.964-1.693H22.052c-.928,0-.493.584-.629,1.5l-7.8,36.877-.881-.031-1.561-.182,7.206-36.67a3.427,3.427,0,0,1,3.285-2.83" transform="translate(4257.894 743.432)" fill="#2c3e50"/>
      <path id="Path_629" data-name="Path 629" d="M48.309,487.738H45.953l-.025-.169-5.383-36.7a1.869,1.869,0,0,0-1.768-1.524H21.77c-.241,0-.332.043-.367.079-.064.067-.055.257-.045.477a3.9,3.9,0,0,1-.022.778L13.5,487.733l-1.048-.037-1.789-.208,7.247-36.88a3.628,3.628,0,0,1,3.479-2.99H39.157c1.667,0,3.8,1.31,4.054,3Zm-2.013-.4h1.56L42.82,450.673c-.221-1.472-2.184-2.659-3.662-2.659H21.389a3.221,3.221,0,0,0-3.089,2.661l-7.167,36.47,1.349.158.7.024,7.766-36.714a3.51,3.51,0,0,0,.016-.69.983.983,0,0,1,.154-.768.856.856,0,0,1,.653-.2H38.777a2.284,2.284,0,0,1,2.16,1.862Z" transform="translate(4258.177 743.67)" fill="#2c3e50"/>
      <path id="Path_630" data-name="Path 630" d="M25.832,448.05H43.219a3.423,3.423,0,0,1,3.281,2.835l5.387,36.694-1.32.194-5.388-36.695a2.071,2.071,0,0,0-1.96-1.693H25.832a2.221,2.221,0,0,0-2.067,1.705l-7.1,36.714-1.355-.1,7.145-36.866a3.585,3.585,0,0,1,3.378-2.787" transform="translate(4255.64 743.434)" fill="#2c3e50"/>
      <path id="Path_631" data-name="Path 631" d="M16.539,487.776l-1.752-.131,7.188-37.085a3.79,3.79,0,0,1,3.573-2.948H42.934a3.627,3.627,0,0,1,3.477,3l5.417,36.89-1.713.252L44.7,450.869a1.865,1.865,0,0,0-1.765-1.524H25.547a2.013,2.013,0,0,0-1.873,1.545Zm-1.279-.492.957.071,7.067-36.54a2.432,2.432,0,0,1,2.262-1.866H42.934a2.278,2.278,0,0,1,2.156,1.863l5.359,36.5.93-.137-5.359-36.5a3.218,3.218,0,0,0-3.085-2.666H25.547a3.377,3.377,0,0,0-3.184,2.626Z" transform="translate(4255.925 743.673)" fill="#2c3e50"/>
      <path id="Path_632" data-name="Path 632" d="M13.713,414.673c.283,2.209.711,5.546,1.294,8.446.981,4.864,1.772,5.206,1.806,5.218.62,0,1.885-.033,3.635-.073,4.581-.11,10.121-.292,20.372-.292h.668v1.334H40.82c-10.236,0-15.764.182-20.341.292-1.757.042-3.028.072-3.69.072-1.845,0-3-3.88-4.4-14.827-.112-.874-.37-2.586-.37-2.586l1.316-.218s.264,1.747.379,2.634" transform="translate(4257.437 763.101)" fill="#2c3e50"/>
      <path id="Path_633" data-name="Path 633" d="M16.519,429.593c-2,0-3.159-3.785-4.6-15-.111-.872-.369-2.582-.369-2.582l-.029-.193,1.708-.283.029.2s.264,1.749.379,2.638l0,.025c.282,2.2.709,5.525,1.289,8.407.844,4.187,1.529,4.944,1.668,5.059.587,0,1.684-.029,3.184-.064l2.352-.059c4.267-.108,9.576-.243,18.414-.243h.866v1.732h-.866c-8.843,0-14.147.135-18.409.243l-2.258.056c-1.592.038-2.742.064-3.363.064m-4.547-17.448c.07.473.253,1.7.341,2.4,1.37,10.682,2.51,14.654,4.205,14.654.616,0,1.764-.027,3.354-.064l2.257-.056c4.264-.109,9.571-.244,18.419-.244h.471v-.939h-.471c-8.833,0-14.139.135-18.4.242l-2.353.059c-1.552.037-2.674.064-3.249.065l-.067-.012c-.216-.077-.992-.691-1.934-5.365-.583-2.9-1.011-6.23-1.294-8.435l.193-.05-.2.025c-.09-.7-.276-1.949-.347-2.432Z" transform="translate(4257.707 763.375)" fill="#2c3e50"/>
      <path id="Path_634" data-name="Path 634" d="M16.5,415c.283,2.189.711,5.5,1.3,8.374.981,4.824,1.774,5.154,1.806,5.164h24.01v1.334H19.581c-1.849,0-3-3.847-4.406-14.7-.109-.851-.2-1.524-.256-1.881l1.317-.219c.064.381.152,1.064.264,1.929" transform="translate(4255.853 762.539)" fill="#2c3e50"/>
      <path id="Path_635" data-name="Path 635" d="M43.535,429.792H19.306c-2,0-3.164-3.753-4.6-14.872-.111-.862-.2-1.524-.256-1.874l-.033-.195,1.707-.285.033.2c.064.386.153,1.069.265,1.935.282,2.184.709,5.484,1.294,8.361.846,4.158,1.532,4.9,1.668,5l24.153,0ZM14.87,413.177c.057.379.133.962.224,1.668,1.373,10.614,2.513,14.551,4.212,14.551H43.14v-.939l-23.842,0-.029-.01c-.153-.049-.969-.533-1.941-5.313-.588-2.89-1.016-6.2-1.3-8.388-.094-.729-.172-1.329-.232-1.726Z" transform="translate(4256.127 762.813)" fill="#2c3e50"/>
      <path id="Path_636" data-name="Path 636" d="M24.888,441.563H53.764a2.291,2.291,0,0,1,0,4.582H24.888a2.291,2.291,0,0,1,0-4.582" transform="translate(4251.659 746.977)" fill="#ddd"/>
      <path id="Path_637" data-name="Path 637" d="M53.527,446.106H24.65a2.489,2.489,0,0,1,0-4.979H53.527a2.489,2.489,0,0,1,0,4.979M24.65,441.523a2.093,2.093,0,1,0,0,4.186H53.527a2.093,2.093,0,1,0,0-4.186Z" transform="translate(4251.897 747.215)" fill="#2c3e50"/>
      <path id="Path_638" data-name="Path 638" d="M82.311,441.567h18.554c2.9,0,5.1.767,6.551,2.276a5,5,0,0,1,1.457,3.028l.035,1.229h-3.946l-.078-.92c-.164-.615-1.179-1.609-4.019-1.609H82.311a2,2,0,1,1,0-4" transform="translate(4220.143 746.975)" fill="#ddd"/>
      <path id="Path_639" data-name="Path 639" d="M108.872,448.06h-4.331l-.093-1.1c-.139-.509-1.108-1.428-3.822-1.428H82.072a2.2,2.2,0,1,1,0-4.4h18.554c2.952,0,5.2.786,6.694,2.337a5.215,5.215,0,0,1,1.511,3.159Zm-3.968-.4h3.561l-.029-1.027a4.8,4.8,0,0,0-1.4-2.9c-1.412-1.469-3.568-2.214-6.408-2.214H82.072a1.8,1.8,0,1,0,0,3.607h18.554c2.762,0,3.994.946,4.21,1.757Z" transform="translate(4220.38 747.213)" fill="#2c3e50"/>
      <path id="Path_640" data-name="Path 640" d="M134.424,453.529c0-.047-.008-.095-.008-.142a1.432,1.432,0,0,0,.014.22Z" transform="translate(4190.593 740.52)" fill="#d0ddfd"/>
      <path id="Path_641" data-name="Path 641" d="M74.649,412.7c.058.347.141.958.247,1.732.292,2.119.778,5.669,1.413,8.721,1.059,5.091,1.852,5.521,1.939,5.554h.667l-.029,1.331h-.667c-1.869,0-3.084-4.035-4.645-15.423-.1-.765-.188-1.368-.241-1.7l-.111-.658,1.315-.22Z" transform="translate(4224.012 763.101)" fill="#2c3e50"/>
      <path id="Path_642" data-name="Path 642" d="M78.806,429.96h-.861c-2.022,0-3.243-3.936-4.841-15.6-.1-.762-.187-1.363-.241-1.69l-.143-.852,1.706-.286.144.853c.052.309.123.827.212,1.482l.048.343c.29,2.1.774,5.616,1.4,8.621.947,4.551,1.662,5.293,1.8,5.4h.817Zm-5.63-17.813.078.463c.054.329.138.935.242,1.7,1.523,11.119,2.729,15.253,4.449,15.253h.473l.02-.936-.534-.012c-.223-.084-1.032-.742-2.063-5.7-.627-3.018-1.113-6.542-1.4-8.648l-.048-.342c-.089-.651-.159-1.165-.211-1.471l-.079-.463Z" transform="translate(4224.286 763.375)" fill="#2c3e50"/>
      <path id="Path_643" data-name="Path 643" d="M77.711,415.049c.283,2.209.711,5.547,1.3,8.449.979,4.867,1.772,5.209,1.806,5.221l-.024,1.331c-1.845,0-3-3.881-4.4-14.832-.113-.876-.2-1.568-.261-1.931l1.316-.219c.064.388.154,1.09.269,1.98" transform="translate(4222.426 762.538)" fill="#2c3e50"/>
      <path id="Path_644" data-name="Path 644" d="M80.709,429.974h-.194c-2,0-3.159-3.787-4.6-15.005l-.01-.073c-.107-.839-.192-1.5-.25-1.85l-.033-.2,1.707-.285.032.2c.059.354.138.967.238,1.745l.031.242c.281,2.2.706,5.52,1.294,8.436.925,4.6,1.662,5.061,1.693,5.079l.134.048-.017.136Zm-4.631-16.8c.056.379.132.961.222,1.668l.01.074c1.317,10.273,2.421,14.342,4.011,14.641l.019-1.012c-.319-.269-1-1.309-1.8-5.285-.59-2.929-1.016-6.26-1.3-8.464l-.031-.241c-.083-.644-.152-1.173-.206-1.536Z" transform="translate(4222.7 762.813)" fill="#2c3e50"/>
      <path id="Path_645" data-name="Path 645" d="M81.3,445.249l14.872.057c1.579,0,3.681,1.215,3.914,2.775l5.067,38.165h-1.958l-5.383-37.967a2.076,2.076,0,0,0-1.964-1.694l-14.167-.338c-.928,0-.494.923-.631,1.841l-5.232,38.148-1.631-.032-1.562-.182,5.39-37.941a3.427,3.427,0,0,1,3.284-2.832" transform="translate(4224.34 744.964)" fill="#2c3e50"/>
      <path id="Path_646" data-name="Path 646" d="M105.1,486.206h-2.356l-5.407-38.137a1.868,1.868,0,0,0-1.768-1.523L81.4,446.207a.445.445,0,0,0-.316.09c-.114.119-.1.421-.091.74a4.52,4.52,0,0,1-.024.843L75.715,486.2l-1.806-.035-1.783-.207,5.419-38.142a3.631,3.631,0,0,1,3.48-3h0l14.872.056c1.7,0,3.862,1.286,4.109,2.944Zm-2.012-.4h1.56L99.615,447.87c-.215-1.441-2.21-2.6-3.718-2.6l-14.873-.056a3.221,3.221,0,0,0-3.088,2.663l-5.361,37.739,1.361.159,1.435.026,5.208-37.974a4.078,4.078,0,0,0,.02-.771,1.363,1.363,0,0,1,.2-1.029.8.8,0,0,1,.606-.211l14.172.339a2.279,2.279,0,0,1,2.155,1.862Z" transform="translate(4224.611 745.202)" fill="#2c3e50"/>
      <path id="Path_647" data-name="Path 647" d="M85.5,445.253H100.05a3.4,3.4,0,0,1,3.271,2.837l5.4,37.965-1.321.189L102,448.28a2.057,2.057,0,0,0-1.95-1.692H85.5a2.054,2.054,0,0,0-1.949,1.692l-5.4,37.965-1.323-.189,5.4-37.965a3.4,3.4,0,0,1,3.271-2.837" transform="translate(4222.04 744.962)" fill="#2c3e50"/>
      <path id="Path_648" data-name="Path 648" d="M106.96,486.229l-5.426-38.161a1.85,1.85,0,0,0-1.754-1.521H85.232a1.848,1.848,0,0,0-1.752,1.521l-5.426,38.161-1.714-.245,5.426-38.16a3.609,3.609,0,0,1,3.466-3.008H99.78a3.607,3.607,0,0,1,3.466,3.008l5.425,38.16Zm-30.172-.581.931.133,5.369-37.769a2.263,2.263,0,0,1,2.145-1.863H99.78a2.264,2.264,0,0,1,2.146,1.863l5.369,37.769.93-.133-5.37-37.769a3.2,3.2,0,0,0-3.075-2.667H85.232a3.2,3.2,0,0,0-3.075,2.667Z" transform="translate(4222.31 745.201)" fill="#2c3e50"/>
      <path id="Path_649" data-name="Path 649" d="M9.814,352.905h21.68a5.028,5.028,0,0,1,4.809,4.15s3.563,21.127,3.38,21.741c-.33,1.112-.744,1.827-1.793,1.827s-28.1.27-28.1.27l-.174-1.144-3.2-21.586c-.075-.5-2.541-.706-2.442-1.149.354-1.587,1.869-4.11,5.839-4.11" transform="translate(4261.831 795.395)" fill="#fff"/>
      <path id="Path_650" data-name="Path 650" d="M9.38,380.854l-.2-1.314-3.2-21.588a3.488,3.488,0,0,0-1.152-.436c-.8-.221-1.378-.381-1.287-.785.158-.711,1.2-4.265,6.032-4.265h21.68a5.222,5.222,0,0,1,5,4.319c.6,3.532,3.56,21.2,3.374,21.828-.351,1.181-.822,1.97-1.983,1.97-1.035,0-27.827.266-28.1.269ZM3.936,356.783a4.176,4.176,0,0,0,1,.352c.856.237,1.384.4,1.438.76l3.346,22.56c2.313-.023,26.937-.268,27.93-.268.923,0,1.287-.618,1.6-1.686.087-.632-1.976-13.3-3.386-21.653a4.815,4.815,0,0,0-4.614-3.984H9.574c-4.458,0-5.465,3.184-5.638,3.919" transform="translate(4262.071 795.634)" fill="#2c3e50"/>
      <path id="Path_651" data-name="Path 651" d="M5.286,357.865H27.919a5.027,5.027,0,0,1,4.809,4.149l3.2,21.588a100.364,100.364,0,0,1-17.8,1.589c-9.915,0-13.219-1.589-13.219-1.589l-3.2-21.588a3.521,3.521,0,0,1,3.58-4.149" transform="translate(4263.093 792.686)" fill="#ddd"/>
      <path id="Path_652" data-name="Path 652" d="M17.885,385.151c-9.847,0-13.169-1.542-13.3-1.608l-.094-.045L1.272,361.805a3.719,3.719,0,0,1,3.776-4.376H27.68a5.222,5.222,0,0,1,5,4.319l3.227,21.773-.184.037a101.4,101.4,0,0,1-17.843,1.593m-13.04-1.925c.6.246,4.193,1.529,13.04,1.529a102.151,102.151,0,0,0,17.58-1.549l-3.171-21.4a4.814,4.814,0,0,0-4.614-3.98H5.048a3.407,3.407,0,0,0-2.633,1.15,3.409,3.409,0,0,0-.752,2.773Z" transform="translate(4263.331 792.924)" fill="#2c3e50"/>
      <path id="Path_653" data-name="Path 653" d="M97.189,333.216s.951,1.023,1.348,1.371,2.494,7.885,2.494,7.885l-3.648,4.007s-.335-.223-.391.335-3.776-3.46-3.776-3.46l-.693-7.4Z" transform="translate(4213.472 806.147)" fill="#0a58ca"/>
      <path id="Path_654" data-name="Path 654" d="M126.449,372.546a16.054,16.054,0,0,0,3.892,1.5c1.88.381,1.667-5.373,1.667-5.373l-.68-.894-2.635-.605s-2.523,1.164-2.551,1.211l-.717,1.22Z" transform="translate(4195.503 787.6)" fill="#0a58ca"/>
      <path id="Path_655" data-name="Path 655" d="M430.426,249.2H415.647c.335,2.679-2.989,5.68-4.084,8.036-1.132,2.434-1.554,10.392,11.588,10.392s12.787-8.183,11.338-10.392c-1.422-2.173-4.4-5.357-4.064-8.036" transform="translate(4039.52 852.031)"/>
      <path id="Path_656" data-name="Path 656" d="M426.149,401.76c-.112,1.42-.515,2.591-.6,3.77-.085,1.234.155,2.48.215,4.085.163,1.708-.606,3.017-.9,4.488-1.5,7.5.089,12.091-1.555,17.814a24.282,24.282,0,0,1-1.384,3.327c-.377,1.089-.025,2.416-.418,4.574-.508,2.794-1.87,5.622-1.406,7.186.44,1.477,3.856,2.913,5.131,2.913,1.525,0,.782-1.761.711-2.848-.115-1.724.5-11.52,1.076-13.668,1.654-6.215,5.385-15.492,6.137-21.4.713-5.6.244-6.658,1.513-13.23.147-.762,2.836-18.389,3.052-25.488l-11.453,5.777a206.749,206.749,0,0,1-.121,22.7" transform="translate(4034.627 784.265)" fill="#ffb797" fill-rule="evenodd"/>
      <path id="Path_658" data-name="Path 658" d="M425.954,527.946c-.247,1.171-2.574,1.8-3.7.259a8.371,8.371,0,0,1-1.224-3.485c-.008-.05-.027-.095-.036-.145-.573,2.027-1.236,3.888-.892,5.05.44,1.479,3.856,2.914,5.132,2.914,1.524,0,.782-1.761.71-2.847-.022-.329-.017-.947.009-1.746" transform="translate(4034.626 701.643)" fill-rule="evenodd"/>
      <path id="Path_659" data-name="Path 659" d="M425,531.7c-1.379,0-4.852-1.477-5.321-3.056-.31-1.047.128-2.545.636-4.28.084-.288.17-.582.254-.879l.231-.812.155.83a.435.435,0,0,0,.013.049.812.812,0,0,1,.024.1,8.146,8.146,0,0,0,1.188,3.4,2.074,2.074,0,0,0,2.135.782,1.483,1.483,0,0,0,1.21-.966l.391.047c-.026.839-.029,1.42-.009,1.726a7.506,7.506,0,0,0,.111.77c.13.732.264,1.489-.116,1.943a1.119,1.119,0,0,1-.9.347m-4.274-7.328-.03.1c-.47,1.605-.915,3.122-.637,4.056.4,1.352,3.682,2.773,4.942,2.773a.74.74,0,0,0,.6-.206c.261-.311.138-1.005.03-1.619a7.69,7.69,0,0,1-.116-.812c-.014-.215-.018-.552-.01-1.009a2.264,2.264,0,0,1-1.1.562,2.463,2.463,0,0,1-2.537-.936,7.365,7.365,0,0,1-1.135-2.913" transform="translate(4034.865 702.684)" fill="#373737"/>
      <path id="Path_660" data-name="Path 660" d="M431.288,276.738a47.614,47.614,0,0,1-5.06-1.543c-2.515-.974-2.075-3.184-1.5-6.3l-4.647-1.638c-.444,3.317.323,7.105-3.1,6.166-4.077-1.117-6.023-.355-7.3,4.991l18.868,8.879c0,3.7,1.489,7.154,2.369,10.2l3.953-1.577c-.437-4.244-1.353-18.648-3.593-19.181" transform="translate(4040.261 842.167)" fill="#ffb797" fill-rule="evenodd"/>
      <path id="Path_662" data-name="Path 662" d="M395.918,301.964l3.171,2.982c2.1-2.649,7.866-15.84,7.866-15.84l-5.385-2.254c-2.7,4.563-4.65,12.668-5.652,15.112" transform="translate(4047.782 831.467)" fill="#c0c7cb" fill-rule="evenodd"/>
      <path id="Path_663" data-name="Path 663" d="M398.829,304.939l-3.427-3.223.051-.126c.3-.733.7-2.023,1.162-3.517,1.1-3.554,2.608-8.423,4.5-11.621l.088-.148,5.729,2.4-.08.184c-.236.54-5.8,13.246-7.893,15.884Zm-2.959-3.325,2.913,2.739c2.014-2.758,6.936-13.869,7.629-15.441l-5.041-2.109c-1.83,3.16-3.3,7.907-4.377,11.388-.458,1.479-.826,2.664-1.124,3.423" transform="translate(4048.064 831.767)" fill="#373737"/>
      <path id="Path_664" data-name="Path 664" d="M431.949,239.772a6.321,6.321,0,0,0-4.01.537c-2.1,1.137-2.853,3.682-2.839,6.463,0,.107,0,.215.008.322s.007.2.007.3c.009.137.009.273.022.415.043.608.092,1.151.15,1.652a10.357,10.357,0,0,0,.651,2.759c.393.95,3.01,4.354,5.082,4.289,1.9-.064,4.468-3.28,4.884-4.023a7.782,7.782,0,0,0,.851-2.875c.092-.728.121-1.493.156-2.309v-.028c.008-.187.015-.386.015-.572.007-3.268-1.122-6.385-4.976-6.929" transform="translate(4031.846 857.231)" fill="#ffb797" fill-rule="evenodd"/>
      <path id="Path_665" data-name="Path 665" d="M430.721,256.47c-2.255,0-4.852-3.558-5.206-4.412a10.467,10.467,0,0,1-.664-2.81c-.059-.51-.108-1.053-.151-1.663-.008-.087-.011-.177-.015-.266l-.007-.151c0-.059,0-.107,0-.155s0-.1,0-.155c-.007-.1-.008-.211-.008-.322-.01-2.293.491-5.307,2.943-6.637a6.572,6.572,0,0,1,4.132-.559c4.266.6,5.153,4.207,5.147,7.126,0,.188-.008.39-.015.58l0,.146c-.034.774-.064,1.506-.152,2.207a7.942,7.942,0,0,1-.874,2.945c-.384.686-3.018,4.058-5.052,4.127h-.066m-.285-16.832a5.439,5.439,0,0,0-2.64.608c-2.282,1.237-2.747,4.1-2.736,6.288,0,.1,0,.207.007.31,0,.061,0,.108,0,.155s0,.105,0,.158l.007.148c0,.082.006.164.014.249.043.607.092,1.145.15,1.648a10.063,10.063,0,0,0,.637,2.7c.362.876,2.893,4.169,4.84,4.169h.054c1.773-.059,4.277-3.135,4.718-3.922a7.578,7.578,0,0,0,.826-2.8c.086-.687.117-1.41.15-2.175l.005-.119c.008-.212.014-.408.014-.591.006-2.761-.822-6.17-4.806-6.732h0a8.754,8.754,0,0,0-1.247-.093" transform="translate(4032.084 857.468)"/>
      <path id="Path_666" data-name="Path 666" d="M430.322,432.532c-.28-.805-.92-.639-1.456-2.506-1.645-5.722.021-11.13-1.483-18.635-.3-1.47-1.064-2.779-.9-4.488.06-1.605.3-2.851.215-4.088-.082-1.177-.485-2.348-.6-3.769a113.719,113.719,0,0,1-.344-13.025c.113-10.036.915-14.8-2.732-22.312l-7.6.028-.9,6.833c.236,7.773,1.564,15.827,3.263,24.627,1.27,6.572.9,9.171,1.614,14.771.751,5.906,6.8,22.58,6.986,24.852.049.617.18,8.481.3,9.54.125,1.082,0,3.684,1.475,3.684,1.275,0,3.66-2.757,3.978-3.755.5-1.553-.9-4.39-1.406-7.184-.393-2.16-.041-3.486-.418-4.574" transform="translate(4037.62 789.494)" fill="#ffb797" fill-rule="evenodd"/>
      <path id="Path_668" data-name="Path 668" d="M442.436,535.27c-.522,0-.881-.573-1.233-.89.02.442.039.785.059.951.124,1.082,0,3.683,1.475,3.683,1.275,0,3.66-2.757,3.978-3.755.364-1.139-.29-2.974-.866-4.973-.087.37-.782,4.984-3.413,4.984" transform="translate(4023.052 698.524)" fill-rule="evenodd"/>
      <path id="Path_669" data-name="Path 669" d="M442.474,538.275c-1.421,0-1.543-1.945-1.623-3.232-.015-.237-.029-.453-.049-.627-.019-.154-.037-.452-.059-.965l-.021-.472.351.316c.091.083.183.181.278.283.254.273.516.556.822.556,1.471,0,2.6-1.663,3.191-4.683.013-.07.023-.121.03-.149l.174-.734.209.725c.078.27.157.536.235.8.517,1.742.964,3.246.629,4.29-.319,1-2.727,3.892-4.166,3.892m-1.31-4.317c.011.2.021.33.031.413.02.181.035.4.051.648.071,1.139.179,2.86,1.228,2.86,1.142,0,3.481-2.648,3.789-3.617.3-.927-.154-2.447-.632-4.057,0-.015-.01-.031-.014-.047-.669,2.865-1.853,4.373-3.445,4.373a1.441,1.441,0,0,1-1.009-.573" transform="translate(4023.314 699.462)" fill="#373737"/>
      <path id="Path_670" data-name="Path 670" d="M407.6,344.633c-.05.32-.7,5.8-.737,6.095-1.128,10.023,2.666,23.842,5.419,37.1,6.809,2.271,16.433-.4,16.433-.4s4.313-20.468,4.313-30.67c0-6.994-3.956-11.142-4.337-13.347-5.03,2.907-18.813,1.807-21.091,1.222" transform="translate(4041.916 800.579)" fill="red" fill-rule="evenodd"/>
      <path id="Path_672" data-name="Path 672" d="M425.274,282.021l-5.81,1.816s-2.935-2.437-4.955-4.265c0,0-5.051-3.01-10.147,3.55-.578.745,2.878,2.074,2.439,5.852-.739,6.366-2.422,18.5-.709,20.535,1.62,1.92,20.945,2.6,21.5-.678.325-1.924-1.408-2.908-1.943-5.093-.379-1.553-.238-3.26.24-6.151,1.253-1.023,3.612-2.37,2.37-5.736-.9-2.446,3.736-2.369,3.5-4.191-.7-5.435-6.485-5.64-6.485-5.64" transform="translate(4043.207 835.819)" fill="#0a58ca" fill-rule="evenodd"/>
      <path id="Path_674" data-name="Path 674" d="M428.759,232.069A5.349,5.349,0,0,0,423.943,235a3.805,3.805,0,0,0-2.909,2.775,6.4,6.4,0,0,0,1.836,5.486s.361-3.435,2.523-5.178a14.966,14.966,0,0,0,4.3,2.756,21.341,21.341,0,0,1-1.8-3.218s2.989,1.888,7.677,7.385c-.3-2.4.267-3.56.267-6.282a6.925,6.925,0,0,0-7.071-6.658" transform="translate(4034.115 861.385)"/>
      <path id="Path_675" data-name="Path 675" d="M442.648,254.264c-1.07.036-2.487.251-2.438,1.669a2.5,2.5,0,0,0,4.986-.174c-.049-1.418-1.479-1.533-2.548-1.5m.125,3.589a2.125,2.125,0,0,1-2.289-1.93c-.032-.917.618-1.331,2.173-1.386s2.233.314,2.264,1.231a2.125,2.125,0,0,1-2.148,2.086" transform="translate(4023.594 849.267)" fill="#fff"/>
      <path id="Path_676" data-name="Path 676" d="M449.843,254.591a6.589,6.589,0,0,1-1.161-.061,2.208,2.208,0,0,1,.782.6,3.139,3.139,0,0,1,.283,1.413,3.135,3.135,0,0,0,.148-1.078c-.006-.209.042-.261.137-.271s.1-.061.1-.115-.011-.313-.014-.4-.092-.1-.275-.09" transform="translate(4018.968 849.119)" fill="#fff"/>
      <path id="Path_677" data-name="Path 677" d="M427.69,254.785c-1.07.036-2.487.251-2.438,1.669a2.5,2.5,0,0,0,4.986-.175c-.05-1.418-1.478-1.532-2.548-1.495m.126,3.589a2.126,2.126,0,0,1-2.289-1.93c-.031-.916.619-1.331,2.173-1.387s2.233.315,2.264,1.231a2.124,2.124,0,0,1-2.148,2.086" transform="translate(4031.763 848.983)" fill="#fff"/>
      <path id="Path_678" data-name="Path 678" d="M424.415,255.518c0,.083.012.344.014.4s.015.1.111.106.148.052.154.261a3.143,3.143,0,0,0,.222,1.065,3.136,3.136,0,0,1,.185-1.428,2.2,2.2,0,0,1,.738-.654,6.51,6.51,0,0,1-1.156.144c-.182.005-.271.024-.268.108" transform="translate(4032.22 848.717)" fill="#fff"/>
      <path id="Path_679" data-name="Path 679" d="M436.825,256.377l-.605.021a.892.892,0,0,1-.52-.175l.243.989a1.189,1.189,0,0,1,1.821-.064l.171-1a.867.867,0,0,1-.5.211c-.082,0-.409.016-.605.022" transform="translate(4026.057 848.237)" fill="#fff"/>
      <path id="Path_680" data-name="Path 680" d="M430.663,330.689c-4.826.839-8.279,3.036-10.858,3.174-.6.034-1.189.234-1.741-.182a5.307,5.307,0,0,0-3.708-.792c-1.194.04.12.985-1.285,1.22-.831.137-3.3.266-3.366.6-.131.67.622.65,1.487.58a.639.639,0,0,0,.654.867.866.866,0,0,0,.924.883c.051.71.576.906,1.491.72.976-.2,2.564-.187,5.214-.667,3.473-.63,4.171-.162,6.7-.382,2.48-.218,6.274-.507,8.339-2,.735-.53.737-2.857.332-5.157-1.65.345-2.546.854-4.179,1.137" transform="translate(4040.261 808.148)" fill="#ffb797" fill-rule="evenodd"/>
      <path id="Path_682" data-name="Path 682" d="M413.156,334.5c.132.681.745,1.084,1.7,1.016.338.32.568.691.8.874l2.5-.748-2.694-.941a9.4,9.4,0,0,1-2.3-.2" transform="translate(4038.368 805.448)" fill="#c0c7cb" fill-rule="evenodd"/>
      <path id="Path_683" data-name="Path 683" d="M415.314,336.3l-.081-.062a2.923,2.923,0,0,1-.409-.433c-.108-.131-.22-.266-.349-.394a1.586,1.586,0,0,1-1.815-1.18l-.056-.288.288.055a9.1,9.1,0,0,0,2.161.2h.137l3.3,1.153Zm-.691-1.3.064.06a5.488,5.488,0,0,1,.441.487,3.976,3.976,0,0,0,.274.309l1.808-.541-2.085-.728h-.067a9.107,9.107,0,0,1-1.908-.145,1.336,1.336,0,0,0,1.387.564Z" transform="translate(4038.67 805.749)" fill="#373737"/>
      <path id="Path_684" data-name="Path 684" d="M375.531,295.819c-4.416-2.635-13.876-8.077-13.967-9.533a6.12,6.12,0,0,0-1.535-3.769c-.822-.972-.747.75-1.868-.272-.664-.6-2.4-2.585-2.717-2.422-.647.331-.133.949.494,1.624a.682.682,0,0,0-.295,1.119.924.924,0,0,0-.13,1.355c-.56.51-.378,1.078.38,1.722.809.687,1.843,2.022,3.994,3.922,2.816,2.49,8.532,10.29,14.914,11.3,1.315.208,2.244-4.139.73-5.042" transform="translate(4070.05 835.311)" fill="#ffb797" fill-rule="evenodd"/>
      <path id="Path_685" data-name="Path 685" d="M374.656,300.828a.831.831,0,0,1-.125-.009c-4.99-.787-9.61-5.705-12.668-8.961-.916-.976-1.709-1.819-2.345-2.382-1.291-1.141-2.2-2.1-2.862-2.795-.453-.477-.812-.855-1.129-1.125a1.776,1.776,0,0,1-.776-1.225.973.973,0,0,1,.266-.667,1.158,1.158,0,0,1-.169-.732,1.087,1.087,0,0,1,.293-.63.85.85,0,0,1-.093-.657.91.91,0,0,1,.334-.49c-.42-.465-.731-.885-.664-1.267a.675.675,0,0,1,.4-.479c.31-.159.788.261,2.171,1.683.3.308.583.6.769.768.457.416.6.3.815.126.279-.228.591-.4,1.07.165a6.353,6.353,0,0,1,1.582,3.885c.075,1.2,8.063,5.932,12.354,8.474.55.326,1.061.629,1.517.9,1.131.675,1,2.814.551,4.046-.319.88-.784,1.37-1.289,1.37m-19.392-21.05c-.14.08-.153.153-.158.178-.047.274.444.8.738,1.117l.211.227-.295.1a.518.518,0,0,0-.331.35.466.466,0,0,0,.122.449l.143.16-.17.13a.706.706,0,0,0-.285.489.778.778,0,0,0,.186.581l.123.145-.141.128a.661.661,0,0,0-.261.495c0,.262.219.576.636.93a16.168,16.168,0,0,1,1.16,1.154c.694.731,1.559,1.642,2.837,2.771.651.575,1.449,1.424,2.372,2.408,3.021,3.215,7.585,8.075,12.441,8.84.329.057.714-.369.98-1.1.471-1.3.43-3.087-.381-3.572-.457-.272-.968-.575-1.516-.9-6.565-3.89-12.466-7.49-12.548-8.791a5.9,5.9,0,0,0-1.489-3.654c-.268-.318-.321-.275-.518-.114-.315.256-.676.458-1.332-.139-.194-.177-.468-.458-.786-.785a10.993,10.993,0,0,0-1.739-1.59" transform="translate(4070.288 835.55)" fill="#ffb797"/>
      <path id="Path_686" data-name="Path 686" d="M363.172,279.558a1.5,1.5,0,0,0,.268,2.089,3.093,3.093,0,0,0,.372,1.883l1.67.928-.962-2.841a10.082,10.082,0,0,1-1.348-2.058" transform="translate(4065.836 835.451)" fill="#ffb797" fill-rule="evenodd"/>
      <path id="Path_687" data-name="Path 687" d="M365.6,284.457l-2.184-1.236A3.153,3.153,0,0,1,363,281.3a1.681,1.681,0,0,1-.218-2.29l.191-.221.135.26a9.721,9.721,0,0,0,1.253,1.935l.107.151Zm-1.883-1.5,1.18.655-.786-2.322-.051-.062a9.762,9.762,0,0,1-1.14-1.7,1.446,1.446,0,0,0,.433,1.567l.054.06,0,.081a2.953,2.953,0,0,0,.313,1.725" transform="translate(4066.071 835.872)" fill="#ffb797"/>
      <path id="Path_688" data-name="Path 688" d="M357.289,281.9a21.4,21.4,0,0,0-1.531-1.747c-.281-.3-.589-.333-.716-.172s-.2.37.138.75a15.215,15.215,0,0,0,1.741,1.691c.52.443.985.244.369-.522" transform="translate(4070.163 835.269)" fill="#ffb797" fill-rule="evenodd"/>
      <path id="Path_689" data-name="Path 689" d="M357.167,282.62a1.009,1.009,0,0,1-.613-.281,15.419,15.419,0,0,1-1.762-1.71c-.333-.375-.381-.7-.145-1a.46.46,0,0,1,.348-.17.922.922,0,0,1,.668.329,21.262,21.262,0,0,1,1.541,1.758c.471.586.347.862.231.974a.371.371,0,0,1-.269.1m-2.147-2.77h-.008a.072.072,0,0,0-.054.02c-.058.074-.145.185.131.5a15.16,15.16,0,0,0,1.721,1.671.663.663,0,0,0,.354.186,1.753,1.753,0,0,0-.267-.433h0a21.011,21.011,0,0,0-1.521-1.734.551.551,0,0,0-.356-.206" transform="translate(4070.401 835.507)" fill="#ffb797"/>
      <path id="Path_690" data-name="Path 690" d="M358.39,285.82c-.706-.762-1.436-1.38-2.139-2.134-.28-.3-.466-.185-.593-.005s-.192.4.17.758a21.129,21.129,0,0,0,2.238,1.9c.558.4.99.2.324-.518" transform="translate(4069.823 833.297)" fill="#ffb797" fill-rule="evenodd"/>
      <path id="Path_691" data-name="Path 691" d="M358.318,286.5a1.1,1.1,0,0,1-.606-.239,21.444,21.444,0,0,1-2.261-1.918c-.359-.353-.423-.684-.194-1.014a.545.545,0,0,1,.4-.263.629.629,0,0,1,.5.246c.342.367.7.708,1.043,1.038.36.346.734.7,1.1,1.1h0c.479.518.431.795.307.936a.369.369,0,0,1-.287.117m-2.628-3.039h0c-.027,0-.066.038-.107.1-.063.09-.149.214.146.5a20.808,20.808,0,0,0,2.215,1.879.889.889,0,0,0,.336.163,1.249,1.249,0,0,0-.272-.386c-.354-.383-.723-.737-1.08-1.079s-.709-.68-1.058-1.054c-.107-.113-.164-.122-.178-.122" transform="translate(4070.061 833.535)" fill="#ffb797"/>
      <path id="Path_692" data-name="Path 692" d="M357.625,288.117c-.663-.653-1.311-1.13-1.971-1.777-.262-.257-.475-.1-.6.078s-.2.39.146.692a17.4,17.4,0,0,0,2.112,1.592c.529.326.939.034.314-.585" transform="translate(4070.155 831.821)" fill="#ffb797" fill-rule="evenodd"/>
      <path id="Path_693" data-name="Path 693" d="M357.473,288.8a.988.988,0,0,1-.5-.164,17.54,17.54,0,0,1-2.139-1.612.653.653,0,0,1-.176-.954.628.628,0,0,1,.445-.295.57.57,0,0,1,.455.191c.32.313.645.593.96.863.33.284.67.577,1.012.914h0c.511.507.376.8.294.907a.423.423,0,0,1-.346.152m-2.332-2.632h-.007a.278.278,0,0,0-.158.129c-.068.094-.143.2.115.429a17.083,17.083,0,0,0,2.085,1.573.462.462,0,0,0,.339.1.954.954,0,0,0-.268-.374c-.331-.327-.667-.616-.991-.895s-.649-.559-.978-.881a.25.25,0,0,0-.137-.079" transform="translate(4070.394 832.059)" fill="#ffb797"/>
      <path id="Path_694" data-name="Path 694" d="M357.048,290.693c-.661-.654-1.011-.957-1.671-1.6-.263-.257-.444-.135-.571.041s-.2.391.147.693a12.444,12.444,0,0,0,1.772,1.378c.527.327.949.109.323-.508" transform="translate(4070.29 830.326)" fill="#ffb797" fill-rule="evenodd"/>
      <path id="Path_695" data-name="Path 695" d="M356.924,291.311a1.067,1.067,0,0,1-.54-.18,12.824,12.824,0,0,1-1.8-1.4.654.654,0,0,1-.177-.955.573.573,0,0,1,.408-.271.6.6,0,0,1,.462.2c.31.3.552.533.79.757.268.252.531.5.881.847.477.471.392.74.3.859a.4.4,0,0,1-.325.138m-2.069-2.409h0c-.03,0-.076.042-.122.106-.069.1-.142.2.117.429a12.126,12.126,0,0,0,1.746,1.357.7.7,0,0,0,.323.122,1,1,0,0,0-.244-.32c-.348-.344-.609-.59-.875-.841-.24-.226-.483-.456-.8-.762-.083-.082-.13-.091-.147-.091" transform="translate(4070.527 830.564)" fill="#ffb797"/>
      <path id="Path_696" data-name="Path 696" d="M419.367,338.147v0a.914.914,0,0,0,.912.912h21.461a.915.915,0,0,0,.912-.912v0Z" transform="translate(4034.977 803.454)" fill="#ddd"/>
      <path id="Path_697" data-name="Path 697" d="M396.437,294.977a1.663,1.663,0,0,0-1.646-1.222l-13.168-.006v20.84l18.183.229c1.114,0,1.18-.86,1.1-1.159Z" transform="translate(4055.589 827.701)" fill="#fff"/>
      <path id="Path_698" data-name="Path 698" d="M382.948,294.134a.535.535,0,0,0-.516-.39H359.189a.534.534,0,0,0-.516.676l4.358,18.458a2.642,2.642,0,0,0,2.544,1.936h21.642a.535.535,0,0,0,.516-.677Z" transform="translate(4068.133 827.703)" fill="#f2f2f2"/>
      <path id="Path_699" data-name="Path 699" d="M386.979,314.775H365.337a2.847,2.847,0,0,1-2.735-2.081l-4.36-18.466a.732.732,0,0,1,.709-.92h23.242a.735.735,0,0,1,.706.535l0,.007,4.786,20a.734.734,0,0,1-.708.921M358.95,293.7a.337.337,0,0,0-.325.426l4.361,18.466a2.449,2.449,0,0,0,2.351,1.784h21.643a.336.336,0,0,0,.325-.426l-4.787-20.007a.339.339,0,0,0-.325-.242Z" transform="translate(4068.372 827.942)" fill="#ddd"/>
      <rect id="Rectangle_344" data-name="Rectangle 344" width="284.902" height="249.615" transform="translate(4264 988.122)" fill="none"/>
      <rect id="Rectangle_345" data-name="Rectangle 345" width="284.902" height="249.615" transform="translate(4264 988.122)" fill="none"/>
    </g>
  </g>
</svg>
