<svg xmlns="http://www.w3.org/2000/svg" xmlns:xlink="http://www.w3.org/1999/xlink" width="160.817" height="22.159" viewBox="0 0 160.817 22.159">
  <defs>
    <clipPath id="clip-path">
      <rect id="Rectangle_17" data-name="Rectangle 17" width="160.817" height="22.159" fill="#fff"/>
    </clipPath>
  </defs>
  <g id="Group_14" data-name="Group 14" transform="translate(0 0)">
    <g id="Group_11" data-name="Group 11" transform="translate(0 0)" clip-path="url(#clip-path)">
      <path id="Path_79" data-name="Path 79" d="M117.6,10.561c.905-.06-.178-.568-1.114-1l-1.028.686Z" transform="translate(42.872 3.551)" fill="#fff"/>
      <path id="Path_80" data-name="Path 80" d="M114.246,9.537l-2.555.492,1.811-.151c1.866.739-.4.878-1.159.924,3.2.28,1.318-.853,1.9-1.266" transform="translate(41.472 3.541)" fill="#fff"/>
      <path id="Path_81" data-name="Path 81" d="M110.3,9.516c-1.544-.285-1.192.344-.566.617.137-.229,1.192-.346.566-.617" transform="translate(40.549 3.506)" fill="#fff"/>
      <path id="Path_82" data-name="Path 82" d="M45.1,1.1c.542.437,1.056.99.867,1.045.325.158.522.266.468.119A3.822,3.822,0,0,0,45.1,1.1" transform="translate(16.746 0.409)" fill="#fff"/>
      <path id="Path_83" data-name="Path 83" d="M45.841,1.922l-.407-.206.348.229c.045.011.037-.018.059-.023" transform="translate(16.87 0.637)" fill="#fff"/>
      <path id="Path_84" data-name="Path 84" d="M86.237,13.583c1.838-.453,2.748-.185,4.417-.384l.924.7c1.783-.236.786-.6,2.083-.967,1.63.442,5.067.069,5.842.117.531.336-.675.443-.938.639,2.1-.21,1.961-.9,4.566-.835l.038.193c6.253-.856,14.142-.208,21.107-.276-.466-.077-.336-.215-.506-.372,7.342.313,15.747,1.208,21.743.333-3.96-.376-10.56-2.248-14.732-1.375-1.449-.654-3.82-.128-4.381-.887-5.758-.789-8.2.321-13.747.055-.79-.167-.387-.5-.6-.842l4.431-.1-2.675-.435c1.183-.267,4.008.151,4.372-.47-3.9.49-10.057-.361-13.458.442,1.58.2,3.561.1,5.433.221.813.265,2.08.494,1.98.832-5.388.742-9.794.111-15.289.372-1.375.066-3.24.012-3.468-.325.9-.115.222-.395.964-.555-1.949.285-.2,1.215-3.009,1.086l.357-1.178c-1.119,1.252-3.436-.188-5.462.564-.739-.461.62-.753,2.154-.8-1.759-.195-1.9.518-3.35.48.468-.325.915-.658,1.355-1-1.5.978-2.73-.225-3.471-.662-.144.2.576,1.148-1.353.714-.79-.335-.3-.47-.446-.657-.151.206-1.016.447-2.2-.106-.063-.4.983-.089,1.19-.387a5,5,0,0,1-2.036-1.209c-1.6-.5-.128.472-1.179.355C75.846,6.237,75.861,6,76.12,5.706c.247-.281.756-.527.4-1.037a16.374,16.374,0,0,1,3.084.886,6.415,6.415,0,0,0,2.008.472,17.931,17.931,0,0,1-3.124-1.152c.195-.122-.307-.569-.666-.916s-.494-.6.606-.293a11.951,11.951,0,0,0-3.266-1.3,13.448,13.448,0,0,0-3.672-.309,15.144,15.144,0,0,0-6.577,1.965c.6-.121,1.321-.324,1.295-.048-1.829,1.016-1.791.573-2.339.5-1.24,1.068-.679,1.567-1.1,2.5a10.006,10.006,0,0,0-1.687,1.164l2.013,2.1a4.052,4.052,0,0,0,1.532-2.274,6.673,6.673,0,0,0,.044-3.132c-.174.16-.354.315-.535.462A2.714,2.714,0,0,0,62.829,3.32L60.687,2c-.078-.2.891,0,1.617.35-.972-.564-1.454-.828-1.951-1.14a3.509,3.509,0,0,0-.917-.344,3.374,3.374,0,0,0-1.241.015A6.656,6.656,0,0,1,59.053.5,3.692,3.692,0,0,1,60.111.244C57.934-.167,55.7.872,56.38,0a38.5,38.5,0,0,0-4.42,2.615c-.7.477-1.359.953-1.954,1.395L48.481,5.145l-.132-.592a3.182,3.182,0,0,1-2.093,1.12,7.2,7.2,0,0,0-1.744.277L44.5,5.69h-.016A4.934,4.934,0,0,1,42.276,5c-1.083-.919-.25-1.349-.462-1.219a18.664,18.664,0,0,0-7.719-2.3c-.261.4-1.211.668-2.355,1.023A29.652,29.652,0,0,0,28.1,3.83,18.628,18.628,0,0,0,23.57,6.279a24.549,24.549,0,0,0-2,1.6c-.314.284-.631.568-.931.864l-.372.365-.3.311c-.8.839-1.558,1.754-2.333,2.737l-.584.751L16.9,13.1c-.018.016-.063.1-.06.062l0-.1c0-.137.018-.274.008-.411a3.718,3.718,0,0,0-.468-1.614,4.883,4.883,0,0,0-.8-1.09,7.973,7.973,0,0,0-1.264-1.053A8.963,8.963,0,0,0,10.711,7.4a10.627,10.627,0,0,0-6.953,1.44C2.3,9.526,1.019,11.472,0,13c.878-.7,1.326-1.1,1.769-1.524a7.652,7.652,0,0,1,1.858-1.369c1.573-.543,2.438.045,3.672.314A7.6,7.6,0,0,0,6.555,9.9,2.148,2.148,0,0,1,8.15,9.55a2.076,2.076,0,0,0,1.318-.173L9.3,10.433a.906.906,0,0,1,1.048-.008,2.369,2.369,0,0,1,.828.769q.354-.224.757-.428a7.072,7.072,0,0,1,.477.671c.06.1.118.2.173.3.078.169.152.33.225.49a2.358,2.358,0,0,1,.173.485q-.01.453-.041.886a14.451,14.451,0,0,1-.228,1.718c.169-.507.324-.878.479-1.29-.022.245-.027,1.2,0,2.32.019.474.007,1.46.01,2.348v1.417c-.008.566-.015,1.145-.023,1.728a9.156,9.156,0,0,1,1.764-1.218c.263-.049.547-.122.576.06a.73.73,0,0,1,.1.516,3.075,3.075,0,0,1-.3.964l.2-.359c.032-.08.066-.163.1-.248a.47.47,0,0,1,.047-.081l.022-.022.125-.174a7.9,7.9,0,0,1,.647-.784l.049.99c1.58-2.143,3.207-4.257,3.775-4.333a10.117,10.117,0,0,0-1.343,2.744c3.676-4.28,3.8-5.13,3.723-5.92a2.3,2.3,0,0,1,.178-1.347,4.254,4.254,0,0,1,.263-.494c.1-.148.206-.306.325-.484a6.184,6.184,0,0,1,.945-1.028l.248.365c.195-.37.394-.749.606-1.111.435-.119.875-.2,1.3-.291.218-1.082,1.639-1.972,3.225-2.442,1.622-.5,3.367-.577,4.63-.943,1.048-.1,2.23.878,3.671,1.471l.2-.657c.248.309.654.706,1.092,1.236a11.281,11.281,0,0,0,2.726,2.568,9.229,9.229,0,0,0,2.492,1.056,12.683,12.683,0,0,0,2.536.343,32.627,32.627,0,0,1,3.378.1c1.982-1.441-.276-.018-.436-.555a18.1,18.1,0,0,1,3.689-1.971c.75-.215,1.371-.195,2.146-.448.664-.609.344-.485-.077-.328s-1.008.417-.7-.089a4.33,4.33,0,0,0,2.012-1.345,1.554,1.554,0,0,1,1.641-.643c.117.377-.339.259-.472.557a1.182,1.182,0,0,1,.309-.221.63.63,0,0,1,.166-.067l.086-.027.005,0h0c-.015.169.134-1.477.071-.779h0v.021l0,.041-.01.075a.873.873,0,0,1-.036.137,1.254,1.254,0,0,1-.055.2l-.078.189c-.005.021.01,0,.01,0,.027-.012.088.027.159.074a.855.855,0,0,1,.165.2c.033.033.019.055.037.071.041,0-.082.025.089-.026l.346-.088a2.376,2.376,0,0,1,1.115-.011c.217.073-.032.019-.218-.259l4.676,4.752a13.027,13.027,0,0,1,1.045-.986,9.838,9.838,0,0,1,5.45-1.236,7.013,7.013,0,0,1,2.725.775c.753.363,1.906,1.253,3.633,2.174l.229-.17a8.444,8.444,0,0,0,2.434,1.07,12.7,12.7,0,0,0,2.534.4c1.635.107,3.118-.015,4.436.112Z" transform="translate(0 -0.001)" fill="#fff"/>
      <path id="Path_85" data-name="Path 85" d="M87.929,5.994l-.406-.6-2.582.239c1.009.528,1.569.159,2.988.362" transform="translate(31.539 2.002)" fill="#fff"/>
      <path id="Path_86" data-name="Path 86" d="M86.855,7.163,88.2,6.982l-2.157-.1Z" transform="translate(31.95 2.556)" fill="#fff"/>
      <path id="Path_87" data-name="Path 87" d="M63.093,5.98l.33.085,4.864-.54Z" transform="translate(23.427 2.051)" fill="#fff"/>
      <path id="Path_88" data-name="Path 88" d="M45.615.938a6.5,6.5,0,0,1,2.578,1.9A8.048,8.048,0,0,0,45.171.586a3.8,3.8,0,0,1,.444.352" transform="translate(16.772 0.217)" fill="#fff"/>
      <path id="Path_89" data-name="Path 89" d="M32.7,1.532C31.035,1.6,30.562.077,31.459,1.8c1.684,1,.572-.321,1.242-.263" transform="translate(11.515 0.361)" fill="#fff"/>
      <path id="Path_90" data-name="Path 90" d="M26.928.343a13.814,13.814,0,0,0,2.224.244C27.907-.259,27.7.266,26.928.343" transform="translate(9.999 0.041)" fill="#fff"/>
    </g>
  </g>
</svg>
