<svg xmlns="http://www.w3.org/2000/svg" xmlns:xlink="http://www.w3.org/1999/xlink" width="1366" height="799" viewBox="0 0 1366 799">
  <defs>
    <radialGradient id="radial-gradient" cx="0.5" cy="0.5" r="0.5" gradientUnits="objectBoundingBox">
      <stop offset="0" stop-color="#fff"/>
      <stop offset="1" stop-color="#f8f8f8"/>
    </radialGradient>
    <clipPath id="clip-path">
      <path id="Rectangle_59" data-name="Rectangle 59" d="M1366,50H0V600l1007.772,85.727a270,270,0,0,0,98.614-9.866L1366,600Z" transform="translate(0 31)" fill="url(#radial-gradient)"/>
    </clipPath>
    <linearGradient id="linear-gradient" x1="0.73" y1="0.089" x2="0.128" y2="0.582" gradientUnits="objectBoundingBox">
      <stop offset="0" stop-color="#fff"/>
      <stop offset="1" stop-color="#ddd" stop-opacity="0.051"/>
    </linearGradient>
  </defs>
  <g id="Group_1256" data-name="Group 1256" transform="translate(-79 -100)">
    <rect id="Rectangle_743" data-name="Rectangle 743" width="1366" height="141" transform="translate(79 758)" fill="#0a58ca"/>
    <path id="Rectangle_59-2" data-name="Rectangle 59" d="M1366,50H0V600l1007.772,85.727a270,270,0,0,0,98.614-9.866L1366,600Z" transform="translate(79 168)" fill="red"/>
    <path id="Rectangle_59-3" data-name="Rectangle 59" d="M1366,50H0V600l1007.772,85.727a270,270,0,0,0,98.614-9.866L1366,600Z" transform="translate(79 162)" fill="url(#radial-gradient)"/>
    <g id="Group_1240" data-name="Group 1240" transform="translate(79 131)">
      <path id="Rectangle_59-4" data-name="Rectangle 59" d="M1366-62H0V600l1007.772,85.727a270,270,0,0,0,98.614-9.866L1366,600Z" transform="translate(0 31)" fill="url(#radial-gradient)"/>
      <g id="Mask_Group_1" data-name="Mask Group 1" clip-path="url(#clip-path)">
        <rect id="Rectangle_16" data-name="Rectangle 16" width="887" height="442" rx="221" transform="translate(472.212 809.854) rotate(-49)" fill="url(#linear-gradient)"/>
      </g>
    </g>
  </g>
</svg>
