<svg xmlns="http://www.w3.org/2000/svg" xmlns:xlink="http://www.w3.org/1999/xlink" width="487.31" height="496" viewBox="0 0 487.31 496">
<style xmlns="http://www.w3.org/2000/svg">

      .rocket{animation: hover 4s ease-in-out infinite; transform-origin: center; transform-box: fill-box;}
      @-webkit-keyframes hover {
        0%{transform: translateY(0);}
        50%{transform: translateY(-10px);}
        100%{transform: translateY(0);}
      }
  </style>
  <defs>
    <clipPath id="clip-path">
      <path id="_Path_" data-name="&lt;Path&gt;" d="M990.8,820.255a19.188,19.188,0,0,0,19.171,19.2h213.14a19.216,19.216,0,0,0,19.2-19.2V690.6H990.8Z" transform="translate(-990.8 -690.6)" fill="#fff"/>
    </clipPath>
    <linearGradient id="linear-gradient" x1="0.901" y1="0.1" x2="0.194" y2="0.8" gradientUnits="objectBoundingBox">
      <stop offset="0" stop-color="#ddd"/>
      <stop offset="1" stop-color="#fff"/>
    </linearGradient>
  </defs>
  <g id="Group_1245" data-name="Group 1245" transform="translate(-702.251 -123.136)">
    <path id="_Path_2" data-name="&lt;Path&gt;" d="M990.8,820.255a19.188,19.188,0,0,0,19.171,19.2h213.14a19.216,19.216,0,0,0,19.2-19.2V690.6H990.8Z" transform="translate(-74.248 -432.071)" fill="#f2f2f2"/>
    <path id="_Compound_Path_" data-name="&lt;Compound Path&gt;" d="M1222.242,838.989H1009.1a19.62,19.62,0,0,1-19.6-19.6V689.3h252.345V819.386a19.619,19.619,0,0,1-19.6,19.6ZM990.329,690.129V819.386A18.8,18.8,0,0,0,1009.1,838.16h213.14a18.8,18.8,0,0,0,18.774-18.773V690.129Z" transform="translate(-73.379 -431.202)" fill="#ddd" fill-rule="evenodd"/>
    <g id="Mask_Group_5" data-name="Mask Group 5" transform="translate(916.552 258.529)" clip-path="url(#clip-path)">
      <path id="_Path_3" data-name="&lt;Path&gt;" d="M1124.744,700.1c-69.853,65.707-120.309,86.125-182.7,92.46L937.9,858.9l65.508,22.389c57.215-1.659,113.045-87.22,146.976-158.267Z" transform="translate(-955.446 -698.661)" opacity="0.7" fill="url(#linear-gradient)"/>
    </g>
    <path id="_Compound_Path_2" data-name="&lt;Compound Path&gt;" d="M589.764,909.769l-.564-.6,3.582-3.416.6.6Zm7.164-6.9-.564-.6c1.161-1.128,2.322-2.322,3.483-3.516l.6.564C599.283,900.515,598.122,901.709,596.928,902.87Zm6.932-7.2-.63-.564c1.095-1.194,2.222-2.454,3.284-3.715l.63.564C606.083,893.218,604.955,894.479,603.86,895.673Zm6.5-7.529-.63-.531c1.028-1.26,2.09-2.554,3.085-3.881l.663.5c-1.028,1.327-2.056,2.654-3.118,3.914Zm6.136-7.861-.663-.5c1-1.294,1.957-2.653,2.919-4.013l.7.464c-1,1.36-1.957,2.72-2.952,4.046Zm5.771-8.126-.663-.464q1.393-2.056,2.72-4.146l.7.464Q623.662,870.1,622.269,872.156Zm45.441-5.738a12.085,12.085,0,0,1-4.478-.862l.3-.763a11.989,11.989,0,0,0,4.179.8,3.037,3.037,0,0,1,.531-.033l.033.829A3.032,3.032,0,0,0,667.71,866.418Zm5.506-1.426-.431-.73a8.845,8.845,0,0,0,3.317-3.317l.73.4A9.788,9.788,0,0,1,673.216,864.992ZM627.708,863.8l-.73-.431q1.327-2.123,2.587-4.246l.73.4Q629,861.675,627.708,863.8Zm31.344-1.161a14.33,14.33,0,0,1-2.753-4.312l.763-.3a13.644,13.644,0,0,0,2.587,4.047Zm19.138-6.236-.829-.033.033-.2a8.262,8.262,0,0,0-.763-3.516,5.714,5.714,0,0,0-.4-.829l.73-.4q.232.431.431.862a9.467,9.467,0,0,1,.829,3.881Zm-45.076-.862-.663-.564A36.178,36.178,0,0,1,636,851.393l.531.63A28.52,28.52,0,0,0,633.115,855.539Zm21.891-2.123a19.2,19.2,0,0,1-.133-2.388,18.252,18.252,0,0,1,.166-2.687l.829.1a16.943,16.943,0,0,0-.166,2.587,17.645,17.645,0,0,0,.133,2.289Zm-14.528-4.279-.431-.73a40.754,40.754,0,0,1,4.478-2.322l.332.763A34.256,34.256,0,0,0,640.478,849.137Zm32.538-.862a18.007,18.007,0,0,0-4.246-2.355l.3-.763a18.359,18.359,0,0,1,4.445,2.454ZM649.5,845.257l-.232-.8a31.8,31.8,0,0,1,4.942-1l.1.829A33.353,33.353,0,0,0,649.5,845.257Zm14.594-.7a29.617,29.617,0,0,0-4.876-.5v-.829a30.506,30.506,0,0,1,5.008.5Zm-7.065-.829-.8-.265a24.149,24.149,0,0,1,2.189-4.577l.7.431A25.487,25.487,0,0,0,657.029,843.731Zm5.042-8.292-.6-.564q.365-.4.763-.763a22.907,22.907,0,0,1,3.018-2.587l.5.663a27.4,27.4,0,0,0-2.952,2.521Zm7.861-5.771-.365-.763a33.469,33.469,0,0,1,4.677-1.857l.232.8A31.69,31.69,0,0,0,669.932,829.668Zm9.354-3.052-.2-.8q2.438-.647,4.776-1.294l.232.8c-1.559.431-3.184.862-4.809,1.294Zm9.586-2.72-.232-.8c1.592-.5,3.184-1.028,4.71-1.559l.265.763c-1.526.564-3.118,1.095-4.743,1.592Zm9.42-3.317-.3-.763c1.559-.6,3.118-1.227,4.61-1.857l.3.73c-1.493.663-3.052,1.294-4.61,1.891Zm9.154-3.947-.332-.73,4.478-2.189.332.763Zm8.955-4.378-.365-.73,4.478-2.189.365.763Zm8.956-4.345-.365-.763,4.478-2.156.365.73Zm8.955-4.345-.365-.73,4.478-2.189.365.73Zm8.922-4.345-.332-.73,4.445-2.189.365.763Z" transform="translate(194.148 -502.712)" fill="#ddd"/>
    <g>
      <path id="_Path_4" data-name="&lt;Path&gt;" d="M1430.091,705.7c-11.377,13.433-28.492,26.269-48.691,43.65l27.563-11.244c-3.383,5.605-8.325,13.433-11.078,16.816,6.369-2.952,16.584-9.387,19.968-12.836,0,4.776-5.738,12.77-8.259,17.148,14.694-12.6,28.094-27.961,32.406-41.461Z" transform="translate(-335.292 -442.163)" fill="#569aff"/>
      <path id="_Path_5" data-name="&lt;Path&gt;" d="M1480.157,707.7c-6.733,8.922-16.783,17.48-28.657,29.056l16.087-7.629c-2.023,3.682-4.975,8.889-6.6,11.111,3.715-1.99,9.718-6.3,11.708-8.591-.066,3.118-3.483,8.391-4.975,11.277,8.657-8.392,16.551-18.574,19.2-27.43Z" transform="translate(-382.141 -443.499)" fill="#fff" opacity="0.4"/>
    </g>
    <path id="_Path_6" data-name="&lt;Path&gt;" d="M1223.111,539.1h-213.14A19.188,19.188,0,0,0,990.8,558.3V589.35h251.516V558.3A19.216,19.216,0,0,0,1223.111,539.1Z" transform="translate(-74.248 -330.821)" fill="#fff"/>
    <path id="_Compound_Path_3" data-name="&lt;Compound Path&gt;" d="M1241.845,588.946H989.5V557.5a19.62,19.62,0,0,1,19.6-19.6h213.14a19.619,19.619,0,0,1,19.6,19.6Zm-251.516-.829h250.687V557.469a18.8,18.8,0,0,0-18.773-18.773H1009.1a18.8,18.8,0,0,0-18.773,18.773Z" transform="translate(-73.379 -330.019)" fill="#ddd" fill-rule="evenodd"/>
    <path id="_Path_7" data-name="&lt;Path&gt;" d="M1056.529,593.614a10.514,10.514,0,1,1-10.514-10.514A10.524,10.524,0,0,1,1056.529,593.614Z" transform="translate(-104.122 -360.227)" fill="#fee2e2"/>
    <g id="_Group_" data-name="&lt;Group&gt;" transform="translate(961.927 222.475)">
      <path id="_Path_8" data-name="&lt;Path&gt;" d="M1149.929,593.614a10.514,10.514,0,1,1-10.514-10.514A10.525,10.525,0,0,1,1149.929,593.614Z" transform="translate(-1128.469 -582.702)" fill="#c6dcfc"/>
      <path id="_Compound_Path_4" data-name="&lt;Compound Path&gt;" d="M1138.546,603.758a10.929,10.929,0,1,1,10.946-10.946A10.956,10.956,0,0,1,1138.546,603.758Zm0-21.029a10.1,10.1,0,1,0,10.116,10.083A10.107,10.107,0,0,0,1138.546,582.729Z" transform="translate(-1127.6 -581.9)" fill="#c6dcfc" fill-rule="evenodd"/>
    </g>
    <g id="_Group_2" data-name="&lt;Group&gt;" transform="translate(1000.601 222.939)">
      <path id="_Path_9" data-name="&lt;Path&gt;" d="M1297.408,604.667h-41.891a10.033,10.033,0,0,1,0-20.067h41.891a10.033,10.033,0,1,1,0,20.067Z" transform="translate(-1245.069 -584.169)" fill="#fff"/>
      <path id="_Compound_Path_5" data-name="&lt;Compound Path&gt;" d="M1296.54,604.229h-41.892a10.465,10.465,0,0,1,0-20.929h41.892a10.465,10.465,0,0,1,0,20.929Zm-41.892-20.1a9.635,9.635,0,0,0,0,19.271h41.892a9.635,9.635,0,0,0,0-19.271Z" transform="translate(-1244.2 -583.3)" fill="#c6dcfc" fill-rule="evenodd"/>
    </g>
    <g class="rocket">
      <path id="_Path_10" data-name="&lt;Path&gt;" d="M1549.394,470.1c-16.816,14.694-45.772,4.577-54.794,16.319l25.739,20.365Z" transform="translate(-410.946 -284.707)" fill="#0a58ca"/>
      <path id="_Path_11" data-name="&lt;Path&gt;" d="M1493.355,519.3a10.014,10.014,0,0,0,1.824,10.017l18.243,20.9,5.672-10.548Z" transform="translate(-409.7 -317.589)" fill="#8fb1ff"/>
      <path id="_Path_12" data-name="&lt;Path&gt;" d="M1716.022,561c-10.448,19.7,6.037,45.607-3.317,57.05L1687,597.684Z" transform="translate(-539.529 -345.457)" fill="#0a58ca"/>
      <path id="_Path_13" data-name="&lt;Path&gt;" d="M1694.594,691.965a9.938,9.938,0,0,1-10.183.531L1659.9,679.527l8.989-7.927Z" transform="translate(-521.418 -419.373)" fill="#8fb1ff"/>
      <path id="_Path_14" data-name="&lt;Path&gt;" d="M1767.786,393.9l-22.886,8.425,19.968,15.788Z" transform="translate(-578.225 -233.782)" fill="red"/>
      <path id="_Path_15" data-name="&lt;Path&gt;" d="M1619.442,435.088c-3.217,36.253-29.984,70.052-62.489,88.858L1527.3,500.5c12.438-39.139,35.59-67.133,72.175-81.2Z" transform="translate(-432.799 -250.757)" fill="#b2caff"/>
      <path id="_Path_16" data-name="&lt;Path&gt;" d="M1501.436,664.1l-12.836,8.889,36.751,29.122,5.738-14.561Z" transform="translate(-406.936 -414.361)" fill="#0a58ca"/>
      <g id="_Group_3" data-name="&lt;Group&gt;" transform="translate(1144.319 186.138)">
        <path id="_Path_17" data-name="&lt;Path&gt;" d="M1702.042,494.653a13.753,13.753,0,1,1-2.255-19.337A13.794,13.794,0,0,1,1702.042,494.653Z" transform="translate(-1677.496 -472.346)" fill="#fff"/>
        <path id="_Compound_Path_6" data-name="&lt;Compound Path&gt;" d="M1700.313,503.7l-.1-.829a9.426,9.426,0,0,0,2.322-.531l.3.763A9.618,9.618,0,0,1,1700.313,503.7Zm-2.587-.066a9.323,9.323,0,0,1-2.488-.73l.332-.763a9.133,9.133,0,0,0,2.289.7Zm7.363-1.791-.5-.7a8.88,8.88,0,0,0,1.725-1.625l.63.5A9.679,9.679,0,0,1,1705.089,501.845Zm-12.04-.332a10.725,10.725,0,0,1-1.791-1.891l.7-.5a9.056,9.056,0,0,0,1.625,1.758Zm14.926-3.052-.763-.4a8.519,8.519,0,0,0,.829-2.222l.8.166A9,9,0,0,1,1707.975,498.462Zm-17.911-1.161a9.267,9.267,0,0,1-.564-2.521l.829-.066a9.358,9.358,0,0,0,.5,2.322Zm18.176-3.848a9.255,9.255,0,0,0-.431-2.322l.8-.265a9.618,9.618,0,0,1,.464,2.554Zm-17.811-1.128-.8-.166a8.5,8.5,0,0,1,.8-2.454l.73.365A9.978,9.978,0,0,0,1690.429,492.326Zm16.352-3.35a8.9,8.9,0,0,0-1.559-1.791l.564-.63a9.614,9.614,0,0,1,1.692,1.99Zm-14.329-.929-.63-.531a9.436,9.436,0,0,1,1.924-1.725l.464.663A10.9,10.9,0,0,0,1692.452,488.047Zm10.813-2.222a10.032,10.032,0,0,0-2.255-.763l.166-.8a8.934,8.934,0,0,1,2.454.829Zm-6.932-.431-.265-.8a9.441,9.441,0,0,1,2.521-.5l.066.829a8.33,8.33,0,0,0-2.322.464Z" transform="translate(-1685.519 -480.201)" fill="red"/>
      </g>
    </g>
    <path id="_Path_18" data-name="&lt;Path&gt;" d="M621.348,991.52a39.263,39.263,0,0,0-14.428-20.763L604.1,968.7l2.388,49.189,18.375-14.229Z" transform="translate(184.19 -617.93)" fill="#0a58ca"/>
    <path id="_Path_19" data-name="&lt;Path&gt;" d="M685.232,1121.4l-4.08-7.994a8.215,8.215,0,0,0-5.075-4.146l-12.007-3.317-30.913-19.735-3.483-12.106L611.3,1088.329l.166,3.45a18.172,18.172,0,0,0,10.946,15.788l30.017,12.936,14.262.332c4.577,1.592,6.169,5.539,9.022,4.113,1.061-.531-3.085-7.363-3.085-7.363l6.9,7.6Z" transform="translate(179.378 -688.37)" fill="#ffb797"/>
    <path id="_Path_20" data-name="&lt;Path&gt;" d="M672.1,1272.5l22.488-1.99c14.627-1.294,27.364,10.548,28.094,26.07l5.075,110.716-31.012.962Z" transform="translate(138.745 -819.566)" fill="#e11212"/>
    <path id="_Path_21" data-name="&lt;Path&gt;" d="M753.9,1676.618l.962,30.581H800.8l-22.654-18.84-1.426-14.76Z" transform="translate(84.076 -1089.026)"/>
    <path id="_Path_22" data-name="&lt;Path&gt;" d="M722.4,1676.618l.929,30.581H769.3l-22.654-18.84-1.426-14.76Z" transform="translate(105.128 -1089.026)" fill="#2c3e50"/>
    <path id="_Path_23" data-name="&lt;Path&gt;" d="M543.51,1383.372H505.466l-27.1-83.418-3.814-11.675-54.2-.232a14.951,14.951,0,0,1-9.254-3.881,22,22,0,0,1-7.363-19.968l4.743-33.9,80.533,10.448a36.144,36.144,0,0,1,30.714,28.492Z" transform="translate(318.249 -792.761)" fill="red"/>
    <path id="_Path_24" data-name="&lt;Path&gt;" d="M628.878,1405.1l-7.363,11.675L617.7,1405.1Z" transform="translate(175.101 -909.583)" fill="#e11212"/>
    <path id="_Path_25" data-name="&lt;Path&gt;" d="M460.575,1043.585q-.6,2.355-1.227,4.71l-2.852,11.642-37.547-1.559-27.032-1.128A11.62,11.62,0,0,1,381,1043.286l12.6-60.665a23.059,23.059,0,0,1,20.4-19.337l30.847-3.184,9.984,2.852c9.751,5.241,9.751,14.727,10.216,20.929,2.056,27.165-.464,43.616-4.478,59.7Z" transform="translate(333.453 -612.182)" fill="#0a58ca"/>
    <path id="_Path_26" data-name="&lt;Path&gt;" d="M466.073,1121.96c-.365,1.559,24.677,5.075,24.246,6.667l-2.852,11.642-37.547-1.559c-13.1-9.884-18.044-31.444-22.82-58.41Z" transform="translate(302.482 -692.514)" fill="#1b1b43" opacity="0.3"/>
    <path id="_Path_27" data-name="&lt;Path&gt;" d="M758.658,1233.465H723.3V1226.5h35.358Z" transform="translate(104.527 -790.222)" fill="red"/>
    <path id="_Path_28" data-name="&lt;Path&gt;" d="M467.247,800.771c-8.325-8.193-24.014-4.743-23.749,9.055-17.115,4.511-18.077,23.284-11.178,32.9l5.937.464,1.294-7,3.45,7.131,16.651,1.061Z" transform="translate(301.673 -502.771)"/>
    <path id="_Path_29" data-name="&lt;Path&gt;" d="M538.745,902.1v26.866a8.8,8.8,0,0,1-10.979,7.828A17.652,17.652,0,0,1,514.5,919.547l.133-17.447Z" transform="translate(244.073 -573.42)" fill="#ffb797"/>
    <path id="_Path_30" data-name="&lt;Path&gt;" d="M552.474,861.118a50.147,50.147,0,0,1-1.493,6.236c-2.09,6.667-5.838,12.173-12.571,11.211-15.821-2.255-24.611-18.541-24.611-18.541l10.813-12.372,7.264-9.752,21.725,9.387A80.819,80.819,0,0,1,552.474,861.118Z" transform="translate(244.539 -530.514)" fill="#ffb797"/>
    <path id="_Path_31" data-name="&lt;Path&gt;" d="M506.238,832.187c6.932-.2,12.305-3.748,14.594-13.765,0,0,16.153,13.931,24.08,6.5,6.634-6.236-4.61-20.6-23.251-22.322a26.571,26.571,0,0,0-18.873,5.771c-9.022,7.231-9.884,24.08-1.459,29.885Z" transform="translate(256.778 -506.856)"/>
    <path id="_Path_32" data-name="&lt;Path&gt;" d="M503.013,816.018a7.539,7.539,0,0,1,.63-5.008,10.946,10.946,0,0,1,3.25-4.013,11.662,11.662,0,0,1,4.677-2.189,8.6,8.6,0,0,1,5.009.4,30.724,30.724,0,0,0-4.312,1.725,26.891,26.891,0,0,0-3.615,2.322,20.174,20.174,0,0,0-3.118,2.952,18.562,18.562,0,0,0-2.521,3.814Z" transform="translate(251.876 -508.268)" fill="red"/>
    <path id="_Path_33" data-name="&lt;Path&gt;" d="M515.444,880.5c1.327,3.35.166,6.965-2.587,8.093-2.786,1.095-6.1-.73-7.463-4.08-1.327-3.35-.166-6.965,2.587-8.06C510.767,875.359,514.084,877.15,515.444,880.5Z" transform="translate(250.524 -556.065)" fill="#ffb797"/>
    <path id="_Path_34" data-name="&lt;Path&gt;" d="M517.824,893.435a8.088,8.088,0,0,0-.232-3.251,9.249,9.249,0,0,0-1.692-2.819l.232-.265a4.7,4.7,0,0,1,2.355,2.786,4.78,4.78,0,0,1-.332,3.649Z" transform="translate(243.136 -563.395)"/>
    <path id="_Path_35" data-name="&lt;Path&gt;" d="M593.517,892.058a1.712,1.712,0,0,1-1.625,1.791,1.781,1.781,0,1,1,1.625-1.791Z" transform="translate(193.413 -565.534)"/>
    <path id="_Path_36" data-name="&lt;Path&gt;" d="M619.628,896.337A1.511,1.511,0,0,1,618,897.73a1.527,1.527,0,0,1-1.227-1.758,1.511,1.511,0,0,1,1.625-1.393A1.533,1.533,0,0,1,619.628,896.337Z" transform="translate(175.727 -568.387)"/>
    <path id="_Path_37" data-name="&lt;Path&gt;" d="M586.533,879.772c.066.829-1.26.9-3.217.962s-3.317.663-3.317.133c-.033-.531,1.426-1.857,3.35-2.189,1.99-.332,3.118.1,3.184,1.095Z" transform="translate(200.298 -557.693)"/>
    <path id="_Path_38" data-name="&lt;Path&gt;" d="M618.564,882.555c-.166.829.829,1.028,2.255,1.294,1.459.232,2.388.962,2.454.464a3.45,3.45,0,0,0-2.222-2.521C619.592,881.261,618.729,881.593,618.564,882.555Z" transform="translate(174.536 -559.679)"/>
    <path id="_Path_39" data-name="&lt;Path&gt;" d="M610.9,904.3a14.706,14.706,0,0,0,1.227,1.26l.63.6a3.047,3.047,0,0,1,.663.763,1.2,1.2,0,0,1,.232.63,1.51,1.51,0,0,1-.166.663,2.379,2.379,0,0,1-.763.763,4.714,4.714,0,0,1-1.791.663l-.133-.365a11.889,11.889,0,0,0,1.426-.962,2.025,2.025,0,0,0,.431-.531c.066-.166.066-.2-.033-.4-.2-.332-.763-.8-1.095-1.294a4.625,4.625,0,0,1-.929-1.625Z" transform="translate(179.846 -574.89)"/>
    <path id="_Path_40" data-name="&lt;Path&gt;" d="M586.632,922a12.585,12.585,0,0,0,3.184,2.786,6.974,6.974,0,0,0,4.047.7l.1.332a4.887,4.887,0,0,1-2.289.464,6.077,6.077,0,0,1-2.289-.663A7.469,7.469,0,0,1,586.3,922.2Z" transform="translate(196.087 -586.719)"/>
    <path id="_Path_41" data-name="&lt;Path&gt;" d="M449.754,1047.8,427.1,1058.58l7.1,16.85,23.782-10.979Z" transform="translate(302.482 -670.794)" fill="#0a58ca"/>
    <path id="_Path_42" data-name="&lt;Path&gt;" d="M746.428,1221.962c-.63-.3-1.028-.5-1.028-.5l.232-.464s.431.2,1.028.531Z" transform="translate(89.757 -786.546)" fill="#c5c5ff"/>
    <path id="_Path_43" data-name="&lt;Path&gt;" d="M557.392,1142.114c-.73,1.459-6.335-1.128-8.955-2.388,2.023,1.128,5.539,3.317,3.98,4.544-1.26.929-4.013-1.095-13.035-4.843,1.36.63,9.42,4.478,7.4,5.937-2.222,1.592-11.708-1.89-11.708-1.89l-8.259,4.411h-9.519l-34.2.232a25.318,25.318,0,0,1-6.335-.8,28.63,28.63,0,0,1-16.418-11.675,33.792,33.792,0,0,1-2.819-5.307l-9.022-21.36L472.282,1098l12.372,25.175,40.9,8.889,11.41-2.852c2.454-.63,5.937.4,8.093,1.725C550.294,1134.154,558.088,1140.721,557.392,1142.114Z" transform="translate(288.18 -704.343)" fill="#ffb797"/>
    <path id="_Path_44" data-name="&lt;Path&gt;" d="M456.56,1540.934H455.3V1433.8h1.26Z" transform="translate(283.636 -928.764)" fill="#2c3e50"/>
    <path id="_Path_45" data-name="&lt;Path&gt;" d="M411.965,1418.427h-59.9a7.363,7.363,0,1,1,0-14.727h59.9a7.363,7.363,0,1,1,0,14.727Z" transform="translate(357.551 -908.647)" fill="#ddd"/>
    <path id="_Path_46" data-name="&lt;Path&gt;" d="M431.683,1753.005H381.3v-1.227a11.077,11.077,0,0,1,11.078-11.078H420.6a11.1,11.1,0,0,1,11.078,11.078Z" transform="translate(333.091 -1133.87)" fill="#ddd"/>
    <g id="_Group_4" data-name="&lt;Group&gt;" transform="translate(810.977 449.778)">
      <path id="_Path_47" data-name="&lt;Path&gt;" d="M778.672,1436.16,672.5,1267.863l1.061-.663,106.172,168.3Z" transform="translate(-672.5 -1267.2)" fill="#2c3e50"/>
      <path id="_Path_48" data-name="&lt;Path&gt;" d="M673.561,1436.16l-1.061-.663,106.172-168.3,1.061.663Z" transform="translate(-672.5 -1267.2)" fill="#2c3e50"/>
    </g>
    <path id="_Path_49" data-name="&lt;Path&gt;" d="M739.741,1261.53H553.7V1247.5H739.741Z" transform="translate(217.874 -804.256)" fill="#ddd"/>
    <path id="_Compound_Path_7" data-name="&lt;Compound Path&gt;" d="M522.373,416.447a38.873,38.873,0,1,1,38.906-38.873A38.928,38.928,0,0,1,522.373,416.447Zm0-76.917a38.044,38.044,0,1,0,38.077,38.044A38.085,38.085,0,0,0,522.373,339.529Z" transform="translate(264.789 -196.891)" fill="red" fill-rule="evenodd"/>
    <path id="_Path_50" data-name="&lt;Path&gt;" d="M637.079,324.723A42.29,42.29,0,1,1,594.79,282.4,42.3,42.3,0,0,1,637.079,324.723Z" transform="translate(218.675 -159.264)" fill="#fee2e2"/>
    <path id="_Path_51" data-name="&lt;Path&gt;" d="M632.75,373.37,609.3,355l.8-1,22.654,17.745,12.6-10.68.829.962Z" transform="translate(180.715 -207.116)" fill="red"/>
    <path id="_Path_52" data-name="&lt;Path&gt;" d="M871.214,1121.723H800.2l32.671-62.423h70.98Z" transform="translate(53.134 -678.479)" fill="#fee2e2"/>
  </g>
</svg>
